<?xml version="1.0" standalone="no"?>
<!DOCTYPE svg PUBLIC "-//W3C//DTD SVG 1.1//EN" "http://www.w3.org/Graphics/SVG/1.1/DTD/svg11.dtd" >
<svg xmlns="http://www.w3.org/2000/svg">
<metadata>
This is a custom SVG webfont generated by Font Squirrel.
Designer    : Dave Crossland
Foundry URL : http://abattis.org
</metadata>
<defs>
<font id="webfontMf0MTdAH" horiz-adv-x="1341" >
<font-face units-per-em="2048" ascent="1514" descent="-534" />
<missing-glyph horiz-adv-x="560" />
<glyph unicode=" "  horiz-adv-x="560" />
<glyph unicode="&#x09;" horiz-adv-x="560" />
<glyph unicode="&#xa0;" horiz-adv-x="560" />
<glyph unicode="!" horiz-adv-x="650" d="M184 241h282v-282h-282v282zM199 1462h252v-1045h-252v1045z" />
<glyph unicode="&#x22;" horiz-adv-x="795" d="M69 1552h267v-510h-267v510zM459 1552h267v-510h-267v510z" />
<glyph unicode="#" horiz-adv-x="1402" d="M322 1462h242v-391h276v391h242v-391h316v-232h-316v-270h316v-232h-316v-408h-242v408h-276v-408h-242v408h-316v232h316v270h-318v232h318v391zM564 839v-270h276v270h-276z" />
<glyph unicode="$" horiz-adv-x="1364" d="M523 968q0 -25 35.5 -45.5t92.5 -36.5l126 -36q69 -18 137.5 -44t125.5 -59.5t92.5 -86t35.5 -117.5q0 -47 -15 -92.5t-50.5 -92t-105 -83t-165.5 -52.5v-288h-249v277q-151 8 -319 73l-37 14l75 191l39 -15q92 -37 155 -50.5t138 -13.5q147 0 208.5 28t61.5 86 q-2 26 -38.5 46t-93.5 35l-125 33q-68 17 -135.5 41.5t-123.5 57.5t-91 87t-35 123q0 42 16 84t50 84.5t100 77.5t155 52v265h249v-248q79 -2 128.5 -10.5t123.5 -28.5l41 -11l-68 -192l-38 9q-130 34 -253 34q-119 0 -181 -30t-62 -66z" />
<glyph unicode="%" horiz-adv-x="1493" d="M411 1227q-96 0 -96 -133q0 -153 97 -153q98 0 98 148q0 138 -99 138zM412 1404q40 0 78 -7.5t78.5 -29.5t70.5 -55.5t49.5 -90t19.5 -129.5q0 -148 -84.5 -237.5t-212.5 -89.5q-55 0 -102.5 17t-87.5 53.5t-63 102.5t-23 155q0 148 81 229.5t196 81.5zM1136 486 q-98 0 -98 -133q0 -153 99 -153q97 0 97 148q0 138 -98 138zM1137 664q40 0 76.5 -8t74 -30t64.5 -56.5t44.5 -90.5t17.5 -128q0 -149 -78 -237.5t-200 -88.5q-58 0 -108 17t-93.5 53t-68.5 102t-25 155q0 147 87.5 229.5t208.5 82.5zM1190 1421h271l-1104 -1421h-272z" />
<glyph unicode="&#x26;" horiz-adv-x="1589" d="M1081 1175q0 -43 -11 -84t-37 -80t-47.5 -66.5t-64.5 -66l-63 -55.5l-70 -55l288 -307l322 352l150 -152l-322 -359l322 -343h-315l-178 184q-48 -46 -92 -80t-109.5 -72t-146.5 -58.5t-171 -20.5q-184 0 -290.5 105t-106.5 265q0 72 22.5 141t52.5 118t77 99t78 76.5 t73 58.5q-86 89 -133.5 168t-47.5 180q0 158 129.5 258t316.5 100q167 0 270.5 -87t103.5 -219zM690 1256q-75 0 -127.5 -43.5t-52.5 -98.5q0 -14 2.5 -26.5t10.5 -27t14 -24t21 -26.5l22 -24q8 -9 29 -30l30 -30q118 90 145 118q49 50 49 99q0 44 -38.5 78.5t-104.5 34.5z M597 616q-42 -33 -66 -53.5t-55 -52t-47.5 -57t-28.5 -58.5t-12 -68q0 -77 58 -131.5t147 -54.5q84 0 158.5 43.5t150.5 115.5z" />
<glyph unicode="'" horiz-adv-x="405" d="M69 1552h267v-510h-267v510z" />
<glyph unicode="(" horiz-adv-x="742" d="M515 1602l204 -107l-22 -37q-113 -188 -187 -414t-74 -470q0 -242 74.5 -467.5t186.5 -409.5l21 -34l-198 -128l-22 36q-58 95 -108.5 198t-101 234.5t-80 280.5t-29.5 292q0 141 29 288t79 277t100 231.5t108 196.5z" />
<glyph unicode=")" horiz-adv-x="742" d="M563 576q0 -144 -30 -294.5t-81 -282.5t-101 -233.5t-107 -194.5l-22 -36l-198 128l21 34q112 184 186.5 409.5t74.5 467.5q0 243 -74.5 469.5t-186.5 414.5l-22 37l204 107l20 -33q58 -95 108 -196.5t100 -231.5t79 -277t29 -288z" />
<glyph unicode="*" horiz-adv-x="1196" d="M470 1462h256l-15 -281l234 154l128 -223l-250 -125l250 -127l-128 -223l-234 154l15 -280h-256l15 280l-234 -154l-128 223l251 127l-251 125l128 223l234 -154z" />
<glyph unicode="+" horiz-adv-x="1400" d="M585 1274h230v-506h501v-220h-501v-506h-230v506h-501v220h501v506z" />
<glyph unicode="," horiz-adv-x="570" d="M172 211h269l-191 -472h-269z" />
<glyph unicode="-" horiz-adv-x="1210" d="M134 769h942v-221h-942v221z" />
<glyph unicode="." horiz-adv-x="570" d="M139 251h292v-292h-292v292z" />
<glyph unicode="/" horiz-adv-x="726" d="M506 1462h257l-523 -1593h-257z" />
<glyph unicode="0" horiz-adv-x="1464" d="M731 1205q-48 0 -95.5 -14t-98 -48.5t-88.5 -87t-62.5 -137t-24.5 -190.5q0 -115 24.5 -207t63 -148.5t89.5 -94t99 -52t96 -14.5q47 0 95 14.5t98 51.5t88 92.5t62.5 146t24.5 204.5q0 108 -24.5 194t-63 139t-89 88t-98.5 49t-96 14zM731 1440q84 0 166.5 -20.5 t166.5 -73t146.5 -131t102.5 -205t40 -285.5q0 -166 -39.5 -298t-101.5 -214t-146 -136t-165.5 -75.5t-166.5 -21.5q-59 0 -118 11t-121.5 37t-117.5 65t-104.5 99t-85 135t-56 177.5t-20.5 222.5q0 114 20.5 212t56 170t85 129.5t104 94.5t116.5 61.5t120.5 35t117.5 10.5z " />
<glyph unicode="1" horiz-adv-x="1464" d="M665 1421h288v-1190h344v-231h-992v231h359v942l-317 -108l-97 207z" />
<glyph unicode="2" horiz-adv-x="1464" d="M236 131q40 117 105.5 219t137 173t149.5 132.5t147 107t125 86t89 80t33 78.5q0 78 -93.5 136.5t-228.5 58.5q-164 0 -397 -80l-38 -13l-77 206l36 16q235 100 513 100q250 0 397 -108.5t147 -272.5q0 -71 -28.5 -133t-78 -112t-110.5 -97l-132 -98q-71 -50 -137 -102.5 t-129.5 -124.5t-105.5 -151h747v-232h-1071v131z" />
<glyph unicode="3" horiz-adv-x="1464" d="M238 1332q87 43 206.5 74.5t251.5 31.5q229 0 371.5 -100t142.5 -258q0 -92 -42 -170.5t-116 -128.5q113 -49 166.5 -135.5t53.5 -195.5q0 -223 -176.5 -359t-469.5 -136q-221 0 -414 80l-36 15l73 211l37 -10q212 -56 342 -56q161 0 274.5 62.5t113.5 161.5q0 30 -11 58 t-43 59t-82.5 54t-138.5 38t-202 15h-47v228h47q93 0 166.5 12t117.5 30.5t72.5 43.5t39 48t10.5 47q0 65 -76 107.5t-198 42.5q-162 0 -342 -79l-39 -18l-86 210z" />
<glyph unicode="4" horiz-adv-x="1546" d="M755 1421h341v-886h248v-232h-248v-303h-246v303h-730v158zM819 535v574l-382 -574h382z" />
<glyph unicode="5" horiz-adv-x="1464" d="M243 1421h1020v-232h-765v-260q102 8 185 8q124 0 224.5 -21t166.5 -58t114 -82.5t73.5 -99.5t37 -103t11.5 -99q0 -45 -8.5 -89.5t-30 -94t-55.5 -93.5t-89.5 -84.5t-126 -69t-170 -46t-218.5 -17.5q-208 0 -398 36l-41 8l49 232l40 -9q148 -31 335 -31q106 0 188.5 16 t130.5 41t79 58.5t42 64t11 62.5q0 31 -11 61.5t-41 64.5t-76.5 59.5t-124 42.5t-176.5 17q-122 0 -330 -24l-46 -5v747z" />
<glyph unicode="6" horiz-adv-x="1464" d="M1027 1432q57 0 130 -7l40 -4l-19 -230l-42 4q-52 6 -104 6q-114 0 -205 -17t-151 -45t-104.5 -68.5t-69 -81.5t-40.5 -91q134 75 308 75q236 0 378.5 -131.5t142.5 -340.5q0 -107 -40 -202.5t-112.5 -167.5t-182 -114t-241.5 -42q-54 0 -104 7t-106 25t-103 47t-91 77 t-74.5 109.5t-49 149.5t-18.5 194q0 193 45.5 341.5t123 243t189 155t233.5 84.5t267 24zM725 751q-130 0 -218.5 -72t-88.5 -184q0 -115 92.5 -206.5t226.5 -91.5q125 0 216.5 85t91.5 202q0 120 -95 193.5t-225 73.5z" />
<glyph unicode="7" horiz-adv-x="1464" d="M131 1421h1202v-149l-761 -1272h-290l724 1179h-875v242z" />
<glyph unicode="8" horiz-adv-x="1464" d="M724 1215q-100 0 -166.5 -48.5t-66.5 -110.5q0 -34 20 -63t46.5 -48.5t70.5 -38t75.5 -28.5t76.5 -22q108 61 152.5 101.5t44.5 89.5q0 80 -73 124t-180 44zM1055 438q0 59 -27.5 106t-80 80.5t-111.5 56.5t-138 43q-135 -38 -213 -115.5t-78 -162.5q0 -94 93 -164 t247 -70q141 0 224.5 65.5t83.5 160.5zM724 1440q256 0 383 -97t127 -270q0 -82 -41.5 -149t-123.5 -130q124 -67 184.5 -162t60.5 -207q0 -85 -37 -163.5t-106.5 -142t-182 -101.5t-250.5 -38q-255 0 -421.5 119.5t-166.5 307.5q0 111 66 212.5t177 168.5q-91 62 -127 140 t-36 149q0 155 132 259t362 104z" />
<glyph unicode="9" horiz-adv-x="1464" d="M750 1441q54 0 103.5 -7t105 -25t102.5 -47.5t91 -77.5t74.5 -110t48.5 -150.5t18 -195.5q0 -138 -23.5 -253t-65.5 -201t-104 -153t-134 -111t-160 -72.5t-178.5 -40.5t-192.5 -12q-67 0 -130 6l-40 4l19 230l42 -4q42 -5 105 -5q123 0 218 19.5t154.5 49.5t101 77 t62 92t33.5 103q-136 -74 -306 -74q-232 0 -377.5 128.5t-145.5 327.5q0 102 42 193.5t116 159.5t183.5 108.5t237.5 40.5zM725 1219q-121 0 -214.5 -82t-93.5 -182q0 -104 96 -177t224 -73q127 0 217 70.5t90 168.5q0 100 -95.5 187.5t-223.5 87.5z" />
<glyph unicode=":" horiz-adv-x="570" d="M139 1034h292v-292h-292v292zM139 251h292v-292h-292v292z" />
<glyph unicode=";" horiz-adv-x="570" d="M139 1034h292v-292h-292v292zM172 211h269l-191 -472h-269z" />
<glyph unicode="&#x3c;" horiz-adv-x="1073" d="M1014 1194v-246l-647 -326l647 -311v-256l-955 452v217z" />
<glyph unicode="=" horiz-adv-x="1400" d="M179 542h1042v-232h-1042v232zM179 995h1042v-232h-1042v232z" />
<glyph unicode="&#x3e;" horiz-adv-x="1073" d="M59 1194l955 -470v-217l-955 -452v256l647 311l-647 326v246z" />
<glyph unicode="?" horiz-adv-x="1046" d="M270 241h282v-282h-282v282zM917 1097q0 -86 -21 -154.5t-54.5 -113t-73.5 -81.5l-82 -72q-40 -34 -73.5 -71t-54.5 -91t-21 -122v-41h-252v41q0 90 21 163t55 121.5t75 89t82.5 73t75.5 64.5t55 74t21 92q0 24 -5.5 46t-23.5 48t-47 45t-80 32t-118 13q-55 0 -120.5 -13 t-107.5 -31l-38 -16l-83 196l35 17q145 72 341 72q230 0 362 -97t132 -284z" />
<glyph unicode="@" horiz-adv-x="2100" d="M1276 959l18 50h183v-757q0 -103 17 -147t71 -44q18 0 40 11t49 42t48.5 78.5t36.5 130.5t15 187q0 119 -17.5 215.5t-62.5 186.5t-117.5 151t-188 97.5t-268.5 36.5q-119 0 -219.5 -26.5t-172 -71.5t-128 -107.5t-91.5 -129.5t-58 -143.5t-32 -144.5t-9 -136 q0 -132 34.5 -244t94 -191.5t139.5 -136t171 -83.5t188 -27q146 0 274 63l36 17l101 -190l-37 -19q-183 -95 -399 -95q-66 0 -134.5 9t-154.5 34.5t-162.5 65.5t-151.5 108.5t-129 156.5t-87 216.5t-33 281.5q0 107 13.5 207.5t47 205.5t84.5 195t130.5 170t181 136.5 t241 89t304.5 32.5q153 0 278.5 -29t213.5 -77.5t155 -120t107 -148.5t65 -171.5t34 -180.5t9 -183q0 -119 -17.5 -218.5t-46 -169t-68 -123.5t-81 -86t-87.5 -53t-84 -28.5t-75 -7.5q-87 0 -157.5 41.5t-108.5 113.5q-121 -60 -250 -60q-204 0 -336.5 140t-132.5 373 q0 243 136.5 397t357.5 154q112 0 222 -44zM1077 799q-127 0 -205 -85t-78 -239q0 -155 81 -240t207 -85q80 0 158 36v581q-86 32 -163 32z" />
<glyph unicode="A" horiz-adv-x="1547" d="M693 1421h276l562 -1421h-259l-159 372h-580l-159 -372h-244zM1025 603l-202 527l-203 -527h405z" />
<glyph unicode="B" horiz-adv-x="1588" d="M775 1209h-233v-394q217 5 303 20q208 38 222 173q1 11 1 22q0 32 -11 59.5t-39.5 56.5t-90.5 46t-152 17zM791 655q-8 0 -249 -11v-412h224q40 0 68.5 0.5t78.5 4.5t86 11.5t79 22.5t69.5 36t45 53.5t18.5 73.5q0 103 -113.5 162t-306.5 59zM290 1421h542 q91 0 166.5 -14t127.5 -36.5t92.5 -54t64 -64t38.5 -69t20 -66t5 -58.5q0 -68 -37 -138t-93 -118q112 -46 179.5 -143.5t67.5 -213.5q0 -33 -6.5 -67.5t-25.5 -79.5t-49.5 -85.5t-82.5 -80.5t-120 -68.5t-167.5 -46.5t-218.5 -18h-503v1421z" />
<glyph unicode="C" horiz-adv-x="1615" d="M1085 1431q224 0 425 -79l37 -15l-79 -216l-38 13q-194 65 -351 65q-124 0 -229.5 -40.5t-175 -108.5t-108 -156t-38.5 -184q0 -99 41.5 -188.5t116 -157t187.5 -107t247 -39.5q164 0 328 58l37 13l82 -200l-37 -16q-217 -93 -458 -93q-187 0 -339.5 57t-251.5 156.5 t-152.5 231.5t-53.5 284q0 154 55 286t157 229t256 152t342 55z" />
<glyph unicode="D" horiz-adv-x="1770" d="M809 1189h-259v-957h183q69 0 114 2t118 14t124.5 33.5t107 65t92.5 105.5q68 114 68 267q0 88 -24.5 162t-65 124.5t-95 88.5t-110.5 59t-115 29q-50 7 -138 7zM802 1421q134 0 247 -21t195 -57t146 -87t105 -109t67.5 -126t37 -133.5t10.5 -135.5q0 -92 -15 -177.5 t-53 -174t-97.5 -159t-155 -127t-218.5 -83.5q-63 -14 -140 -21.5t-126.5 -8.5t-138.5 -1h-368v1421h504z" />
<glyph unicode="E" horiz-adv-x="1447" d="M290 0v1421h997v-232h-744v-341h689v-232h-689v-384h744v-232h-997z" />
<glyph unicode="F" horiz-adv-x="1412" d="M543 1189v-341h674v-232h-674v-616h-253v1421h987v-232h-734z" />
<glyph unicode="G" horiz-adv-x="1755" d="M1605 206q-207 -226 -592 -226q-164 0 -299.5 42.5t-226.5 113t-153.5 165.5t-90.5 197.5t-28 210.5q0 113 31 218t96.5 197t158 160.5t223.5 108t286 39.5q283 0 509 -126l35 -20l-105 -198l-36 19q-71 36 -178 64.5t-215 28.5q-106 0 -205 -33t-176.5 -93t-124 -152.5 t-46.5 -202.5q0 -145 76 -261t210.5 -180.5t302.5 -64.5q184 0 301 83v273h-445v222h692v-585z" />
<glyph unicode="H" horiz-adv-x="1764" d="M1302 1421h252v-1421h-252v617h-760v-617h-252v1421h252v-572h760v572z" />
<glyph unicode="I" horiz-adv-x="812" d="M320 1421h252v-1421h-252v1421z" />
<glyph unicode="J" horiz-adv-x="1117" d="M662 1421h252v-910q0 -54 -4.5 -100t-19 -101.5t-38.5 -100t-67 -88.5t-100.5 -73t-142 -47t-188.5 -18q-107 0 -206 25l-38 10l42 222l42 -10q63 -15 132 -15q66 0 119.5 12.5t88 31t60 46.5t38 53t20 57.5t9 52.5t1.5 45v908z" />
<glyph unicode="K" horiz-adv-x="1581" d="M542 770l648 651h323l-683 -680l719 -741h-327l-680 688v-688h-252v1421h252v-651z" />
<glyph unicode="L" horiz-adv-x="1297" d="M290 1421h252v-1190h720v-231h-972v1421z" />
<glyph unicode="M" horiz-adv-x="2048" d="M290 1421h306l472 -816l479 816h291v-1421h-252v1063l-404 -656h-238l-402 656v-1063h-252v1421z" />
<glyph unicode="N" horiz-adv-x="1823" d="M290 1421h278l793 -1092v1092h252v-1421h-281l-790 1094v-1094h-252v1421z" />
<glyph unicode="O" horiz-adv-x="1850" d="M966 1436q217 0 386 -85t266 -247.5t97 -377.5q0 -218 -95 -386.5t-267 -261.5t-395 -93q-147 0 -279 45.5t-236.5 133t-166 227.5t-61.5 316q0 219 96 385.5t266 255t389 88.5zM956 1205q-72 0 -140 -17.5t-130.5 -55t-109.5 -92.5t-75 -135.5t-28 -177.5 q0 -231 143 -371t357 -140q89 0 172.5 29t154.5 86t114 155t43 223q0 102 -30 186.5t-79.5 140.5t-115 95t-135 56.5t-141.5 17.5z" />
<glyph unicode="P" horiz-adv-x="1503" d="M290 1421h510q44 0 75 -0.5t82.5 -4.5t89 -11.5t86 -21.5t83 -33.5t71 -50.5t58.5 -69.5t36.5 -91.5t14.5 -117q0 -90 -23.5 -162t-61 -121t-96 -84.5t-118 -55.5t-138.5 -31.5t-144.5 -15t-149.5 -3.5q-41 0 -123 4v-552h-252v1421zM542 1189v-405q78 -5 141 -5 q68 0 117.5 2.5t106 9.5t95 22t71.5 38t49.5 59t16.5 84q0 43 -14 75.5t-42.5 53t-62 34.5t-81 20.5t-90.5 9t-100 2.5h-207z" />
<glyph unicode="Q" horiz-adv-x="1870" d="M966 1436q341 0 545 -198t204 -529q0 -273 -137 -461l184 -173l-147 -148l-200 182q-191 -124 -447 -124q-160 0 -297.5 49t-239 139t-159 227t-57.5 305q0 221 95.5 387.5t265.5 255t390 88.5zM951 1205q-69 0 -135.5 -17t-129 -54.5t-109.5 -92t-75.5 -137 t-28.5 -181.5q0 -122 42 -219.5t113.5 -159.5t164.5 -95t197 -33q130 0 236 53l-334 269l177 155l322 -271q62 106 62 265q0 119 -33.5 212t-85 149t-120.5 93t-133 50.5t-130 13.5z" />
<glyph unicode="R" horiz-adv-x="1601" d="M1391 1014q0 -68 -16.5 -129.5t-52 -118.5t-97 -102t-145.5 -70l429 -594h-328l-398 551h-241v-551h-252v1421h605q45 0 82.5 -2.5t91 -12t95 -25.5t86 -47t74 -72.5t48.5 -105t19 -142.5zM542 1190v-407h232q60 0 106 4t95 16.5t80.5 34.5t52 61t20.5 92q0 199 -307 199 h-279z" />
<glyph unicode="S" horiz-adv-x="1525" d="M927 1434q199 0 393 -59l41 -12l-82 -232l-38 11q-181 50 -330 50q-147 0 -251.5 -48t-104.5 -123q0 -49 46.5 -86t120.5 -62.5t163.5 -50.5t179.5 -58t164 -76t120.5 -114.5t46.5 -164.5q0 -60 -20.5 -118.5t-69 -115.5t-120 -99.5t-182 -69t-247.5 -26.5t-247 25.5 t-233 73.5l-37 14l85 242l39 -15q253 -90 417 -90q154 0 249.5 47t95.5 124q0 43 -29 77t-78 57.5t-112.5 43.5t-133.5 39t-140 41t-133.5 53t-112.5 70t-78 97.5t-29 130.5q0 180 176.5 302t470.5 122z" />
<glyph unicode="T" horiz-adv-x="1374" d="M85 1421h1284v-232h-516v-1189h-252v1189h-516v232z" />
<glyph unicode="U" horiz-adv-x="1737" d="M909 -20q-566 0 -614 396q-5 43 -5 109v13v923h252v-901q0 -75 14.5 -125.5t58.5 -92.5q97 -93 294 -93q141 0 234 50t119 141q13 44 13 120v901h250q0 -312 0.5 -510.5t0.5 -254t0.5 -89.5t0.5 -56q0 -47 -2.5 -84.5t-16 -95.5t-37 -102.5t-70 -93.5t-110 -81 t-161.5 -53t-221 -21z" />
<glyph unicode="V" horiz-adv-x="1565" d="M140 1421h289l418 -1150l417 1150h274l-550 -1421h-299z" />
<glyph unicode="W" horiz-adv-x="2411" d="M140 1421h266l327 -1092l411 1092h232l338 -1092l400 1092h266l-545 -1421h-241l-342 1087l-402 -1087h-241z" />
<glyph unicode="X" horiz-adv-x="1532" d="M1225 1421h295l-500 -677l555 -744h-319l-418 566l-418 -566h-310l563 741l-501 680h304l381 -502z" />
<glyph unicode="Y" horiz-adv-x="1427" d="M100 1421h298l380 -551l388 551h288l-545 -757v-664h-283v664z" />
<glyph unicode="Z" horiz-adv-x="1522" d="M185 1421h1250v-153l-918 -1036h945v-232h-1307v155l897 1034h-867v232z" />
<glyph unicode="[" horiz-adv-x="788" d="M209 1552h540v-231h-294v-1541h294v-231h-540v2003z" />
<glyph unicode="\" horiz-adv-x="726" d="M-37 1462h257l523 -1593h-257z" />
<glyph unicode="]" horiz-adv-x="778" d="M39 1552h540v-2003h-540v231h294v1541h-294v231z" />
<glyph unicode="^" horiz-adv-x="1479" d="M726 1601l312 -348l-152 -145l-174 194l-178 -193l-150 135z" />
<glyph unicode="_" horiz-adv-x="1160" d="M109 191h942v-232h-942v232z" />
<glyph unicode="`" horiz-adv-x="1122" d="M331 1643l574 -353l-104 -178l-583 336z" />
<glyph unicode="a" horiz-adv-x="1233" d="M597 1007q108 0 189.5 -19.5t131.5 -51.5t81 -80t42.5 -97.5t11.5 -110.5v-648h-184l-28 65q-133 -85 -303 -85q-185 0 -300 87t-115 206q0 74 37.5 129t98.5 88t153 54t184.5 29t209.5 9v34q0 38 -6.5 63t-28.5 53t-73.5 42.5t-131.5 14.5q-112 0 -297 -44l-40 -11 l-51 197l35 12q185 64 384 64zM806 255v141h-24q-202 0 -300.5 -24t-98.5 -81q0 -36 60 -68t147 -32q123 0 216 64z" />
<glyph unicode="b" horiz-adv-x="1347" d="M190 1511h246v-547q129 44 263 44q76 0 146.5 -14.5t139.5 -51.5t119.5 -92.5t82 -144t31.5 -200.5q0 -246 -149 -385.5t-404 -139.5q-151 0 -279 52l-14 -32h-182v1511zM633 790q-99 0 -197 -33v-537q101 -29 201 -29q46 0 89 7t89.5 26.5t81 50.5t57 83.5t22.5 120.5 q0 75 -23 133t-58 90.5t-83 53.5t-90.5 27.5t-88.5 6.5z" />
<glyph unicode="c" horiz-adv-x="1165" d="M130 473q0 117 32 209.5t86.5 152t130 99t158 56t176.5 16.5q169 0 312 -62l35 -15l-65 -195l-39 13q-103 36 -218 36q-75 0 -136.5 -13t-115.5 -42.5t-84.5 -86.5t-30.5 -137q0 -307 389 -307q97 0 184 31l39 13l67 -189l-37 -14q-150 -58 -323 -58q-89 0 -166.5 14 t-151.5 49.5t-126.5 90t-84 141.5t-31.5 198z" />
<glyph unicode="d" horiz-adv-x="1352" d="M130 478q0 254 150.5 392t402.5 138q117 0 233 -34v537h246v-1511h-182l-20 46q-145 -66 -310 -66q-78 0 -150 15.5t-140.5 52.5t-118.5 92.5t-80.5 142.5t-30.5 195zM713 197q104 0 203 35v535q-106 30 -205 30q-45 0 -87 -6.5t-89.5 -26t-82 -50.5t-57.5 -86t-23 -126 q0 -72 22.5 -128t57.5 -88.5t82.5 -53.5t90.5 -28t88 -7z" />
<glyph unicode="e" horiz-adv-x="1266" d="M702 1007q86 0 154.5 -18.5t113 -47t77 -74t49.5 -87t26.5 -99.5t11.5 -98t2 -95v-112h-743q21 -74 119 -128.5t258 -54.5q113 0 230 34l41 12l49 -190l-36 -12q-167 -57 -356 -57q-132 0 -234 29t-163.5 75t-101 111t-54.5 130t-15 139q0 110 31.5 201.5t86 154 t128 105.5t155.5 62.5t171 19.5zM661 783q-115 0 -184 -57.5t-82 -143.5h499q-8 108 -68 154.5t-165 46.5z" />
<glyph unicode="f" horiz-adv-x="984" d="M298 1047q0 33 0.5 53t4.5 55t11.5 58t22 54.5t35 52t52.5 43t73 36t97 22t124 8.5q125 0 262 -41l36 -11l-41 -200l-42 10q-95 23 -148 23q-123 0 -182 -41t-59 -115v-66h395v-211h-395v-777h-246v777h-163v211h163v59z" />
<glyph unicode="g" horiz-adv-x="1340" d="M679 1008q130 0 281 -63l15 43h185v-1009q0 -53 -7 -102.5t-25 -102.5t-46 -98t-72.5 -86t-102.5 -69.5t-138.5 -45t-177.5 -16.5q-190 0 -362 67l-37 16l75 194l41 -15q131 -43 258 -43q88 0 152.5 20.5t101.5 52t59 78.5t28.5 90.5t6.5 96.5v9q-126 -45 -253 -45 q-80 0 -154 16.5t-144 55.5t-121.5 96.5t-82.5 145.5t-31 197q0 113 36.5 204t94 148t132.5 95.5t146.5 54t141.5 15.5zM691 793q-140 0 -224.5 -77.5t-84.5 -207.5q0 -136 86 -223.5t246 -87.5q100 0 200 36v522q-130 38 -223 38z" />
<glyph unicode="h" d="M696 778q-115 0 -260 -55v-723h-246v1511h246v-574q180 69 335 69q78 0 140 -17.5t102 -43.5t69 -66.5t44 -77t23.5 -85.5t10 -80.5t1.5 -73.5v-562h-244v577q0 201 -221 201z" />
<glyph unicode="i" horiz-adv-x="606" d="M180 988h246v-988h-246v988zM165 1421h276v-271h-276v271z" />
<glyph unicode="j" horiz-adv-x="606" d="M194 988h246v-1084q0 -34 -1 -59t-7.5 -64.5t-17.5 -70t-32.5 -67.5t-51.5 -66.5t-76.5 -58.5t-104.5 -50l-34 -12l-97 194l38 18q138 65 138 219v1101zM179 1421h276v-271h-276v271z" />
<glyph unicode="k" horiz-adv-x="1237" d="M426 591l474 417h297l-510 -452l525 -556h-302l-484 492v-492h-246v1511h246v-920z" />
<glyph unicode="l" horiz-adv-x="646" d="M200 1511h246v-1511h-246v1511z" />
<glyph unicode="m" horiz-adv-x="1980" d="M660 774q-86 0 -234 -54v-720h-246v988h183l28 -65q177 84 349 84t269 -99q186 98 397 98q92 0 162 -22t112.5 -59t69 -92.5t36.5 -114t10 -132.5v-586h-246v583q0 94 -49.5 142.5t-159.5 48.5q-93 0 -240 -54q9 -52 9 -141v-579h-246v587q0 187 -204 187z" />
<glyph unicode="n" horiz-adv-x="1326" d="M180 988h172l34 -68q206 88 383 88q96 0 166 -26t110 -65t63.5 -98.5t30.5 -113.5t7 -122v-583h-246v580q0 28 -2.5 48.5t-14.5 51t-33 50t-63.5 34t-100.5 14.5q-117 0 -260 -55v-723h-246v988z" />
<glyph unicode="o" horiz-adv-x="1375" d="M694 1007q248 0 399.5 -130.5t151.5 -364.5q0 -246 -154.5 -389t-415.5 -143q-248 0 -396.5 134.5t-148.5 369.5q0 241 151.5 382t412.5 141zM678 785q-77 0 -145 -29t-114.5 -94t-46.5 -153q0 -130 90 -218.5t234 -88.5q131 0 219 77t88 204q0 73 -29 132.5t-76 95.5 t-104 55t-116 19z" />
<glyph unicode="p" d="M699 1007q75 0 145 -15t138 -51.5t118 -92t81 -144t31 -200.5q0 -245 -148 -384.5t-399 -139.5q-117 0 -229 34v-545h-256v1519h182l23 -47q153 66 314 66zM634 789q-99 0 -198 -35v-533q104 -30 201 -30q45 0 87 7t88 26.5t80 50.5t56 83.5t22 120.5q0 75 -22.5 132.5 t-56.5 90t-81 53.5t-89 27.5t-87 6.5z" />
<glyph unicode="q" horiz-adv-x="1330" d="M668 1008q130 0 289 -63l18 43h175v-1519h-246v557q-131 -46 -262 -46q-77 0 -148 15.5t-138.5 52.5t-117 93.5t-80 145.5t-30.5 201q0 127 44.5 228.5t120 164t171.5 95t204 32.5zM680 793q-141 0 -225.5 -77.5t-84.5 -212.5q0 -72 22.5 -128t56.5 -88.5t80.5 -53.5 t89 -28t87.5 -7q99 0 198 35v522q-132 38 -224 38z" />
<glyph unicode="r" horiz-adv-x="947" d="M373 935q156 72 333 72q113 0 206 -43l35 -16l-78 -205l-39 15q-70 27 -152 27q-131 0 -252 -47v-738h-246v988h164z" />
<glyph unicode="s" horiz-adv-x="1180" d="M807 295q-2 25 -38.5 44t-93.5 34t-125 31t-135.5 39.5t-123.5 55t-91 83t-35 117.5q0 39 14.5 78.5t52.5 82t96 74.5t155 52.5t219 20.5q72 0 130 -7.5t82 -13.5t73 -21l41 -12l-68 -202l-38 10q-130 36 -253 36q-62 0 -109 -8.5t-71.5 -20t-39.5 -27t-19 -26t-4 -19.5 q0 -23 35.5 -42t92.5 -34l126 -34q68 -17 137 -42t126 -57t92.5 -82t35.5 -112q0 -43 -12.5 -83t-48 -83t-91.5 -74.5t-151 -52t-218 -20.5q-192 0 -383 78l-37 15l74 200l38 -15q179 -67 317 -67q128 0 188 25.5t60 78.5z" />
<glyph unicode="t" horiz-adv-x="939" d="M838 18q-147 -38 -246 -38q-95 0 -163.5 19t-107.5 48.5t-61.5 76t-29.5 90.5t-7 103v460h-153v211h153v283h246v-283h363v-211h-363v-443q0 -25 8.5 -48t27.5 -46t57 -36.5t90 -13.5q27 0 146 20l39 7l39 -189z" />
<glyph unicode="u" d="M915 988h246v-988h-183l-29 67q-201 -87 -387 -87q-97 0 -168 25.5t-111.5 65t-64.5 98.5t-31 113t-7 122v584h246v-582q0 -26 2.5 -46t14.5 -50.5t34 -50.5t66 -35t104 -15q120 0 268 55v724z" />
<glyph unicode="v" horiz-adv-x="1157" d="M1126 988l-389 -988h-265l-407 988h284l262 -728l257 728h258z" />
<glyph unicode="w" horiz-adv-x="1931" d="M60 988h263l237 -733l307 733h221l234 -735l320 735h264l-473 -988h-224l-233 710l-312 -710h-224z" />
<glyph unicode="x" horiz-adv-x="1220" d="M65 988h291l299 -361l288 361h277l-408 -503l388 -485h-291l-285 340l-271 -340h-276l392 486z" />
<glyph unicode="y" horiz-adv-x="1224" d="M50 988h282l325 -759l296 759h259l-642 -1519h-300l244 523z" />
<glyph unicode="z" horiz-adv-x="1242" d="M150 988h917v-127l-565 -650h590v-211h-942v127l557 650h-557v211z" />
<glyph unicode="{" horiz-adv-x="828" d="M292 921q4 30 8.5 91.5t5.5 71.5q10 111 46 197t79.5 134t99.5 80t97 43t81 14l35 3l48 -208l-45 -6q-48 -7 -89.5 -34.5t-67.5 -66.5q-30 -46 -43.5 -118t-18 -145.5t-14.5 -149.5t-45 -150t-98 -128q63 -54 98.5 -128.5t45.5 -150.5t14.5 -149t17.5 -144.5t43 -117.5 q26 -39 67.5 -66.5t89.5 -34.5l45 -6l-48 -208l-35 3q-36 3 -75.5 13t-95.5 41t-101 77.5t-82.5 131t-48.5 192.5q-2 22 -6 83.5t-8.5 93t-16.5 78.5t-35.5 81.5t-59.5 60.5q-44 32 -97 41l-34 5v208l34 5q80 13 136.5 77t72.5 186z" />
<glyph unicode="|" horiz-adv-x="884" d="M319 1642h246v-1991h-246v1991z" />
<glyph unicode="}" horiz-adv-x="828" d="M522 1084q1 -10 5.5 -71.5t8.5 -91.5q15 -122 72 -186t137 -77l34 -5v-208l-34 -5q-53 -9 -97 -41q-36 -26 -59.5 -60.5t-35.5 -81.5t-16.5 -78.5t-8.5 -93t-6 -83.5q-11 -108 -48.5 -192.5t-82.5 -131t-101 -77.5t-95.5 -41t-75.5 -13l-35 -3l-48 208l45 6 q48 7 89.5 34.5t67.5 66.5q30 46 43 117.5t17.5 144.5t14.5 149t45.5 150.5t98.5 128.5q-63 54 -98 128t-45 150t-14.5 149.5t-18 145.5t-43.5 118q-26 39 -67.5 66.5t-89.5 34.5l-45 6l48 208l35 -3q33 -3 66.5 -11.5t78.5 -27t85 -53.5t76.5 -83.5t62 -124t34.5 -168.5z " />
<glyph unicode="~" horiz-adv-x="1400" d="M876 1401q22 0 34 35t23 98q2 13 3 19l7 39l190 -30l-9 -42q-2 -8 -8 -40t-9.5 -47t-11.5 -46t-17 -49l-21 -42q-13 -26 -29.5 -40.5t-37.5 -29.5t-48.5 -21.5t-59.5 -6.5q-63 3 -119.5 32t-89 62.5t-63 61t-46.5 27.5q-12 0 -21.5 -11.5t-16 -33t-11 -42t-9.5 -48.5 q-1 -8 -2 -12l-7 -39l-190 26l9 43q2 9 7 36t8 41t10 41.5t13 43.5t17 40t22.5 38.5t28.5 31.5t36.5 26t45 15.5t54.5 6.5q63 -3 119.5 -32t89.5 -62.5t63 -61t46 -27.5z" />
<glyph unicode="&#xa1;" horiz-adv-x="650" d="M199 904h252v-1355h-252v1355zM184 1362h282v-282h-282v282z" />
<glyph unicode="&#xa2;" horiz-adv-x="1021" d="M502 1270v282h203v-272q99 -9 217 -59l35 -15l-65 -195l-39 13q-103 36 -204 36q-149 0 -224 -80.5t-75 -232.5q0 -70 13.5 -125.5t38 -92.5t54.5 -63t67.5 -39.5t72.5 -19.5t73 -6q85 0 172 31l39 13l67 -189l-37 -14q-114 -44 -205 -52v-296h-203v300q-84 15 -153.5 53 t-124 100t-85 155.5t-30.5 210.5q0 222 102 369.5t291 187.5z" />
<glyph unicode="&#xa3;" horiz-adv-x="1300" d="M355 176v445h-176v217h176v100q0 121 31.5 215.5t82.5 153t121.5 97t141.5 53.5t150 15q120 0 247 -40l42 -13l-77 -197l-36 9q-87 23 -154 23q-74 0 -128.5 -18t-87.5 -48t-53 -75.5t-27 -93t-7 -108.5v-73h530v-217h-530v-445h588v-217h-1078v217h244z" />
<glyph unicode="&#xa4;" horiz-adv-x="1300" d="M816 1090l173 173l183 -183l-174 -173q38 -79 38 -165q0 -89 -37 -166l172 -172l-183 -183l-172 172q-79 -38 -167 -38q-90 0 -165 37l-173 -173l-183 183l173 173q-38 79 -38 166q0 88 38 167l-174 174l183 183l175 -175q79 38 165 38q87 0 166 -38zM650 905 q-65 0 -112 -47.5t-47 -116.5q0 -68 46 -115.5t112 -47.5q65 0 112 48t47 115q0 69 -46.5 116.5t-111.5 47.5z" />
<glyph unicode="&#xa5;" horiz-adv-x="1300" d="M72 1462h281l298 -558l307 558h271l-427 -722h251v-207h-289v-118h289v-207h-289v-249h-242v249h-275v207h275v118h-275v207h238z" />
<glyph unicode="&#xa6;" horiz-adv-x="884" d="M319 501h246v-850h-246v850zM319 1642h246v-846h-246v846z" />
<glyph unicode="&#xa7;" horiz-adv-x="1136" d="M933 1430l42 -11l-72 -210l-38 12q-118 37 -239 37q-93 0 -152 -30.5t-59 -79.5q0 -27 26 -50.5t68 -39.5l96 -36q54 -20 110.5 -38.5t110.5 -46.5t96 -61t68 -83t26 -111q0 -116 -68 -205q67 -72 67 -171q0 -40 -9.5 -79t-30 -81.5t-59 -78.5t-90.5 -65.5t-129.5 -46 t-172.5 -16.5h-13q-192 0 -366 68l-37 15l74 199l38 -13q164 -58 290 -58q235 0 235 136q0 29 -25.5 51.5t-67 37.5t-94.5 32.5t-108.5 34t-108.5 44t-94.5 61t-67 86.5t-25.5 119q0 103 71 190q-71 75 -71 185q0 45 14.5 90t51 92.5t91 83.5t143 59t197.5 23q34 0 66 -2.5 t52 -4.5t49 -8l40 -9q9 -2 40 -11t35 -10zM434 823q-19 -23 -19 -52q0 -19 14 -36.5t34 -30.5t54.5 -27t63.5 -24l75 -25l74 -25q15 24 15 59q0 24 -16 43.5t-51.5 35.5t-67 26.5t-87.5 27.5t-89 28z" />
<glyph unicode="&#xa8;" horiz-adv-x="1200" d="M242 1462h267v-268h-267v268zM691 1462h267v-268h-267v268z" />
<glyph unicode="&#xa9;" horiz-adv-x="1760" d="M1124 1049l34 -15l-56 -161l-39 13q-72 26 -144 26q-203 0 -203 -218q0 -237 216 -237q61 0 124 22l38 13l57 -158l-37 -14q-107 -42 -219 -42q-54 0 -104.5 11.5t-101 40t-87.5 72t-60 113.5t-23 158q0 114 34.5 199t92 132t123 69.5t137.5 22.5q111 0 218 -47z M880 1207q-147 0 -271 -72t-194.5 -192.5t-70.5 -259.5t70.5 -259.5t194.5 -192.5t271 -72t271 72t194.5 192.5t70.5 259.5t-70.5 259.5t-194.5 192.5t-271 72zM1631 683q0 -118 -37 -229.5t-106 -202.5t-161 -160.5t-207.5 -107.5t-239.5 -38q-206 0 -379.5 101 t-272.5 270.5t-99 366.5q0 145 57.5 280t156.5 236t239.5 161.5t297.5 60.5q155 0 294.5 -59.5t239.5 -159.5t158.5 -236t58.5 -283z" />
<glyph unicode="&#xaa;" horiz-adv-x="766" d="M498 994h-3q-102 0 -150 -17.5t-48 -59.5q0 -25 26 -47.5t71 -22.5q60 0 104 63v84zM498 1127q0 107 -117 107q-80 0 -163 -26l-25 -8l-30 119l21 7q104 38 208 38q50 0 90 -9t66 -22.5t45 -35t29 -40.5t15.5 -44.5t7 -43t1.5 -38.5v-396h-112l-14 36q-66 -54 -141 -54 q-101 0 -165 52.5t-64 145.5q0 51 15.5 88t42.5 60.5t71.5 37.5t96 19.5t122.5 6.5z" />
<glyph unicode="&#xab;" horiz-adv-x="1078" d="M780 1029h288l-305 -406l305 -406h-288l-284 406zM309 1029h288l-305 -406l305 -406h-288l-284 406z" />
<glyph unicode="&#xac;" horiz-adv-x="1400" d="M84 773h1232v-532h-230v301h-1002v231z" />
<glyph unicode="&#xad;" horiz-adv-x="1074" d="M179 769h716v-221h-716v221z" />
<glyph unicode="&#xae;" horiz-adv-x="1232" d="M616 1215h-71v-129q29 0 41.5 -0.5t24.5 -0.5q56 0 79 14.5t23 47.5q0 38 -23 53t-74 15zM649 1345q58 0 99.5 -16t63 -44.5t30.5 -59.5t9 -67q0 -124 -96 -173l117 -230q63 54 98.5 129t35.5 159q0 155 -113.5 268.5t-276.5 113.5q-162 0 -276 -113t-114 -269 q0 -155 113.5 -268.5t276.5 -113.5q143 0 251 90h-150l-101 208h-71v-208h-143v594h247zM1167 1043q0 -148 -74.5 -273t-201.5 -197.5t-275 -72.5q-113 0 -216 44t-176 117t-116 173t-43 209q0 148 74.5 273t201.5 197.5t275 72.5t275 -72.5t201.5 -197.5t74.5 -273z" />
<glyph unicode="&#xaf;" horiz-adv-x="1400" d="M244 1681h912v-231h-912v231z" />
<glyph unicode="&#xb0;" horiz-adv-x="589" d="M295 1327q-38 0 -63.5 -27t-25.5 -65t25 -65.5t64 -27.5q36 0 61 28t25 65t-25 64.5t-61 27.5zM555 1235q0 -110 -76.5 -188t-183.5 -78t-184 78t-77 188q0 109 76.5 187t183.5 78t184 -77.5t77 -187.5z" />
<glyph unicode="&#xb1;" horiz-adv-x="1400" d="M179 328h1042v-219h-1042v219zM586 1462h228v-412h407v-219h-407v-411h-228v411h-407v219h407v412z" />
<glyph unicode="&#xb2;" horiz-adv-x="800" d="M122 827q26 84 72 157.5t92.5 120.5t89.5 85t70 68t27 53q0 31 -33.5 58t-85.5 27q-56 0 -178 -49l-23 -9l-55 135l21 10q130 66 251 66q115 0 193 -62.5t78 -161.5q0 -53 -23 -99t-61 -83.5t-78.5 -73t-84 -83.5t-69.5 -98h329v-155h-532v94z" />
<glyph unicode="&#xb3;" horiz-adv-x="800" d="M359 1546q107 0 180.5 -58.5t73.5 -149.5q0 -92 -64 -154q95 -59 95 -179q0 -124 -90 -202t-227 -78q-98 0 -211 46l-22 9l48 140l23 -6q108 -30 165 -30q60 0 104 29.5t44 74.5q0 32 -17 53t-48 31t-62.5 13.5t-73.5 3.5h-25v153h25q171 0 171 82q0 25 -25.5 45 t-74.5 20q-64 0 -160 -44l-23 -11l-58 140l21 11q129 61 231 61z" />
<glyph unicode="&#xb4;" horiz-adv-x="1122" d="M793 1642l111 -195l-583 -336l-102 178z" />
<glyph unicode="&#xb5;" horiz-adv-x="1187" d="M149 1029h246v-599q0 -277 202 -277q75 0 205 62v814h246v-1070h-183l-21 49q-139 -76 -274 -76q-93 0 -175 43v-426h-246v1480z" />
<glyph unicode="&#xb6;" horiz-adv-x="1326" d="M601 1552h576v-1593h-246v1361h-158v-1361h-247v687q-61 5 -118 21t-116.5 52.5t-103 89t-71.5 136.5t-28 188q0 66 13 122t33 96t52 72.5t63.5 53t73 35.5t74.5 22.5t75.5 11.5t68 5t59.5 1z" />
<glyph unicode="&#xb7;" horiz-adv-x="590" d="M149 879h292v-292h-292v292z" />
<glyph unicode="&#xb8;" horiz-adv-x="1101" d="M618 -361q32 0 45.5 11.5t13.5 25.5q0 21 -29 34.5t-114 38.5l-57 17l-38 11l77 286h211l-43 -170q175 -57 175 -207q0 -87 -67 -155.5t-178 -68.5q-18 0 -39 2.5t-35.5 5t-42 9.5t-38 10t-44.5 13.5t-41 12.5l-39 11l49 170l40 -12q148 -45 194 -45z" />
<glyph unicode="&#xb9;" horiz-adv-x="543" d="M248 1536h120v-801h-163v635l-138 -39l-37 146z" />
<glyph unicode="&#xba;" horiz-adv-x="762" d="M380 1391q-30 0 -57 -9.5t-55.5 -33.5t-45 -75t-16.5 -124q0 -83 17 -140t45.5 -84t55.5 -37.5t58 -10.5q24 0 45.5 5.5t46 22.5t42 45t29 77.5t11.5 114.5q0 77 -17 130t-45.5 77t-55.5 33t-58 9zM720 1145q0 -192 -96.5 -305t-243.5 -113q-53 0 -100 12.5t-91.5 43 t-76.5 77.5t-51 120t-19 166q0 97 29 174.5t77.5 125.5t108.5 73t125 25q45 0 87.5 -9t89.5 -36t81.5 -69.5t57 -116t22.5 -168.5z" />
<glyph unicode="&#xbb;" horiz-adv-x="1078" d="M10 1029h288l284 -406l-284 -406h-288l305 406zM481 1029h288l284 -406l-284 -406h-288l305 406z" />
<glyph unicode="&#xbc;" horiz-adv-x="1800" d="M1166 1446h232l-849 -1471h-233zM338 1446h140v-853h-183v665l-133 -37l-42 166zM1378 861h195v-531h107v-160h-107v-195h-183v195h-390v122zM1390 601l-171 -271h171v271z" />
<glyph unicode="&#xbd;" horiz-adv-x="1897" d="M1166 1446h232l-849 -1471h-233zM338 1446h140v-863h-183v675l-133 -37l-42 166zM1181 76q24 78 64 147.5t82 117t86 90.5t78 71.5t55.5 56t21.5 49.5q0 35 -38 65t-96 30q-62 0 -195 -53l-23 -9l-60 144l21 11q149 71 275 71q125 0 210.5 -67.5t85.5 -175.5 q0 -58 -25.5 -108.5t-67.5 -92t-87 -81t-93.5 -92.5t-76.5 -109h364v-166h-581v101z" />
<glyph unicode="&#xbe;" horiz-adv-x="1950" d="M1326 1446h232l-849 -1471h-233zM1528 861h195v-531h107v-160h-107v-195h-183v195h-390v122zM1540 601l-171 -271h171v271zM452 1475q117 0 196.5 -64t79.5 -163q0 -101 -72 -170q107 -65 107 -196q0 -136 -99 -221t-248 -85q-104 0 -231 51l-22 9l52 150l23 -6 q125 -34 182 -34q68 0 116.5 32.5t48.5 83.5q0 58 -53 86.5t-171 28.5h-25v163h25q50 0 90 7.5t70.5 29t30.5 56.5q0 28 -28.5 51t-83.5 23q-70 0 -176 -49l-24 -11l-63 150l21 10q138 68 254 68z" />
<glyph unicode="&#xbf;" horiz-adv-x="1047" d="M313 1029h252v-41q0 -96 21 -170t54.5 -119.5t74 -82t81 -69.5t74 -71t54.5 -97.5t21 -137.5q0 -89 -43.5 -170t-110.5 -135t-146.5 -86t-153.5 -32q-107 0 -194.5 22.5t-186.5 69.5l-35 17l83 195l37 -15q162 -66 270 -66q112 0 172.5 54.5t60.5 129.5q0 47 -21 84 t-55 66t-75.5 60.5t-82.5 77t-75 104.5t-55 154.5t-21 216.5v41zM298 1462h282v-283h-282v283z" />
<glyph unicode="&#xc0;" horiz-adv-x="1547" d="M693 1421h276l562 -1421h-259l-159 372h-580l-159 -372h-244zM1025 603l-202 527l-203 -527h405zM589 1945l632 -353l-113 -178l-641 336z" />
<glyph unicode="&#xc1;" horiz-adv-x="1547" d="M693 1421h276l562 -1421h-259l-159 372h-580l-159 -372h-244zM1025 603l-202 527l-203 -527h405zM1070 1945l123 -195l-642 -336l-112 178z" />
<glyph unicode="&#xc2;" horiz-adv-x="1547" d="M693 1421h276l562 -1421h-259l-159 372h-580l-159 -372h-244zM1025 603l-202 527l-203 -527h405zM854 1943l343 -348l-167 -145l-192 194l-196 -191l-165 133z" />
<glyph unicode="&#xc3;" horiz-adv-x="1547" d="M693 1421h276l562 -1421h-259l-159 372h-580l-159 -372h-244zM1025 603l-202 527l-203 -527h405zM1100 1884l205 -30l-9 -42q-2 -8 -5 -26l-11 -54q-4 -20 -14.5 -55.5t-21.5 -57t-31 -48.5t-44 -42t-59 -26t-77 -11q-69 3 -131.5 32t-98.5 62l-69 60q-33 28 -51 28 q-33 0 -53 -83l-14 -66l-8 -38l-208 26l9 43q2 8 7.5 36t8.5 41.5t11 41t15 43.5t19 40t25 38.5t31.5 31.5t40 26t49.5 15.5t60 6.5q56 -2 107.5 -21.5t87 -46t65 -52t52.5 -43.5t38 -18q6 0 11.5 2.5t10.5 7.5t8.5 11t7 16t6 18t5.5 22l5 22l6 25l5 26z" />
<glyph unicode="&#xc4;" horiz-adv-x="1547" d="M693 1421h276l562 -1421h-259l-159 372h-580l-159 -372h-244zM1025 603l-202 527l-203 -527h405zM439 1897h294v-267h-294v267zM932 1897h294v-267h-294v267z" />
<glyph unicode="&#xc5;" horiz-adv-x="1547" d="M833 1873q137 0 237 -86t100 -210q0 -76 -44 -140t-118 -102l523 -1335h-259l-159 372h-580l-159 -372h-244l525 1337q-72 38 -114.5 101.5t-42.5 138.5q0 123 99 209.5t236 86.5zM835 1687q-55 0 -91 -32.5t-36 -77.5t35 -78.5t92 -33.5q52 0 87 33.5t35 78.5 q0 44 -34.5 77t-87.5 33zM1025 603l-202 527l-203 -527h405z" />
<glyph unicode="&#xc6;" horiz-adv-x="2079" d="M905 1189l-258 -586h380v586h-122zM740 1421h1198v-232h-643v-341h588v-232h-588v-384h643v-232h-911v373h-476l-171 -373h-250z" />
<glyph unicode="&#xc7;" horiz-adv-x="1615" d="M983 -317q22 0 36 6t18 12.5t4 12.5q0 19 -42.5 35t-147.5 43q-24 6 -37 9l-43 11l60 197q-266 64 -411 254.5t-145 446.5q0 153 56 285.5t159 229t257 151.5t340 55q222 0 423 -79l37 -15l-79 -216l-38 13q-193 65 -348 65q-123 0 -227.5 -40.5t-173.5 -108.5 t-107.5 -156t-38.5 -184q0 -99 41 -188.5t115.5 -157t186 -107t244.5 -39.5q162 0 326 58l37 13l82 -200l-37 -16q-211 -91 -451 -93l-12 -46q32 -10 59.5 -23.5t59.5 -37.5t51 -62t19 -86q0 -93 -78.5 -162t-200.5 -69q-45 0 -89.5 8.5t-186.5 46.5l-43 11l59 183l43 -12 q173 -48 223 -48z" />
<glyph unicode="&#xc8;" horiz-adv-x="1447" d="M290 0v1421h997v-232h-744v-341h689v-232h-689v-384h744v-232h-997zM506 1965l656 -353l-104 -178l-665 336z" />
<glyph unicode="&#xc9;" horiz-adv-x="1447" d="M290 0v1421h997v-232h-744v-341h689v-232h-689v-384h744v-232h-997zM1090 1965l111 -195l-665 -336l-102 178z" />
<glyph unicode="&#xca;" horiz-adv-x="1447" d="M290 0v1421h997v-232h-744v-341h689v-232h-689v-384h744v-232h-997zM806 1951l350 -349l-161 -144l-207 194l-212 -191l-156 133z" />
<glyph unicode="&#xcb;" horiz-adv-x="1447" d="M290 0v1421h997v-232h-744v-341h689v-232h-689v-384h744v-232h-997zM390 1898h290v-267h-290v267zM897 1898h290v-267h-290v267z" />
<glyph unicode="&#xcc;" horiz-adv-x="812" d="M335 1421h252v-1421h-252v1421zM249 1943l574 -353l-104 -176l-583 334z" />
<glyph unicode="&#xcd;" horiz-adv-x="894" d="M416 1421h252v-1421h-252v1421zM783 1946l111 -195l-665 -337l-102 179z" />
<glyph unicode="&#xce;" horiz-adv-x="812" d="M338 1421h252v-1421h-252v1421zM482 1943l312 -349l-154 -144l-173 194l-177 -191l-150 133z" />
<glyph unicode="&#xcf;" horiz-adv-x="752" d="M290 1421h252v-1421h-252v1421zM88 1824h267v-267h-267v267zM477 1824h267v-267h-267v267z" />
<glyph unicode="&#xd0;" horiz-adv-x="1769" d="M335 1421h476q45 0 87 -2t107.5 -9.5t122.5 -20.5t125 -38t123 -58.5t108.5 -85t90 -114.5t58.5 -150.5t22 -190.5q0 -752 -908 -752h-412v617h-218v232h218v572zM824 1189h-237v-340h261v-232h-261v-385h166q65 0 116.5 3t122 14t124 30.5t109.5 56.5t92.5 87t60 125.5 t23.5 170.5q0 65 -14 125.5t-54 125t-102 111.5t-167 77.5t-240 30.5z" />
<glyph unicode="&#xd1;" horiz-adv-x="1823" d="M290 1421h278l793 -1092v1092h252v-1421h-281l-790 1094v-1094h-252v1421zM1230 1884l205 -30l-9 -42q-2 -8 -5 -26l-11 -54q-4 -20 -14.5 -55.5t-21.5 -57t-31 -48.5t-44 -42t-59 -26t-77 -11q-69 3 -131.5 32t-98.5 62l-69 60q-33 28 -51 28q-33 0 -53 -83l-14 -66 l-8 -38l-208 26l9 43q2 8 7.5 36t8.5 41.5t11 41t15 43.5t19 40t25 38.5t31.5 31.5t40 26t49.5 15.5t60 6.5q56 -2 107.5 -21.5t87 -46t65 -52t52.5 -43.5t38 -18q6 0 11.5 2.5t10.5 7.5t8.5 11t7 16t6 18t5.5 22l5 22l6 25l5 26z" />
<glyph unicode="&#xd2;" horiz-adv-x="1850" d="M966 1436q217 0 386 -85t266 -247.5t97 -377.5q0 -218 -95 -386.5t-267 -261.5t-395 -93q-147 0 -279 45.5t-236.5 133t-166 227.5t-61.5 316q0 219 96 385.5t266 255t389 88.5zM1457 709q0 126 -45 224.5t-119 156t-160.5 86.5t-179.5 29q-70 0 -137 -17t-129.5 -55 t-109.5 -92.5t-75.5 -135.5t-28.5 -178q0 -231 143 -371t357 -140q89 0 172.5 29t154.5 86t114 155t43 223zM790 1948l625 -353l-113 -178l-634 336z" />
<glyph unicode="&#xd3;" horiz-adv-x="1850" d="M966 1436q217 0 386 -85t266 -247.5t97 -377.5q0 -218 -95 -386.5t-267 -261.5t-395 -93q-147 0 -279 45.5t-236.5 133t-166 227.5t-61.5 316q0 219 96 385.5t266 255t389 88.5zM1457 709q0 126 -45 224.5t-119 156t-160.5 86.5t-179.5 29q-70 0 -137 -17t-129.5 -55 t-109.5 -92.5t-75.5 -135.5t-28.5 -178q0 -231 143 -371t357 -140q89 0 172.5 29t154.5 86t114 155t43 223zM1225 1946l121 -195l-635 -337l-111 179z" />
<glyph unicode="&#xd4;" horiz-adv-x="1850" d="M966 1436q217 0 386 -85t266 -247.5t97 -377.5q0 -218 -95 -386.5t-267 -261.5t-395 -93q-147 0 -279 45.5t-236.5 133t-166 227.5t-61.5 316q0 219 96 385.5t266 255t389 88.5zM1457 709q0 126 -45 224.5t-119 156t-160.5 86.5t-179.5 29q-70 0 -137 -17t-129.5 -55 t-109.5 -92.5t-75.5 -135.5t-28.5 -178q0 -231 143 -371t357 -140q89 0 172.5 29t154.5 86t114 155t43 223zM998 1943l339 -348l-166 -145l-189 194l-194 -191l-163 133z" />
<glyph unicode="&#xd5;" horiz-adv-x="1850" d="M1242 1884l205 -30l-9 -42q-2 -8 -5 -26l-11 -54q-4 -20 -14.5 -55.5t-21.5 -57t-31 -48.5t-44 -42t-59 -26t-77 -11q-69 3 -131.5 32t-98.5 62l-69 60q-33 28 -51 28q-33 0 -53 -83l-14 -66l-8 -38l-208 26l9 43q2 8 7.5 36t8.5 41.5t11 41t15 43.5t19 40t25 38.5 t31.5 31.5t40 26t49.5 15.5t60 6.5q56 -2 107.5 -21.5t87 -46t65 -52t52.5 -43.5t38 -18q6 0 11.5 2.5t10.5 7.5t8.5 11t7 16t6 18t5.5 22l5 22l6 25l5 26zM1457 709q0 101 -29.5 185.5t-78.5 141t-115 95.5t-136.5 56.5t-144.5 17.5q-70 0 -137 -17t-129.5 -55 t-109.5 -92.5t-75.5 -135.5t-28.5 -178q0 -231 143 -371t357 -140q89 0 172.5 29t154.5 86t114 155t43 223zM966 1436q217 0 386 -85t266 -247.5t97 -377.5q0 -218 -95 -386.5t-267 -261.5t-395 -93q-147 0 -279 45.5t-236.5 133t-166 227.5t-61.5 316q0 219 96 385.5 t266 255t389 88.5z" />
<glyph unicode="&#xd6;" horiz-adv-x="1850" d="M966 1436q217 0 386 -85t266 -247.5t97 -377.5q0 -218 -95 -386.5t-267 -261.5t-395 -93q-147 0 -279 45.5t-236.5 133t-166 227.5t-61.5 316q0 219 96 385.5t266 255t389 88.5zM1457 709q0 126 -45 224.5t-119 156t-160.5 86.5t-179.5 29q-70 0 -137 -17t-129.5 -55 t-109.5 -92.5t-75.5 -135.5t-28.5 -178q0 -231 143 -371t357 -140q89 0 172.5 29t154.5 86t114 155t43 223zM586 1898h291v-267h-291v267zM1075 1898h291v-267h-291v267z" />
<glyph unicode="&#xd7;" horiz-adv-x="1463" d="M346 165l-164 163l371 326l-363 317l163 163l403 -332l394 326l163 -164l-369 -325l362 -318l-163 -163l-403 332z" />
<glyph unicode="&#xd8;" horiz-adv-x="1920" d="M976 1205q-72 0 -140 -17.5t-130.5 -55t-109.5 -92.5t-75 -135.5t-28 -177.5q0 -150 64 -266l752 632q-140 112 -333 112zM1696 1417l108 -128l-185 -155q116 -172 116 -408q0 -218 -95 -386.5t-267 -261.5t-395 -93q-147 0 -280.5 45t-234.5 133l-196 -164l-108 129 l193 161q-117 175 -117 418q0 219 96 385.5t266 255t389 88.5q317 0 522 -177zM1417 964l-754 -633q137 -115 330 -115q89 0 172.5 29t154.5 86t114 155t43 223q0 146 -60 255z" />
<glyph unicode="&#xd9;" horiz-adv-x="1744" d="M290 1421h252v-901q0 -51 7.5 -92t31.5 -83.5t63 -71t107.5 -46.5t160.5 -18q107 0 182 23t114.5 67.5t56.5 97.5t17 123v901h252v-926q0 -34 -1 -57t-7 -66.5t-16.5 -75.5t-33 -75.5t-53 -74.5t-79 -64.5t-109 -54t-145.5 -34t-186 -13.5q-98 0 -181 13.5t-142 34.5 t-106.5 54t-77 64.5t-51.5 74.5t-32.5 75.5t-16 76t-6.5 66.5t-1 56v926zM664 1973l643 -353l-114 -176l-655 334z" />
<glyph unicode="&#xda;" horiz-adv-x="1744" d="M290 1421h252v-901q0 -51 7.5 -92t31.5 -83.5t63 -71t107.5 -46.5t160.5 -18q107 0 182 23t114.5 67.5t56.5 97.5t17 123v901h252v-926q0 -34 -1 -57t-7 -66.5t-16.5 -75.5t-33 -75.5t-53 -74.5t-79 -64.5t-109 -54t-145.5 -34t-186 -13.5q-98 0 -181 13.5t-142 34.5 t-106.5 54t-77 64.5t-51.5 74.5t-32.5 75.5t-16 76t-6.5 66.5t-1 56v926zM1192 1976l121 -195l-652 -337l-115 179z" />
<glyph unicode="&#xdb;" horiz-adv-x="1744" d="M290 1421h252v-901q0 -51 7.5 -92t31.5 -83.5t63 -71t107.5 -46.5t160.5 -18q107 0 182 23t114.5 67.5t56.5 97.5t17 123v901h252v-926q0 -34 -1 -57t-7 -66.5t-16.5 -75.5t-33 -75.5t-53 -74.5t-79 -64.5t-109 -54t-145.5 -34t-186 -13.5q-98 0 -181 13.5t-142 34.5 t-106.5 54t-77 64.5t-51.5 74.5t-32.5 75.5t-16 76t-6.5 66.5t-1 56v926zM929 1943l351 -349l-173 -144l-195 194l-199 -191l-169 133z" />
<glyph unicode="&#xdc;" horiz-adv-x="1744" d="M290 1421h252v-901q0 -51 7.5 -92t31.5 -83.5t63 -71t107.5 -46.5t160.5 -18q107 0 182 23t114.5 67.5t56.5 97.5t17 123v901h252v-926q0 -34 -1 -57t-7 -66.5t-16.5 -75.5t-33 -75.5t-53 -74.5t-79 -64.5t-109 -54t-145.5 -34t-186 -13.5q-98 0 -181 13.5t-142 34.5 t-106.5 54t-77 64.5t-51.5 74.5t-32.5 75.5t-16 76t-6.5 66.5t-1 56v926zM513 1898h297v-267h-297v267zM1014 1898h297v-267h-297v267z" />
<glyph unicode="&#xdd;" horiz-adv-x="1427" d="M100 1421h298l380 -551l388 551h288l-545 -757v-664h-283v664zM1027 1976l124 -195l-652 -337l-113 179z" />
<glyph unicode="&#xde;" horiz-adv-x="1490" d="M751 967q-112 0 -209 -7v-439q104 -6 178 -6h32q68 0 116.5 3.5t104.5 17.5t90.5 38.5t57.5 69.5t23 108q0 55 -22 95t-56.5 62.5t-88.5 36t-105.5 17.5t-120.5 4zM290 1421h252v-261q130 9 263 9q107 0 192 -10.5t162.5 -38t129 -71t81.5 -113.5t30 -163q0 -66 -15 -130 t-49 -130.5t-100.5 -118.5t-159.5 -77q-132 -32 -392 -32q-72 0 -142 3v-288h-252v1421z" />
<glyph unicode="&#xdf;" horiz-adv-x="1422" d="M664 1430q106 0 193 -34.5t139 -89.5t80 -119t28 -127q0 -55 -21.5 -101.5t-54.5 -77t-70.5 -58t-70.5 -46t-54.5 -39.5t-21.5 -40q0 -25 27 -43.5t70 -32.5l96 -30q52 -15 104.5 -39t96 -57t70.5 -89t27 -128q0 -39 -10.5 -78.5t-39 -81t-71 -73t-112.5 -52t-159 -20.5 q-172 0 -365 49l-45 11l60 192l43 -8q173 -30 268 -30q99 0 137 25t38 76q0 37 -28.5 63t-74.5 42.5t-101 31.5t-110 35.5t-101 48t-74.5 75.5t-28.5 113q0 61 31.5 109.5t76 78.5t89 55.5t76 52.5t31.5 56q0 65 -59.5 108t-128.5 43q-18 0 -38 -3t-50 -16.5t-53 -35.5 t-40 -65t-17 -100v-981h-246v982q0 93 26 169t70 127t104 86t126 50.5t138 15.5z" />
<glyph unicode="&#xe0;" horiz-adv-x="1233" d="M589 1006q111 0 194 -19.5t134 -52t82 -80.5t42.5 -98t11.5 -112v-644h-184l-28 65q-134 -85 -313 -85q-178 0 -291.5 87.5t-113.5 205.5q0 74 36.5 129t96 88t151 53.5t185 28.5t214.5 9v35q0 29 -3.5 50t-17.5 46t-39.5 40.5t-73.5 26t-115 10.5q-122 0 -288 -44 l-40 -11l-51 197l35 12q169 63 376 63zM806 255v141h-25q-209 0 -310.5 -24t-101.5 -81q0 -37 61.5 -68.5t151.5 -31.5q127 0 224 64zM508 1557l480 -378l-130 -163l-522 368z" />
<glyph unicode="&#xe1;" horiz-adv-x="1233" d="M802 1567l147 -173l-508 -368l-144 163zM806 255v141h-25q-209 0 -310.5 -24t-101.5 -81q0 -37 61.5 -68.5t151.5 -31.5q127 0 224 64zM589 1006q111 0 194 -19.5t134 -52t82 -80.5t42.5 -98t11.5 -112v-644h-184l-28 65q-134 -85 -313 -85q-178 0 -291.5 87.5 t-113.5 205.5q0 74 36.5 129t96 88t151 53.5t185 28.5t214.5 9v35q0 29 -3.5 50t-17.5 46t-39.5 40.5t-73.5 26t-115 10.5q-122 0 -288 -44l-40 -11l-51 197l35 12q169 63 376 63z" />
<glyph unicode="&#xe2;" horiz-adv-x="1233" d="M636 1509l344 -348l-152 -145l-209 194l-220 -191l-155 133zM806 255v141h-25q-209 0 -310.5 -24t-101.5 -81q0 -37 61.5 -68.5t151.5 -31.5q127 0 224 64zM589 1006q111 0 194 -19.5t134 -52t82 -80.5t42.5 -98t11.5 -112v-644h-184l-28 65q-134 -85 -313 -85 q-178 0 -291.5 87.5t-113.5 205.5q0 74 36.5 129t96 88t151 53.5t185 28.5t214.5 9v35q0 29 -3.5 50t-17.5 46t-39.5 40.5t-73.5 26t-115 10.5q-122 0 -288 -44l-40 -11l-51 197l35 12q169 63 376 63z" />
<glyph unicode="&#xe3;" horiz-adv-x="1233" d="M892 1450l190 -30l-26 -127q-44 -235 -226 -235q-62 2 -119 21.5t-96 46t-70.5 52t-57 43.5t-42.5 18q-41 0 -60 -93q-1 -3 -1 -5l-20 -88l-190 26l26 128q19 89 50 137q63 98 187 98q75 -3 144 -32t109 -62t77 -60.5t55 -27.5q10 0 18 6.5t13 16t9.5 22.5t6.5 23l4 20 q2 10 2 11zM800 255v141h-25q-206 0 -306 -24t-100 -81q0 -37 60.5 -68.5t149.5 -31.5q126 0 221 64zM586 1006q111 0 195 -19.5t135 -52t82.5 -80.5t43 -98t11.5 -112v-644h-184l-28 65q-145 -85 -315 -85q-176 0 -289.5 87.5t-113.5 205.5q0 62 24 110.5t71 81t106 55.5 t138.5 35.5t159.5 18.5t178 7v35q0 24 -2.5 41.5t-10 39.5t-24.5 37t-42.5 28t-68 20t-97.5 7q-120 0 -286 -44l-40 -11l-51 197l35 12q169 63 373 63z" />
<glyph unicode="&#xe4;" horiz-adv-x="1233" d="M785 1421h272v-268h-272v268zM259 1421h303v-268h-303v268zM805 255v141h-25q-209 0 -310 -24t-101 -81q0 -37 61.5 -68.5t150.5 -31.5q127 0 224 64zM589 1006q111 0 194.5 -19.5t134 -52t81.5 -80.5t42.5 -98t11.5 -112v-644h-184l-28 65q-136 -85 -314 -85t-291 87.5 t-113 205.5q0 62 24 110.5t71 81t106.5 55.5t140 35.5t161 18.5t179.5 7v35q0 30 -3.5 50.5t-17.5 45.5t-39.5 40.5t-73 26t-114.5 10.5q-122 0 -288 -44l-40 -11l-51 197l35 12q169 63 376 63z" />
<glyph unicode="&#xe5;" horiz-adv-x="1233" d="M643 1400q-47 0 -78 -27t-31 -65t30.5 -65.5t78.5 -27.5q44 0 75 28t31 65t-31 64.5t-75 27.5zM642 1573q128 0 210 -76t82 -189q0 -112 -81.5 -189t-209.5 -77q-131 0 -221.5 77.5t-90.5 188.5q0 110 90 187.5t221 77.5zM806 255v141h-25q-209 0 -310.5 -24t-101.5 -81 q0 -37 61.5 -68.5t151.5 -31.5q127 0 224 64zM589 1006q111 0 194 -19.5t134 -52t82 -80.5t42.5 -98t11.5 -112v-644h-184l-28 65q-134 -85 -313 -85q-178 0 -291.5 87.5t-113.5 205.5q0 74 36.5 129t96 88t151 53.5t185 28.5t214.5 9v35q0 29 -3.5 50t-17.5 46t-39.5 40.5 t-73.5 26t-115 10.5q-122 0 -288 -44l-40 -11l-51 197l35 12q169 63 376 63z" />
<glyph unicode="&#xe6;" horiz-adv-x="1838" d="M368 315q0 -47 58 -84.5t135 -37.5q110 0 192 72v171q-102 -1 -175 -9t-113 -19t-62.5 -27.5t-28.5 -31t-6 -34.5zM1272 782q-100 0 -164 -51.5t-77 -129.5h436q-3 35 -14 64.5t-32 57t-59 43.5t-90 16zM213 946q175 60 365 60q237 0 348 -146q75 68 172.5 107t203.5 39 q86 0 153 -24t110 -68t72 -96.5t44 -121t20.5 -129t5.5 -131.5v-41h-684q18 -87 113.5 -144t232.5 -57q89 0 201 34l42 13l45 -190l-34 -12q-161 -59 -322 -59q-246 0 -397 131q-137 -131 -378 -131q-163 0 -283 86.5t-120 216.5q0 121 105 203t304 100q75 7 221 9v9 q0 40 -10 73.5t-34 63t-69 46.5t-108 17q-96 0 -253 -39l-37 -10l-67 178z" />
<glyph unicode="&#xe7;" horiz-adv-x="1165" d="M681 -321q33 1 52 11.5t19 25.5q0 21 -34 34t-129 37l-75 19l-45 11l55 172q-84 16 -152 49t-124 88t-87 141.5t-31 198.5q0 116 33.5 209t89.5 152.5t133 99t158.5 56t172.5 16.5q165 0 308 -62l35 -15l-65 -195l-39 13q-103 36 -215 36q-57 0 -105.5 -7.5t-96 -27 t-80.5 -50t-53 -80t-20 -114.5q0 -307 376 -307q95 0 182 31l39 13l67 -189l-37 -14q-120 -46 -241 -55l-13 -43q184 -53 184 -207q0 -89 -70.5 -156.5t-195.5 -67.5q-22 0 -46.5 2.5t-42 5t-49.5 9.5t-44.5 10t-52.5 13.5t-49 12.5l-47 11l58 170l47 -12q177 -45 227 -45h3 z" />
<glyph unicode="&#xe8;" horiz-adv-x="1266" d="M697 1007q87 0 156.5 -18.5t114.5 -47t78 -74t50 -87t26.5 -99.5t11.5 -98t2 -95v-112h-756q22 -74 122.5 -128.5t264.5 -54.5q116 0 233 34l41 12l49 -190l-36 -12q-167 -57 -360 -57q-130 0 -231 29t-162.5 75t-101 111t-54.5 130t-15 139q0 137 46 243.5t126 170.5 t180 96.5t215 32.5zM656 783q-118 0 -189.5 -58t-84.5 -143h512q-8 109 -69 155t-169 46zM520 1567l483 -378l-133 -163l-519 368z" />
<glyph unicode="&#xe9;" horiz-adv-x="1266" d="M697 1007q87 0 156.5 -18.5t114.5 -47t78 -74t50 -87t26.5 -99.5t11.5 -98t2 -95v-112h-756q22 -74 122.5 -128.5t264.5 -54.5q116 0 233 34l41 12l49 -190l-36 -12q-167 -57 -360 -57q-130 0 -231 29t-162.5 75t-101 111t-54.5 130t-15 139q0 137 46 243.5t126 170.5 t180 96.5t215 32.5zM656 783q-118 0 -189.5 -58t-84.5 -143h512q-8 109 -69 155t-169 46zM903 1567l146 -173l-493 -368l-155 163z" />
<glyph unicode="&#xea;" horiz-adv-x="1266" d="M697 1007q87 0 156.5 -18.5t114.5 -47t78 -74t50 -87t26.5 -99.5t11.5 -98t2 -95v-112h-756q22 -74 122.5 -128.5t264.5 -54.5q116 0 233 34l41 12l49 -190l-36 -12q-167 -57 -360 -57q-130 0 -231 29t-162.5 75t-101 111t-54.5 130t-15 139q0 137 46 243.5t126 170.5 t180 96.5t215 32.5zM656 783q-118 0 -189.5 -58t-84.5 -143h512q-8 109 -69 155t-169 46zM729 1509l338 -348l-152 -145l-203 194l-211 -191l-170 133z" />
<glyph unicode="&#xeb;" horiz-adv-x="1266" d="M697 1007q87 0 156.5 -18.5t114.5 -47t78 -74t50 -87t26.5 -99.5t11.5 -98t2 -95v-112h-754q21 -74 121 -128.5t264 -54.5q116 0 233 34l41 12l49 -190l-36 -12q-167 -57 -360 -57q-130 0 -231 29t-162.5 75t-101 111t-54.5 130t-15 139q0 137 46 243.5t126 170.5 t180 96.5t215 32.5zM656 783q-119 0 -191 -58t-85 -143h514q-8 109 -69 155t-169 46zM295 1421h302v-268h-302v268zM814 1421h279v-268h-279v268z" />
<glyph unicode="&#xec;" horiz-adv-x="606" d="M197 988h246v-988h-246v988zM146 1567l424 -378l-130 -163l-440 368z" />
<glyph unicode="&#xed;" horiz-adv-x="606" d="M195 988h246v-988h-246v988zM536 1567l146 -173l-440 -368l-130 163z" />
<glyph unicode="&#xee;" horiz-adv-x="612" d="M196 988h246v-988h-246v988zM326 1514l281 -355l-153 -145l-143 181l-145 -178l-149 133z" />
<glyph unicode="&#xef;" horiz-adv-x="606" d="M180 988h246v-988h-246v988zM-15 1421h267v-267h-267v267zM354 1421h267v-267h-267v267z" />
<glyph unicode="&#xf0;" horiz-adv-x="1416" d="M371 522q0 -140 93.5 -233t223.5 -93q42 0 83 11.5t87 40t80.5 89t47.5 145.5q10 73 10 188v39q-188 98 -327 98q-129 0 -213.5 -79t-84.5 -206zM594 1457q181 -43 331 -136l203 112l96 -166l-144 -83q88 -102 122 -224t34 -280q0 -82 -5.5 -150t-21.5 -142t-42 -132 t-69.5 -111t-101.5 -88t-141 -56t-185 -21q-248 0 -394 122t-146 333q0 105 35.5 198.5t100.5 164t163 112t216 41.5q148 0 323 -68q-34 99 -124 178l-216 -108l-109 166l137 69q-70 34 -161 62l-51 15l112 201z" />
<glyph unicode="&#xf1;" d="M977 1455l190 -30l-26 -127q-46 -236 -225 -236q-62 2 -118 21.5t-94.5 46t-70 52t-56.5 43.5t-42 18q-40 0 -61 -97l-21 -89l-194 28l26 127q20 96 58 147q65 87 184 87q61 -2 117.5 -21.5t95 -46t70 -52t56.5 -43.5t40 -18q11 0 20 8t15 22t9.5 25.5t6 26.5t3.5 17z M180 988h183l29 -68q204 88 387 88q97 0 168 -26t111.5 -65t64.5 -98.5t31 -113.5t7 -122v-583h-247v580q0 19 -1 33.5t-6 36t-13 38t-24.5 34.5t-39.5 29.5t-57.5 19t-78.5 7.5q-120 0 -268 -55v-723h-246v988z" />
<glyph unicode="&#xf2;" horiz-adv-x="1375" d="M694 1007q248 0 399.5 -130.5t151.5 -364.5q0 -246 -154.5 -389t-415.5 -143q-248 0 -396.5 134.5t-148.5 369.5q0 241 151.5 382t412.5 141zM678 785q-77 0 -145 -29t-114.5 -94t-46.5 -153q0 -130 90 -218.5t234 -88.5q131 0 219 77t88 204q0 73 -29 132.5t-76 95.5 t-104 55t-116 19zM595 1567l477 -378l-139 -163l-506 368z" />
<glyph unicode="&#xf3;" horiz-adv-x="1375" d="M694 1007q248 0 399.5 -130.5t151.5 -364.5q0 -246 -154.5 -389t-415.5 -143q-248 0 -396.5 134.5t-148.5 369.5q0 241 151.5 382t412.5 141zM678 785q-77 0 -145 -29t-114.5 -94t-46.5 -153q0 -130 90 -218.5t234 -88.5q131 0 219 77t88 204q0 73 -29 132.5t-76 95.5 t-104 55t-116 19zM808 1567l168 -173l-506 -368l-143 163z" />
<glyph unicode="&#xf4;" horiz-adv-x="1375" d="M694 1007q248 0 399.5 -130.5t151.5 -364.5q0 -246 -154.5 -389t-415.5 -143q-248 0 -396.5 134.5t-148.5 369.5q0 241 151.5 382t412.5 141zM678 785q-77 0 -145 -29t-114.5 -94t-46.5 -153q0 -130 90 -218.5t234 -88.5q131 0 219 77t88 204q0 73 -29 132.5t-76 95.5 t-104 55t-116 19zM710 1509l350 -348l-165 -145l-201 194l-205 -191l-165 133z" />
<glyph unicode="&#xf5;" horiz-adv-x="1375" d="M694 1007q248 0 399.5 -130.5t151.5 -364.5q0 -246 -154.5 -389t-415.5 -143q-248 0 -396.5 134.5t-148.5 369.5q0 241 151.5 382t412.5 141zM678 785q-77 0 -145 -29t-114.5 -94t-46.5 -153q0 -130 90 -218.5t234 -88.5q131 0 219 77t88 204q0 73 -29 132.5t-76 95.5 t-104 55t-116 19zM957 1454l190 -30l-26 -127q-44 -235 -226 -235q-62 2 -119 21.5t-96 46t-70.5 52t-57 43.5t-42.5 18q-41 0 -60 -93q-1 -3 -1 -5l-20 -88l-190 26l26 128q19 89 50 137q63 98 187 98q75 -3 144 -32t109 -62t77 -60.5t55 -27.5q10 0 18 6.5t13 16t9.5 22.5 t6.5 23l4 20q2 10 2 11z" />
<glyph unicode="&#xf6;" horiz-adv-x="1375" d="M694 1007q248 0 399.5 -130.5t151.5 -364.5q0 -246 -154.5 -389t-415.5 -143q-248 0 -396.5 134.5t-148.5 369.5q0 241 151.5 382t412.5 141zM678 785q-77 0 -145 -29t-114.5 -94t-46.5 -153q0 -130 90 -218.5t234 -88.5q131 0 219 77t88 204q0 73 -29 132.5t-76 95.5 t-104 55t-116 19zM319 1421h299v-268h-299v268zM827 1421h290v-268h-290v268z" />
<glyph unicode="&#xf7;" horiz-adv-x="1564" d="M628 1233h307v-277h-307v277zM628 360h307v-277h-307v277zM125 768h1314v-221h-1314v221z" />
<glyph unicode="&#xf8;" horiz-adv-x="1375" d="M1184 1020l107 -119l-123 -111q77 -118 77 -278q0 -246 -154.5 -389t-415.5 -143q-187 0 -320 78l-125 -113l-108 119l111 99q-103 128 -103 321q0 241 151.5 382t412.5 141q220 0 363 -102zM678 785q-77 0 -145 -29t-114.5 -94t-46.5 -153q0 -98 52 -173l442 397 q-83 52 -188 52zM974 615l-426 -383q68 -30 148 -30q131 0 219 77t88 204q0 71 -29 132z" />
<glyph unicode="&#xf9;" d="M915 988h246v-988h-183l-29 67q-201 -87 -387 -87q-97 0 -168 25.5t-111.5 65t-64.5 98.5t-31 113t-7 122v584h246v-582q0 -26 2.5 -46t14.5 -50.5t34 -50.5t66 -35t104 -15q120 0 268 55v724zM532 1567l488 -378l-135 -163l-517 368z" />
<glyph unicode="&#xfa;" d="M915 988h246v-988h-183l-29 67q-201 -87 -387 -87q-97 0 -168 25.5t-111.5 65t-64.5 98.5t-31 113t-7 122v584h246v-582q0 -26 2.5 -46t14.5 -50.5t34 -50.5t66 -35t104 -15q120 0 268 55v724zM889 1567l150 -173l-503 -368l-149 163z" />
<glyph unicode="&#xfb;" d="M915 988h246v-988h-183l-29 67q-201 -87 -387 -87q-97 0 -168 25.5t-111.5 65t-64.5 98.5t-31 113t-7 122v584h246v-582q0 -26 2.5 -46t14.5 -50.5t34 -50.5t66 -35t104 -15q120 0 268 55v724zM699 1509l348 -348l-156 -145l-210 194l-213 -191l-157 133z" />
<glyph unicode="&#xfc;" d="M915 988h246v-988h-183l-29 67q-201 -87 -387 -87q-97 0 -168 25.5t-111.5 65t-64.5 98.5t-31 113t-7 122v584h246v-582q0 -26 2.5 -46t14.5 -50.5t34 -50.5t66 -35t104 -15q120 0 268 55v724zM276 1421h291v-268h-291v268zM784 1421h289v-268h-289v268z" />
<glyph unicode="&#xfd;" horiz-adv-x="1214" d="M50 988h259l329 -759l305 759h259l-652 -1519h-296l245 534zM908 1567l150 -173l-488 -368l-149 163z" />
<glyph unicode="&#xfe;" horiz-adv-x="1385" d="M694 780q-126 0 -191.5 -71t-65.5 -239q0 -39 4.5 -72t20.5 -71.5t43.5 -65t77 -44.5t116.5 -18q40 0 80.5 8.5t83.5 29.5t75.5 52t53.5 81t21 112q0 72 -28.5 130.5t-75.5 94t-102.5 54.5t-112.5 19zM726 1003q152 0 271 -58t188.5 -171.5t69.5 -264.5 q0 -152 -66.5 -273t-190 -190t-282.5 -69q-144 0 -268 66v-574h-258v1952h258v-488q120 70 278 70z" />
<glyph unicode="&#xff;" horiz-adv-x="1214" d="M50 988h259l329 -759l305 759h259l-652 -1519h-296l245 534zM240 1421h297v-268h-297v268zM746 1421h292v-268h-292v268z" />
<glyph unicode="&#x100;" horiz-adv-x="1547" d="M693 1421h276l562 -1421h-259l-159 372h-580l-159 -372h-244zM1025 603l-202 527l-203 -527h405zM382 1697h903v-211h-903v211z" />
<glyph unicode="&#x101;" horiz-adv-x="1233" d="M265 1333h696v-211h-696v211zM806 255v141h-25q-209 0 -311 -24t-102 -81q0 -36 62 -68t152 -32q127 0 224 64zM589 1007q132 0 224.5 -26t143.5 -76t73.5 -113t22.5 -147v-645h-184l-28 65q-134 -85 -313 -85q-178 0 -291.5 87.5t-113.5 205.5q0 62 24 110.5t71 81.5 t106.5 56t140 35.5t161.5 18.5t180 7v34q0 29 -3.5 50t-17.5 46t-39.5 40.5t-73.5 26t-115 10.5q-122 0 -288 -44l-40 -11l-51 197l35 12q172 64 376 64z" />
<glyph unicode="&#x102;" horiz-adv-x="1547" d="M693 1421h276l562 -1421h-259l-159 372h-580l-159 -372h-244zM1025 603l-202 527l-203 -527h405zM365 1794l212 103l20 -38q11 -21 26.5 -42t44.5 -52t73 -50.5t93 -19.5q78 0 155 51t134 120l26 31l192 -123l-26 -35q-91 -114 -223.5 -189t-275.5 -75 q-160 0 -275.5 84.5t-162.5 201.5z" />
<glyph unicode="&#x103;" horiz-adv-x="1233" d="M162 1360l192 103l20 -38q9 -16 20 -31.5t35 -41.5t50.5 -44.5t66.5 -32.5t83 -14q85 0 167.5 52t135.5 119l24 31l181 -123l-26 -35q-87 -115 -217.5 -189.5t-283.5 -74.5q-89 0 -164.5 25t-128 67t-88 90.5t-55.5 103.5zM794 255v141h-24q-204 0 -302.5 -24t-98.5 -81 q0 -37 60 -68.5t147 -31.5q124 0 218 64zM581 1006q113 0 198 -19.5t136.5 -52t83 -80.5t43 -98t11.5 -112v-644h-184l-33 65q-144 -85 -313 -85q-175 0 -287.5 87.5t-112.5 205.5q0 74 36 129t94.5 88t148 53.5t180.5 28.5t208 9v35q0 24 -2.5 41.5t-9.5 39.5t-23.5 36.5 t-42 28.5t-66.5 20.5t-95 6.5q-118 0 -282 -44l-40 -11l-51 197l35 12q169 63 368 63z" />
<glyph unicode="&#x104;" horiz-adv-x="1629" d="M130 0l616 1421h251l616 -1421h-58q-102 -2 -180.5 -30.5t-117.5 -62.5t-64.5 -77.5t-30.5 -62.5t-6 -31q0 -25 17 -44.5t59 -19.5q76 0 167 52l37 22l85 -159l-29 -21q-56 -41 -139 -75.5t-176 -34.5q-127 0 -210 68.5t-83 175.5q0 121 123 242t285 176l-113 254h-632 l-173 -372h-244zM1082 603l-218 527l-222 -527h440z" />
<glyph unicode="&#x105;" horiz-adv-x="1233" d="M369 310q0 -43 54.5 -77t144.5 -34q123 0 236 63v175q-185 0 -271.5 -12t-130.5 -50q-33 -28 -33 -65zM557 777q-122 0 -288 -44l-40 -11l-51 197l35 12q169 63 376 63q111 0 194.5 -19.5t134 -52t81.5 -80.5t42.5 -98t11.5 -112v-661l-22 -11l-66 -32l-67 -34l-58 -31 q-35 -19 -54.5 -33.5t-39.5 -33t-29 -37t-9 -38.5q0 -28 22 -44.5t58 -16.5q54 0 148 51l35 19l88 -151l-33 -21q-154 -101 -299 -101q-130 0 -213.5 66t-83.5 166q0 182 293 327q-107 -33 -212 -33q-168 0 -278 86.5t-110 203.5q0 40 15 80t48 80t95.5 72.5t147.5 49.5 q138 24 375 26v23q0 38 -6.5 63t-29 53t-75.5 42.5t-136 14.5z" />
<glyph unicode="&#x106;" horiz-adv-x="1615" d="M1085 1431q224 0 425 -79l37 -15l-79 -216l-38 13q-194 65 -351 65q-124 0 -229.5 -40.5t-175 -108.5t-108 -156t-38.5 -184q0 -99 41.5 -188.5t116 -157t187.5 -107t247 -39.5q164 0 328 58l37 13l82 -200l-37 -16q-217 -93 -458 -93q-187 0 -339.5 57t-251.5 156.5 t-152.5 231.5t-53.5 284q0 154 55 286t157 229t256 152t342 55zM1198 1992l124 -195l-650 -336l-113 178z" />
<glyph unicode="&#x107;" horiz-adv-x="1165" d="M130 473q0 117 32 209.5t86.5 152t130 99t158 56t176.5 16.5q169 0 312 -62l35 -15l-65 -195l-39 13q-103 36 -218 36q-75 0 -136.5 -13t-115.5 -42.5t-84.5 -86.5t-30.5 -137q0 -307 389 -307q97 0 184 31l39 13l67 -189l-37 -14q-150 -58 -323 -58q-89 0 -166.5 14 t-151.5 49.5t-126.5 90t-84 141.5t-31.5 198zM813 1567l146 -173l-508 -368l-144 163z" />
<glyph unicode="&#x108;" horiz-adv-x="1615" d="M1085 1431q224 0 425 -79l37 -15l-79 -216l-38 13q-194 65 -351 65q-124 0 -229.5 -40.5t-175 -108.5t-108 -156t-38.5 -184q0 -99 41.5 -188.5t116 -157t187.5 -107t247 -39.5q164 0 328 58l37 13l82 -200l-37 -16q-217 -93 -458 -93q-187 0 -339.5 57t-251.5 156.5 t-152.5 231.5t-53.5 284q0 154 55 286t157 229t256 152t342 55zM980 1951l348 -348l-170 -145l-194 194l-198 -191l-167 133z" />
<glyph unicode="&#x109;" horiz-adv-x="1165" d="M130 473q0 117 32 209.5t86.5 152t130 99t158 56t176.5 16.5q169 0 312 -62l35 -15l-65 -195l-39 13q-103 36 -218 36q-75 0 -136.5 -13t-115.5 -42.5t-84.5 -86.5t-30.5 -137q0 -307 389 -307q97 0 184 31l39 13l67 -189l-37 -14q-150 -58 -323 -58q-89 0 -166.5 14 t-151.5 49.5t-126.5 90t-84 141.5t-31.5 198zM663 1517l340 -348l-152 -145l-206 194l-219 -191l-159 133z" />
<glyph unicode="&#x10a;" horiz-adv-x="1615" d="M1085 1431q224 0 425 -79l37 -15l-79 -216l-38 13q-194 65 -351 65q-124 0 -229.5 -40.5t-175 -108.5t-108 -156t-38.5 -184q0 -99 41.5 -188.5t116 -157t187.5 -107t247 -39.5q164 0 328 58l37 13l82 -200l-37 -16q-217 -93 -458 -93q-187 0 -339.5 57t-251.5 156.5 t-152.5 231.5t-53.5 284q0 154 55 286t157 229t256 152t342 55zM781 1829h325v-292h-325v292z" />
<glyph unicode="&#x10b;" horiz-adv-x="1165" d="M130 473q0 117 32 209.5t86.5 152t130 99t158 56t176.5 16.5q169 0 312 -62l35 -15l-65 -195l-39 13q-103 36 -218 36q-75 0 -136.5 -13t-115.5 -42.5t-84.5 -86.5t-30.5 -137q0 -307 389 -307q97 0 184 31l39 13l67 -189l-37 -14q-150 -58 -323 -58q-89 0 -166.5 14 t-151.5 49.5t-126.5 90t-84 141.5t-31.5 198zM505 1421h344v-291h-344v291z" />
<glyph unicode="&#x10c;" horiz-adv-x="1615" d="M1085 1431q224 0 425 -79l37 -15l-79 -216l-38 13q-194 65 -351 65q-124 0 -229.5 -40.5t-175 -108.5t-108 -156t-38.5 -184q0 -99 41.5 -188.5t116 -157t187.5 -107t247 -39.5q164 0 328 58l37 13l82 -200l-37 -16q-217 -93 -458 -93q-187 0 -339.5 57t-251.5 156.5 t-152.5 231.5t-53.5 284q0 154 55 286t157 229t256 152t342 55zM977 1457l-348 348l170 145l194 -194l198 191l163 -133z" />
<glyph unicode="&#x10d;" horiz-adv-x="1165" d="M130 473q0 117 32 209.5t86.5 152t130 99t158 56t176.5 16.5q169 0 312 -62l35 -15l-65 -195l-39 13q-103 36 -218 36q-75 0 -136.5 -13t-115.5 -42.5t-84.5 -86.5t-30.5 -137q0 -307 389 -307q97 0 184 31l39 13l67 -189l-37 -14q-150 -58 -323 -58q-89 0 -166.5 14 t-151.5 49.5t-126.5 90t-84 141.5t-31.5 198zM628 1023l-359 348l163 145l213 -194l210 191l150 -130z" />
<glyph unicode="&#x10e;" horiz-adv-x="1762" d="M891 1458l-312 348l152 145l175 -194l177 191l150 -130zM801 1189h-259v-957h183q69 0 114 2t118 14t124.5 33.5t107 65t92.5 105.5q68 114 68 267q0 88 -24.5 162t-65 124.5t-95 88.5t-110.5 59t-115 29q-50 7 -138 7zM794 1421q134 0 247 -21t195 -57t146 -87t105 -109 t67.5 -126t37 -133.5t10.5 -135.5q0 -92 -15 -177t-53 -173.5t-97.5 -159t-155 -127t-218.5 -84.5q-139 -31 -405 -31h-368v1421h504z" />
<glyph unicode="&#x10f;" horiz-adv-x="1724" d="M130 478q0 254 150.5 392t402.5 138q117 0 233 -34v537h246v-1511h-182l-20 46q-145 -66 -310 -66q-78 0 -150 15.5t-140.5 52.5t-118.5 92.5t-80.5 142.5t-30.5 195zM713 197q104 0 203 35v535q-106 30 -205 30q-45 0 -87 -6.5t-89.5 -26t-82 -50.5t-57.5 -86t-23 -126 q0 -72 22.5 -128t57.5 -88.5t82.5 -53.5t90.5 -28t88 -7zM1389 1511h300l-214 -472h-299z" />
<glyph unicode="&#x110;" horiz-adv-x="1769" d="M335 1421h476q45 0 87 -2t107.5 -9.5t122.5 -20.5t125 -38t123 -58.5t108.5 -85t90 -114.5t58.5 -150.5t22 -190.5q0 -752 -908 -752h-412v617h-218v232h218v572zM824 1189h-237v-340h261v-232h-261v-385h166q65 0 116.5 3t122 14t124 30.5t109.5 56.5t92.5 87t60 125.5 t23.5 170.5q0 65 -14 125.5t-54 125t-102 111.5t-167 77.5t-240 30.5z" />
<glyph unicode="&#x111;" horiz-adv-x="1402" d="M716 797q-44 0 -85 -6.5t-87.5 -26t-80.5 -50.5t-56.5 -86t-22.5 -126q0 -72 22.5 -128t56.5 -88.5t80.5 -53.5t88.5 -28t86 -7q102 0 198 35v535q-104 30 -200 30zM688 1008q116 0 228 -34v121h-308v211h308v205h246v-205h135v-211h-135v-1095h-182l-20 46 q-142 -66 -304 -66q-77 0 -149 15.5t-141.5 52.5t-121 92.5t-83 142.5t-31.5 195q0 169 72.5 290t197.5 180.5t288 59.5z" />
<glyph unicode="&#x112;" horiz-adv-x="1447" d="M290 0v1421h997v-232h-744v-341h689v-232h-689v-384h744v-232h-997zM360 1697h897v-211h-897v211z" />
<glyph unicode="&#x113;" horiz-adv-x="1266" d="M130 464q0 137 46 243.5t126 170.5t180 96.5t215 32.5q87 0 156.5 -18.5t114.5 -47t78 -74t50 -87t26.5 -99.5t11.5 -98t2 -95v-112h-756q22 -74 122.5 -128.5t264.5 -54.5q116 0 233 34l41 12l49 -190l-36 -12q-167 -57 -360 -57q-130 0 -231 29t-162.5 75t-101 111 t-54.5 130t-15 139zM656 783q-118 0 -189.5 -58t-84.5 -143h512q-8 109 -69 155t-169 46zM266 1333h756v-231h-756v231z" />
<glyph unicode="&#x114;" horiz-adv-x="1447" d="M290 0v1421h997v-232h-744v-341h689v-232h-689v-384h744v-232h-997zM1117 1897l181 -123l-26 -35q-99 -131 -230 -196.5t-274 -65.5q-157 0 -271.5 75.5t-162.5 208.5l-12 33l194 103l18 -38q43 -77 110.5 -120.5t145.5 -43.5q160 0 303 171z" />
<glyph unicode="&#x115;" horiz-adv-x="1266" d="M130 464q0 111 30.5 202t82.5 153.5t124 105.5t153 62.5t171 19.5q69 0 127.5 -11.5t101 -29.5t76.5 -47.5t56 -59t38.5 -70t25 -74t13.5 -78.5t6 -76t1 -73v-112h-756q21 -74 120 -128.5t260 -54.5q123 0 240 34l41 12l49 -190l-36 -12q-167 -57 -367 -57 q-129 0 -228.5 29t-160.5 75t-100 111t-53.5 130t-14.5 139zM650 783q-116 0 -185.5 -57.5t-82.5 -143.5h502q-9 109 -68.5 155t-165.5 46zM222 1360l199 103l21 -38q11 -21 27.5 -42t47.5 -52t77.5 -50.5t98.5 -19.5q84 0 165 52t134 119l24 31l181 -123l-26 -35 q-87 -115 -216.5 -189.5t-279.5 -74.5q-169 0 -283.5 84.5t-157.5 201.5z" />
<glyph unicode="&#x116;" horiz-adv-x="1447" d="M290 0v1421h997v-232h-744v-341h689v-232h-689v-384h744v-232h-997zM603 1829h348v-292h-348v292z" />
<glyph unicode="&#x117;" horiz-adv-x="1266" d="M130 464q0 137 46 243.5t126 170.5t180 96.5t215 32.5q87 0 156.5 -18.5t114.5 -47t78 -74t50 -87t26.5 -99.5t11.5 -98t2 -95v-112h-756q22 -74 122.5 -128.5t264.5 -54.5q116 0 233 34l41 12l49 -190l-36 -12q-167 -57 -360 -57q-130 0 -231 29t-162.5 75t-101 111 t-54.5 130t-15 139zM656 783q-118 0 -189.5 -58t-84.5 -143h512q-8 109 -69 155t-169 46zM521 1421h348v-291h-348v291z" />
<glyph unicode="&#x118;" horiz-adv-x="1447" d="M290 1421h997v-232h-744v-341h689v-232h-689v-384h744v-184l-17 -12l-82 -56l-78 -54q-28 -19 -63 -46.5t-52.5 -48t-30.5 -45.5t-13 -49q0 -31 22 -48t57 -17q62 0 144 53l37 23l86 -160l-29 -21q-151 -110 -296 -110q-127 0 -208.5 68t-81.5 176q0 162 182 299h-574 v1421z" />
<glyph unicode="&#x119;" horiz-adv-x="1266" d="M130 449q0 118 33.5 213t88.5 156.5t129.5 102.5t153 58.5t163.5 17.5q87 0 156 -18.5t114 -46.5t78 -73.5t50 -87t26.5 -99t11.5 -98t2 -95.5v-113h-756q22 -75 128.5 -125.5t260.5 -50.5q121 0 231 34l41 13l49 -191l-36 -12q-136 -45 -229 -141.5t-93 -165.5 q0 -34 21.5 -51t56.5 -17q62 0 157 51l36 19l87 -151l-32 -21q-150 -101 -307 -101q-129 0 -208 67.5t-79 170.5q0 143 150 288q-238 20 -361 137t-123 330zM656 773q-118 0 -189.5 -58t-84.5 -143h512q-8 109 -69 155t-169 46z" />
<glyph unicode="&#x11a;" horiz-adv-x="1447" d="M290 0v1421h997v-232h-744v-341h689v-232h-689v-384h744v-232h-997zM772 1457l-350 348l158 145l209 -194l213 191l156 -133z" />
<glyph unicode="&#x11b;" horiz-adv-x="1266" d="M130 464q0 137 46 243.5t126 170.5t180 96.5t215 32.5q87 0 156.5 -18.5t114.5 -47t78 -74t50 -87t26.5 -99.5t11.5 -98t2 -95v-112h-756q22 -74 122.5 -128.5t264.5 -54.5q116 0 233 34l41 12l49 -190l-36 -12q-167 -57 -360 -57q-130 0 -231 29t-162.5 75t-101 111 t-54.5 130t-15 139zM656 783q-118 0 -189.5 -58t-84.5 -143h512q-8 109 -69 155t-169 46zM694 1023l-363 348l173 145l206 -194l207 191l150 -130z" />
<glyph unicode="&#x11c;" horiz-adv-x="1755" d="M1605 206q-207 -226 -592 -226q-164 0 -299.5 42.5t-226.5 113t-153.5 165.5t-90.5 197.5t-28 210.5q0 142 50.5 270t146.5 230t250.5 162.5t347.5 60.5q283 0 509 -126l35 -20l-105 -198l-36 19q-71 36 -178 64.5t-215 28.5q-106 0 -205 -33t-176.5 -93t-124 -152.5 t-46.5 -202.5q0 -145 76 -261t210.5 -180.5t302.5 -64.5q184 0 301 83v273h-445v222h692v-585zM962 1951l343 -348l-168 -145l-190 194l-197 -191l-165 133z" />
<glyph unicode="&#x11d;" horiz-adv-x="1340" d="M310 1160l386 357l350 -348l-165 -145l-202 194l-206 -191zM668 1008q130 0 289 -63l18 43h185v-1009q0 -76 -14 -144.5t-54 -139t-102.5 -121.5t-168 -83t-242.5 -32q-191 0 -350 67l-37 16l75 193l38 -13q123 -44 250 -44q72 0 129 15t92.5 36.5t61.5 55t38.5 61.5 t19 66t7.5 57t1 46v10q-128 -45 -254 -45q-80 0 -153 16.5t-141.5 55.5t-118 96.5t-79.5 145.5t-30 197q0 113 35.5 204t91 148t128.5 95.5t144 54t141 15.5zM370 508q0 -136 85.5 -223.5t247.5 -87.5q101 0 201 36v522q-132 38 -224 38q-140 0 -225 -77t-85 -208z" />
<glyph unicode="&#x11e;" horiz-adv-x="1755" d="M501 1794l211 103l21 -38q11 -21 26 -42t44.5 -52t73 -50.5t93.5 -19.5q78 0 155 51t134 120l26 31l187 -123l-26 -35q-85 -111 -216 -187.5t-277 -76.5q-83 0 -157 25t-128.5 66.5t-93 91t-60.5 103.5zM1605 206q-207 -226 -592 -226q-160 0 -293 40t-225 108t-156 160 t-93.5 195t-29.5 214q0 112 30.5 217.5t95 200t156.5 165t224 111.5t288 41q283 0 509 -126l35 -20l-105 -198l-36 19q-71 36 -178 64.5t-215 28.5q-106 0 -205 -33t-176.5 -93t-124 -152.5t-46.5 -202.5q0 -145 76 -261t210.5 -180.5t302.5 -64.5q184 0 301 83v273h-445 v222h692v-585z" />
<glyph unicode="&#x11f;" horiz-adv-x="1340" d="M579 -541q-191 0 -350 67l-37 16l75 193l38 -13q123 -44 250 -44q72 0 129 15t92.5 36.5t61.5 55t38.5 61.5t19 66t7.5 57t1 46v10q-128 -45 -254 -45q-80 0 -153 16.5t-141.5 55.5t-118 96.5t-79.5 145.5t-30 197q0 113 35.5 204t91 148t128.5 95.5t144 54t141 15.5 q130 0 289 -63l18 43h185v-995q0 -121 -33.5 -215.5t-88 -153.5t-131.5 -97t-157 -53t-171 -15zM370 508q0 -136 85.5 -223.5t247.5 -87.5q101 0 201 36v522q-132 38 -224 38q-140 0 -225 -77t-85 -208zM245 1327l-12 33l201 103l21 -38l19 -31q11 -16 34.5 -41.5 t49.5 -44.5t65 -33t81 -14q83 0 164 51.5t136 119.5l24 31l180 -123l-26 -35q-87 -115 -216.5 -189.5t-279.5 -74.5q-168 0 -283 84.5t-158 201.5z" />
<glyph unicode="&#x120;" horiz-adv-x="1755" d="M831 1829h321v-292h-321v292zM1605 206q-207 -226 -592 -226q-164 0 -299.5 42.5t-226.5 113t-153.5 165.5t-90.5 197.5t-28 210.5q0 142 50.5 270t146.5 230t250.5 162.5t347.5 60.5q283 0 509 -126l35 -20l-105 -198l-36 19q-71 36 -178 64.5t-215 28.5 q-106 0 -205 -33t-176.5 -93t-124 -152.5t-46.5 -202.5q0 -145 76 -261t210.5 -180.5t302.5 -64.5q184 0 301 83v273h-445v222h692v-585z" />
<glyph unicode="&#x121;" horiz-adv-x="1340" d="M499 1130v291h338v-291h-338zM370 508q0 -136 85.5 -223.5t247.5 -87.5q101 0 201 36v522q-132 38 -224 38q-140 0 -225 -77t-85 -208zM668 1008q130 0 289 -63l18 43h185v-1009q0 -76 -14 -144.5t-54 -139t-102.5 -121.5t-168 -83t-242.5 -32q-191 0 -350 67l-37 16 l75 194l38 -15q114 -43 250 -43q72 0 129 15t92.5 36.5t61.5 55t38.5 61.5t19 66t7.5 57t1 46v10q-128 -45 -254 -45q-80 0 -153 16.5t-141.5 55.5t-118 96.5t-79.5 145.5t-30 197q0 113 35.5 204t91 148t128.5 95.5t144 54t141 15.5z" />
<glyph unicode="&#x122;" horiz-adv-x="1755" d="M1605 206q-207 -226 -592 -226q-164 0 -299.5 42.5t-226.5 113t-153.5 165.5t-90.5 197.5t-28 210.5q0 113 31 218t96.5 197t158 160.5t223.5 108t286 39.5q283 0 509 -126l35 -20l-105 -198l-36 19q-71 36 -178 64.5t-215 28.5q-106 0 -205 -33t-176.5 -93t-124 -152.5 t-46.5 -202.5q0 -145 76 -261t210.5 -180.5t302.5 -64.5q184 0 301 83v273h-445v222h692v-585zM943 -59h296l-211 -472h-295z" />
<glyph unicode="&#x123;" horiz-adv-x="1340" d="M436 1075l221 472h311l-222 -472h-310zM370 506q0 -136 85.5 -223.5t247.5 -87.5q101 0 201 36v522q-132 38 -224 38q-140 0 -225 -77t-85 -208zM668 1006q130 0 289 -63l18 45h185v-1011q0 -76 -14 -144.5t-54 -139t-102.5 -121.5t-168 -83t-242.5 -32q-191 0 -350 67 l-37 16l75 194l38 -15q114 -43 250 -43q71 0 128 14.5t93 36t62 55t38 61.5t19 65.5t8 57.5t1 47v10q-127 -43 -254 -43q-80 0 -153 16.5t-141.5 55t-118 95.5t-79.5 145t-30 197q0 113 35.5 204t91 148t128.5 95.5t144 54t141 15.5z" />
<glyph unicode="&#x124;" horiz-adv-x="1764" d="M1302 1421h252v-1421h-252v617h-760v-617h-252v1421h252v-572h760v572zM945 1956l350 -348l-171 -145l-195 194l-199 -191l-167 133z" />
<glyph unicode="&#x125;" horiz-adv-x="1355" d="M704 778q-120 0 -268 -55v-723h-246v1511h246v-574q184 69 345 69q79 0 141.5 -17.5t103 -43.5t70 -66.5t44.5 -77t23.5 -85.5t10 -80.5t1.5 -73.5v-562h-250v577q0 24 -1.5 42t-13.5 50.5t-33.5 54t-66 38t-106.5 16.5zM727 2006l354 -348l-162 -145l-208 194l-215 -191 l-151 133z" />
<glyph unicode="&#x126;" horiz-adv-x="1764" d="M1302 1421h252v-142h150v-208h-150v-1071h-252v617h-760v-617h-252v1071h-150v208h150v142h252v-150h760v150zM1302 849v243h-760v-243h760z" />
<glyph unicode="&#x127;" horiz-adv-x="1355" d="M190 1511h246v-205h380v-211h-380v-158q180 69 338 69q95 0 167 -23t115.5 -61.5t71 -94t37.5 -113.5t10 -128v-586h-260v581q0 26 -2 46t-14 50.5t-33.5 50.5t-64.5 35t-102 15q-117 0 -263 -55v-723h-246v1095h-135v211h135v205z" />
<glyph unicode="&#x128;" horiz-adv-x="812" d="M329 1421h252v-1421h-252v1421zM568 1468q-42 0 -78.5 20t-60.5 48t-43 56t-34 48t-27 20q-9 0 -16 -18.5t-29 -100.5l-13 -48l-183 49l12 50l14 51t14.5 48t18.5 47.5t22.5 40.5t30 36.5t37.5 26.5t47.5 18.5t58.5 5.5q54 0 98 -29t66.5 -63.5t43.5 -63.5t34 -29 q7 0 12 13.5t25 85.5l26 94l182 -51q-4 -14 -12.5 -49.5t-13.5 -53.5l-16 -52q-10 -34 -19.5 -53t-24 -45.5t-31 -42t-37.5 -30.5t-47 -22t-57 -7z" />
<glyph unicode="&#x129;" horiz-adv-x="606" d="M180 988h246v-988h-246v988zM426 1121q-42 0 -78.5 20t-60.5 48t-43 56t-34 48t-27 20q-9 0 -16 -18.5t-29 -100.5l-13 -48l-183 49l12 49l14 52t14.5 48t18.5 47.5t22.5 40.5t30 36.5t37.5 26.5t47.5 18.5t58.5 5.5q54 0 98 -29t66.5 -63.5t43.5 -63.5t34 -29 q7 0 12 13.5t25 85.5l26 94l182 -51q-4 -14 -12.5 -49.5t-13.5 -54.5l-16 -52q-10 -33 -19.5 -52t-24 -45.5t-31 -42t-37.5 -30.5t-47 -22t-57 -7z" />
<glyph unicode="&#x12a;" horiz-adv-x="812" d="M320 1421h252v-1421h-252v1421zM200 1697h492v-211h-492v211z" />
<glyph unicode="&#x12b;" horiz-adv-x="606" d="M180 988h246v-988h-246v988zM80 1333h446v-211h-446v211z" />
<glyph unicode="&#x12c;" horiz-adv-x="894" d="M328 1421h252v-1421h-252v1421zM86 1791l192 103l19 -38q2 -5 10.5 -30t18.5 -44t26.5 -41.5t45 -35.5t64.5 -13q17 0 33 3t31 11l28 12q11 6 26 20.5t22.5 21t23.5 26.5l20 24q4 6 20 28t19 25l24 31l180 -123l-26 -35q-44 -58 -85.5 -101t-93 -82.5t-112 -60 t-126.5 -20.5q-75 0 -134.5 24t-100 68.5t-66 89.5t-47.5 104z" />
<glyph unicode="&#x12d;" horiz-adv-x="688" d="M188 988h246v-988h-246v988zM-44 1431l192 103l19 -38q2 -5 10.5 -30t18.5 -44t26.5 -41.5t45 -35.5t64.5 -13q17 0 33 3t31 11l28 12q11 6 26 20.5t22.5 21t23.5 26.5l20 24q4 6 20 28t19 25l24 31l180 -123l-26 -35q-44 -58 -85.5 -101t-93 -82.5t-112 -60 t-126.5 -20.5q-75 0 -134.5 24t-100 68.5t-66 89.5t-47.5 104z" />
<glyph unicode="&#x12e;" horiz-adv-x="812" d="M30 -298q0 113 81.5 219.5t208.5 174.5v1325h252v-1375l-21 -11q-74 -40 -130 -81t-86.5 -72t-49 -61t-23.5 -48.5t-5 -34.5q0 -26 15.5 -47t51.5 -21q49 0 141 54l37 22l85 -159l-29 -21q-151 -110 -284 -110q-105 0 -174.5 68.5t-69.5 177.5z" />
<glyph unicode="&#x12f;" horiz-adv-x="606" d="M-123 -304q0 120 87 236t216 187v869h246v-954l-27 -10q-128 -46 -212 -134t-84 -160q0 -31 17.5 -50.5t48.5 -19.5q47 0 143 54l36 20l85 -156l-29 -21q-150 -112 -284 -112q-107 0 -175 70.5t-68 180.5zM165 1421h276v-271h-276v271z" />
<glyph unicode="&#x130;" horiz-adv-x="812" d="M320 1421h252v-1421h-252v1421zM298 1829h292v-292h-292v292z" />
<glyph unicode="&#x131;" horiz-adv-x="606" d="M180 988h246v-988h-246v988z" />
<glyph unicode="&#x132;" horiz-adv-x="1929" d="M1474 1421h252v-910q0 -54 -4.5 -100t-19 -101.5t-38.5 -100t-67 -88.5t-100.5 -73t-142 -47t-188.5 -18q-107 0 -206 25l-38 10l42 222l42 -10q63 -15 132 -15q66 0 119.5 12.5t88 31t60 46.5t38 53t20 57.5t9 52.5t1.5 45v908zM320 1421h252v-1421h-252v1421z" />
<glyph unicode="&#x133;" horiz-adv-x="1212" d="M180 988h246v-988h-246v988zM782 988h246v-1084q0 -34 -1 -55.5t-6.5 -62t-16.5 -69.5t-33.5 -68.5t-53.5 -69t-80 -59.5t-111 -52l-44 -12l-127 194l50 18q104 38 140.5 91.5t36.5 124.5v1104zM768 1421h279v-271h-279v271zM165 1421h280v-271h-280v271z" />
<glyph unicode="&#x134;" horiz-adv-x="1117" d="M793 1951l312 -348l-152 -145l-175 194l-177 -191l-150 133zM662 1421h252v-910q0 -54 -4.5 -100t-19 -101.5t-38.5 -100t-67 -88.5t-100.5 -73t-142 -47t-188.5 -18q-107 0 -206 25l-38 10l42 222l42 -10q63 -15 132 -15q66 0 119.5 12.5t88 31t60 46.5t38 53t20 57.5 t9 52.5t1.5 45v908z" />
<glyph unicode="&#x135;" horiz-adv-x="606" d="M196 988h246v-1084q0 -34 -1 -59t-7.5 -64.5t-17.5 -70t-32.5 -67.5t-51.5 -66.5t-76.5 -58.5t-104.5 -50l-34 -12l-97 194l38 18q138 65 138 219v1101zM326 1514l281 -355l-153 -145l-143 181l-145 -178l-149 133z" />
<glyph unicode="&#x136;" horiz-adv-x="1581" d="M542 770l648 651h323l-683 -680l719 -741h-327l-680 688v-688h-252v1421h252v-651zM470 -512l208 472h305l-217 -472h-296z" />
<glyph unicode="&#x137;" horiz-adv-x="1237" d="M426 591l474 417h297l-510 -452l525 -556h-302l-484 492v-492h-246v1511h246v-920zM310 -512l208 472h305l-217 -472h-296z" />
<glyph unicode="&#x138;" horiz-adv-x="1236" d="M426 556l457 432h279l-474 -464l527 -524h-310l-479 456v-456h-246v988h246v-432z" />
<glyph unicode="&#x139;" horiz-adv-x="1297" d="M304 1421h252l6 -1190h714v-231h-972v1421zM920 1992l130 -195l-665 -336l-102 178z" />
<glyph unicode="&#x13a;" horiz-adv-x="728" d="M214 1511h269l-23 -1511h-246v1511zM816 2067l111 -195l-665 -336l-102 178z" />
<glyph unicode="&#x13b;" horiz-adv-x="1297" d="M310 1421h252l5 -1190h715v-231h-972v1421zM479 -40h310l-228 -472h-273z" />
<glyph unicode="&#x13c;" horiz-adv-x="646" d="M220 1511h246v-1511h-246v1511zM261 -40h269l-192 -472h-268z" />
<glyph unicode="&#x13d;" horiz-adv-x="1297" d="M290 1421h252v-1190h720v-231h-972v1421zM929 1421h269l-192 -472h-268z" />
<glyph unicode="&#x13e;" horiz-adv-x="887" d="M200 1511h246v-1511h-246v1511zM601 1511h250l-143 -472h-250z" />
<glyph unicode="&#x13f;" horiz-adv-x="1297" d="M290 1421h252v-1190h720v-231h-972v1421zM708 864h345v-292h-345v292z" />
<glyph unicode="&#x140;" horiz-adv-x="906" d="M200 1511h246v-1511h-246v1511zM534 879h292v-292h-292v292z" />
<glyph unicode="&#x141;" horiz-adv-x="1297" d="M290 1421h252v-524l314 150v-267l-291 -139v-410h697v-231h-972v496l-144 -78v252l144 78v673z" />
<glyph unicode="&#x142;" horiz-adv-x="769" d="M230 1511h246v-633l213 123v-245l-213 -111v-645h-246v533l-140 -81v244l140 77v738z" />
<glyph unicode="&#x143;" horiz-adv-x="1823" d="M290 1421h278l793 -1092v1092h252v-1421h-281l-790 1094v-1094h-252v1421zM1214 1992l124 -195l-650 -336l-114 178z" />
<glyph unicode="&#x144;" d="M180 988h183l29 -68q204 88 387 88q97 0 168 -26t111.5 -65t64.5 -98.5t31 -113.5t7 -122v-583h-247v580q0 19 -1 33.5t-6 36t-13 38t-24.5 34.5t-39.5 29.5t-57.5 19t-78.5 7.5q-120 0 -268 -55v-723h-246v988zM991 1562l111 -197l-663 -334l-104 178z" />
<glyph unicode="&#x145;" horiz-adv-x="1823" d="M290 1421h278l793 -1092v1092h252v-1421h-281l-790 1094v-1094h-252v1421zM798 -40h300l-214 -472h-299z" />
<glyph unicode="&#x146;" d="M180 988h183l29 -68q204 88 387 88q97 0 168 -26t111.5 -65t64.5 -98.5t31 -113.5t7 -122v-583h-247v580q0 19 -1 33.5t-6 36t-13 38t-24.5 34.5t-39.5 29.5t-57.5 19t-78.5 7.5q-120 0 -268 -55v-723h-246v988zM531 -40h323l-230 -472h-302z" />
<glyph unicode="&#x147;" horiz-adv-x="1823" d="M290 1421h278l793 -1092v1092h252v-1421h-281l-790 1094v-1094h-252v1421zM990 1457l-349 349l172 144l193 -194l198 191l166 -133z" />
<glyph unicode="&#x148;" d="M180 988h183l29 -68q204 88 387 88q97 0 168 -26t111.5 -65t64.5 -98.5t31 -113.5t7 -122v-583h-247v580q0 19 -1 33.5t-6 36t-13 38t-24.5 34.5t-39.5 29.5t-57.5 19t-78.5 7.5q-120 0 -268 -55v-723h-246v988zM681 1027l-355 348l163 145l208 -193l215 190l150 -135z " />
<glyph unicode="&#x149;" horiz-adv-x="1510" d="M349 988h183l29 -68q204 88 387 88q97 0 168 -26t111.5 -65t64.5 -98.5t31 -113.5t7 -122v-583h-247v580q0 19 -1 33.5t-6 36t-13 38t-24.5 34.5t-39.5 29.5t-57.5 19t-78.5 7.5q-120 0 -268 -55v-723h-246v988zM69 1421h232v-515h-232v515z" />
<glyph unicode="&#x14a;" horiz-adv-x="1812" d="M1349 29v816q0 37 -1 60.5t-7.5 68.5t-18.5 75.5t-37.5 68t-60.5 60t-91 38.5t-126 16q-171 0 -457 -113v-1119h-260v1421h178l43 -80q354 142 571 142q224 0 356 -113t157 -298q7 -53 7 -156v-910q0 -103 -31.5 -178t-86 -115.5t-118 -59t-137.5 -18.5q-112 0 -261 36 l-42 10l45 200l44 -8q104 -19 163 -19q48 0 82.5 13.5t51 30.5t26 45.5t10.5 44.5t1 41z" />
<glyph unicode="&#x14b;" horiz-adv-x="1340" d="M699 778q-116 0 -262 -55v-723h-257v988h183l33 -67q203 86 381 86q383 0 383 -410v-572q0 -63 -8.5 -114.5t-31 -100.5t-58.5 -82.5t-94.5 -54t-135.5 -20.5q-106 0 -278 38l-44 10l48 199l46 -7q140 -20 171 -20q81 0 110 39t29 113v556q0 28 -2.5 48.5t-14.5 50.5 t-33 49.5t-63.5 34t-101.5 14.5z" />
<glyph unicode="&#x14c;" horiz-adv-x="1850" d="M1457 709q0 101 -29.5 185.5t-78.5 141t-115 95.5t-136.5 56.5t-144.5 17.5q-70 0 -137 -17t-129.5 -55t-109.5 -92.5t-75.5 -135.5t-28.5 -178q0 -231 143 -371t357 -140q89 0 172.5 29t154.5 86t114 155t43 223zM966 1436q217 0 386 -85t266 -247.5t97 -377.5 q0 -218 -95 -386.5t-267 -261.5t-395 -93q-147 0 -279 45.5t-236.5 133t-166 227.5t-61.5 316q0 219 96 385.5t266 255t389 88.5zM538 1697h895v-211h-895v211z" />
<glyph unicode="&#x14d;" horiz-adv-x="1375" d="M694 1007q248 0 399.5 -130.5t151.5 -364.5q0 -246 -154.5 -389t-415.5 -143q-248 0 -396.5 134.5t-148.5 369.5q0 241 151.5 382t412.5 141zM678 785q-77 0 -145 -29t-114.5 -94t-46.5 -153q0 -130 90 -218.5t234 -88.5q131 0 219 77t88 204q0 73 -29 132.5t-76 95.5 t-104 55t-116 19zM251 1273h904v-211h-904v211z" />
<glyph unicode="&#x14e;" horiz-adv-x="1850" d="M518 1794l209 103l20 -38q11 -21 26 -42t44 -52t72 -50.5t92 -19.5q78 0 154 51t132 120l25 31l196 -123l-27 -35q-94 -114 -225 -189t-272 -75q-159 0 -273 85t-160 201zM1457 709q0 101 -29.5 185.5t-78.5 141t-115 95.5t-136.5 56.5t-144.5 17.5q-70 0 -137 -17 t-129.5 -55t-109.5 -92.5t-75.5 -135.5t-28.5 -178q0 -231 143 -371t357 -140q89 0 172.5 29t154.5 86t114 155t43 223zM966 1436q217 0 386 -85t266 -247.5t97 -377.5q0 -218 -95 -386.5t-267 -261.5t-395 -93q-147 0 -279 45.5t-236.5 133t-166 227.5t-61.5 316 q0 219 96 385.5t266 255t389 88.5z" />
<glyph unicode="&#x14f;" horiz-adv-x="1375" d="M694 1007q248 0 399.5 -130.5t151.5 -364.5q0 -246 -154.5 -389t-415.5 -143q-248 0 -396.5 134.5t-148.5 369.5q0 241 151.5 382t412.5 141zM678 785q-77 0 -145 -29t-114.5 -94t-46.5 -153q0 -130 90 -218.5t234 -88.5q131 0 219 77t88 204q0 73 -29 132.5t-76 95.5 t-104 55t-116 19zM257 1360l204 103l21 -38q9 -16 19.5 -31.5t33.5 -41t49 -44.5t65 -33t81 -14q83 0 163.5 51.5t134.5 119.5l24 31l180 -123l-26 -35q-87 -114 -217 -189t-278 -75q-87 0 -163 25t-130 66.5t-91.5 91t-57.5 103.5z" />
<glyph unicode="&#x150;" horiz-adv-x="1850" d="M1576 2011l129 -184l-579 -386l-129 168zM1020 2011l140 -184l-600 -386l-127 168zM1457 709q0 101 -29.5 185.5t-78.5 141t-115 95.5t-136.5 56.5t-144.5 17.5q-70 0 -137 -17t-129.5 -55t-109.5 -92.5t-75.5 -135.5t-28.5 -178q0 -231 143 -371t357 -140q89 0 172.5 29 t154.5 86t114 155t43 223zM966 1436q217 0 386 -85t266 -247.5t97 -377.5q0 -218 -95 -386.5t-267 -261.5t-395 -93q-147 0 -279 45.5t-236.5 133t-166 227.5t-61.5 316q0 219 96 385.5t266 255t389 88.5z" />
<glyph unicode="&#x151;" horiz-adv-x="1375" d="M687 1007q161 0 286 -56.5t198.5 -170t73.5 -268.5q0 -244 -158.5 -388t-417.5 -144q-244 0 -391.5 135t-147.5 369q0 241 150.5 382t406.5 141zM672 785q-56 0 -108.5 -17.5t-96 -50.5t-69.5 -87t-26 -121q0 -130 88.5 -218.5t229.5 -88.5q128 0 214.5 77t86.5 204 q0 96 -49 167t-120 103t-150 32zM1196 1567l146 -173l-465 -368l-147 163zM714 1567l164 -173l-496 -368l-131 163z" />
<glyph unicode="&#x152;" horiz-adv-x="2162" d="M1090 232v957h-17q-124 0 -194 -9q-196 -27 -304 -152.5t-108 -325.5q0 -76 18 -141t45.5 -110t65.5 -82t73 -58.5t73 -37.5q61 -26 118.5 -33.5t138.5 -7.5h91zM402 1223q59 55 134.5 94t143.5 59t160.5 30.5t152.5 12.5t153 2h856v-232h-643v-341h588v-232h-588v-384 h643v-232h-951q-134 0 -238 11t-199 47q-187 72 -293 234.5t-106 410.5q0 336 187 520z" />
<glyph unicode="&#x153;" horiz-adv-x="1967" d="M907 476q0 79 -24.5 140t-64.5 95.5t-86.5 51.5t-95.5 17q-118 0 -191 -78.5t-73 -200.5q0 -127 79 -214t203 -87q107 0 180 71.5t73 204.5zM1397 814q-101 0 -162 -70t-72 -172h434q-6 131 -57.5 186.5t-142.5 55.5zM1433 997q79 0 142 -18t104.5 -46.5t72 -73t46.5 -87 t25 -99.5t11.5 -99.5t2.5 -97.5v-110h-676q19 -78 105 -135.5t231 -57.5q89 0 203 30l42 11l45 -168l-34 -11q-157 -58 -325 -58q-269 0 -408 156q-145 -153 -386 -153q-230 0 -367 137t-137 369q0 237 142 376.5t382 139.5q256 0 394 -167q46 51 102 85.5t110.5 50t94.5 21 t78 5.5z" />
<glyph unicode="&#x154;" horiz-adv-x="1602" d="M1392 1014q0 -68 -16.5 -129.5t-52 -118.5t-97 -102t-145.5 -70l429 -594h-328l-398 552q-8 0 -24 -0.5t-25 -0.5h-192v-551h-253v1421h606q58 0 99 -3t96.5 -13t103.5 -34t87 -61q110 -110 110 -296zM543 1190v-407h232q133 0 212.5 22t118.5 92q23 41 23 94 q0 67 -45.5 120.5t-143.5 70.5q-46 8 -149 8h-248zM1051 1992l126 -195l-659 -336l-102 178z" />
<glyph unicode="&#x155;" horiz-adv-x="965" d="M392 935q156 72 333 72q111 0 206 -44l35 -16l-79 -204l-38 15q-69 27 -150 27h-2q-131 0 -252 -47v-738h-265v988h183zM733 1567l146 -173l-522 -368l-130 163z" />
<glyph unicode="&#x156;" horiz-adv-x="1602" d="M481 -40h297l-218 -472h-270zM547 1190v-407h232q133 0 212 22t118 92q24 43 24 94q0 67 -45.5 120.5t-143.5 70.5q-46 8 -149 8h-248zM1396 1014q0 -68 -16.5 -129.5t-52 -118.5t-97 -102t-145.5 -70l429 -594h-328l-398 552q-8 0 -24 -0.5t-25 -0.5h-192v-551h-253 v1421h605q58 0 99.5 -3t97 -13t103.5 -34t87 -61q110 -110 110 -296z" />
<glyph unicode="&#x157;" horiz-adv-x="965" d="M412 935q156 72 333 72q111 0 206 -44l35 -16l-79 -204l-38 15q-69 27 -150 27h-3q-130 0 -251 -47v-738h-265v988h183zM217 -40h299l-222 -472h-268z" />
<glyph unicode="&#x158;" horiz-adv-x="1602" d="M1392 1014q0 -68 -16.5 -129.5t-52 -118.5t-97 -102t-145.5 -70l429 -594h-328l-398 552q-8 0 -24 -0.5t-25 -0.5h-192v-551h-253v1421h606q58 0 99 -3t96.5 -13t103.5 -34t87 -61q110 -110 110 -296zM543 1190v-407h232q133 0 212.5 22t118.5 92q23 41 23 94 q0 67 -45.5 120.5t-143.5 70.5q-46 8 -149 8h-248zM766 1457l-339 348l157 145l198 -194l203 191l170 -133z" />
<glyph unicode="&#x159;" horiz-adv-x="965" d="M392 935q156 72 333 72q111 0 206 -44l35 -16l-79 -204l-38 15q-69 27 -150 27h-2q-131 0 -252 -47v-738h-265v988h183zM582 1023l-362 349l157 144l224 -194l205 191l150 -130z" />
<glyph unicode="&#x15a;" horiz-adv-x="1525" d="M927 1434q199 0 393 -59l41 -12l-82 -232l-38 11q-181 50 -330 50q-147 0 -251.5 -48t-104.5 -123q0 -49 46.5 -86t120.5 -62.5t163.5 -50.5t179.5 -58t164 -76t120.5 -114.5t46.5 -164.5q0 -60 -20.5 -118.5t-69 -115.5t-120 -99.5t-182 -69t-247.5 -26.5t-247 25.5 t-233 73.5l-37 14l85 242l39 -15q253 -90 417 -90q154 0 249.5 47t95.5 124q0 43 -29 77t-78 57.5t-112.5 43.5t-133.5 39t-140 41t-133.5 53t-112.5 70t-78 97.5t-29 130.5q0 180 176.5 302t470.5 122zM1073 1992l121 -195l-659 -336l-109 178z" />
<glyph unicode="&#x15b;" horiz-adv-x="1180" d="M807 295q-2 25 -38.5 44t-93.5 34t-125 31t-135.5 39.5t-123.5 55t-91 83t-35 117.5q0 39 14.5 78.5t52.5 82t96 74.5t155 52.5t219 20.5q72 0 130 -7.5t82 -13.5t73 -21l41 -12l-68 -202l-38 10q-130 36 -253 36q-62 0 -109 -8.5t-71.5 -20t-39.5 -27t-19 -26t-4 -19.5 q0 -23 35.5 -42t92.5 -34l126 -34q68 -17 137 -42t126 -57t92.5 -82t35.5 -112q0 -43 -12.5 -83t-48 -83t-91.5 -74.5t-151 -52t-218 -20.5q-192 0 -383 78l-37 15l74 200l38 -15q179 -67 317 -67q128 0 188 25.5t60 78.5zM308 1189l504 378l148 -173l-508 -368z" />
<glyph unicode="&#x15c;" horiz-adv-x="1525" d="M927 1434q199 0 393 -59l41 -12l-82 -232l-38 11q-181 50 -330 50q-147 0 -251.5 -48t-104.5 -123q0 -49 46.5 -86t120.5 -62.5t163.5 -50.5t179.5 -58t164 -76t120.5 -114.5t46.5 -164.5q0 -60 -20.5 -118.5t-69 -115.5t-120 -99.5t-182 -69t-247.5 -26.5t-247 25.5 t-233 73.5l-37 14l85 242l39 -15q253 -90 417 -90q154 0 249.5 47t95.5 124q0 43 -29 77t-78 57.5t-112.5 43.5t-133.5 39t-140 41t-133.5 53t-112.5 70t-78 97.5t-29 130.5q0 180 176.5 302t470.5 122zM807 1951l355 -348l-172 -145l-199 194l-203 -191l-162 133z" />
<glyph unicode="&#x15d;" horiz-adv-x="1180" d="M807 295q-2 25 -38.5 44t-93.5 34t-125 31t-135.5 39.5t-123.5 55t-91 83t-35 117.5q0 39 14.5 78.5t52.5 82t96 74.5t155 52.5t219 20.5q72 0 130 -7.5t82 -13.5t73 -21l41 -12l-68 -202l-38 10q-130 36 -253 36q-62 0 -109 -8.5t-71.5 -20t-39.5 -27t-19 -26t-4 -19.5 q0 -23 35.5 -42t92.5 -34l126 -34q68 -17 137 -42t126 -57t92.5 -82t35.5 -112q0 -43 -12.5 -83t-48 -83t-91.5 -74.5t-151 -52t-218 -20.5q-192 0 -383 78l-37 15l74 200l38 -15q179 -67 317 -67q128 0 188 25.5t60 78.5zM267 1160l394 357l342 -348l-152 -145l-207 194 l-218 -191z" />
<glyph unicode="&#x15e;" horiz-adv-x="1525" d="M838 -317q23 0 38 6t19 12t4 13q0 19 -42 34t-149 42l-45 11l-44 11l53 170q-109 6 -197.5 30t-197.5 67l-37 14l85 242l39 -15q254 -90 419 -90q155 0 250.5 47t95.5 124q0 43 -29 77t-78 57.5t-113 43.5t-134.5 39t-140.5 41t-134 53t-113 70t-78 97.5t-29 130.5 q0 180 178 302t471 122q197 0 391 -59l41 -12l-83 -232l-37 11q-180 50 -328 50q-146 0 -250 -48t-104 -123q0 -49 46 -86t120 -62.5t163.5 -50t178.5 -58t163 -76.5t120 -114t46 -164q0 -51 -15 -101.5t-50 -101.5t-86 -92.5t-129 -74t-174 -47.5l-17 -59q197 -59 197 -209 q0 -93 -81.5 -162t-208.5 -69q-45 0 -90.5 8.5t-195.5 46.5l-45 11l61 183l45 -12q180 -48 231 -48z" />
<glyph unicode="&#x15f;" horiz-adv-x="1180" d="M626 -321q38 0 56.5 11.5t18.5 25.5q0 21 -36.5 34.5t-136.5 37.5l-75 18l-47 11l55 167q-146 13 -294 74l-37 15l74 200l38 -15q179 -67 319 -67q129 0 189 25.5t60 78.5q-2 25 -38.5 44.5t-93 34t-125.5 30.5t-137 39.5t-124.5 55t-91.5 83t-35 117.5q0 40 14 79 t52.5 81.5t96.5 74.5t155.5 52.5t220.5 20.5q71 0 128.5 -7.5t81.5 -13.5t73 -21l41 -12l-68 -202l-38 10q-130 36 -250 36q-115 0 -176.5 -31t-61.5 -67q0 -23 35 -43t91 -36l124 -34q68 -17 136 -42t124.5 -57t91.5 -82t35 -112q0 -46 -15.5 -89t-51.5 -87.5t-107 -78.5 t-170 -48l-19 -57q193 -51 193 -207q0 -89 -73 -156.5t-206 -67.5q-88 0 -268 48q-13 3 -19 5l-39 11l48 170l42 -12q188 -45 240 -45z" />
<glyph unicode="&#x160;" horiz-adv-x="1525" d="M927 1434q199 0 393 -59l41 -12l-82 -232l-38 11q-181 50 -330 50q-147 0 -251.5 -48t-104.5 -123q0 -49 46.5 -86t120.5 -62.5t163.5 -50.5t179.5 -58t164 -76t120.5 -114.5t46.5 -164.5q0 -60 -20.5 -118.5t-69 -115.5t-120 -99.5t-182 -69t-247.5 -26.5t-247 25.5 t-233 73.5l-37 14l85 242l39 -15q253 -90 417 -90q154 0 249.5 47t95.5 124q0 43 -29 77t-78 57.5t-112.5 43.5t-133.5 39t-140 41t-133.5 53t-112.5 70t-78 97.5t-29 130.5q0 180 176.5 302t470.5 122zM833 1457l-355 348l173 145l198 -194l203 191l162 -133z" />
<glyph unicode="&#x161;" horiz-adv-x="1180" d="M807 295q-2 25 -38.5 44t-93.5 34t-125 31t-135.5 39.5t-123.5 55t-91 83t-35 117.5q0 39 14.5 78.5t52.5 82t96 74.5t155 52.5t219 20.5q72 0 130 -7.5t82 -13.5t73 -21l41 -12l-68 -202l-38 10q-130 36 -253 36q-62 0 -109 -8.5t-71.5 -20t-39.5 -27t-19 -26t-4 -19.5 q0 -23 35.5 -42t92.5 -34l126 -34q68 -17 137 -42t126 -57t92.5 -82t35.5 -112q0 -43 -12.5 -83t-48 -83t-91.5 -74.5t-151 -52t-218 -20.5q-192 0 -383 78l-37 15l74 200l38 -15q179 -67 317 -67q128 0 188 25.5t60 78.5zM1006 1383l-379 -360l-358 348l163 145l213 -194 l210 191z" />
<glyph unicode="&#x162;" horiz-adv-x="1456" d="M730 -316q52 1 52 27q0 6 -3.5 11.5t-11.5 11t-17 10t-23.5 10t-26.5 9.5t-32 9l-32 10l-36 9q-23 6 -36 10l-52 12l15 38q9 24 25 63l20 48q4 10 12.5 35.5t9.5 35t4 34t3 45.5v59v1018h-516v232h1284v-232h-516v-1005q0 -85 -7 -138.5t-30 -116.5q211 -69 211 -204 q0 -89 -86.5 -160t-221.5 -71q-27 0 -57 4t-53.5 9t-81.5 19l-102 23l-54 11l74 183l54 -12l58 -15l51 -12l38 -8q22 -5 34 -7t25.5 -3.5t24.5 -1.5z" />
<glyph unicode="&#x163;" horiz-adv-x="919" d="M203 1271h277v-283h352v-211h-352v-455q0 -26 6.5 -49t23.5 -47t53.5 -38t88.5 -14q26 0 146 18l39 6l39 -170l-38 -10q-89 -24 -158 -34l-13 -52q174 -57 174 -206q0 -88 -69 -156t-188 -68q-74 0 -167.5 19t-141.5 33l-39 11l49 170l43 -12q2 0 50.5 -11t74 -16t67 -11 t69.5 -6q71 0 71 34q0 24 -31 36t-152 39q-49 10 -78 17l-52 11l68 185q-212 62 -212 303v473h-133v211h133v283z" />
<glyph unicode="&#x164;" horiz-adv-x="1374" d="M85 1421h1284v-232h-516v-1189h-252v1189h-516v232zM740 1457l-348 348l170 145l195 -194l198 191l167 -133z" />
<glyph unicode="&#x165;" horiz-adv-x="919" d="M528 1055l208 472h305l-217 -472h-296zM203 1271h277v-283h352v-211h-352v-443q0 -29 4 -49t17 -44.5t45 -37.5t82 -13q34 0 170 20l39 7l39 -189l-38 -10q-156 -38 -271 -38q-87 0 -152.5 18.5t-105.5 49t-64 75.5t-33 91t-9 103v460h-133v211h133v283z" />
<glyph unicode="&#x166;" horiz-adv-x="1374" d="M85 1421h1284v-232h-516v-395h373v-232h-373v-562h-252v562h-373v232h373v395h-516v232z" />
<glyph unicode="&#x167;" horiz-adv-x="919" d="M838 18q-147 -38 -246 -38q-198 0 -293.5 79.5t-95.5 261.5v117h-133v191h133v148h-133v211h133v283h277v-283h352v-211h-352v-148h352v-191h-352v-107q0 -25 6.5 -47t23.5 -44.5t53.5 -36t88.5 -13.5q27 0 146 20l39 7l39 -189z" />
<glyph unicode="&#x168;" horiz-adv-x="1744" d="M912 -20q-589 0 -622 437q-2 32 -2 81q0 26 1 68.5t1 57.5v797h252v-901q0 -76 14 -126t59 -92q100 -93 297 -93q144 0 237.5 50t120.5 141q12 40 12 120v901h252v-797q0 -20 1 -62.5t1 -64.5q0 -44 -2.5 -78t-15.5 -91t-35.5 -100t-69.5 -92.5t-111 -81t-164 -53 t-226 -21.5zM710 1862q59 -3 111 -22.5t87 -45.5t63.5 -51.5t53.5 -43.5t44 -18q11 0 22.5 7t21 16.5t21.5 28l20 31.5l20 40q14 25 22 38l20 34l186 -80l-18 -38q-50 -103 -71 -135q-95 -145 -244 -145q-59 3 -111 22.5t-87 45.5t-63.5 51.5t-53.5 43.5t-44 18 q-10 0 -19.5 -4.5t-19 -14t-17 -19.5t-18 -27t-16.5 -29l-18 -33l-19 -33l-20 -35l-181 80l18 38l15 32l17 36l20 36q13 25 22 38l26 34q17 22 31.5 34t35.5 27.5t41.5 23.5t47 13.5t54.5 5.5z" />
<glyph unicode="&#x169;" horiz-adv-x="1345" d="M498 1428q63 -3 118.5 -22.5t92.5 -45.5t68 -51.5t57 -43.5t47 -18q11 0 20 3.5t18 12.5t15.5 17t16.5 25.5t15 28.5l18 36q13 24 19 37l18 36l178 -81l-19 -38q-3 -6 -16.5 -35l-19.5 -41l-22 -40q-15 -28 -26 -42l-30 -37q-19 -23 -37.5 -35t-41.5 -25.5t-49.5 -19 t-56.5 -5.5q-63 3 -118 22.5t-92 45.5t-67.5 51.5t-57 43.5t-47.5 18q-8 0 -15.5 -2t-15 -7.5t-13.5 -10.5t-13 -15l-12 -18q-5 -8 -13 -24l-13 -24l-14 -28l-14 -31l-17 -35l-181 80l19 38q2 4 16 34.5t20 41.5l21 39q16 29 28 43l30 36q19 24 37 36l41 25q24 14 51 19.5 t57 5.5zM929 988h246v-988h-183l-28 67q-201 -87 -388 -87q-97 0 -168 25.5t-111.5 65t-64.5 98.5t-31 113t-7 122v584h246v-582q0 -26 2.5 -46t15 -50.5t34.5 -50.5t66 -35t104 -15q119 0 267 55v724z" />
<glyph unicode="&#x16a;" horiz-adv-x="1744" d="M912 -20q-589 0 -622 437q-2 32 -2 81q0 26 1 68.5t1 57.5v797h252v-901q0 -76 14 -126t59 -92q100 -93 297 -93q144 0 237.5 50t120.5 141q12 40 12 120v901h252v-797q0 -20 1 -62.5t1 -64.5q0 -44 -2.5 -78t-15.5 -91t-35.5 -100t-69.5 -92.5t-111 -81t-164 -53 t-226 -21.5zM395 1697h994v-211h-994v211z" />
<glyph unicode="&#x16b;" d="M915 988h246v-988h-183l-29 67q-201 -87 -387 -87q-97 0 -168 25.5t-111.5 65t-64.5 98.5t-31 113t-7 122v584h246v-582q0 -26 2.5 -46t14.5 -50.5t34 -50.5t66 -35t104 -15q120 0 268 55v724zM293 1333h762v-211h-762v211z" />
<glyph unicode="&#x16c;" horiz-adv-x="1744" d="M366 1794l194 103l21 -38q9 -16 19 -31.5t33 -41.5t48 -44.5t63 -32.5t79 -14q80 0 158.5 51t136.5 120l27 31l196 -123l-26 -35q-93 -114 -229 -189t-281 -75q-84 0 -157.5 25t-125.5 67t-88 91t-56 103zM912 -20q-100 0 -184.5 13.5t-145 34.5t-108.5 54.5t-78 64.5 t-52 75t-32.5 76t-16 76t-6.5 66.5t-1 56.5q0 22 1 64.5t1 62.5v797h252v-901q0 -76 14 -126t59 -92q100 -93 297 -93q144 0 237.5 50t120.5 141q12 40 12 120v901h252v-797q0 -20 1 -62.5t1 -64.5q0 -44 -2.5 -78t-15.5 -91t-35.5 -100t-69.5 -92.5t-111 -81t-164 -53 t-226 -21.5z" />
<glyph unicode="&#x16d;" d="M915 988h246v-988h-183l-29 67q-201 -87 -387 -87q-97 0 -168 25.5t-111.5 65t-64.5 98.5t-31 113t-7 122v584h246v-582q0 -26 2.5 -46t14.5 -50.5t34 -50.5t66 -35t104 -15q120 0 268 55v724zM198 1360l193 103l19 -38q10 -19 27 -41.5t48 -53t78.5 -50t101.5 -19.5 q87 0 170 52.5t134 118.5l24 31l181 -123l-26 -35q-87 -115 -217 -189.5t-285 -74.5q-170 0 -281 83.5t-155 202.5z" />
<glyph unicode="&#x16e;" horiz-adv-x="1744" d="M890 2007q121 0 207 -77.5t86 -187.5t-86 -188t-207 -78t-207.5 78t-86.5 188q0 109 86.5 187t207.5 78zM890 1834q-43 0 -72 -27t-29 -65t28.5 -65.5t72.5 -27.5t70.5 29.5t26.5 63.5q0 37 -28 64.5t-69 27.5zM912 -20q-100 0 -184.5 13.5t-145 34.5t-108.5 54.5 t-78 64.5t-52 75t-32.5 76t-16 76t-6.5 66.5t-1 56.5q0 22 1 64.5t1 62.5v797h252v-901q0 -76 14 -126t59 -92q100 -93 297 -93q144 0 237.5 50t120.5 141q12 40 12 120v901h252v-797q0 -20 1 -62.5t1 -64.5q0 -44 -2.5 -78t-15.5 -91t-35.5 -100t-69.5 -92.5t-111 -81 t-164 -53t-226 -21.5z" />
<glyph unicode="&#x16f;" d="M915 988h246v-988h-183l-29 67q-201 -87 -387 -87q-97 0 -168 25.5t-111.5 65t-64.5 98.5t-31 113t-7 122v584h246v-582q0 -26 2.5 -46t14.5 -50.5t34 -50.5t66 -35t104 -15q120 0 268 55v724zM675 1573q128 0 214.5 -77t86.5 -188t-86 -188.5t-214 -77.5t-215.5 77.5 t-87.5 188.5q0 110 87 187.5t215 77.5zM676 1400q-45 0 -76 -27t-31 -65t30 -65.5t77 -27.5q43 0 73 28t30 65t-30 64.5t-73 27.5z" />
<glyph unicode="&#x170;" horiz-adv-x="1744" d="M554 1451l-127 184l551 386l117 -168zM1498 2021l127 -184l-551 -386l-117 168zM912 -20q-100 0 -184.5 13.5t-145 34.5t-108.5 54.5t-78 64.5t-52 75t-32.5 76t-16 76t-6.5 66.5t-1 56.5q0 22 1 64.5t1 62.5v797h252v-901q0 -76 14 -126t59 -92q100 -93 297 -93 q144 0 237.5 50t120.5 141q12 40 12 120v901h252v-797q0 -20 1 -62.5t1 -64.5q0 -44 -2.5 -78t-15.5 -91t-35.5 -100t-69.5 -92.5t-111 -81t-164 -53t-226 -21.5z" />
<glyph unicode="&#x171;" horiz-adv-x="1345" d="M915 988h246v-988h-183l-29 67q-201 -87 -387 -87q-97 0 -168 25.5t-111.5 65t-64.5 98.5t-31 113t-7 122v584h246v-582q0 -26 2.5 -46t14.5 -50.5t34 -50.5t66 -35t104 -15q120 0 268 55v724zM665 1567l146 -173l-440 -368l-157 163zM1206 1567l146 -173l-440 -368 l-157 163z" />
<glyph unicode="&#x172;" horiz-adv-x="1744" d="M288 497q0 22 1 64.5t1 62.5v797h252v-901q0 -76 14 -126t59 -92q100 -93 297 -93q144 0 237.5 50t120.5 141q12 40 12 120v901h252v-796q0 -19 0.5 -59t0.5 -60q0 -94 -13.5 -163.5t-36 -118t-65 -87t-88 -64.5t-117.5 -57q-86 -36 -147.5 -80t-89.5 -82.5t-39.5 -66.5 t-11.5 -48q0 -31 19.5 -50t55.5 -19q66 0 155 54l43 25l96 -162l-30 -22q-63 -42 -148 -76t-175 -34q-122 0 -196.5 69t-74.5 178q0 150 123 282q-99 8 -179 32.5t-132 57t-90 78.5t-58 87.5t-31.5 93.5t-14 87t-2.5 77z" />
<glyph unicode="&#x173;" horiz-adv-x="1345" d="M430 988v-582q0 -24 2 -42.5t14 -50t33.5 -52t65.5 -36.5t106 -16q122 0 268 55v724h246v-1017l-22 -11l-71 -36l-75 -38q-27 -14 -64 -36.5t-57 -40t-35 -40.5t-15 -46q0 -60 75 -60q65 0 150 47l35 19l88 -150l-32 -21q-154 -101 -295 -101q-133 0 -212 66.5t-79 163.5 q0 200 339 353q-169 -60 -321 -60q-95 0 -169 26q-61 22 -104 57.5t-66 73.5t-36 91t-16 94t-3 99q0 10 2 24.5t2 17.5v525h246z" />
<glyph unicode="&#x174;" horiz-adv-x="2401" d="M140 1421h268l327 -1092l411 1092h232l339 -1092l399 1092h254l-533 -1421h-241l-342 1087l-402 -1087h-241zM1269 1955l337 -348l-170 -145l-181 194l-187 -191l-169 133z" />
<glyph unicode="&#x175;" horiz-adv-x="1931" d="M60 988h263l237 -733l307 733h221l234 -735l320 735h264l-473 -988h-224l-233 710l-312 -710h-224zM984 1522l348 -348l-177 -145l-185 194l-192 -191l-176 133z" />
<glyph unicode="&#x176;" horiz-adv-x="1427" d="M100 1421h298l380 -551l388 551h288l-545 -757v-664h-283v664zM796 1951l349 -348l-170 -145l-195 194l-200 -191l-167 133z" />
<glyph unicode="&#x177;" horiz-adv-x="1214" d="M50 988h259l329 -759l305 759h259l-652 -1519h-296l245 534zM647 1517l351 -348l-168 -145l-200 194l-204 -191l-165 133z" />
<glyph unicode="&#x178;" horiz-adv-x="1427" d="M100 1421h298l380 -551l388 551h288l-545 -757v-664h-283v664zM877 1898h298v-267h-298v267zM376 1898h296v-267h-296v267z" />
<glyph unicode="&#x179;" horiz-adv-x="1522" d="M185 1421h1250v-153l-918 -1036h945v-232h-1307v155l897 1034h-867v232zM1086 1992l123 -195l-648 -336l-114 178z" />
<glyph unicode="&#x17a;" horiz-adv-x="1242" d="M150 988h917v-127l-565 -650h590v-211h-942v127l557 650h-557v211zM806 1567l153 -173l-513 -368l-139 163z" />
<glyph unicode="&#x17b;" horiz-adv-x="1522" d="M185 1421h1250v-153l-918 -1036h945v-232h-1307v155l897 1034h-867v232zM629 1829h325v-292h-325v292z" />
<glyph unicode="&#x17c;" horiz-adv-x="1242" d="M150 988h917v-127l-565 -650h590v-211h-942v127l557 650h-557v211zM441 1421h338v-271h-338v271z" />
<glyph unicode="&#x17d;" horiz-adv-x="1522" d="M185 1421h1250v-153l-918 -1036h945v-232h-1307v155l897 1034h-867v232zM797 1457l-347 348l169 145l194 -194l198 191l166 -133z" />
<glyph unicode="&#x17e;" horiz-adv-x="1242" d="M150 988h917v-127l-565 -650h590v-211h-942v127l557 650h-557v211zM595 1023l-348 348l153 145l213 -194l217 191l153 -130z" />
<glyph unicode="&#x191;" horiz-adv-x="1412" d="M-107 -490l41 201l42 -11q83 -23 148 -23q189 0 189 169v1575h971v-232h-694v-341h634v-232h-634v-776q0 -192 -113 -286.5t-301 -94.5q-116 0 -247 40z" />
<glyph unicode="&#x192;" horiz-adv-x="985" d="M115 988h192v66q0 134 51 211q52 80 150 122t224 42q121 0 255 -41l36 -11l-41 -200l-42 10q-88 23 -148 23q-55 0 -95 -12.5t-60 -29t-31 -42.5t-13 -43.5t-2 -41.5v-53h355v-211h-355v-953q0 -30 -2.5 -57t-12.5 -65.5t-26.5 -70t-48.5 -65t-75 -56t-108.5 -37 t-146.5 -14.5q-117 0 -254 41l-36 11l41 200l42 -10q95 -23 148 -23q54 0 92.5 11.5t58 26.5t30 40.5t12.5 42.5t2 43v935h-192v211z" />
<glyph unicode="&#x22c;" horiz-adv-x="1850" d="M538 2157h895v-211h-895v211zM1241 1884l206 -30l-9 -42l-8 -36l-8 -41q-3 -14 -11 -41.5t-14.5 -43.5t-18.5 -40t-24.5 -38.5t-31.5 -31.5t-40 -26t-48.5 -15.5t-59.5 -6.5q-56 2 -107 21.5t-86 46t-64 52t-52 43.5t-38 18q-6 0 -11.5 -2.5t-10.5 -8t-8.5 -11.5 t-6.5 -17l-6 -18q-3 -7 -6.5 -21.5l-5.5 -22.5l-4 -24q-3 -17 -5 -25l-8 -39l-206 30l9 42l8 36l8 41q3 15 10.5 41.5t14.5 43t18.5 40.5t24.5 38.5t31.5 31.5t39.5 26t48.5 15.5t59.5 6.5q56 -2 107 -21.5t86 -46t64 -52t52 -43.5t38 -18q6 0 12 2.5t10 8.5l9 13 q4 6 7.5 17t6.5 19t6 22t4.5 22.5t4.5 23.5t5 22zM1457 709q0 102 -30 186.5t-79.5 140.5t-115 95t-135 56.5t-141.5 17.5h-3q-70 0 -137 -17t-129.5 -55t-109.5 -92.5t-75.5 -135.5t-28.5 -178q0 -231 143 -371t357 -140q89 0 172.5 29t154.5 86t114 155t43 223zM966 1436 q217 0 386 -85t266 -247.5t97 -377.5q0 -218 -95 -386.5t-267 -261.5t-395 -93q-147 0 -279 45.5t-236.5 133t-166 227.5t-61.5 316q0 219 96 385.5t266 255t389 88.5z" />
<glyph unicode="&#x22d;" horiz-adv-x="1375" d="M694 1007q248 0 399.5 -130.5t151.5 -364.5q0 -246 -154.5 -389t-415.5 -143q-248 0 -396.5 134.5t-148.5 369.5q0 241 151.5 382t412.5 141zM678 785q-77 0 -145 -29t-114.5 -94t-46.5 -153q0 -130 90 -218.5t234 -88.5q131 0 219 77t88 204q0 73 -29 132.5t-76 95.5 t-104 55t-116 19zM951 1454l196 -30l-9 -42q-2 -8 -7 -36t-8 -41t-10 -41t-13.5 -43.5t-18.5 -40t-24 -39t-30.5 -31.5t-39.5 -26t-48.5 -15.5t-58.5 -6.5q-59 2 -112.5 21.5t-91 46t-68 52.5t-54.5 44t-40 18q-25 0 -38 -32.5t-27 -96.5q-3 -13 -4 -20l-8 -38l-198 26l9 43 q2 9 7 36t8 41t10 41.5t13.5 43.5t18 40t24 38.5t31 31.5t39.5 26t48.5 15.5t59.5 6.5q72 -3 137.5 -32t103 -62t72.5 -60.5t54 -27.5q9 0 16.5 5t13.5 15t10.5 20.5t9 27t7 27.5t6 29.5t5.5 26.5zM251 1719h904v-211h-904v211z" />
<glyph unicode="&#x237;" horiz-adv-x="606" d="M194 988h246v-1084q0 -34 -1 -59t-7.5 -64.5t-17.5 -70t-32.5 -67.5t-51.5 -66.5t-76.5 -58.5t-104.5 -50l-34 -12l-97 194l38 18q138 65 138 219v1101z" />
<glyph unicode="&#x2c6;" horiz-adv-x="1479" d="M726 1601l312 -348l-152 -145l-175 194l-177 -191l-150 133z" />
<glyph unicode="&#x2c7;" horiz-adv-x="1078" d="M518 1064l-312 348l152 145l175 -194l177 191l150 -130z" />
<glyph unicode="&#x2d8;" horiz-adv-x="1078" d="M96 1401l192 103l19 -38q10 -21 24 -42t40.5 -52t66 -50.5t84.5 -19.5q72 0 141.5 51t121.5 120l24 31l180 -123l-26 -35q-87 -114 -207.5 -189t-249.5 -75q-75 0 -142.5 25t-116.5 66.5t-84 91t-55 103.5z" />
<glyph unicode="&#x2d9;" horiz-adv-x="1200" d="M444 1483h292v-292h-292v292z" />
<glyph unicode="&#x2da;" horiz-adv-x="1084" d="M581 1441q-38 0 -63.5 -27t-25.5 -65t25 -65.5t64 -27.5q36 0 61 28t25 65t-25 64.5t-61 27.5zM841 1349q0 -110 -76.5 -188t-183.5 -78t-184 78t-77 188q0 109 76.5 187t183.5 78t184 -77.5t77 -187.5z" />
<glyph unicode="&#x2db;" horiz-adv-x="1084" d="M419 -335q0 159 134.5 312t333.5 207l40 10l49 -188l-35 -13q-69 -25 -127.5 -64.5t-94 -80.5t-55 -80t-19.5 -70t17.5 -50t48.5 -19q50 0 142 54l37 22l85 -159l-29 -21q-153 -110 -284 -110q-108 0 -175.5 71t-67.5 179z" />
<glyph unicode="&#x2dc;" horiz-adv-x="1400" d="M880 1402q9 0 17 4t16.5 13.5t15 19t15.5 25.5l14 28q7 13 17 34l17 35l18 35l179 -80l-18 -38q-3 -7 -17 -35l-20 -41l-20 -40q-15 -27 -26 -42l-30 -38q-18 -22 -36 -34l-40 -26q-22 -13 -48 -18.5t-54 -5.5q-52 3 -98 22.5t-77.5 45.5t-57.5 52t-48 44t-39 18 q-12 0 -23 -7t-23 -26t-19 -33l-23 -46l-24 -49l-18 -35l-179 80l18 38l17 35l19 41q7 14 21.5 40.5t26.5 41.5l29 38q18 23 36 35.5t40 25.5t48 19t54 6q52 -3 98 -22.5t77.5 -45.5t57 -52t48 -44t39.5 -18z" />
<glyph unicode="&#x2dd;" horiz-adv-x="1652" d="M345 1091l-127 184l551 386l117 -168zM1289 1661l127 -184l-551 -386l-117 168z" />
<glyph unicode="&#x2ee;" horiz-adv-x="835" d="M69 1552h267v-510h-267v510zM459 1552h267v-510h-267v510z" />
<glyph unicode="&#x302;" horiz-adv-x="1479" d="M726 1601l312 -348l-152 -145l-175 194l-177 -191l-150 133z" />
<glyph unicode="&#x1e02;" horiz-adv-x="1588" d="M775 1209h-233v-394q217 5 303 20q208 38 222 173q1 11 1 22q0 32 -11 59.5t-39.5 56.5t-90.5 46t-152 17zM791 655q-8 0 -249 -11v-412h224q40 0 68.5 0.5t78.5 4.5t86 11.5t79 22.5t69.5 36t45 53.5t18.5 73.5q0 103 -113.5 162t-306.5 59zM290 1421h542 q91 0 166.5 -14t127.5 -36.5t92.5 -54t64 -64t38.5 -69t20 -66t5 -58.5q0 -68 -37 -138t-93 -118q112 -46 179.5 -143.5t67.5 -213.5q0 -33 -6.5 -67.5t-25.5 -79.5t-49.5 -85.5t-82.5 -80.5t-120 -68.5t-167.5 -46.5t-218.5 -18h-503v1421zM680 1898h330v-292h-330v292z " />
<glyph unicode="&#x1e03;" horiz-adv-x="1347" d="M436 964q129 44 263 44q76 0 146.5 -14.5t139.5 -51t119.5 -92t82 -144.5t31.5 -201q0 -246 -149 -385.5t-404 -139.5q-151 0 -279 52l-14 -32h-182v1511h246v-547zM633 790q-101 0 -197 -33v-537q101 -29 201 -29q46 0 89 7t89.5 26.5t81 50.5t57 83.5t22.5 120.5 q0 75 -23 133t-58 90.5t-83 53.5t-90.5 27.5t-88.5 6.5zM543 1898h345v-292h-345v292z" />
<glyph unicode="&#x1e0a;" horiz-adv-x="1770" d="M742 1898h334v-292h-334v292zM778 1189h-236v-957h166q48 0 80.5 1t85.5 5.5t92 12.5t88 24.5t87 39t76.5 57.5t66.5 80q72 113 72 267q0 88 -26 162t-68.5 124.5t-99.5 88.5t-116 59t-122 29q-52 7 -146 7zM771 1421q141 0 259 -21t203 -56.5t151.5 -87.5t108 -109.5 t68.5 -125.5t38 -133t11 -136q0 -76 -11 -147.5t-35 -146.5t-67 -140t-102.5 -122t-146.5 -99.5t-194 -65.5q-143 -31 -407 -31h-357v1421h481z" />
<glyph unicode="&#x1e0b;" horiz-adv-x="1352" d="M372 502q0 -72 22.5 -128t57.5 -88.5t82.5 -53.5t90.5 -28t88 -7q104 0 203 35v535q-106 30 -205 30q-45 0 -87 -6.5t-89.5 -26t-82 -50.5t-57.5 -86t-23 -126zM486 1606v292h344v-292h-344zM683 1008q115 0 233 -34v537h246v-1511h-182l-20 46q-145 -66 -310 -66 q-78 0 -150 15.5t-140.5 52.5t-118.5 92.5t-80.5 142.5t-30.5 195q0 254 150.5 392t402.5 138z" />
<glyph unicode="&#x1e1e;" horiz-adv-x="1412" d="M543 1189v-341h674v-232h-674v-616h-253v1421h987v-232h-734zM596 1898h350v-292h-350v292z" />
<glyph unicode="&#x1e1f;" horiz-adv-x="984" d="M298 1047q0 33 0.5 53t4.5 55t11.5 58t22 54.5t35 52t52.5 43t73 36t97 22t124 8.5q125 0 262 -41l36 -11l-41 -200l-42 10q-95 23 -148 23q-123 0 -182 -41t-59 -115v-66h395v-211h-395v-777h-246v777h-163v211h163v59zM433 1829h363v-292h-363v292z" />
<glyph unicode="&#x1e40;" horiz-adv-x="2048" d="M290 1421h306l472 -816l479 816h291v-1421h-252v1063l-404 -656h-238l-402 656v-1063h-252v1421zM893 1898h319v-292h-319v292z" />
<glyph unicode="&#x1e41;" horiz-adv-x="1976" d="M660 774q-86 0 -234 -54v-720h-246v988h183l28 -65q177 84 349 84t269 -99q186 98 397 98q92 0 162 -22t112.5 -59t69 -92.5t36.5 -114t10 -132.5v-586h-247v584q0 94 -49 142t-159 48q-93 0 -240 -54q10 -56 10 -153v-567h-247v587q0 187 -204 187zM850 1421h303v-291 h-303v291z" />
<glyph unicode="&#x1e56;" horiz-adv-x="1503" d="M290 1421h510q44 0 75 -0.5t82.5 -4.5t89 -11.5t86 -21.5t83 -33.5t71 -50.5t58.5 -69.5t36.5 -91.5t14.5 -117q0 -90 -23.5 -162t-61 -121t-96 -84.5t-118 -55.5t-138.5 -31.5t-144.5 -15t-149.5 -3.5q-41 0 -123 4v-552h-252v1421zM542 1189v-405q78 -5 141 -5 q68 0 117.5 2.5t106 9.5t95 22t71.5 38t49.5 59t16.5 84q0 43 -14 75.5t-42.5 53t-62 34.5t-81 20.5t-90.5 9t-100 2.5h-207zM607 1898h322v-292h-322v292z" />
<glyph unicode="&#x1e57;" d="M564 1130v291h338v-291h-338zM970 479q0 75 -22.5 132.5t-56.5 90t-81 53.5t-89 27.5t-87 6.5q-99 0 -198 -35v-533q104 -30 201 -30q45 0 87 7t88 26.5t80 50.5t56 83.5t22 120.5zM385 941q153 66 314 66q75 0 145 -15t138 -51.5t118 -92t81 -144t31 -200.5 q0 -245 -148 -384.5t-399 -139.5q-114 0 -229 34v-545h-256v1519h182z" />
<glyph unicode="&#x1e60;" horiz-adv-x="1525" d="M927 1434q199 0 393 -59l41 -12l-82 -232l-38 11q-181 50 -330 50q-147 0 -251.5 -48t-104.5 -123q0 -49 46.5 -86t120.5 -62.5t163.5 -50.5t179.5 -58t164 -76t120.5 -114.5t46.5 -164.5q0 -60 -20.5 -118.5t-69 -115.5t-120 -99.5t-182 -69t-247.5 -26.5t-247 25.5 t-233 73.5l-37 14l85 242l39 -15q253 -90 417 -90q154 0 249.5 47t95.5 124q0 43 -29 77t-78 57.5t-112.5 43.5t-133.5 39t-140 41t-133.5 53t-112.5 70t-78 97.5t-29 130.5q0 180 176.5 302t470.5 122zM682 1898h333v-292h-333v292z" />
<glyph unicode="&#x1e61;" horiz-adv-x="1180" d="M807 295q-2 25 -38.5 44t-93.5 34t-125 31t-135.5 39.5t-123.5 55t-91 83t-35 117.5q0 39 14.5 78.5t52.5 82t96 74.5t155 52.5t219 20.5q72 0 130 -7.5t82 -13.5t73 -21l41 -12l-68 -202l-38 10q-130 36 -253 36q-62 0 -109 -8.5t-71.5 -20t-39.5 -27t-19 -26t-4 -19.5 q0 -23 35.5 -42t92.5 -34l126 -34q68 -17 137 -42t126 -57t92.5 -82t35.5 -112q0 -43 -12.5 -83t-48 -83t-91.5 -74.5t-151 -52t-218 -20.5q-192 0 -383 78l-37 15l74 200l38 -15q179 -67 317 -67q128 0 188 25.5t60 78.5zM453 1130v291h357v-291h-357z" />
<glyph unicode="&#x1e6a;" horiz-adv-x="1374" d="M85 1421h1284v-232h-516v-1189h-252v1189h-516v232zM563 1898h326v-292h-326v292z" />
<glyph unicode="&#x1e6b;" horiz-adv-x="919" d="M838 18q-147 -38 -246 -38q-95 0 -163.5 19t-107.5 48.5t-61.5 76t-29.5 90.5t-7 103v460h-153v211h153v283h246v-283h363v-211h-363v-443q0 -25 8.5 -48t27.5 -46t57 -36.5t90 -13.5q27 0 146 20l39 7l39 -189zM176 1621h353v-292h-353v292z" />
<glyph unicode="&#x1e80;" horiz-adv-x="2401" d="M140 1421h268l327 -1092l411 1092h232l339 -1092l399 1092h254l-533 -1421h-241l-342 1087l-402 -1087h-241zM1082 1944l617 -353l-115 -177l-627 335z" />
<glyph unicode="&#x1e81;" horiz-adv-x="1931" d="M60 988h263l237 -733l307 733h221l234 -735l320 735h264l-473 -988h-224l-233 710l-312 -710h-224zM836 1567l460 -378l-153 -163l-478 368z" />
<glyph unicode="&#x1e82;" horiz-adv-x="2401" d="M140 1421h268l327 -1092l411 1092h232l339 -1092l399 1092h254l-533 -1421h-241l-342 1087l-402 -1087h-241zM1484 1944l125 -195l-626 -335l-116 177z" />
<glyph unicode="&#x1e83;" horiz-adv-x="1931" d="M60 988h263l237 -733l307 733h221l234 -735l320 735h264l-473 -988h-224l-233 710l-312 -710h-224zM1161 1567l171 -173l-478 -368l-153 163z" />
<glyph unicode="&#x1e84;" horiz-adv-x="2401" d="M140 1421h268l327 -1092l411 1092h232l339 -1092l399 1092h254l-533 -1421h-241l-342 1087l-402 -1087h-241zM866 1898h298v-267h-298v267zM1347 1898h296v-267h-296v267z" />
<glyph unicode="&#x1e85;" horiz-adv-x="1931" d="M60 988h263l237 -733l307 733h221l234 -735l320 735h264l-473 -988h-224l-233 710l-312 -710h-224zM575 1421h311v-266h-311v266zM1069 1421h310v-266h-310v266z" />
<glyph unicode="&#x1ef2;" horiz-adv-x="1427" d="M100 1421h298l380 -551l388 551h288l-545 -757v-664h-283v664zM534 1944l642 -353l-114 -177l-653 335z" />
<glyph unicode="&#x1ef3;" horiz-adv-x="1214" d="M50 988h259l329 -759l305 759h259l-652 -1519h-296l245 534zM449 1567l488 -378l-150 -163l-501 368z" />
<glyph unicode="&#x2000;" horiz-adv-x="1078" />
<glyph unicode="&#x2001;" horiz-adv-x="2157" />
<glyph unicode="&#x2002;" horiz-adv-x="1078" />
<glyph unicode="&#x2003;" horiz-adv-x="2157" />
<glyph unicode="&#x2004;" horiz-adv-x="719" />
<glyph unicode="&#x2005;" horiz-adv-x="539" />
<glyph unicode="&#x2006;" horiz-adv-x="359" />
<glyph unicode="&#x2007;" horiz-adv-x="359" />
<glyph unicode="&#x2008;" horiz-adv-x="269" />
<glyph unicode="&#x2009;" horiz-adv-x="431" />
<glyph unicode="&#x200a;" horiz-adv-x="119" />
<glyph unicode="&#x2010;" horiz-adv-x="1210" d="M134 769h942v-221h-942v221z" />
<glyph unicode="&#x2011;" horiz-adv-x="1210" d="M134 769h942v-221h-942v221z" />
<glyph unicode="&#x2013;" horiz-adv-x="1241" d="M0 769h1241v-221h-1241v221z" />
<glyph unicode="&#x2014;" horiz-adv-x="1466" d="M0 769h1466v-221h-1466v221z" />
<glyph unicode="&#x2015;" horiz-adv-x="1682" d="M0 769h1682v-221h-1682v221z" />
<glyph unicode="&#x2018;" horiz-adv-x="450" d="M35 1552h281l149 -515h-281z" />
<glyph unicode="&#x2019;" horiz-adv-x="450" d="M134 1552h281l-149 -515h-281z" />
<glyph unicode="&#x201a;" horiz-adv-x="450" d="M134 258h281l-149 -515h-281z" />
<glyph unicode="&#x201b;" horiz-adv-x="450" d="M35 1552h281l149 -515h-281z" />
<glyph unicode="&#x201c;" horiz-adv-x="830" d="M134 1552h281l-149 -515h-281zM514 1552h281l-149 -515h-281z" />
<glyph unicode="&#x201d;" horiz-adv-x="830" d="M134 1552h281l-149 -515h-281zM514 1552h281l-149 -515h-281z" />
<glyph unicode="&#x201e;" horiz-adv-x="830" d="M134 255h281l-149 -515h-281zM514 255h281l-149 -515h-281z" />
<glyph unicode="&#x201f;" horiz-adv-x="830" d="M415 1552h281l149 -515h-281zM35 1552h281l149 -515h-281z" />
<glyph unicode="&#x2020;" horiz-adv-x="942" d="M358 1133l-229 -10v196l229 -10v243h225v-243l230 10v-196l-230 10v-1026h-225v1026z" />
<glyph unicode="&#x2021;" horiz-adv-x="942" d="M358 1133l-229 -10v196l229 -10v243h225v-243l230 10v-196l-230 10v-995l230 10v-196l-230 10v-243h-225v243l-229 -10v196l229 -10v995z" />
<glyph unicode="&#x2022;" horiz-adv-x="640" d="M149 904h342v-342h-342v342z" />
<glyph unicode="&#x2026;" horiz-adv-x="1720" d="M1269 251h292v-292h-292v292zM704 251h292v-292h-292v292zM139 251h292v-292h-292v292z" />
<glyph unicode="&#x202f;" horiz-adv-x="431" />
<glyph unicode="&#x2030;" horiz-adv-x="1920" d="M1032 1462h270l-1025 -1503h-270zM1851 351q0 -149 -76.5 -237.5t-193.5 -88.5q-53 0 -98.5 17t-84.5 53t-62 102t-23 155q0 148 79.5 230t189.5 82q37 0 72 -8t72 -30.5t64 -56t44 -90t17 -128.5zM1581 486q-89 0 -89 -133q0 -153 90 -153q89 0 89 148q0 138 -90 138z M1244 351q0 -149 -76.5 -237.5t-193.5 -88.5q-53 0 -98.5 17t-84.5 53t-62 102t-23 155q0 148 79.5 230t189.5 82q37 0 72 -8t72 -30.5t64 -56t44 -90t17 -128.5zM974 486q-89 0 -89 -133q0 -153 90 -153q89 0 89 148q0 138 -90 138zM595 1092q0 -148 -76 -237.5t-193 -89.5 q-53 0 -98.5 17t-85 53.5t-62.5 102.5t-23 155q0 147 80 229t190 82q36 0 70.5 -7.5t71 -29.5t64 -55.5t45 -90t17.5 -129.5zM326 1227q-89 0 -89 -133q0 -153 90 -153q89 0 89 148q0 138 -90 138z" />
<glyph unicode="&#x2032;" horiz-adv-x="405" d="M69 1552h267v-510h-267v510z" />
<glyph unicode="&#x2033;" horiz-adv-x="810" d="M474 1552h267v-510h-267v510zM69 1552h267v-510h-267v510z" />
<glyph unicode="&#x2034;" horiz-adv-x="1215" d="M879 1552h267v-510h-267v510zM474 1552h267v-510h-267v510zM69 1552h267v-510h-267v510z" />
<glyph unicode="&#x2035;" horiz-adv-x="405" d="M22 1552h278l83 -515h-278z" />
<glyph unicode="&#x2039;" horiz-adv-x="607" d="M308 1029h289l-305 -406l305 -406h-288l-284 406z" />
<glyph unicode="&#x203a;" horiz-adv-x="607" d="M10 1029h288l284 -406l-283 -406h-289l305 406z" />
<glyph unicode="&#x203c;" horiz-adv-x="1300" d="M834 241h282v-282h-282v282zM849 1462h252v-1045h-252v1045zM184 241h282v-282h-282v282zM199 1462h252v-1045h-252v1045z" />
<glyph unicode="&#x203d;" horiz-adv-x="1046" d="M270 241h282v-282h-282v282zM917 1094q0 -83 -21.5 -150.5t-56 -113.5t-76 -86t-83 -75.5t-76 -73.5t-56 -89.5t-21.5 -113.5v-41h-232v770h232v-278q67 56 105 109.5t38 118.5q0 31 -12 60t-39.5 58t-82 46.5t-129.5 17.5q-131 0 -240 -44l-37 -15l-83 195l35 17 q149 72 341 72q74 0 140.5 -10t133 -37t114 -69t77 -110.5t29.5 -157.5z" />
<glyph unicode="&#x2044;" horiz-adv-x="1036" d="M817 1462h270l-867 -1503h-271z" />
<glyph unicode="&#x204b;" horiz-adv-x="1326" d="M189 1552h576q34 0 59.5 -1t68 -5t75.5 -11.5t74.5 -22.5t73 -35.5t63.5 -53t52 -72.5t33 -96t13 -122q0 -104 -28 -188t-71.5 -136.5t-103 -89t-116.5 -52.5t-118 -21v-687h-247v1361h-158v-1361h-246v1593z" />
<glyph unicode="&#x205f;" horiz-adv-x="539" />
<glyph unicode="&#x20ac;" horiz-adv-x="1335" d="M240 463h-231v212h202q-1 10 -1 33q0 44 5 99h-142v212h187q74 210 240 331.5t390 121.5q182 0 364 -79l35 -15l-73 -218l-40 16q-167 64 -289 64q-117 0 -211 -59t-153 -162h426v-212h-497q-7 -45 -7 -99q0 -22 1 -33h439v-212h-390q56 -129 165 -207.5t258 -78.5 q129 0 275 57l39 15l74 -200l-33 -16q-196 -94 -393 -94q-238 0 -408.5 143t-231.5 381z" />
<glyph unicode="&#x2122;" horiz-adv-x="1424" d="M408 918h-148v488h-175v130h498v-130h-175v-488zM665 1536h156l157 -289l151 289h160v-618h-148v373l-120 -221h-98l-110 218v-370h-148v618z" />
<glyph unicode="&#xfb00;" horiz-adv-x="1968" d="M298 1047q0 33 0.5 53t4.5 55t11.5 58t22 54.5t35 52t52.5 43t73 36t97 22t124 8.5q125 0 262 -41l36 -11l-41 -200l-42 10q-95 23 -148 23q-123 0 -182 -41t-59 -115v-66h738v59q0 33 0.5 53t4.5 55t11.5 58t22 54.5t35 52t52.5 43t73 36t97 22t124 8.5q125 0 262 -41 l36 -11l-41 -200l-42 10q-95 23 -148 23q-123 0 -182 -41t-59 -115v-66h395v-211h-395v-777h-246v777h-738v-777h-246v777h-163v211h163v59z" />
<glyph unicode="&#xfb01;" horiz-adv-x="1590" d="M1164 988h246v-988h-246v988zM1149 1421h276v-271h-276v271zM298 1047q0 33 0.5 53t4.5 55t11.5 58t22 54.5t35 52t52.5 43t73 36t97 22t124 8.5q125 0 262 -41l36 -11l-41 -200l-42 10q-95 23 -148 23q-123 0 -182 -41t-59 -115v-66h395v-211h-395v-777h-246v777h-163 v211h163v59z" />
<glyph unicode="&#xfb02;" horiz-adv-x="1630" d="M1184 1511h246v-1511h-246v1511zM298 1047q0 33 0.5 53t4.5 55t11.5 58t22 54.5t35 52t52.5 43t73 36t97 22t124 8.5q125 0 262 -41l36 -11l-41 -200l-42 10q-95 23 -148 23q-123 0 -182 -41t-59 -115v-66h395v-211h-395v-777h-246v777h-163v211h163v59z" />
<glyph unicode="&#xfb03;" horiz-adv-x="2574" d="M298 1047q0 33 0.5 53t4.5 55t11.5 58t22 54.5t35 52t52.5 43t73 36t97 22t124 8.5q125 0 262 -41l36 -11l-41 -200l-42 10q-95 23 -148 23q-123 0 -182 -41t-59 -115v-66h738v59q0 33 0.5 53t4.5 55t11.5 58t22 54.5t35 52t52.5 43t73 36t97 22t124 8.5q125 0 262 -41 l36 -11l-41 -200l-42 10q-95 23 -148 23q-123 0 -182 -41t-59 -115v-66h395v-211h-395v-777h-246v777h-738v-777h-246v777h-163v211h163v59zM2148 988h246v-988h-246v988zM2133 1421h276v-271h-276v271z" />
<glyph unicode="&#xfb04;" horiz-adv-x="2614" d="M298 1047q0 33 0.5 53t4.5 55t11.5 58t22 54.5t35 52t52.5 43t73 36t97 22t124 8.5q125 0 262 -41l36 -11l-41 -200l-42 10q-95 23 -148 23q-123 0 -182 -41t-59 -115v-66h738v59q0 33 0.5 53t4.5 55t11.5 58t22 54.5t35 52t52.5 43t73 36t97 22t124 8.5q125 0 262 -41 l36 -11l-41 -200l-42 10q-95 23 -148 23q-123 0 -182 -41t-59 -115v-66h395v-211h-395v-777h-246v777h-738v-777h-246v777h-163v211h163v59zM2168 1511h246v-1511h-246v1511z" />
</font>
</defs>
</svg>
