<?xml version="1.0" standalone="no"?>
<!DOCTYPE svg PUBLIC "-//W3C//DTD SVG 1.1//EN" "http://www.w3.org/Graphics/SVG/1.1/DTD/svg11.dtd" >
<svg xmlns="http://www.w3.org/2000/svg">
<metadata>
This is a custom SVG webfont generated by Font Squirrel.
Designer    : Dave Crossland
Foundry URL : http://abattis.org
</metadata>
<defs>
<font id="webfontuXa7Y46b" horiz-adv-x="1328" >
<font-face units-per-em="2048" ascent="1514" descent="-534" />
<missing-glyph horiz-adv-x="560" />
<glyph unicode=" "  horiz-adv-x="560" />
<glyph unicode="&#x09;" horiz-adv-x="560" />
<glyph unicode="&#xa0;" horiz-adv-x="560" />
<glyph unicode="!" horiz-adv-x="650" d="M253 241h282l-81 -282h-282zM618 1462h252l-299 -1045h-252z" />
<glyph unicode="&#x22;" horiz-adv-x="795" d="M514 1552h267l-146 -510h-267zM904 1552h267l-146 -510h-267z" />
<glyph unicode="#" horiz-adv-x="1402" d="M741 1462h242l-112 -391h276l112 391h242l-112 -391h316l-66 -232h-316l-78 -270h316l-66 -232h-316l-117 -408h-242l117 408h-276l-117 -408h-242l117 408h-316l66 232h316l78 270h-318l66 232h318zM805 839l-78 -270h276l78 270h-276z" />
<glyph unicode="$" horiz-adv-x="1364" d="M801 968q-1 -3 -1 -10q0 -28 55 -52.5t133 -47t156.5 -52t133.5 -82t55 -122.5q0 -28 -9 -59q-14 -47 -42 -92.5t-76.5 -92t-128.5 -83t-181 -52.5l-83 -288h-249l80 277q-148 8 -298 73l-33 14l130 191l34 -15q82 -37 141 -50.5t134 -13.5q147 0 217 28t86 86q1 3 1 8 q0 26 -39.5 47t-98.5 35t-128 36.5t-128 48.5t-98.5 73t-39.5 109q0 32 10 66q12 42 40 84t74.5 84.5t122 77.5t169.5 52l76 265h249l-71 -248q78 -2 125.5 -10.5t115.5 -28.5l38 -11l-123 -192l-36 9q-120 34 -243 34q-119 0 -189 -30t-81 -66z" />
<glyph unicode="%" horiz-adv-x="1493" d="M763 1227q-96 0 -134 -133q-14 -49 -14 -80q0 -73 67 -73q97 0 140 148q12 42 12 69q0 69 -71 69zM815 1404q41 0 78 -9t71.5 -29.5t55 -60.5t20.5 -96q0 -51 -19 -117q-43 -148 -153 -237.5t-238 -89.5q-91 0 -147.5 46t-56.5 146q0 58 22 136q43 148 147.5 229.5 t219.5 81.5zM1275 486q-98 0 -136 -133q-13 -44 -13 -78q0 -75 68 -75q97 0 140 148q12 42 12 69q0 69 -71 69zM1327 664q87 0 147.5 -44t60.5 -145q0 -55 -20 -124q-43 -149 -146.5 -237.5t-225.5 -88.5q-97 0 -159 47.5t-62 151.5q0 58 20 128q43 148 153.5 230t231.5 82z M1597 1421h271l-1511 -1421h-272z" />
<glyph unicode="&#x26;" horiz-adv-x="1589" d="M1418 1175q-11 -37 -32 -74.5t-42.5 -66t-59.5 -62.5l-62 -56q-24 -21 -72 -54l-70 -48l-72 -46l200 -307l423 352l107 -152l-425 -359l223 -343h-315l-125 184q-62 -46 -115.5 -80t-129.5 -72t-163 -58.5t-177 -20.5q-149 0 -228.5 71t-79.5 188q0 51 17 111 q21 72 63 141t86 118t105 99t100 76l90 59q-45 66 -70 124t-25 126q0 49 14 98q46 158 204 258t345 100q139 0 218.5 -62.5t79.5 -164.5q0 -37 -12 -79zM1050 1256q-75 0 -140 -43t-81 -99q-5 -18 -5 -31q0 -15 3.5 -29t13.5 -31.5t17 -27.5l23 -35l24 -34q151 95 188 125 q55 46 68 92q3 12 3 25q0 37 -29 62.5t-85 25.5zM774 616q-64 -41 -101 -67.5t-81.5 -64t-71 -76t-38.5 -81.5q-7 -24 -7 -49q0 -60 42 -98.5t116 -38.5q84 0 170.5 43.5t184.5 115.5z" />
<glyph unicode="'" horiz-adv-x="405" d="M514 1552h267l-146 -510h-267z" />
<glyph unicode="(" horiz-adv-x="742" d="M974 1602l174 -107l-33 -37q-282 -317 -428.5 -651t-146.5 -665q0 -228 70 -445l11 -34l-234 -128l-12 36q-91 281 -91 569q0 225 60 436q41 141 112 288t158 277t166.5 231.5t164.5 196.5z" />
<glyph unicode=")" horiz-adv-x="742" d="M728 576q-41 -144 -114.5 -294.5t-162 -282.5t-168 -234t-162.5 -194l-32 -36l-162 128l31 34q79 88 148.5 178.5t151 224t139 267.5t96.5 303.5t39 337.5q0 226 -69 450l-11 37l234 107l11 -33q90 -278 90 -562q0 -227 -59 -431z" />
<glyph unicode="*" horiz-adv-x="1196" d="M889 1462h256l-95 -281l278 154l64 -223l-286 -125l214 -127l-192 -223l-190 154l-65 -280h-256l95 280l-278 -154l-64 223l287 127l-215 125l192 223l190 -154z" />
<glyph unicode="+" horiz-adv-x="1400" d="M950 1274h230l-145 -506h501l-63 -220h-501l-145 -506h-230l145 506h-501l63 220h501z" />
<glyph unicode="," horiz-adv-x="570" d="M233 211h269l-327 -472h-269z" />
<glyph unicode="-" horiz-adv-x="1210" d="M355 769h942l-64 -221h-942z" />
<glyph unicode="." horiz-adv-x="570" d="M211 251h292l-84 -292h-292z" />
<glyph unicode="/" horiz-adv-x="726" d="M925 1462h257l-980 -1593h-257z" />
<glyph unicode="0" horiz-adv-x="1464" d="M1077 1205q-48 0 -99.5 -14t-112 -48.5t-113.5 -87t-102 -137t-79 -190.5q-35 -120 -35 -220q0 -80 23.5 -140.5t62.5 -92.5t82.5 -47.5t90.5 -15.5t99 14.5t112.5 51.5t114.5 92.5t104.5 146t83.5 204.5q32 112 32 198q0 78 -24 136t-64 89t-84 46t-92 15zM1144 1440 q67 0 130 -13.5t124 -46.5t106 -82.5t72.5 -127t27.5 -174.5q0 -122 -43 -271q-40 -139 -100 -255t-130.5 -195t-148 -138t-158 -92.5t-153.5 -49t-143 -15.5q-67 0 -129.5 14t-123 48t-104.5 84.5t-71 130t-27 178.5q0 131 46 292q38 133 97 243.5t129 186.5t146.5 132.5 t157 88.5t153.5 47t142 15z" />
<glyph unicode="1" horiz-adv-x="1464" d="M1072 1421h288l-341 -1190h344l-66 -231h-992l66 231h359l270 942l-348 -108l-37 207z" />
<glyph unicode="2" horiz-adv-x="1464" d="M274 131q73 117 168 219t187 173t187 132.5t178 106.5l150 86q67 41 111.5 80.5t55.5 78.5q5 18 5 32q0 68 -75.5 115.5t-195.5 47.5q-164 0 -420 -80l-42 -13l-18 206l41 16q263 100 541 100q214 0 331 -81t117 -212q0 -45 -13 -88q-28 -97 -105 -178t-183 -148 l-218 -131q-112 -65 -237 -159.5t-212 -201.5h747l-67 -232h-1071z" />
<glyph unicode="3" horiz-adv-x="1464" d="M620 1332q244 106 488 106q197 0 310.5 -75.5t113.5 -200.5q0 -38 -12 -82q-27 -92 -91.5 -170.5t-152.5 -128.5q141 -71 141 -222q0 -55 -16 -109q-64 -223 -279.5 -359t-508.5 -136q-221 0 -391 80l-32 15l134 211l34 -10q196 -56 326 -56q161 0 292 62.5t160 161.5 q6 19 6 42q0 27 -10.5 51.5t-39.5 49t-74.5 42t-121 28.5t-173.5 11h-47l66 228h47q115 0 204.5 17.5t140 46.5t77.5 58t36 59q4 12 4 27q0 55 -63 89t-172 34q-163 0 -365 -79l-44 -18l-26 210z" />
<glyph unicode="4" horiz-adv-x="1546" d="M1162 1421h341l-254 -886h248l-66 -232h-248l-87 -303h-246l87 303h-730l45 158zM972 535l165 574l-547 -574h382z" />
<glyph unicode="5" horiz-adv-x="1464" d="M650 1421h1020l-66 -232h-765l-75 -260q104 8 188 8q118 0 209 -19.5t147.5 -52t92.5 -77.5t49.5 -91t13.5 -99q0 -62 -18 -124q-19 -65 -53.5 -127.5t-102 -130.5t-157 -119t-226.5 -84t-301 -33q-207 0 -387 36l-39 8l115 232l38 -9q140 -31 326 -31q106 0 193 16 t142.5 41t95.5 58.5t60 64t29 62.5q7 26 7 47q0 37 -17 69.5t-55.5 63t-113.5 48t-179 17.5q-122 0 -337 -24l-48 -5z" />
<glyph unicode="6" horiz-adv-x="1464" d="M1438 1432q56 0 128 -7l38 -4l-84 -230l-41 4q-51 6 -103 6q-114 0 -210 -17t-164 -45t-124.5 -68.5t-92.5 -81.5t-66 -91q155 75 330 75q203 0 305 -94.5t102 -243.5q0 -87 -34 -179.5t-100.5 -178t-155.5 -153.5t-208.5 -108.5t-249.5 -40.5q-62 0 -116 9t-110 33.5 t-96 63.5t-65 105t-25 151q0 110 40 247q244 848 1102 848zM940 751q-130 0 -238.5 -72t-141.5 -184q-10 -34 -10 -71q0 -95 65.5 -161t177.5 -66q125 0 241 85t150 202q10 34 10 68q0 91 -72.5 145t-181.5 54z" />
<glyph unicode="7" horiz-adv-x="1464" d="M538 1421h1202l-42 -149l-1126 -1272h-290l1062 1179h-875z" />
<glyph unicode="8" horiz-adv-x="1464" d="M1072 1215q-100 0 -180.5 -49t-97.5 -110q-5 -18 -5 -32q0 -27 16 -51t37.5 -40.5t57.5 -32.5t61.5 -24.5t63.5 -19.5q126 61 182 101.5t70 89.5q6 21 6 39q0 62 -59.5 95.5t-151.5 33.5zM1181 438q9 32 9 59q0 44 -21.5 80.5t-62.5 63.5t-89 46.5t-111 36.5 q-146 -38 -246 -115.5t-125 -162.5q-7 -22 -7 -47q0 -80 73.5 -133.5t206.5 -53.5q140 0 243 65.5t130 160.5zM1137 1440q212 0 317 -67.5t105 -191.5q0 -49 -17 -108q-23 -82 -83.5 -148.5t-161.5 -130.5q155 -99 155 -261q0 -49 -16 -108q-24 -85 -84 -163.5t-147.5 -142 t-211 -101.5t-261.5 -38q-218 0 -349 89.5t-131 237.5q0 47 15 100q32 111 127 212.5t225 168.5q-93 78 -93 199q0 44 13 90q45 155 206.5 259t391.5 104z" />
<glyph unicode="9" horiz-adv-x="1464" d="M1163 1441q61 0 114.5 -9t109 -33.5t95 -63.5t64.5 -104.5t25 -150.5q0 -108 -41 -252q-46 -160 -114 -290t-152.5 -220.5t-180.5 -156.5t-205 -103.5t-218 -55t-229 -17.5q-67 0 -129 6l-38 4l85 230l40 -4q41 -5 104 -5q123 0 223.5 19.5t169 49.5t123.5 77t88 92 t63 103q-158 -74 -328 -74q-192 0 -301.5 90.5t-109.5 240.5q0 61 19 125q39 136 142.5 250t257 183t323.5 69zM1075 1219q-121 0 -238 -82t-146 -182q-8 -29 -8 -53q0 -85 73.5 -141t182.5 -56q127 0 237.5 70.5t138.5 168.5q7 24 7 53q0 89 -68.5 155.5t-178.5 66.5z" />
<glyph unicode=":" horiz-adv-x="570" d="M435 1034h292l-83 -292h-292zM211 251h292l-84 -292h-292z" />
<glyph unicode=";" horiz-adv-x="570" d="M435 1034h292l-83 -292h-292zM233 211h269l-327 -472h-269z" />
<glyph unicode="&#x3c;" horiz-adv-x="1073" d="M1356 1194l-70 -246l-741 -326l558 -311l-73 -256l-826 452l63 217z" />
<glyph unicode="=" horiz-adv-x="1400" d="M334 542h1042l-66 -232h-1042zM464 995h1042l-66 -232h-1042z" />
<glyph unicode="&#x3e;" horiz-adv-x="1073" d="M401 1194l821 -470l-63 -217l-1084 -452l73 256l736 311l-553 326z" />
<glyph unicode="?" horiz-adv-x="1046" d="M339 241h282l-81 -282h-282zM1232 1097q-25 -86 -65.5 -154.5t-87 -113t-97.5 -81.5l-102 -72q-50 -34 -94.5 -71t-81 -91t-55.5 -122l-11 -41h-252l11 41q26 90 68 163t90 121.5t101 89t103.5 73t93.5 64.5t76.5 74t47.5 92q7 25 7 47q0 58 -51 97.5t-178 39.5 q-54 0 -123 -13t-117 -31l-43 -16l-27 196l40 17q166 72 362 72q191 0 297 -67.5t106 -199.5q0 -53 -18 -114z" />
<glyph unicode="@" horiz-adv-x="2100" d="M1551 959l32 50h183l-217 -757q-26 -89 -26 -130q0 -61 59 -61q24 0 58.5 20t80 65.5t94 140t85.5 223.5q48 165 48 290q0 91 -26 161t-83.5 124.5t-157 83t-238.5 28.5q-119 0 -227 -26.5t-192.5 -71.5t-159 -107.5t-128.5 -129.5t-99 -143.5t-73.5 -144.5t-47.5 -136 q-36 -128 -36 -232q0 -215 131.5 -332.5t335.5 -117.5q147 0 292 63l41 17l46 -190l-42 -19q-211 -95 -426 -95q-54 0 -109.5 6t-121 23.5t-123.5 44t-113.5 70.5t-95.5 101t-64 139t-24 179q0 139 49 309q31 107 73 207.5t105.5 205.5t140 195t179.5 170t220.5 136.5 t266.5 89t314 32.5q663 0 663 -533q0 -163 -62 -377q-47 -164 -117 -291t-140 -199.5t-148.5 -118.5t-138 -61.5t-112.5 -15.5q-87 0 -145 41.5t-76 113.5q-138 -60 -267 -60q-174 0 -261 95.5t-87 248.5q0 93 31.5 194t92.5 194t141.5 167.5t188.5 119.5t224 45 q112 0 209 -44zM1306 799q-127 0 -229 -85t-147 -239q-19 -66 -19 -121q0 -99 58 -151.5t156 -52.5q81 0 168 36l167 581q-76 32 -154 32z" />
<glyph unicode="A" horiz-adv-x="1547" d="M1100 1421h276l155 -1421h-259l-52 372h-580l-266 -372h-244zM1198 603l-51 527l-354 -527h405z" />
<glyph unicode="B" horiz-adv-x="1588" d="M1122 1209h-233l-113 -394q219 5 311 21q232 41 276 194q7 26 7 47q0 132 -248 132zM979 655q-8 0 -252 -11l-118 -412h224q40 0 68.5 0.5t80 4.5t89.5 11.5t84.5 22.5t79.5 36t60.5 53.5t39.5 73.5q7 22 7 45q0 83 -96 129.5t-267 46.5zM697 1421h542q100 0 177 -17 t122.5 -43.5t74.5 -63.5t39.5 -73t10.5 -76q0 -43 -13 -89q-19 -68 -76.5 -138t-127.5 -118q76 -35 118 -103t42 -153q0 -49 -15 -101q-9 -33 -25.5 -67.5t-48.5 -79.5t-74 -85.5t-106 -80.5t-139.5 -68.5t-180.5 -46.5t-224 -18h-503z" />
<glyph unicode="C" horiz-adv-x="1615" d="M1495 1431q225 0 403 -79l32 -15l-141 -216l-34 13q-175 65 -332 65q-124 0 -241 -40.5t-206 -108.5t-153 -156t-91 -184q-19 -68 -19 -126q0 -161 123 -263.5t347 -102.5q164 0 344 58l41 13l25 -200l-42 -16q-243 -93 -485 -93q-302 0 -461.5 140.5t-159.5 371.5 q0 104 33 217q44 154 137 286t223 229t299.5 152t357.5 55z" />
<glyph unicode="D" horiz-adv-x="1770" d="M1150 1189h-259l-274 -957h183q69 0 115 2t121.5 14t133.5 33.5t126 65t123 105.5q101 115 144 267q22 79 22 145q0 73 -25.5 131.5t-69 95.5t-94.5 59.5t-110 31.5q-48 7 -136 7zM1209 1421q146 0 259.5 -24.5t186 -66t119.5 -101t66 -124.5t19 -141q0 -96 -33 -212 q-26 -92 -65.5 -177.5t-103.5 -174t-143.5 -159t-191 -127t-242.5 -83.5q-67 -14 -146 -21.5t-129 -8.5t-139 -1h-368l407 1421h504z" />
<glyph unicode="E" horiz-adv-x="1447" d="M290 0l407 1421h997l-66 -232h-744l-98 -341h689l-66 -232h-689l-110 -384h744l-67 -232h-997z" />
<glyph unicode="F" horiz-adv-x="1412" d="M884 1189l-98 -341h674l-66 -232h-674l-177 -616h-253l407 1421h987l-66 -232h-734z" />
<glyph unicode="G" horiz-adv-x="1755" d="M1664 206q-273 -226 -657 -226q-132 0 -237.5 27.5t-176 74.5t-117.5 113t-68 140.5t-21 159.5q0 104 31 214q32 113 93.5 218t153.5 197t204 160.5t254.5 108t297.5 39.5q282 0 472 -126l30 -20l-162 -198l-31 19q-62 36 -160 64.5t-206 28.5q-143 0 -283.5 -55.5 t-252.5 -167.5t-154 -258q-20 -67 -20 -135q0 -168 126 -269.5t338 -101.5q184 0 325 83l78 273h-445l64 222h692z" />
<glyph unicode="H" horiz-adv-x="1764" d="M1709 1421h252l-407 -1421h-252l177 617h-760l-177 -617h-252l407 1421h252l-164 -572h760z" />
<glyph unicode="I" horiz-adv-x="812" d="M727 1421h252l-407 -1421h-252z" />
<glyph unicode="J" horiz-adv-x="1117" d="M1069 1421h252l-260 -910q-15 -54 -33 -100t-48.5 -101.5t-67.5 -100t-92.5 -88.5t-121 -73t-155.5 -47t-194 -18q-108 0 -199 25l-35 10l106 222l39 -10q58 -15 128 -15q66 0 123 12.5t96.5 31t73 46.5t53.5 53t36.5 57.5t24 52.5t14.5 45z" />
<glyph unicode="K" horiz-adv-x="1581" d="M763 770l834 651h323l-878 -680l507 -741h-327l-483 688l-197 -688h-252l407 1421h252z" />
<glyph unicode="L" horiz-adv-x="1297" d="M697 1421h252l-341 -1190h720l-66 -231h-972z" />
<glyph unicode="M" horiz-adv-x="2048" d="M697 1421h306l238 -816l713 816h291l-407 -1421h-252l305 1063l-592 -656h-238l-214 656l-305 -1063h-252z" />
<glyph unicode="N" horiz-adv-x="1823" d="M697 1421h278l480 -1092l313 1092h252l-407 -1421h-281l-476 1094l-314 -1094h-252z" />
<glyph unicode="O" horiz-adv-x="1850" d="M1378 1436q268 0 423.5 -130t155.5 -359q0 -104 -34 -221q-62 -218 -205.5 -386.5t-342 -261.5t-421.5 -93q-121 0 -224 31t-181 91t-122 155t-44 215q0 107 35 230q63 219 206.5 385.5t339 255t414.5 88.5zM1302 1205q-91 0 -183 -28.5t-178.5 -84.5t-155.5 -150.5 t-104 -214.5q-25 -87 -25 -163q0 -162 103.5 -255t275.5 -93q89 0 181 29t179 86t158 155t107 223q25 87 25 160q0 85 -32.5 151.5t-87 105.5t-121.5 59t-142 20z" />
<glyph unicode="P" horiz-adv-x="1503" d="M697 1421h510q51 0 85.5 -1t91.5 -6.5t97 -15.5t86 -30.5t74.5 -48.5t48 -72t19.5 -99q0 -58 -20 -127q-26 -90 -70 -162.5t-95.5 -121t-120.5 -84t-134 -55.5t-147.5 -31.5t-149 -15t-150.5 -3.5q-42 0 -122 4l-158 -552h-252zM883 1189l-116 -405q77 -5 139 -5 q83 0 141.5 3.5t126.5 16t113.5 35t83 63t53.5 97.5q8 27 8 54q0 36 -19 62.5t-48.5 41.5t-77 23.5t-92 11t-105.5 2.5h-207z" />
<glyph unicode="Q" horiz-adv-x="1870" d="M1378 1436q151 0 264.5 -39.5t180 -109.5t98.5 -158t32 -193q0 -178 -83.5 -365.5t-220.5 -322.5l135 -173l-190 -148l-148 182q-226 -124 -482 -124q-267 0 -424.5 129.5t-157.5 362.5q0 108 35 228q96 333 361.5 532t599.5 199zM1297 1205q-88 0 -178 -28t-176.5 -83.5 t-157 -151.5t-105.5 -219q-25 -87 -25 -162q0 -165 110.5 -255t286.5 -90q131 0 251 53l-257 269l222 155l244 -271q92 106 138 265q29 101 29 184q0 75 -24 135t-62 96.5t-89.5 60t-102 33t-104.5 9.5z" />
<glyph unicode="R" horiz-adv-x="1601" d="M1682 1014q-41 -144 -148.5 -257.5t-283.5 -162.5l259 -594h-328l-240 551h-241l-158 -551h-252l407 1421h605q402 0 402 -266q0 -62 -22 -141zM883 1190l-116 -407h232q77 0 134 7t117.5 27.5t101.5 64t60 109.5q9 31 9 58q0 141 -259 141h-279z" />
<glyph unicode="S" horiz-adv-x="1525" d="M1338 1434q199 0 376 -59l38 -12l-149 -232l-35 11q-168 50 -315 50t-265 -48t-140 -123q-4 -13 -4 -27q0 -39 37.5 -70.5t98 -54t133.5 -44.5t145.5 -50t133 -63t98 -90t37.5 -124q0 -39 -14 -89q-17 -60 -54.5 -118.5t-102 -115.5t-148 -99.5t-202 -69t-255.5 -26.5 t-239 25.5t-212 73.5l-33 14l154 242l35 -15q228 -90 391 -90q154 0 263 47t131 124q5 20 5 33q0 43 -38 76t-99 56t-134 44t-146.5 47.5t-134.5 59.5t-99 86t-38 121q0 41 13 86q52 180 263 302t505 122z" />
<glyph unicode="T" horiz-adv-x="1374" d="M492 1421h1284l-66 -232h-516l-341 -1189h-252l341 1189h-516z" />
<glyph unicode="U" horiz-adv-x="1737" d="M903 -20q-507 0 -507 312q0 23 2.5 46.5t7.5 48.5t8.5 40t10.5 40.5t8 30.5l264 923h252l-258 -901q-21 -77 -21 -119q0 -59 32 -99q72 -93 267 -93q107 0 191 28t129.5 64.5t77 85t41 76t15.5 51.5q1 5 1 6l258 901h250l-258 -910q-14 -47 -27.5 -84.5t-43.5 -95.5 t-66.5 -102.5t-96.5 -93.5t-133 -81t-177 -53t-227 -21z" />
<glyph unicode="V" horiz-adv-x="1565" d="M547 1421h289l89 -1150l746 1150h274l-957 -1421h-299z" />
<glyph unicode="W" horiz-adv-x="2411" d="M547 1421h266l14 -1092l724 1092h232l25 -1092l713 1092h266l-952 -1421h-241l-30 1087l-714 -1087h-241z" />
<glyph unicode="X" horiz-adv-x="1532" d="M1632 1421h295l-694 -677l342 -744h-319l-256 566l-580 -566h-310l775 741l-306 680h304l238 -502z" />
<glyph unicode="Y" horiz-adv-x="1427" d="M507 1421h298l222 -551l546 551h288l-762 -757l-190 -664h-283l190 664z" />
<glyph unicode="Z" horiz-adv-x="1522" d="M592 1421h1250l-43 -153l-1215 -1036h945l-67 -232h-1307l44 155l1194 1034h-867z" />
<glyph unicode="[" horiz-adv-x="788" d="M654 1552h540l-66 -231h-294l-442 -1541h294l-66 -231h-540z" />
<glyph unicode="\" horiz-adv-x="726" d="M382 1462h257l66 -1593h-257z" />
<glyph unicode="]" horiz-adv-x="778" d="M484 1552h540l-574 -2003h-540l66 231h294l442 1541h-294z" />
<glyph unicode="^" horiz-adv-x="1479" d="M1185 1601l212 -348l-193 -145l-119 194l-233 -193l-111 135z" />
<glyph unicode="_" horiz-adv-x="1160" d="M164 191h942l-67 -232h-942z" />
<glyph unicode="`" horiz-adv-x="1122" d="M802 1643l473 -353l-155 -178l-487 336z" />
<glyph unicode="a" horiz-adv-x="1222" d="M871 982q370 0 370 -229q0 -51 -20 -121l-182 -632h-184l-9 65q-155 -85 -323 -85q-157 0 -246 65t-89 163q0 31 8 58q26 89 96.5 150t179.5 92.5t223 44.5t260 15l9 32q11 38 11 62q0 102 -199 102q-110 0 -304 -44l-43 -11l6 197l38 12q201 64 398 64zM864 251l38 131 h-24q-198 0 -300 -22.5t-117 -75.5q-1 -3 -1 -10q0 -32 49.5 -57.5t127.5 -25.5q118 0 227 60z" />
<glyph unicode="b" horiz-adv-x="1333" d="M619 1511h246l-164 -572q139 44 271 44q62 0 117 -10t107 -33.5t89.5 -59.5t60 -91.5t22.5 -126.5q0 -74 -27 -170q-68 -240 -254 -376t-437 -136q-149 0 -260 52l-23 -32h-182zM843 765q-99 0 -201 -31l-148 -515q94 -28 188 -28q45 0 88.5 6.5t95 25.5t93.5 48.5t78 80 t55 115.5q16 57 16 102q0 47 -17 83t-43.5 57t-63 34t-70.5 17.5t-71 4.5z" />
<glyph unicode="c" horiz-adv-x="1147" d="M259 461q33 114 90 204t127 148.5t155.5 97t171 54.5t177.5 16q167 0 289 -62l30 -15l-119 -193l-34 13q-90 34 -203 34q-358 0 -434 -267q-15 -54 -15 -96q0 -198 310 -198q92 0 187 30l42 12l12 -187l-41 -14q-163 -58 -333 -58q-72 0 -134 9.5t-119 32t-97 58 t-64 90.5t-24 126q0 75 26 165z" />
<glyph unicode="d" horiz-adv-x="1338" d="M260 466q71 248 258 382.5t434 134.5q115 0 219 -34l161 562h246l-433 -1511h-182l-7 46q-161 -66 -324 -66q-80 0 -149 17t-126 53.5t-90 100t-33 149.5q0 76 26 166zM758 197q97 0 207 34l147 513q-96 28 -191 28q-44 0 -86.5 -6t-94.5 -25t-94.5 -49t-80 -82.5 t-56.5 -120.5q-15 -54 -15 -96q0 -57 24.5 -97.5t65.5 -61t83.5 -29t90.5 -8.5z" />
<glyph unicode="e" horiz-adv-x="1240" d="M966 982q322 0 322 -261q0 -89 -44 -246l-32 -110h-724q1 -70 81.5 -121t236.5 -51q111 0 234 34l43 11l-6 -189l-39 -12q-179 -57 -363 -57q-123 0 -212 25t-138 70t-71 99.5t-22 121.5q0 73 24 156q38 134 115 238t174.5 166.5t204 94t216.5 31.5zM862 758 q-112 0 -195 -53.5t-118 -133.5h487q7 37 7 56q0 131 -181 131z" />
<glyph unicode="f" horiz-adv-x="960" d="M585 1026l17 56q6 21 20.5 58t28.5 61t38 57t50.5 55t65 46t82.5 38t102 23t124 9q123 0 246 -41l33 -11l-99 -204l-38 11q-85 26 -137 26q-234 0 -284 -173l-21 -74h385l-61 -211h-385l-260 -908q-37 -130 -85 -197q-126 -178 -436 -178q-123 0 -246 40l-32 11l96 196 l38 -10q82 -22 138 -22q236 0 279 153l262 915h-159l61 211h159z" />
<glyph unicode="g" horiz-adv-x="1326" d="M949 983q128 0 258 -63l28 43h185l-285 -992q-22 -75 -55 -142t-91.5 -137t-133 -119.5t-185.5 -81.5t-243 -32q-188 0 -338 67l-32 16l131 194l36 -15q116 -43 240 -43q311 0 414 267q4 9 27 80q-137 -45 -262 -45q-82 0 -152.5 18.5t-129 56.5t-92 104.5t-33.5 153.5 q0 76 26 166q32 110 93.5 199t134 144.5t157 93t159 52.5t143.5 15zM900 768q-136 0 -239.5 -74t-139.5 -199q-14 -51 -14 -94q0 -93 63 -148.5t189 -55.5q94 0 205 35l143 500q-114 36 -207 36z" />
<glyph unicode="h" d="M901 753q-115 0 -269 -53l-201 -700h-246l434 1511h246l-172 -599q197 69 349 69q294 0 294 -238q0 -77 -35 -195l-157 -548h-244l160 559q12 38 12 70q0 124 -171 124z" />
<glyph unicode="i" horiz-adv-x="606" d="M572 1421h276l-77 -271h-276zM463 988h246l-283 -988h-246z" />
<glyph unicode="j" horiz-adv-x="601" d="M582 1421h276l-78 -271h-276zM473 988h246l-311 -1084q-14 -50 -27 -85.5t-45 -92t-73 -98.5t-111 -86.5t-159 -73.5l-37 -12l-39 194l42 18q155 66 198 219z" />
<glyph unicode="k" horiz-adv-x="1225" d="M591 591l582 417h297l-635 -452l361 -556h-302l-331 492l-141 -492h-246l433 1511h246z" />
<glyph unicode="l" horiz-adv-x="646" d="M633 1511h246l-433 -1511h-246z" />
<glyph unicode="m" horiz-adv-x="1958" d="M865 749q-87 0 -244 -52l-199 -697h-246l276 963h183l9 -65q198 84 367 84q170 0 236 -99q210 98 419 98q159 0 228 -60t69 -170q0 -72 -30 -179l-163 -572h-246l161 564q11 41 11 71q0 114 -161 114q-92 0 -250 -52q-5 -49 -30 -136l-160 -561h-246l162 568q11 41 11 67 q0 114 -157 114z" />
<glyph unicode="n" horiz-adv-x="1314" d="M452 963h172l14 -68q229 88 402 88q285 0 285 -227q0 -75 -32 -187l-163 -569h-246l161 562q13 48 13 76q0 115 -167 115q-112 0 -269 -53l-200 -700h-246z" />
<glyph unicode="o" horiz-adv-x="1359" d="M964 982q199 0 313.5 -86.5t114.5 -246.5q0 -72 -23 -150q-69 -240 -261.5 -379.5t-449.5 -139.5q-198 0 -309 88.5t-111 247.5q0 72 24 156q68 235 256.5 372.5t445.5 137.5zM885 760q-119 0 -228.5 -69.5t-145.5 -194.5q-12 -44 -12 -83q0 -94 65 -152.5t179 -58.5 q128 0 234.5 73.5t141.5 195.5q13 43 13 83q0 98 -72.5 152t-174.5 54z" />
<glyph unicode="p" horiz-adv-x="1327" d="M971 982q61 0 115.5 -10t105.5 -33.5t88 -59t59.5 -91.5t22.5 -126q0 -75 -27 -171q-68 -239 -253 -375t-431 -136q-115 0 -215 34l-157 -545h-256l429 1494h182l9 -47q170 66 328 66zM844 764q-98 0 -203 -33l-146 -511q97 -29 187 -29q56 0 111 12t115 40.5t107.5 86 t70.5 137.5q16 57 16 103q0 57 -24 97.5t-64.5 60.5t-81.5 28t-88 8z" />
<glyph unicode="q" horiz-adv-x="1316" d="M938 983q128 0 266 -63l31 43h175l-429 -1494h-246l160 557q-142 -46 -271 -46q-79 0 -146 17t-123 53t-88.5 100t-32.5 151q0 81 27 175q36 124 108 223t164 160t195.5 92.5t209.5 31.5zM889 768q-137 0 -241 -74.5t-141 -203.5q-15 -56 -15 -97q0 -57 24 -97 t64.5 -60.5t82 -29t88.5 -8.5q95 0 203 34l143 500q-115 36 -208 36z" />
<glyph unicode="r" horiz-adv-x="933" d="M630 910q173 72 346 72q110 0 189 -43l29 -16l-134 -203l-34 14q-63 26 -141 26q-130 0 -259 -45l-204 -715h-246l276 963h164z" />
<glyph unicode="s" horiz-adv-x="1169" d="M877 290q0 1 0.5 3.5t0.5 3.5q0 24 -39.5 43.5t-98 32.5t-127.5 34.5t-127.5 46t-98 69t-39.5 102.5q0 27 9 58q11 38 36 76.5t74.5 79.5t116 72t168 51t222.5 20q71 0 126 -7.5t77 -13.5t66 -21l38 -12l-126 -201l-35 9q-118 36 -238 36q-75 0 -130.5 -11.5t-82.5 -29.5 t-38.5 -31.5t-15.5 -25.5q-1 -3 -1 -8q0 -25 55 -47t133 -43t156.5 -48t133.5 -76.5t55 -115.5q0 -23 -8 -52q-12 -42 -35.5 -80.5t-70.5 -80.5t-111.5 -72.5t-164 -50.5t-221.5 -20q-190 0 -356 78l-32 15l129 196l33 -14q157 -64 294 -64q245 0 273 99z" />
<glyph unicode="t" horiz-adv-x="924" d="M828 18q-156 -38 -253 -38q-162 0 -228 50t-66 139q0 56 24 138l128 445h-149l60 211h150l88 308h246l-88 -308h354l-61 -211h-354l-122 -424q-5 -20 -5 -38q0 -43 33 -71.5t111 -28.5q26 0 148 19l40 7l-16 -188z" />
<glyph unicode="u" d="M1174 963h246l-276 -963h-183l-10 67q-222 -87 -405 -87q-289 0 -289 229q0 78 31 185l164 569h246l-162 -563q-12 -40 -12 -73q0 -118 173 -118q115 0 276 53z" />
<glyph unicode="v" horiz-adv-x="1144" d="M1388 963l-662 -963h-259l-127 963h284l52 -709l454 709h258z" />
<glyph unicode="w" horiz-adv-x="1891" d="M335 963h256l26 -714l505 714h215l23 -716l517 716h264l-744 -963h-218l-29 692l-503 -692h-218z" />
<glyph unicode="x" horiz-adv-x="1205" d="M340 963h290l191 -352l382 352h277l-546 -490l250 -473h-291l-183 332l-359 -332h-276l525 474z" />
<glyph unicode="y" horiz-adv-x="1214" d="M325 963h282l109 -746l502 746h259l-1061 -1494h-300l392 514z" />
<glyph unicode="z" horiz-adv-x="1218" d="M422 963h895l-37 -127l-730 -625h575l-60 -211h-919l37 127l722 625h-543z" />
<glyph unicode="{" horiz-adv-x="828" d="M272 658q42 7 80 25t66 40t54 56t43 62t35 68.5t27 64.5l23 61l17 49q42 111 102.5 197t118 134t122.5 80t109 43t85 14l36 3l-12 -208l-46 -6q-51 -7 -100 -34.5t-86 -66.5q-43 -46 -77.5 -118t-60 -145.5t-57.5 -149.5t-88.5 -150t-134.5 -128q69 -77 69 -204 q0 -72 -29.5 -212.5t-29.5 -196.5q0 -42 12 -77q15 -39 48.5 -66.5t79.5 -34.5l43 -6l-108 -208l-34 3q-30 2 -61.5 10t-73.5 30.5t-73.5 56.5t-54 94.5t-22.5 137.5q0 60 13 126q4 23 16.5 78.5t19 96.5t6.5 76q0 96 -55 146q-35 32 -85 41l-32 5l59 208z" />
<glyph unicode="|" horiz-adv-x="884" d="M790 1642h246l-571 -1991h-246z" />
<glyph unicode="}" horiz-adv-x="828" d="M833 1084l-11 -52l-13 -62q-5 -25 -9.5 -60.5t-4.5 -64.5q0 -163 139 -187l32 -5l-59 -208l-36 -5q-49 -8 -91.5 -29t-74 -53.5t-55.5 -64.5t-44.5 -77.5t-33 -76t-27.5 -75.5t-22 -62q-42 -108 -104 -192.5t-120 -131t-123.5 -77.5t-107.5 -41t-79 -13l-36 -3l12 208 l47 6q51 7 100 34.5t86 66.5q43 46 76.5 117.5t59 144.5t57.5 149t88 150.5t135 128.5q-68 77 -68 200q0 72 30 214t30 198q0 47 -12 79q-15 39 -48.5 66.5t-79.5 34.5l-44 6l108 208l34 -3q33 -3 66 -11.5t74 -31.5t71 -57t51 -93.5t21 -135.5q0 -66 -14 -139z" />
<glyph unicode="~" horiz-adv-x="1400" d="M1278 1401q15 0 32.5 21.5t31 47.5t31.5 65q5 12 8 18l18 39l182 -30l-21 -42q-4 -9 -17 -36l-20 -42l-21.5 -41t-25.5 -43.5t-29 -40.5t-33.5 -38.5t-37.5 -31.5t-44 -26.5t-49.5 -16t-56.5 -6.5q-51 2 -92 22t-65.5 46.5t-43.5 52.5t-35 44t-30 18q-13 0 -25.5 -11 t-28.5 -40t-22 -42l-26 -54l-18 -39l-183 26l21 43q4 8 17 36l20 42l22 40q15 28 25.5 44t28.5 40t33.5 38.5t37.5 31.5t44 26t49.5 15.5t56.5 6.5q51 -2 92 -22t66 -46.5t44 -52.5t34.5 -44t29.5 -18z" />
<glyph unicode="&#xa1;" horiz-adv-x="650" d="M458 904h252l-388 -1355h-252zM575 1362h282l-81 -282h-282z" />
<glyph unicode="&#xa2;" horiz-adv-x="1021" d="M866 1270l81 282h203l-78 -272q95 -9 200 -59l31 -15l-121 -195l-35 13q-92 36 -194 36q-149 0 -247.5 -80.5t-141.5 -232.5q-23 -78 -23 -140q0 -60 21 -102.5t58.5 -64t77 -30.5t86.5 -9q85 0 181 31l43 13l12 -189l-41 -14q-126 -44 -220 -52l-84 -296h-203l86 300 q-127 24 -201 105.5t-74 221.5q0 89 30 192q64 222 208.5 369.5t344.5 187.5z" />
<glyph unicode="&#xa3;" horiz-adv-x="1300" d="M405 176l128 445h-176l62 217h176l29 100q35 121 93.5 215.5t126.5 153t149 97t156.5 53.5t154.5 15q121 0 236 -40l38 -13l-134 -197l-33 9q-80 23 -147 23q-74 0 -134 -18t-101.5 -48t-74.5 -75.5t-54 -93t-38 -108.5l-21 -73h530l-62 -217h-530l-128 -445h588 l-62 -217h-1078l62 217h244z" />
<glyph unicode="&#xa4;" horiz-adv-x="1300" d="M466 575q-6 31 -6 62q0 140 101 271l-124 174l236 183l125 -175q90 38 175 38q88 0 156 -38l222 173l131 -183l-224 -173q6 -31 6 -62q0 -139 -100 -269l123 -172l-236 -183l-122 172q-90 -38 -178 -38q-90 0 -155 37l-222 -173l-131 183zM910 905q-65 0 -126 -47.5 t-81 -116.5q-7 -22 -7 -46q0 -51 33 -84t86 -33q65 0 125.5 48t79.5 115q7 24 7 48q0 51 -32.5 83.5t-84.5 32.5z" />
<glyph unicode="&#xa5;" horiz-adv-x="1300" d="M491 1462h281l138 -558l467 558h271l-634 -722h251l-59 -207h-289l-34 -118h289l-59 -207h-289l-72 -249h-242l72 249h-275l59 207h275l34 118h-275l59 207h238z" />
<glyph unicode="&#xa6;" horiz-adv-x="884" d="M463 501h246l-244 -850h-246zM790 1642h246l-243 -846h-246z" />
<glyph unicode="&#xa7;" horiz-adv-x="1136" d="M1343 1430l39 -11l-132 -210l-35 12q-108 37 -228 37q-93 0 -161 -30.5t-82 -79.5q-2 -5 -2 -16q0 -29 35.5 -54.5t89 -43.5t115.5 -44t115.5 -54.5t89 -76.5t35.5 -108q0 -33 -10 -69q-34 -116 -127 -205q29 -46 29 -101q0 -29 -11 -70q-14 -48 -40 -95t-75 -97.5 t-113 -88t-159.5 -62t-208.5 -24.5h-13q-193 0 -347 68l-33 15l131 199l35 -13q148 -58 273 -58q234 0 274 136q2 6 2 17q0 30 -35 53.5t-87 39.5t-113.5 39t-113.5 50t-87 75t-35 111q0 41 12 81q30 103 125 190q-29 46 -29 107q0 55 23 113t72.5 114.5t119 100.5t172 71 t221.5 27q34 0 65 -2.5t50.5 -4.5t47.5 -8l37 -9q8 -2 37 -11t32 -10zM670 823q-27 -25 -34 -52q-2 -5 -2 -15q0 -20 14.5 -37t46 -33t58.5 -27t75 -29l75 -27q21 23 32 59q3 9 3 17q0 20 -14.5 37t-44.5 31t-58.5 24.5t-75.5 25.5t-75 26z" />
<glyph unicode="&#xa8;" horiz-adv-x="1200" d="M661 1462h267l-77 -268h-267zM1110 1462h267l-77 -268h-267z" />
<glyph unicode="&#xa9;" horiz-adv-x="1760" d="M1425 1049l29 -15l-102 -161l-35 13q-64 26 -136 26q-203 0 -266 -218q-16 -56 -16 -100q0 -137 164 -137q61 0 130 22l42 13l12 -158l-41 -14q-120 -42 -231 -42q-55 0 -103.5 13t-91 41t-67 78.5t-24.5 118.5q0 65 23 144q33 114 91.5 199t129.5 132t143 69.5t144 22.5 q113 0 205 -47zM1226 1207q-147 0 -291.5 -72t-249.5 -192.5t-145 -259.5q-20 -69 -20 -140q0 -167 111 -275.5t295 -108.5q147 0 291.5 72t249.5 192.5t145 259.5q20 69 20 140q0 167 -111 275.5t-295 108.5zM1827 683q-42 -147 -139.5 -283t-226 -236t-285.5 -159.5 t-312 -59.5q-257 0 -412.5 152.5t-155.5 387.5q0 99 29 198q42 145 138 280t223.5 236t285.5 161.5t315 60.5q257 0 413 -152.5t156 -387.5q0 -94 -29 -198z" />
<glyph unicode="&#xaa;" horiz-adv-x="760" d="M774 994h-3q-100 0 -151.5 -17.5t-63.5 -59.5q-2 -8 -2 -13q0 -22 19.5 -39.5t57.5 -17.5q58 0 119 63zM812 1127q7 28 7 41q0 66 -91 66q-80 0 -168 -26l-27 -8l4 119l23 7q114 38 217 38q200 0 200 -142q0 -35 -15 -91l-114 -396h-112l-4 36q-81 -54 -154 -54 q-81 0 -129.5 36t-48.5 102q0 27 9 60q18 63 51.5 105t86.5 65t115 32t150 10z" />
<glyph unicode="&#xab;" horiz-adv-x="1078" d="M1075 1029h288l-421 -406l188 -406h-288l-167 406zM604 1029h288l-421 -406l188 -406h-288l-167 406z" />
<glyph unicode="&#xac;" horiz-adv-x="1400" d="M306 773h1232l-153 -532h-230l86 301h-1002z" />
<glyph unicode="&#xad;" horiz-adv-x="1074" d="M400 769h716l-64 -221h-716z" />
<glyph unicode="&#xae;" horiz-adv-x="1232" d="M964 1215h-71l-37 -129q29 0 41.5 -0.5t24.5 -0.5q56 0 83 14.5t37 47.5q4 13 4 25q0 24 -20 33.5t-62 9.5zM1035 1345q159 0 159 -120q0 -27 -11 -67q-14 -51 -50 -98.5t-96 -74.5l51 -230q114 79 172.5 182t58.5 206q0 121 -78 201.5t-216 80.5q-162 0 -308.5 -113 t-191.5 -269q-15 -53 -15 -102q0 -122 81 -201t215 -79q143 0 276 90h-150l-41 208h-71l-60 -208h-143l171 594h247zM1466 1043q-42 -148 -152.5 -273t-258.5 -197.5t-296 -72.5q-189 0 -302.5 111.5t-113.5 284.5q0 70 21 147q42 148 152.5 273t258.5 197.5t296 72.5 q186 0 301.5 -111.5t115.5 -284.5q0 -72 -22 -147z" />
<glyph unicode="&#xaf;" horiz-adv-x="1400" d="M726 1681h912l-66 -231h-912z" />
<glyph unicode="&#xb0;" horiz-adv-x="589" d="M676 1327q-51 0 -85 -39t-34 -83q0 -28 16 -45.5t49 -17.5q36 0 69 28t44 65q4 12 4 27q0 29 -17 47t-46 18zM909 1235q-31 -110 -130 -188t-206 -78q-87 0 -141.5 54t-54.5 138q0 33 11 74q31 109 130 187t206 78q87 0 141.5 -53.5t54.5 -137.5q0 -33 -11 -74z" />
<glyph unicode="&#xb1;" horiz-adv-x="1400" d="M273 328h1042l-63 -219h-1042zM1005 1462h228l-118 -412h407l-63 -219h-407l-118 -411h-228l118 411h-407l63 219h407z" />
<glyph unicode="&#xb2;" horiz-adv-x="800" d="M359 827q50 84 117.5 157.5t127.5 120.5t113.5 85t89.5 68t42 53q2 10 2 15q0 28 -25.5 49t-71.5 21q-56 0 -192 -49l-25 -9l-17 135l24 10q150 66 270 66q97 0 156 -45.5t59 -121.5q0 -30 -8 -57q-15 -53 -51.5 -99t-85 -83.5t-99.5 -73t-108 -83.5t-97 -98h329 l-45 -155h-532z" />
<glyph unicode="&#xb3;" horiz-adv-x="800" d="M802 1546q98 0 150 -45.5t52 -114.5q0 -52 -29.5 -106t-85.5 -96q53 -40 53 -115q0 -55 -29.5 -115t-80.5 -111.5t-129.5 -84.5t-167.5 -33q-98 0 -198 46l-19 9l88 140l21 -6q100 -30 156 -30q60 0 112.5 29.5t65.5 74.5q4 13 4 26q0 75 -176 75h-25l44 153h25 q171 0 195 82q2 8 2 12q0 22 -21 37.5t-63 15.5q-63 0 -172 -44l-26 -11l-18 140l24 11q145 61 248 61z" />
<glyph unicode="&#xb4;" horiz-adv-x="1122" d="M1264 1642l55 -195l-679 -336l-51 178z" />
<glyph unicode="&#xb5;" horiz-adv-x="1176" d="M440 1029h246l-171 -599q-23 -81 -23 -138q0 -139 140 -139q74 0 218 62l233 814h246l-307 -1070h-183l-7 49q-157 -76 -289 -76q-92 0 -159 43l-122 -426h-246z" />
<glyph unicode="&#xb6;" horiz-adv-x="1326" d="M1046 1552h576l-457 -1593h-246l391 1361h-158l-391 -1361h-247l197 687q-61 4 -114.5 22.5t-102.5 53t-78 96t-29 143.5q0 80 27 172q24 84 64.5 151.5t84 110.5t101 74.5t104 47t106 24t93.5 10t79 1.5z" />
<glyph unicode="&#xb7;" horiz-adv-x="590" d="M401 879h292l-84 -292h-292z" />
<glyph unicode="&#xb8;" horiz-adv-x="1101" d="M514 -361q32 0 49 11.5t21 25.5q1 3 1 8t-2 9.5t-7 8.5t-10.5 7.5t-15.5 8t-19 8t-24 8.5l-27 9l-34 11l-36 12l-35 11l159 286h211l-92 -170q125 -46 125 -148q0 -26 -9 -59q-25 -87 -111.5 -155.5t-197.5 -68.5q-18 0 -38 2.5t-34.5 5t-39 9.5t-34.5 11l-41 12 q-30 10 -38 13l-36 11l98 170l36 -12q135 -45 181 -45z" />
<glyph unicode="&#xb9;" horiz-adv-x="543" d="M688 1536h120l-229 -801h-163l182 635l-149 -39l5 146z" />
<glyph unicode="&#xba;" horiz-adv-x="753" d="M773 1391q-30 0 -59 -9.5t-63 -33.5t-65 -75t-52 -124q-23 -82 -23 -138q0 -75 34.5 -104.5t82.5 -29.5q23 0 45.5 5.5t51.5 22.5t54 45t50.5 77.5t44.5 114.5q20 70 20 121q0 128 -121 128zM1039 1145q-55 -192 -183 -305t-273 -113q-108 0 -175 56.5t-67 181.5 q0 78 29 181q55 189 183.5 293.5t265.5 104.5q45 0 84.5 -10.5t78 -35t61 -73t22.5 -116.5q0 -72 -26 -164z" />
<glyph unicode="&#xbb;" horiz-adv-x="1078" d="M305 1029h288l168 -406l-401 -406h-288l422 406zM776 1029h288l168 -406l-401 -406h-288l422 406z" />
<glyph unicode="&#xbc;" horiz-adv-x="1800" d="M1581 1446h232l-1271 -1471h-233zM753 1446h140l-245 -853h-183l191 665l-144 -37l6 166zM1625 861h195l-152 -531h107l-46 -160h-107l-56 -195h-183l56 195h-390l35 122zM1562 601l-248 -271h171z" />
<glyph unicode="&#xbd;" horiz-adv-x="1897" d="M1581 1446h232l-1271 -1471h-233zM753 1446h140l-248 -863h-183l194 675l-144 -37l6 166zM1203 76q46 78 106.5 147.5t115.5 117t111 90.5t98.5 71.5t72 56t35.5 49.5q2 5 2 16q0 31 -28.5 55t-79.5 24q-63 0 -211 -53l-25 -9l-19 144l24 11q169 71 296 71q105 0 170 -49 t65 -132q0 -29 -9 -62q-17 -58 -57 -108.5t-94 -91.5l-110 -82q-57 -39 -120 -92t-108 -109h364l-47 -166h-581z" />
<glyph unicode="&#xbe;" horiz-adv-x="1950" d="M1741 1446h232l-1271 -1471h-233zM1775 861h195l-152 -531h107l-46 -160h-107l-56 -195h-183l56 195h-390l35 122zM1712 601l-248 -271h171zM875 1475q106 0 162.5 -49t56.5 -125q0 -58 -33.5 -117.5t-95.5 -105.5q62 -46 62 -126q0 -32 -11 -70q-39 -136 -162.5 -221 t-272.5 -85q-102 0 -216 51l-20 9l95 150l22 -6q115 -34 172 -34q67 0 125 32.5t73 83.5q5 18 5 30q0 85 -196 85h-25l47 163h25q80 0 142 21.5t76 71.5q2 10 2 14q0 25 -23 42.5t-70 17.5q-71 0 -190 -49l-27 -11l-20 150l23 10q158 68 274 68z" />
<glyph unicode="&#xbf;" horiz-adv-x="1047" d="M608 1029h252l-12 -41q-28 -97 -28 -172q0 -66 22 -118.5t53 -87.5l63 -68q31 -33 53 -78.5t22 -102.5q0 -51 -19 -120q-26 -89 -92.5 -170t-149 -135t-171 -86t-162.5 -32q-107 0 -188 22.5t-167 69.5l-30 17l139 195l33 -15q144 -66 251 -66q112 0 188.5 54.5 t97.5 129.5q8 29 8 49q0 39 -22.5 73.5t-54.5 66t-63.5 70t-54 102t-22.5 144.5q0 111 42 258zM717 1462h282l-81 -283h-282z" />
<glyph unicode="&#xc0;" horiz-adv-x="1547" d="M1100 1421h276l155 -1421h-259l-52 372h-580l-266 -372h-244zM1198 603l-51 527l-354 -527h405zM1147 1945l530 -353l-164 -178l-544 336z" />
<glyph unicode="&#xc1;" horiz-adv-x="1547" d="M1100 1421h276l155 -1421h-259l-52 372h-580l-266 -372h-244zM1198 603l-51 527l-354 -527h405zM1628 1945l67 -195l-739 -336l-61 178z" />
<glyph unicode="&#xc2;" horiz-adv-x="1547" d="M1100 1421h276l155 -1421h-259l-52 372h-580l-266 -372h-244zM1198 603l-51 527l-354 -527h405zM1411 1943l243 -348l-208 -145l-137 194l-250 -191l-127 133z" />
<glyph unicode="&#xc3;" horiz-adv-x="1547" d="M1100 1421h276l155 -1421h-259l-52 372h-580l-266 -372h-244zM1198 603l-51 527l-354 -527h405zM1640 1884l197 -30l-21 -42l-12 -25l-26 -55q-10 -19 -30.5 -54.5t-38 -57t-45.5 -49t-56 -42.5t-66.5 -26t-80.5 -11q-56 2 -102 21.5t-74 46t-49.5 52.5t-39.5 44t-33 18 q-13 0 -25.5 -9.5t-27 -32.5t-22.5 -37.5t-25 -49.5q-7 -13 -10 -20l-19 -38l-200 26l21 43q4 7 18 36t20.5 41.5t22.5 41t27 43.5l31 40q19 25 35.5 38.5t40.5 31t48 26.5t54 15.5t62 6.5q56 -2 102 -21.5t74 -46t49.5 -52t39.5 -43.5t33 -18q8 0 16 3.5t16 13t14 17.5 t15 25l15 26l16 32t16 33z" />
<glyph unicode="&#xc4;" horiz-adv-x="1547" d="M1100 1421h276l155 -1421h-259l-52 372h-580l-266 -372h-244zM1198 603l-51 527l-354 -527h405zM983 1897h294l-77 -267h-294zM1476 1897h294l-77 -267h-294z" />
<glyph unicode="&#xc5;" horiz-adv-x="1547" d="M1370 1873q123 0 192 -65t69 -161q0 -89 -61.5 -174.5t-178.5 -137.5l140 -1335h-259l-52 372h-580l-266 -372h-244l908 1337q-98 62 -98 170q0 62 34.5 127.5t91.5 118.5t138 86.5t166 33.5zM1319 1687q-70 0 -116 -45t-46 -97q0 -35 24.5 -57.5t73.5 -22.5 q52 0 96.5 33.5t57.5 78.5q4 12 4 27q0 36 -25 59.5t-69 23.5zM1198 603l-51 527l-354 -527h405z" />
<glyph unicode="&#xc6;" horiz-adv-x="2079" d="M1246 1189l-426 -586h380l168 586h-122zM1147 1421h1198l-66 -232h-643l-98 -341h588l-66 -232h-588l-110 -384h643l-67 -232h-911l107 373h-476l-278 -373h-250z" />
<glyph unicode="&#xc7;" horiz-adv-x="1615" d="M892 -317q58 0 67 31q1 2 1 5q0 21 -74 45q-18 6 -129 37l-40 11l117 197q-191 49 -289 176.5t-98 307.5q0 108 32 217q44 154 138 286t224.5 228.5t300 151.5t355.5 55q223 0 401 -79l32 -15l-141 -216l-34 13q-174 65 -329 65q-123 0 -239 -40.5t-204.5 -108.5 t-152.5 -156t-91 -184q-19 -68 -19 -126q0 -161 122 -263.5t343 -102.5q162 0 342 58l41 13l25 -200l-42 -16q-237 -91 -478 -93l-25 -46q138 -47 138 -159q0 -102 -106.5 -191.5t-247.5 -89.5q-45 0 -86.5 8.5t-173.5 46.5l-40 11l111 183l40 -12q159 -48 209 -48z" />
<glyph unicode="&#xc8;" horiz-adv-x="1447" d="M290 0l407 1421h997l-66 -232h-744l-98 -341h689l-66 -232h-689l-110 -384h744l-67 -232h-997zM1069 1965l555 -353l-155 -178l-568 336z" />
<glyph unicode="&#xc9;" horiz-adv-x="1447" d="M290 0l407 1421h997l-66 -232h-744l-98 -341h689l-66 -232h-689l-110 -384h744l-67 -232h-997zM1653 1965l56 -195l-762 -336l-51 178z" />
<glyph unicode="&#xca;" horiz-adv-x="1447" d="M290 0l407 1421h997l-66 -232h-744l-98 -341h689l-66 -232h-689l-110 -384h744l-67 -232h-997zM1365 1951l250 -349l-202 -144l-151 194l-267 -191l-118 133z" />
<glyph unicode="&#xcb;" horiz-adv-x="1447" d="M290 0l407 1421h997l-66 -232h-744l-98 -341h689l-66 -232h-689l-110 -384h744l-67 -232h-997zM934 1898h290l-76 -267h-290zM1441 1898h290l-76 -267h-290z" />
<glyph unicode="&#xcc;" horiz-adv-x="812" d="M742 1421h252l-407 -1421h-252zM806 1943l473 -353l-155 -176l-487 334z" />
<glyph unicode="&#xcd;" horiz-adv-x="894" d="M823 1421h252l-407 -1421h-252zM1341 1946l55 -195l-762 -337l-50 179z" />
<glyph unicode="&#xce;" horiz-adv-x="812" d="M745 1421h252l-407 -1421h-252zM1039 1943l212 -349l-195 -144l-118 194l-231 -191l-112 133z" />
<glyph unicode="&#xcf;" horiz-adv-x="752" d="M697 1421h252l-407 -1421h-252zM611 1824h267l-77 -267h-267zM1000 1824h267l-77 -267h-267z" />
<glyph unicode="&#xd0;" horiz-adv-x="1769" d="M742 1421h476q39 0 74.5 -1.5t89 -6.5t100 -14t101 -26t99 -40t87 -58t71.5 -78.5t46.5 -102.5t17.5 -129q0 -98 -33 -213q-215 -752 -1124 -752h-412l177 617h-218l66 232h218zM1165 1189h-237l-98 -340h261l-66 -232h-261l-110 -385h166q65 0 117.5 3t125.5 14 t132.5 30.5t126 56.5t117.5 87t96 125.5t72 170.5q21 73 21 142q0 66 -22 121.5t-72 103.5t-144 75.5t-225 27.5z" />
<glyph unicode="&#xd1;" horiz-adv-x="1823" d="M697 1421h278l480 -1092l313 1092h252l-407 -1421h-281l-476 1094l-314 -1094h-252zM1770 1884l197 -30l-21 -42l-12 -25l-26 -55q-10 -19 -30.5 -54.5t-38 -57t-45.5 -49t-56 -42.5t-66.5 -26t-80.5 -11q-56 2 -102 21.5t-74 46t-49.5 52.5t-39.5 44t-33 18 q-13 0 -25.5 -9.5t-27 -32.5t-22.5 -37.5t-25 -49.5q-7 -13 -10 -20l-19 -38l-200 26l21 43q4 7 18 36t20.5 41.5t22.5 41t27 43.5l31 40q19 25 35.5 38.5t40.5 31t48 26.5t54 15.5t62 6.5q56 -2 102 -21.5t74 -46t49.5 -52t39.5 -43.5t33 -18q8 0 16 3.5t16 13t14 17.5 t15 25l15 26l16 32t16 33z" />
<glyph unicode="&#xd2;" horiz-adv-x="1850" d="M1378 1436q268 0 423.5 -130t155.5 -359q0 -104 -34 -221q-62 -218 -205.5 -386.5t-342 -261.5t-421.5 -93q-121 0 -224 31t-181 91t-122 155t-44 215q0 107 35 230q63 219 206.5 385.5t339 255t414.5 88.5zM1660 709q25 87 25 160q0 85 -32 151.5t-87.5 105.5t-123 59 t-143.5 20q-88 0 -179 -28.5t-178 -84t-157 -150t-104 -215.5q-25 -87 -25 -163q0 -162 103.5 -255t275.5 -93q89 0 181 29t179 86t158 155t107 223zM1349 1948l523 -353l-164 -178l-537 336z" />
<glyph unicode="&#xd3;" horiz-adv-x="1850" d="M1378 1436q268 0 423.5 -130t155.5 -359q0 -104 -34 -221q-62 -218 -205.5 -386.5t-342 -261.5t-421.5 -93q-121 0 -224 31t-181 91t-122 155t-44 215q0 107 35 230q63 219 206.5 385.5t339 255t414.5 88.5zM1660 709q25 87 25 160q0 85 -32 151.5t-87.5 105.5t-123 59 t-143.5 20q-88 0 -179 -28.5t-178 -84t-157 -150t-104 -215.5q-25 -87 -25 -163q0 -162 103.5 -255t275.5 -93q89 0 181 29t179 86t158 155t107 223zM1783 1946l65 -195l-732 -337l-59 179z" />
<glyph unicode="&#xd4;" horiz-adv-x="1850" d="M1378 1436q268 0 423.5 -130t155.5 -359q0 -104 -34 -221q-62 -218 -205.5 -386.5t-342 -261.5t-421.5 -93q-121 0 -224 31t-181 91t-122 155t-44 215q0 107 35 230q63 219 206.5 385.5t339 255t414.5 88.5zM1660 709q25 87 25 160q0 85 -32 151.5t-87.5 105.5t-123 59 t-143.5 20q-88 0 -179 -28.5t-178 -84t-157 -150t-104 -215.5q-25 -87 -25 -163q0 -162 103.5 -255t275.5 -93q89 0 181 29t179 86t158 155t107 223zM1555 1943l239 -348l-207 -145l-134 194l-248 -191l-125 133z" />
<glyph unicode="&#xd5;" horiz-adv-x="1850" d="M1782 1884l197 -30l-21 -42l-12 -25l-26 -55q-10 -19 -30.5 -54.5t-38 -57t-45.5 -49t-56 -42.5t-66.5 -26t-80.5 -11q-56 2 -102 21.5t-74 46t-49.5 52.5t-39.5 44t-33 18q-13 0 -25.5 -9.5t-27 -32.5t-22.5 -37.5t-25 -49.5q-7 -13 -10 -20l-19 -38l-200 26l21 43 q4 7 18 36t20.5 41.5t22.5 41t27 43.5l31 40q19 25 35.5 38.5t40.5 31t48 26.5t54 15.5t62 6.5q56 -2 102 -21.5t74 -46t49.5 -52t39.5 -43.5t33 -18q8 0 16 3.5t16 13t14 17.5t15 25l15 26l16 32t16 33zM1660 709q25 87 25 160q0 85 -32 151t-87 105.5t-122.5 59.5 t-144.5 20q-88 0 -179 -28.5t-178 -84t-157 -150t-104 -215.5q-25 -87 -25 -163q0 -162 103.5 -255t275.5 -93q89 0 181 29t179 86t158 155t107 223zM1378 1436q268 0 423.5 -130t155.5 -359q0 -104 -34 -221q-62 -218 -205.5 -386.5t-342 -261.5t-421.5 -93q-121 0 -224 31 t-181 91t-122 155t-44 215q0 107 35 230q63 219 206.5 385.5t339 255t414.5 88.5z" />
<glyph unicode="&#xd6;" horiz-adv-x="1850" d="M1378 1436q268 0 423.5 -130t155.5 -359q0 -104 -34 -221q-62 -218 -205.5 -386.5t-342 -261.5t-421.5 -93q-121 0 -224 31t-181 91t-122 155t-44 215q0 107 35 230q63 219 206.5 385.5t339 255t414.5 88.5zM1660 709q25 87 25 160q0 85 -32 151.5t-87.5 105.5t-123 59 t-143.5 20q-88 0 -179 -28.5t-178 -84t-157 -150t-104 -215.5q-25 -87 -25 -163q0 -162 103.5 -255t275.5 -93q89 0 181 29t179 86t158 155t107 223zM1130 1898h291l-76 -267h-291zM1619 1898h291l-76 -267h-291z" />
<glyph unicode="&#xd7;" horiz-adv-x="1463" d="M393 165l-117 163l465 326l-273 317l210 163l308 -332l487 326l116 -164l-462 -325l271 -318l-210 -163l-307 332z" />
<glyph unicode="&#xd8;" horiz-adv-x="1920" d="M1322 1205q-91 0 -183 -28.5t-178.5 -84.5t-155.5 -150.5t-104 -214.5q-25 -87 -25 -164q0 -52 13 -102l933 632q-108 112 -300 112zM2102 1417l72 -128l-230 -155q33 -88 33 -188q0 -103 -34 -220q-62 -218 -205.5 -386.5t-342 -261.5t-421.5 -93q-147 0 -267.5 45 t-196.5 133l-243 -164l-71 129l239 161q-32 82 -32 187q0 108 35 231q63 219 206.5 385.5t339 255t414.5 88.5q317 0 471 -177zM1693 964l-935 -633q104 -115 297 -115q89 0 181 29t179 86t158 155t107 223q25 87 25 160q0 51 -12 95z" />
<glyph unicode="&#xd9;" horiz-adv-x="1744" d="M697 1421h252l-258 -901q-19 -69 -19 -118q0 -193 300 -193q107 0 188.5 23t134 67.5t84.5 97.5t52 123l258 901h252l-265 -926q-10 -34 -17.5 -57t-26 -66.5t-38.5 -76t-54.5 -75.5t-74 -74t-97.5 -64.5t-125 -54t-155.5 -34t-189.5 -13.5q-499 0 -499 325q0 79 33 190z M1230 1973l542 -353l-165 -176l-559 334z" />
<glyph unicode="&#xda;" horiz-adv-x="1744" d="M697 1421h252l-258 -901q-19 -69 -19 -118q0 -193 300 -193q107 0 188.5 23t134 67.5t84.5 97.5t52 123l258 901h252l-265 -926q-10 -34 -17.5 -57t-26 -66.5t-38.5 -76t-54.5 -75.5t-74 -74t-97.5 -64.5t-125 -54t-155.5 -34t-189.5 -13.5q-499 0 -499 325q0 79 33 190z M1759 1976l65 -195l-749 -337l-64 179z" />
<glyph unicode="&#xdb;" horiz-adv-x="1744" d="M697 1421h252l-258 -901q-19 -69 -19 -118q0 -193 300 -193q107 0 188.5 23t134 67.5t84.5 97.5t52 123l258 901h252l-265 -926q-10 -34 -17.5 -57t-26 -66.5t-38.5 -76t-54.5 -75.5t-74 -74t-97.5 -64.5t-125 -54t-155.5 -34t-189.5 -13.5q-499 0 -499 325q0 79 33 190z M1486 1943l251 -349l-214 -144l-140 194l-253 -191l-131 133z" />
<glyph unicode="&#xdc;" horiz-adv-x="1744" d="M697 1421h252l-258 -901q-19 -69 -19 -118q0 -193 300 -193q107 0 188.5 23t134 67.5t84.5 97.5t52 123l258 901h252l-265 -926q-10 -34 -17.5 -57t-26 -66.5t-38.5 -76t-54.5 -75.5t-74 -74t-97.5 -64.5t-125 -54t-155.5 -34t-189.5 -13.5q-499 0 -499 325q0 79 33 190z M1057 1898h297l-76 -267h-297zM1558 1898h297l-76 -267h-297z" />
<glyph unicode="&#xdd;" horiz-adv-x="1427" d="M507 1421h298l222 -551l546 551h288l-762 -757l-190 -664h-283l190 664zM1594 1976l68 -195l-749 -337l-62 179z" />
<glyph unicode="&#xde;" horiz-adv-x="1490" d="M1028 967q-113 0 -211 -7l-126 -439q103 -6 177 -6h32q56 0 98 2.5t93 10.5t89.5 24t75 41.5t63 65.5t41.5 93q10 33 10 62q0 48 -26.5 79.5t-78 47t-106.5 21t-131 5.5zM697 1421h252l-74 -261q133 9 265 9q115 0 201.5 -12.5t156.5 -42t107 -84t37 -132.5 q0 -53 -20 -125q-15 -52 -38 -102.5t-62 -106.5t-87 -102.5t-117.5 -85.5t-150.5 -59q-140 -32 -401 -32q-72 0 -141 3l-83 -288h-252z" />
<glyph unicode="&#xdf;" horiz-adv-x="1412" d="M1064 1430q88 0 155.5 -24t107 -65t59 -90t19.5 -104q0 -45 -12 -87q-16 -55 -51 -101.5t-76 -77t-87 -58t-83.5 -46t-65.5 -39.5t-33 -40q-2 -8 -2 -12q0 -23 28.5 -41t71.5 -30.5t93 -33t93 -44.5t71.5 -68.5t28.5 -102.5q0 -37 -14 -87q-15 -50 -47.5 -99.5t-87 -97.5 t-143 -78t-197.5 -30q-169 0 -347 49l-42 11l114 192l40 -8q162 -30 256 -30q97 0 142 25t59 76q4 16 4 24q0 28 -22.5 49t-58.5 35t-79.5 27t-86.5 30t-79 38.5t-58.5 56.5t-22.5 81q0 32 10 68q17 61 61.5 109.5t97 78.5t103 55.5t89 52.5t46.5 56q5 20 5 33q0 52 -44 85 t-101 33q-14 0 -30 -2.5t-41.5 -9.5t-50.5 -23t-50.5 -38.5t-47.5 -60.5t-36 -86l-281 -981h-246l282 982q27 93 74.5 169t105.5 127t127 86t139 50.5t141 15.5z" />
<glyph unicode="&#xe0;" horiz-adv-x="1222" d="M862 981q377 0 377 -230q0 -51 -20 -123l-180 -628h-184l-9 65q-156 -85 -333 -85q-152 0 -238.5 65.5t-86.5 162.5q0 32 8 59q21 72 72 126t119 86.5t164 52.5t190.5 28t213.5 9l10 33q10 33 10 60q0 48 -45.5 75t-162.5 27q-122 0 -295 -41l-42 -10l5 193l38 12 q185 63 389 63zM864 251l38 133h-24q-203 0 -309 -23t-121 -76q-1 -3 -1 -10q0 -33 50 -58.5t131 -25.5q124 0 236 60zM948 1557l359 -395l-179 -170l-400 384z" />
<glyph unicode="&#xe1;" horiz-adv-x="1222" d="M1237 1567l96 -181l-610 -384l-93 170zM864 251l38 133h-24q-203 0 -309 -23t-121 -76q-1 -3 -1 -10q0 -33 50 -58.5t131 -25.5q124 0 236 60zM862 981q377 0 377 -230q0 -51 -20 -123l-180 -628h-184l-9 65q-156 -85 -333 -85q-152 0 -238.5 65.5t-86.5 162.5q0 32 8 59 q21 72 72 126t119 86.5t164 52.5t190.5 28t213.5 9l10 33q10 33 10 60q0 48 -45.5 75t-162.5 27q-122 0 -295 -41l-42 -10l5 193l38 12q185 63 389 63z" />
<glyph unicode="&#xe2;" horiz-adv-x="1222" d="M1059 1509l235 -365l-196 -152l-146 203l-272 -200l-114 139zM864 251l38 133h-24q-203 0 -309 -23t-121 -76q-1 -3 -1 -10q0 -33 50 -58.5t131 -25.5q124 0 236 60zM862 981q377 0 377 -230q0 -51 -20 -123l-180 -628h-184l-9 65q-156 -85 -333 -85q-152 0 -238.5 65.5 t-86.5 162.5q0 32 8 59q21 72 72 126t119 86.5t164 52.5t190.5 28t213.5 9l10 33q10 33 10 60q0 48 -45.5 75t-162.5 27q-122 0 -295 -41l-42 -10l5 193l38 12q185 63 389 63z" />
<glyph unicode="&#xe3;" horiz-adv-x="1221" d="M1294 1450l180 -33l-63 -127q-51 -105 -108 -159q-82 -76 -184 -76q-60 2 -110 21.5t-80.5 46t-54.5 52t-43.5 43.5t-36.5 18q-39 0 -85 -93l-3 -6l-45 -89l-182 28l63 128q43 85 83 130q93 105 220 105q59 -2 109 -21.5t81 -46t55.5 -52.5t44 -44t35.5 -18 q11 0 22.5 8.5t21.5 23.5t16 27l14 26q7 14 7 15zM858 251l38 133h-24q-200 0 -304.5 -23t-119.5 -76q-1 -3 -1 -10q0 -33 49 -58.5t129 -25.5q122 0 233 60zM859 981q380 0 380 -230q0 -51 -20 -123l-180 -628h-184l-9 65q-167 -85 -335 -85q-150 0 -236.5 66t-86.5 163 q0 31 8 58q21 72 72 126t118.5 86.5t162.5 52.5t188.5 28t211.5 9l10 33q11 37 11 61q0 47 -45 74t-160 27q-120 0 -293 -41l-42 -10l5 193l38 12q185 63 386 63z" />
<glyph unicode="&#xe4;" horiz-adv-x="1227" d="M1184 1421h272l-77 -268h-272zM663 1421h303l-76 -268h-303zM868 251l38 133h-24q-206 0 -312.5 -23t-121.5 -76q-1 -3 -1 -10q0 -33 51 -58.5t132 -25.5q125 0 238 60zM865 981q106 0 181.5 -17t118 -49t61 -71.5t18.5 -91.5t-20 -124l-180 -628h-184l-9 65 q-160 -85 -336 -85q-152 0 -239.5 66t-87.5 163q0 31 8 58q15 52 45.5 94.5t72 73t97.5 54t115.5 38t133 24t144.5 13.5t155 5l10 33q11 37 11 60q0 47 -46 74.5t-164 27.5q-123 0 -297 -41l-43 -10l5 193l38 12q186 63 392 63z" />
<glyph unicode="&#xe5;" horiz-adv-x="1227" d="M1039 1400q-59 0 -99 -43t-40 -91q0 -31 20 -51.5t60 -20.5q43 0 82 31.5t51 72.5q4 12 4 27q0 32 -21.5 53.5t-56.5 21.5zM1087 1573q104 0 163.5 -54.5t59.5 -142.5q0 -38 -12 -78q-34 -117 -137.5 -197t-230.5 -80q-108 0 -174 58.5t-66 148.5q0 36 10 70 q32 114 144.5 194.5t242.5 80.5zM870 251l38 133h-25q-206 0 -313 -23t-122 -76q-1 -3 -1 -10q0 -33 51 -58.5t133 -25.5q126 0 239 60zM865 981q380 0 380 -230q0 -51 -20 -123l-180 -628h-184l-10 65q-158 -85 -335 -85q-153 0 -240.5 66t-87.5 163q0 31 8 58 q21 72 72.5 126t120 86.5t165 52.5t192 28t215.5 9l9 33q10 33 10 59q0 48 -46 75.5t-164 27.5q-123 0 -297 -41l-43 -10l5 193l38 12q186 63 392 63z" />
<glyph unicode="&#xe6;" horiz-adv-x="1804" d="M453 309q-3 -9 -3 -18q0 -40 45.5 -69t112.5 -29q106 0 207 69l47 161q-124 -2 -206.5 -12t-123 -27.5t-56.5 -34t-23 -40.5zM1463 757q-98 0 -174 -48t-109 -121h425q4 20 4 44q0 125 -146 125zM473 921q188 60 376 60q232 0 299 -146q93 68 199.5 107t209.5 39 q283 0 283 -277q0 -111 -48 -281l-12 -41h-667v-11q0 -78 77.5 -127.5t206.5 -49.5q85 0 205 34l45 12l-11 -189l-36 -12q-173 -59 -331 -59q-110 0 -202.5 32.5t-147.5 98.5q-171 -131 -409 -131q-138 0 -229.5 64.5t-91.5 167.5q0 28 10 65q34 119 160.5 199t327.5 97 q76 7 220 9q13 41 13 73q0 124 -173 124q-94 0 -259 -39l-40 -10l-16 178z" />
<glyph unicode="&#xe7;" horiz-adv-x="1152" d="M578 -321q32 1 54 11t26 25q1 2 1 6q0 18 -31.5 30.5t-118.5 36.5l-58 16l-40 11l101 168q-282 55 -282 303q0 75 26 165q33 114 92.5 205t131 149.5t159 97.5t173 55t174.5 16q164 0 286 -62l30 -15l-119 -194l-35 13q-92 35 -201 35q-350 0 -427 -272q-16 -55 -16 -101 q0 -199 300 -199q96 0 187 30l42 13l13 -184l-41 -14q-133 -45 -254 -54l-25 -42q134 -43 134 -146q0 -26 -9 -58q-25 -88 -113.5 -155t-211.5 -67q-21 0 -45 2.5t-40.5 5t-46 9.5t-41 10t-48 13.5t-44.5 12.5l-43 11l107 170l42 -12q161 -45 208 -45h3z" />
<glyph unicode="&#xe8;" horiz-adv-x="1240" d="M961 982q327 0 327 -263q0 -87 -44 -244l-32 -110h-737q2 -70 85 -121t243 -51q114 0 237 34l43 11l-6 -189l-39 -12q-179 -57 -367 -57q-122 0 -210.5 25t-136.5 70t-70 99.5t-22 121.5q0 73 24 156q38 134 113 238t170.5 166.5t202 94t219.5 31.5zM857 758 q-115 0 -200.5 -53.5t-120.5 -133.5h500q6 30 6 56q0 70 -47.5 100.5t-137.5 30.5zM956 1567l358 -395l-178 -170l-396 384z" />
<glyph unicode="&#xe9;" horiz-adv-x="1240" d="M961 982q327 0 327 -263q0 -87 -44 -244l-32 -110h-737q2 -70 85 -121t243 -51q114 0 237 34l43 11l-6 -189l-39 -12q-179 -57 -367 -57q-122 0 -210.5 25t-136.5 70t-70 99.5t-22 121.5q0 73 24 156q38 134 113 238t170.5 166.5t202 94t219.5 31.5zM857 758 q-115 0 -200.5 -53.5t-120.5 -133.5h500q6 30 6 56q0 70 -47.5 100.5t-137.5 30.5zM1330 1567l90 -181l-591 -384l-102 170z" />
<glyph unicode="&#xea;" horiz-adv-x="1240" d="M961 982q327 0 327 -263q0 -87 -44 -244l-32 -110h-737q2 -70 85 -121t243 -51q114 0 237 34l43 11l-6 -189l-39 -12q-179 -57 -367 -57q-122 0 -210.5 25t-136.5 70t-70 99.5t-22 121.5q0 73 24 156q38 134 113 238t170.5 166.5t202 94t219.5 31.5zM857 758 q-115 0 -200.5 -53.5t-120.5 -133.5h500q6 30 6 56q0 70 -47.5 100.5t-137.5 30.5zM1143 1509l225 -365l-191 -152l-140 203l-263 -200l-126 139z" />
<glyph unicode="&#xeb;" horiz-adv-x="1255" d="M969 982q333 0 333 -264q0 -88 -44 -243l-31 -110h-748q1 -70 85.5 -121t247.5 -51q116 0 241 34l43 11l-5 -189l-39 -12q-182 -57 -373 -57q-125 0 -214.5 25t-139 70.5t-71.5 100t-22 121.5q0 73 24 155q38 134 113.5 238t172.5 166.5t205 94t222 31.5zM863 758 q-118 0 -205 -54t-122 -133h509q6 30 6 55q0 132 -188 132zM695 1421h302l-77 -268h-302zM1209 1421h279l-77 -268h-279z" />
<glyph unicode="&#xec;" horiz-adv-x="597" d="M475 988h246l-283 -988h-246zM592 1567l311 -378l-174 -163l-329 368z" />
<glyph unicode="&#xed;" horiz-adv-x="597" d="M473 988h246l-283 -988h-246zM978 1567l93 -173l-540 -368l-81 163z" />
<glyph unicode="&#xee;" horiz-adv-x="603" d="M474 988h246l-283 -988h-246zM755 1514l175 -355l-190 -145l-91 181l-196 -178l-107 133z" />
<glyph unicode="&#xef;" horiz-adv-x="606" d="M463 988h246l-283 -988h-246zM392 1421h267l-76 -267h-267zM761 1421h267l-76 -267h-267z" />
<glyph unicode="&#xf0;" horiz-adv-x="1400" d="M517 522q-15 -52 -15 -98q0 -103 64.5 -165.5t166.5 -62.5q41 0 84.5 11.5t96.5 40t104 89t88 145.5q29 69 63 188l11 39q-155 98 -290 98q-126 0 -231.5 -79t-141.5 -206zM1003 1457q164 -43 284 -136l233 112l48 -166l-167 -83q57 -97 57 -228q0 -113 -46 -276 q-23 -82 -48.5 -150t-62 -142t-79 -132t-100.5 -111t-125.5 -88t-155 -56t-188.5 -21q-201 0 -312 84t-111 234q0 64 21 137q62 217 243 366.5t411 149.5q146 0 298 -68q-5 100 -70 178l-241 -108l-59 166l153 69q-61 36 -139 62l-45 15l166 201z" />
<glyph unicode="&#xf1;" d="M1378 1455l180 -34l-63 -127q-111 -236 -292 -236q-60 2 -109 21.5t-79 46t-53.5 52t-43 43.5t-35.5 18q-38 0 -87 -98l-47 -89l-184 29l62 127q50 103 110 157q85 77 197 77q59 -2 108.5 -21.5t80 -46t54 -52t42.5 -43.5t34 -18q11 0 22 8t21 22.5t16.5 26t13.5 27 t8 17.5zM452 963h183l9 -68q226 88 406 88q289 0 289 -228q0 -76 -32 -186l-163 -569h-247l161 562q13 48 13 76q0 115 -172 115q-116 0 -277 -53l-200 -700h-246z" />
<glyph unicode="&#xf2;" horiz-adv-x="1359" d="M964 982q199 0 313.5 -86.5t114.5 -246.5q0 -72 -23 -150q-69 -240 -261.5 -379.5t-449.5 -139.5q-198 0 -309 88.5t-111 247.5q0 72 24 156q68 235 256.5 372.5t445.5 137.5zM885 760q-119 0 -228.5 -69.5t-145.5 -194.5q-12 -44 -12 -83q0 -94 65 -152.5t179 -58.5 q128 0 234.5 73.5t141.5 195.5q13 43 13 83q0 98 -72.5 152t-174.5 54zM1036 1567l353 -395l-186 -170l-383 384z" />
<glyph unicode="&#xf3;" horiz-adv-x="1359" d="M964 982q199 0 313.5 -86.5t114.5 -246.5q0 -72 -23 -150q-69 -240 -261.5 -379.5t-449.5 -139.5q-198 0 -309 88.5t-111 247.5q0 72 24 156q68 235 256.5 372.5t445.5 137.5zM885 760q-119 0 -228.5 -69.5t-145.5 -194.5q-12 -44 -12 -83q0 -94 65 -152.5t179 -58.5 q128 0 234.5 73.5t141.5 195.5q13 43 13 83q0 98 -72.5 152t-174.5 54zM1243 1567l112 -181l-603 -384l-92 170z" />
<glyph unicode="&#xf4;" horiz-adv-x="1359" d="M964 982q199 0 313.5 -86.5t114.5 -246.5q0 -72 -23 -150q-69 -240 -261.5 -379.5t-449.5 -139.5q-198 0 -309 88.5t-111 247.5q0 72 24 156q68 235 256.5 372.5t445.5 137.5zM885 760q-119 0 -228.5 -69.5t-145.5 -194.5q-12 -44 -12 -83q0 -94 65 -152.5t179 -58.5 q128 0 234.5 73.5t141.5 195.5q13 43 13 83q0 98 -72.5 152t-174.5 54zM1131 1509l238 -365l-206 -152l-138 203l-257 -200l-122 139z" />
<glyph unicode="&#xf5;" horiz-adv-x="1359" d="M964 982q199 0 313.5 -86.5t114.5 -246.5q0 -72 -23 -150q-69 -240 -261.5 -379.5t-449.5 -139.5q-198 0 -309 88.5t-111 247.5q0 72 24 156q68 235 256.5 372.5t445.5 137.5zM885 760q-119 0 -228.5 -69.5t-145.5 -194.5q-12 -44 -12 -83q0 -94 65 -152.5t179 -58.5 q128 0 234.5 73.5t141.5 195.5q13 43 13 83q0 98 -72.5 152t-174.5 54zM1356 1454l179 -33l-62 -127q-51 -104 -108 -158q-81 -77 -183 -77q-60 2 -109.5 21.5t-80 46t-54.5 52t-43.5 43.5t-35.5 18q-39 0 -85 -93l-3 -6l-45 -89l-181 28l63 128q41 81 76 124 q94 111 225 111q59 -2 108.5 -21.5t80.5 -46t55.5 -52.5t44 -44t34.5 -18q11 0 22.5 8.5t21.5 23.5t16 27l14 26q7 14 7 15z" />
<glyph unicode="&#xf6;" horiz-adv-x="1369" d="M970 982q202 0 317.5 -87t115.5 -247q0 -66 -23 -149q-69 -240 -263.5 -379.5t-453.5 -139.5q-201 0 -313 88.5t-112 248.5q0 71 24 155q68 235 258.5 372.5t449.5 137.5zM890 760q-121 0 -232 -69.5t-147 -194.5q-12 -42 -12 -82q0 -95 66 -153.5t183 -58.5 q130 0 238.5 73.5t143.5 195.5q12 43 12 81q0 99 -73.5 153.5t-178.5 54.5zM723 1421h299l-77 -268h-299zM1226 1421h290l-77 -268h-290z" />
<glyph unicode="&#xf7;" horiz-adv-x="1564" d="M982 1233h307l-80 -277h-307zM731 360h307l-79 -277h-307zM345 768h1314l-63 -221h-1314z" />
<glyph unicode="&#xf8;" horiz-adv-x="1357" d="M1457 1020l65 -144l-154 -111q22 -58 22 -126t-22 -144q-69 -239 -260.5 -377.5t-447.5 -138.5q-183 0 -292 78l-157 -112l-74 118l139 99q-37 69 -37 158q0 72 24 154q68 234 256 371t444 137q216 0 327 -102zM885 760q-75 0 -149 -28t-137.5 -90t-87.5 -147 q-13 -42 -13 -84q0 -46 16 -82l540 381q-66 50 -169 50zM1127 597l-521 -368q58 -28 136 -28q84 0 158.5 31.5t124 82t78 113t28.5 123.5q0 26 -4 46z" />
<glyph unicode="&#xf9;" d="M1182 988h246l-284 -988h-183l-10 67q-222 -87 -405 -87q-288 0 -288 231q0 80 33 193l168 584h246l-167 -582q-13 -46 -13 -77q0 -120 172 -120q117 0 277 55zM974 1567l370 -378l-181 -163l-400 368z" />
<glyph unicode="&#xfa;" d="M1182 988h246l-284 -988h-183l-10 67q-222 -87 -405 -87q-288 0 -288 231q0 80 33 193l168 584h246l-167 -582q-13 -46 -13 -77q0 -120 172 -120q117 0 277 55zM1322 1567l100 -173l-599 -368l-100 163z" />
<glyph unicode="&#xfb;" d="M1182 988h246l-284 -988h-183l-10 67q-222 -87 -405 -87q-288 0 -288 231q0 80 33 193l168 584h246l-167 -582q-13 -46 -13 -77q0 -120 172 -120q117 0 277 55zM1120 1509l243 -348l-197 -145l-149 194l-262 -191l-118 133z" />
<glyph unicode="&#xfc;" horiz-adv-x="1335" d="M1188 988h246l-283 -988h-183l-10 67q-225 -87 -409 -87q-291 0 -291 232q0 81 33 192l168 584h246l-167 -582q-13 -46 -13 -76q0 -121 175 -121q118 0 281 55zM679 1421h291l-77 -268h-291zM1182 1421h289l-77 -268h-289z" />
<glyph unicode="&#xfd;" horiz-adv-x="1204" d="M332 988h259l109 -759l515 759h259l-1078 -1519h-296l399 534zM1347 1567l100 -173l-585 -368l-101 163z" />
<glyph unicode="&#xfe;" horiz-adv-x="1370" d="M900 755q-123 0 -206.5 -68.5t-129.5 -228.5q-18 -59 -18 -106q0 -153 199 -153q39 0 81 8t89.5 28t88 50t74.5 78t51 107q12 44 12 81q0 97 -70.5 150.5t-170.5 53.5zM997 978q186 0 295 -88t109 -245q0 -66 -23 -149q-65 -227 -253.5 -373t-424.5 -146q-141 0 -244 66 l-165 -574h-258l560 1952h258l-147 -513q139 70 293 70z" />
<glyph unicode="&#xff;" horiz-adv-x="1208" d="M332 988h259l109 -759l520 759h259l-1083 -1519h-296l399 534zM646 1421h297l-77 -268h-297zM1147 1421h292l-77 -268h-292z" />
<glyph unicode="&#x100;" horiz-adv-x="1547" d="M1100 1421h276l155 -1421h-259l-52 372h-580l-266 -372h-244zM1198 603l-51 527l-354 -527h405zM869 1697h903l-61 -211h-903z" />
<glyph unicode="&#x101;" horiz-adv-x="1222" d="M644 1333h685l-60 -211h-685zM864 251l38 133h-24q-203 0 -309.5 -23t-121.5 -76q-1 -3 -1 -9q0 -32 50.5 -58.5t131.5 -26.5q124 0 236 60zM862 982q201 0 289 -59.5t88 -169.5q0 -56 -20 -124l-180 -629h-184l-9 65q-156 -85 -333 -85q-152 0 -238.5 65.5t-86.5 162.5 q0 32 8 59q21 72 72 126t119.5 87t164 53t190 28t213.5 9l10 32q10 33 10 60q0 48 -45.5 75t-162.5 27q-122 0 -295 -41l-42 -10l5 193l38 12q188 64 389 64z" />
<glyph unicode="&#x102;" horiz-adv-x="1547" d="M1100 1421h276l155 -1421h-259l-52 372h-580l-266 -372h-244zM1198 603l-51 527l-354 -527h405zM879 1794l242 103l9 -38q5 -21 14.5 -42t30 -52t58.5 -50.5t87 -19.5q78 0 169.5 51t168.5 120l35 31l157 -123l-36 -35q-123 -113 -277.5 -188.5t-297.5 -75.5 q-83 0 -150 25t-109 66.5t-66.5 91t-30.5 103.5z" />
<glyph unicode="&#x103;" horiz-adv-x="1220" d="M546 1349l224 114l8 -42q5 -23 14.5 -46.5t31 -57.5t61.5 -55.5t92 -21.5q84 0 181 57.5t170 131.5l34 34l140 -136l-37 -38q-119 -117 -269.5 -193t-301.5 -76q-88 0 -155 25.5t-106.5 69t-60 94t-24.5 106.5zM852 251l38 133h-23q-198 0 -301 -23t-118 -76 q-1 -3 -1 -10q0 -33 48.5 -58.5t127.5 -25.5q119 0 229 60zM854 981q108 0 184.5 -17t119.5 -49t62 -72t19 -92q0 -51 -20 -123l-180 -628h-184l-14 65q-167 -85 -333 -85q-148 0 -234 65.5t-86 162.5q0 32 8 59q17 60 54.5 108t92 80t118.5 54.5t145 35t159.5 18t173.5 6.5 l10 33q11 38 11 62q0 47 -43.5 73.5t-155.5 26.5q-117 0 -289 -41l-42 -10l5 193l38 12q185 63 381 63z" />
<glyph unicode="&#x104;" horiz-adv-x="1629" d="M130 0l1023 1421h251l209 -1421h-58q-75 -2 -141.5 -17.5t-112 -36.5t-85.5 -51t-62.5 -53.5t-41.5 -51t-24 -36.5l-8 -18q-3 -9 -3 -19q0 -45 61 -45q78 0 182 52l43 22l40 -159l-35 -21q-67 -41 -160.5 -75.5t-186.5 -34.5q-106 0 -169 49.5t-63 131.5q0 30 9 63 q35 121 193 242t335 176l-40 254h-632l-280 -372h-244zM1255 603l-67 527l-373 -527h440z" />
<glyph unicode="&#x105;" horiz-adv-x="1228" d="M918 423q-6 0 -32.5 0.5t-46.5 0.5q-353 0 -386 -120q-2 -5 -2 -16q0 -37 44.5 -63t124.5 -26q122 0 251 59zM767 752q-124 0 -298 -41l-42 -11l4 194l39 12q186 63 392 63q381 0 381 -230q0 -51 -20 -123l-185 -645l-25 -11l-75 -32l-76 -34l-68 -31q-39 -19 -63 -33.5 t-49 -33t-39 -37t-20 -38.5q-3 -9 -3 -16q0 -21 17.5 -33t47.5 -12q53 0 161 51l41 19l44 -151l-39 -21q-182 -101 -327 -101q-108 0 -173.5 49t-65.5 127q0 92 98 194t299 189q-117 -33 -221 -33q-149 0 -231 65t-82 161q0 108 102 202.5t289 129.5q144 24 380 26l6 22 q11 37 11 60q0 48 -46 75.5t-164 27.5z" />
<glyph unicode="&#x106;" horiz-adv-x="1615" d="M1495 1431q225 0 403 -79l32 -15l-141 -216l-34 13q-175 65 -332 65q-124 0 -241 -40.5t-206 -108.5t-153 -156t-91 -184q-19 -68 -19 -126q0 -161 123 -263.5t347 -102.5q164 0 344 58l41 13l25 -200l-42 -16q-243 -93 -485 -93q-302 0 -461.5 140.5t-159.5 371.5 q0 104 33 217q44 154 137 286t223 229t299.5 152t357.5 55zM1769 1992l68 -195l-746 -336l-62 178z" />
<glyph unicode="&#x107;" horiz-adv-x="1147" d="M259 461q33 114 90 204t127 148.5t155.5 97t171 54.5t177.5 16q167 0 289 -62l30 -15l-119 -193l-34 13q-90 34 -203 34q-358 0 -434 -267q-15 -54 -15 -96q0 -198 310 -198q92 0 187 30l42 12l12 -187l-41 -14q-163 -58 -333 -58q-72 0 -134 9.5t-119 32t-97 58 t-64 90.5t-24 126q0 75 26 165zM1248 1567l91 -181l-606 -384l-93 170z" />
<glyph unicode="&#x108;" horiz-adv-x="1615" d="M1495 1431q225 0 403 -79l32 -15l-141 -216l-34 13q-175 65 -332 65q-124 0 -241 -40.5t-206 -108.5t-153 -156t-91 -184q-19 -68 -19 -126q0 -161 123 -263.5t347 -102.5q164 0 344 58l41 13l25 -200l-42 -16q-243 -93 -485 -93q-302 0 -461.5 140.5t-159.5 371.5 q0 104 33 217q44 154 137 286t223 229t299.5 152t357.5 55zM1539 1951l249 -348l-212 -145l-138 194l-253 -191l-129 133z" />
<glyph unicode="&#x109;" horiz-adv-x="1147" d="M259 461q33 114 90 204t127 148.5t155.5 97t171 54.5t177.5 16q167 0 289 -62l30 -15l-119 -193l-34 13q-90 34 -203 34q-358 0 -434 -267q-15 -54 -15 -96q0 -198 310 -198q92 0 187 30l42 12l12 -187l-41 -14q-163 -58 -333 -58q-72 0 -134 9.5t-119 32t-97 58 t-64 90.5t-24 126q0 75 26 165zM1087 1517l227 -365l-191 -152l-143 204l-271 -201l-118 140z" />
<glyph unicode="&#x10a;" horiz-adv-x="1615" d="M1495 1431q225 0 403 -79l32 -15l-141 -216l-34 13q-175 65 -332 65q-124 0 -241 -40.5t-206 -108.5t-153 -156t-91 -184q-19 -68 -19 -126q0 -161 123 -263.5t347 -102.5q164 0 344 58l41 13l25 -200l-42 -16q-243 -93 -485 -93q-302 0 -461.5 140.5t-159.5 371.5 q0 104 33 217q44 154 137 286t223 229t299.5 152t357.5 55zM1305 1829h325l-83 -292h-325z" />
<glyph unicode="&#x10b;" horiz-adv-x="1156" d="M259 461q33 114 90.5 204t128 148.5t157 97t172.5 54.5t179 16q167 0 291 -62l30 -15l-118 -193l-35 13q-91 34 -206 34q-363 0 -439 -267q-15 -53 -15 -95q0 -199 315 -199q94 0 190 30l43 12l11 -187l-40 -14q-165 -58 -337 -58q-73 0 -135.5 9.5t-120.5 32.5 t-98.5 58.5t-64.5 91t-24 126.5q0 75 26 163zM906 1421h344l-84 -291h-344z" />
<glyph unicode="&#x10c;" horiz-adv-x="1615" d="M1495 1431q225 0 403 -79l32 -15l-141 -216l-34 13q-175 65 -332 65q-124 0 -241 -40.5t-206 -108.5t-153 -156t-91 -184q-19 -68 -19 -126q0 -161 123 -263.5t347 -102.5q164 0 344 58l41 13l25 -200l-42 -16q-243 -93 -485 -93q-302 0 -461.5 140.5t-159.5 371.5 q0 104 33 217q44 154 137 286t223 229t299.5 152t357.5 55zM1395 1457l-248 348l211 145l139 -194l252 191l125 -133z" />
<glyph unicode="&#x10d;" horiz-adv-x="1147" d="M259 461q33 114 90 204t127 148.5t155.5 97t171 54.5t177.5 16q167 0 289 -62l30 -15l-119 -193l-34 13q-90 34 -203 34q-358 0 -434 -267q-15 -54 -15 -96q0 -198 310 -198q92 0 187 30l42 12l12 -187l-41 -14q-163 -58 -333 -58q-72 0 -134 9.5t-119 32t-97 58 t-64 90.5t-24 126q0 75 26 165zM905 999l-248 365l205 152l149 -203l262 200l108 -136z" />
<glyph unicode="&#x10e;" horiz-adv-x="1762" d="M1309 1458l-212 348l193 145l120 -194l232 191l112 -130zM1142 1189h-259l-274 -957h183q69 0 115 2t121.5 14t133.5 33.5t126 65t123 105.5q101 115 144 267q22 79 22 145q0 73 -25.5 131.5t-69 95.5t-94.5 59.5t-110 31.5q-48 7 -136 7zM1201 1421q146 0 259.5 -24.5 t186 -66t119.5 -101t66 -124.5t19 -141q0 -96 -33 -212q-26 -92 -65.5 -177t-103 -173.5t-143 -159t-191.5 -127t-243 -84.5q-149 -31 -414 -31h-368l407 1421h504z" />
<glyph unicode="&#x10f;" horiz-adv-x="1710" d="M260 466q71 248 258 382.5t434 134.5q115 0 219 -34l161 562h246l-433 -1511h-182l-7 46q-161 -66 -324 -66q-80 0 -149 17t-126 53.5t-90 100t-33 149.5q0 76 26 166zM758 197q97 0 207 34l147 513q-96 28 -191 28q-44 0 -86.5 -6t-94.5 -25t-94.5 -49t-80 -82.5 t-56.5 -120.5q-15 -54 -15 -96q0 -57 24.5 -97.5t65.5 -61t83.5 -29t90.5 -8.5zM1805 1511h300l-356 -495h-299z" />
<glyph unicode="&#x110;" horiz-adv-x="1769" d="M742 1421h476q39 0 74.5 -1.5t89 -6.5t100 -14t101 -26t99 -40t87 -58t71.5 -78.5t46.5 -102.5t17.5 -129q0 -98 -33 -213q-215 -752 -1124 -752h-412l177 617h-218l66 232h218zM1165 1189h-237l-98 -340h261l-66 -232h-261l-110 -385h166q65 0 117.5 3t125.5 14 t132.5 30.5t126 56.5t117.5 87t96 125.5t72 170.5q21 73 21 142q0 66 -22 121.5t-72 103.5t-144 75.5t-225 27.5z" />
<glyph unicode="&#x111;" horiz-adv-x="1385" d="M926 772q-43 0 -85 -6t-92.5 -25t-92.5 -49t-79 -82.5t-56 -120.5q-15 -55 -15 -97q0 -46 16.5 -81.5t42 -56.5t61 -34t68.5 -18t69 -5q97 0 203 34l147 513q-94 28 -187 28zM957 983q115 0 215 -34l36 129h-300l61 211h300l64 222h246l-64 -222h132l-61 -211h-132 l-309 -1078h-182l-6 46q-159 -66 -318 -66q-63 0 -119.5 10.5t-109.5 35t-91 61.5t-61 93t-23 126q0 72 25 160q71 247 261 382t436 135z" />
<glyph unicode="&#x112;" horiz-adv-x="1447" d="M290 0l407 1421h997l-66 -232h-744l-98 -341h689l-66 -232h-689l-110 -384h744l-67 -232h-997zM847 1697h897l-61 -211h-897z" />
<glyph unicode="&#x113;" horiz-adv-x="1240" d="M256 452q38 134 113 238t170.5 166.5t202 94t219.5 31.5q327 0 327 -263q0 -87 -44 -244l-32 -110h-737q2 -70 85 -121t243 -51q114 0 237 34l43 11l-6 -189l-39 -12q-179 -57 -367 -57q-122 0 -210.5 25t-136.5 70t-70 99.5t-22 121.5q0 73 24 156zM857 758 q-115 0 -200.5 -53.5t-120.5 -133.5h500q6 30 6 56q0 70 -47.5 100.5t-137.5 30.5zM642 1333h737l-67 -231h-737z" />
<glyph unicode="&#x114;" horiz-adv-x="1447" d="M290 0l407 1421h997l-66 -232h-744l-98 -341h689l-66 -232h-689l-110 -384h744l-67 -232h-997zM1661 1897l146 -123l-36 -35q-137 -131 -286.5 -196.5t-292.5 -65.5q-157 0 -249.5 75.5t-103.5 208.5l-3 33l224 103l7 -38q21 -77 76 -120.5t133 -43.5q161 0 352 171z" />
<glyph unicode="&#x115;" horiz-adv-x="1239" d="M256 452q38 134 113 238t170 166.5t200.5 94t215.5 31.5q333 0 333 -265q0 -87 -44 -242l-32 -110h-737q1 -70 83 -121t238 -51q121 0 244 34l43 11l-6 -189l-39 -12q-179 -57 -374 -57q-120 0 -207 25t-134.5 70t-69 98.5t-21.5 120.5q0 75 24 158zM851 758 q-113 0 -196.5 -53.5t-118.5 -133.5h490q6 30 6 55q0 132 -181 132zM603 1349l227 114l8 -42q3 -17 9 -35t20.5 -45.5t34.5 -48.5t54 -36.5t75 -15.5q81 0 176.5 57.5t169.5 131.5l33 34l138 -136l-37 -39q-118 -117 -265.5 -192.5t-294.5 -75.5q-86 0 -153 25.5t-106.5 69 t-61 94t-25.5 106.5z" />
<glyph unicode="&#x116;" horiz-adv-x="1447" d="M290 0l407 1421h997l-66 -232h-744l-98 -341h689l-66 -232h-689l-110 -384h744l-67 -232h-997zM1127 1829h348l-83 -292h-348z" />
<glyph unicode="&#x117;" horiz-adv-x="1249" d="M256 452q38 134 113.5 238t172 166.5t204 94t220.5 31.5q330 0 330 -263q0 -89 -44 -244l-31 -110h-746q2 -70 86.5 -121t246.5 -51q115 0 240 34l44 11l-6 -189l-39 -12q-181 -57 -371 -57q-124 0 -213 25t-138 70.5t-71 100t-22 121.5q0 73 24 155zM862 758 q-118 0 -204.5 -53.5t-121.5 -133.5h508q6 30 6 55q0 132 -188 132zM915 1421h348l-83 -291h-348z" />
<glyph unicode="&#x118;" horiz-adv-x="1447" d="M697 1421h997l-66 -232h-744l-98 -341h689l-66 -232h-689l-110 -384h744l-53 -184l-21 -12l-98 -56l-94 -54l-75 -46.5t-66.5 -48t-43.5 -45t-27 -49.5q-3 -11 -3 -19q0 -46 63 -46q61 0 159 53l44 23l40 -160l-35 -21q-182 -110 -328 -110q-108 0 -169.5 49.5 t-61.5 130.5q0 85 70.5 181.5t208.5 181.5h-574z" />
<glyph unicode="&#x119;" horiz-adv-x="1247" d="M250 432q33 117 93 210.5t131 154t156.5 101t167.5 57.5t165 17q94 0 160.5 -20.5t101.5 -58.5t50.5 -82.5t15.5 -101.5q0 -91 -45 -249l-32 -112h-744q1 -73 91.5 -122t242.5 -49q120 0 238 34l44 13l-7 -191l-39 -12q-145 -43 -262.5 -136t-136.5 -160q-3 -12 -3 -21 q0 -45 61 -45q59 0 167 49l40 19l42 -149l-37 -21q-177 -101 -332 -101q-105 0 -165 46.5t-60 124.5q0 76 60 165.5t180 178.5q-368 34 -368 307q0 68 24 154zM858 748q-117 0 -204 -56t-123 -138h506q7 31 7 59q0 135 -186 135z" />
<glyph unicode="&#x11a;" horiz-adv-x="1447" d="M290 0l407 1421h997l-66 -232h-744l-98 -341h689l-66 -232h-689l-110 -384h744l-67 -232h-997zM1190 1457l-250 348l199 145l154 -194l267 191l118 -133z" />
<glyph unicode="&#x11b;" horiz-adv-x="1240" d="M256 452q38 134 113 238t170.5 166.5t202 94t219.5 31.5q327 0 327 -263q0 -87 -44 -244l-32 -110h-737q2 -70 85 -121t243 -51q114 0 237 34l43 11l-6 -189l-39 -12q-179 -57 -367 -57q-122 0 -210.5 25t-136.5 70t-70 99.5t-22 121.5q0 73 24 156zM857 758 q-115 0 -200.5 -53.5t-120.5 -133.5h500q6 30 6 56q0 70 -47.5 100.5t-137.5 30.5zM963 999l-249 365l212 152l143 -203l259 200l107 -136z" />
<glyph unicode="&#x11c;" horiz-adv-x="1755" d="M1664 206q-273 -226 -657 -226q-132 0 -237.5 27.5t-176 74.5t-117.5 113t-68 140.5t-21 159.5q0 104 31 214q41 142 128 270t212.5 230t297.5 162.5t365 60.5q282 0 472 -126l30 -20l-162 -198l-31 19q-62 36 -160 64.5t-206 28.5q-143 0 -283.5 -55.5t-252.5 -167.5 t-154 -258q-20 -67 -20 -135q0 -168 126 -269.5t338 -101.5q184 0 325 83l78 273h-445l64 222h692zM1521 1951l244 -348l-210 -145l-134 194l-252 -191l-127 133z" />
<glyph unicode="&#x11d;" horiz-adv-x="1326" d="M634 1143l486 374l240 -365l-208 -152l-139 203l-258 -200zM938 983q128 0 266 -63l31 43h185l-285 -992q-22 -75 -55 -142t-92 -137t-135.5 -119.5t-189.5 -81.5t-248 -32q-188 0 -326 67l-32 16l131 193l33 -13q108 -44 232 -44q70 0 130.5 15t101.5 36.5t76.5 56 t55 61.5t37.5 66t24 56.5t14 45.5q2 7 3 10q-138 -45 -263 -45q-81 0 -150.5 18.5t-126 56t-88.5 102.5t-32 151q0 75 27 171q32 110 92 199t131 144.5t153.5 93t156.5 52.5t143 15zM509 495q-14 -51 -14 -94q0 -93 63.5 -148.5t189.5 -55.5q95 0 206 35l143 500 q-115 36 -208 36q-137 0 -240.5 -74t-139.5 -199z" />
<glyph unicode="&#x11e;" horiz-adv-x="1755" d="M1015 1794l241 103l10 -38q4 -16 9.5 -31.5t20.5 -41.5t34 -44.5t52.5 -32.5t73.5 -14q78 0 169.5 51t168.5 120l35 31l152 -123l-36 -35q-116 -111 -269.5 -187.5t-299.5 -76.5q-83 0 -150 25t-109.5 66.5t-67 91t-30.5 103.5zM1664 206q-273 -226 -657 -226 q-160 0 -282 39.5t-195 110t-109 160.5t-36 197q0 100 31 210q32 112 92.5 217.5t152.5 200t204 165t256 111.5t300 41q282 0 472 -126l30 -20l-162 -198l-31 19q-62 36 -160 64.5t-206 28.5q-143 0 -283.5 -55.5t-252.5 -167.5t-154 -258q-20 -67 -20 -135 q0 -168 126 -269.5t338 -101.5q184 0 325 83l78 273h-445l64 222h692z" />
<glyph unicode="&#x11f;" horiz-adv-x="1325" d="M415 -541q-188 0 -326 67l-32 16l131 193l33 -13q108 -44 232 -44q70 0 130.5 15t101.5 36.5t76.5 56t55 61.5t37.5 66t24 56.5t14 45.5q2 7 3 10q-138 -45 -263 -45q-81 0 -150.5 18.5t-126 56t-88.5 102.5t-32 151q0 75 27 171q32 110 92 199t131 144.5t153.5 93 t156.5 52.5t143 15q128 0 266 -63l31 43h185l-281 -979q-34 -119 -93.5 -212t-130.5 -151t-157.5 -95.5t-169.5 -52t-173 -14.5zM509 495q-14 -51 -14 -94q0 -93 63.5 -148.5t189.5 -55.5q95 0 206 35l143 500q-115 36 -208 36q-137 0 -240.5 -74t-139.5 -199zM619 1315 l-2 34l232 114l8 -42q5 -23 14 -46.5t29.5 -57.5t59 -55.5t89.5 -21.5q81 0 176.5 57t171.5 132l34 34l140 -136l-37 -39q-119 -116 -268.5 -192t-296.5 -76q-86 0 -153.5 25.5t-108 68.5t-62.5 94t-26 107z" />
<glyph unicode="&#x120;" horiz-adv-x="1755" d="M1355 1829h321l-83 -292h-321zM1664 206q-273 -226 -657 -226q-132 0 -237.5 27.5t-176 74.5t-117.5 113t-68 140.5t-21 159.5q0 104 31 214q41 142 128 270t212.5 230t297.5 162.5t365 60.5q282 0 472 -126l30 -20l-162 -198l-31 19q-62 36 -160 64.5t-206 28.5 q-143 0 -283.5 -55.5t-252.5 -167.5t-154 -258q-20 -67 -20 -135q0 -168 126 -269.5t338 -101.5q184 0 325 83l78 273h-445l64 222h692z" />
<glyph unicode="&#x121;" horiz-adv-x="1335" d="M817 1130l83 291h338l-83 -291h-338zM509 495q-14 -51 -14 -93q0 -94 64.5 -149.5t193.5 -55.5q96 0 209 35l144 500q-118 36 -212 36q-139 0 -244 -74t-141 -199zM944 983q129 0 269 -63l30 43h185l-285 -992q-22 -75 -55 -142t-92.5 -137t-135.5 -119.5t-190 -81.5 t-251 -32q-190 0 -329 67l-33 16l131 194l34 -15q101 -43 235 -43q71 0 132 15t102.5 36.5t77.5 56t55.5 61t37.5 66t24 56.5t14 46q2 7 3 10q-140 -45 -265 -45q-82 0 -152 18.5t-127.5 56.5t-90 103t-32.5 152q0 78 26 169q32 110 92.5 199t131.5 144.5t154.5 93 t158.5 52.5t145 15z" />
<glyph unicode="&#x122;" horiz-adv-x="1755" d="M1664 206q-273 -226 -657 -226q-132 0 -237.5 27.5t-176 74.5t-117.5 113t-68 140.5t-21 159.5q0 104 31 214q32 113 93.5 218t153.5 197t204 160.5t254.5 108t297.5 39.5q282 0 472 -126l30 -20l-162 -198l-31 19q-62 36 -160 64.5t-206 28.5q-143 0 -283.5 -55.5 t-252.5 -167.5t-154 -258q-20 -67 -20 -135q0 -168 126 -269.5t338 -101.5q184 0 325 83l78 273h-445l64 222h692zM926 -59h296l-346 -472h-295z" />
<glyph unicode="&#x123;" horiz-adv-x="1338" d="M733 1053l363 494h311l-364 -494h-310zM508 493q-14 -50 -14 -92q0 -94 65.5 -150t195.5 -56q97 0 210 35l143 500q-118 36 -212 36q-140 0 -246 -74t-142 -199zM945 981q130 0 270 -63l31 45h185l-285 -994q-22 -75 -55 -142t-93 -137t-136.5 -119.5t-191 -81.5 t-251.5 -32q-191 0 -330 67l-32 16l131 194l33 -15q101 -43 237 -43q71 0 132 15t103 36t77.5 55t55.5 60.5t38 65.5t24 58l15 47q2 7 3 10q-139 -43 -266 -43q-83 0 -153 18t-127.5 55.5t-90.5 102.5t-33 152q0 78 26 169q32 110 92.5 199t131.5 144.5t154.5 93t159 52.5 t145.5 15z" />
<glyph unicode="&#x124;" horiz-adv-x="1764" d="M1709 1421h252l-407 -1421h-252l177 617h-760l-177 -617h-252l407 1421h252l-164 -572h760zM1506 1956l250 -348l-212 -145l-140 194l-254 -191l-128 133z" />
<glyph unicode="&#x125;" horiz-adv-x="1342" d="M909 753q-119 0 -277 -53l-201 -700h-246l430 1499h246l-168 -587q201 69 359 69q297 0 297 -239q0 -79 -34 -194l-157 -548h-250l160 559q13 44 13 74q0 120 -172 120zM1290 2006l247 -357l-204 -148l-146 199l-266 -196l-110 136z" />
<glyph unicode="&#x126;" horiz-adv-x="1764" d="M1709 1421h252l-40 -142h150l-60 -208h-150l-307 -1071h-252l177 617h-760l-177 -617h-252l307 1071h-150l60 208h150l40 142h252l-43 -150h760zM1545 849l70 243h-760l-70 -243h760z" />
<glyph unicode="&#x127;" horiz-adv-x="1339" d="M619 1511h246l-64 -222h370l-60 -211h-371l-47 -166q197 69 352 69q305 0 305 -238q0 -72 -28 -171l-164 -572h-260l162 563q13 43 13 74q0 116 -169 116q-117 0 -272 -53l-201 -700h-246l309 1078h-131l60 211h132z" />
<glyph unicode="&#x128;" horiz-adv-x="812" d="M736 1421h252l-407 -1421h-252zM989 1468q-42 0 -73 20t-46.5 48t-26.5 56t-20.5 48t-21.5 20q-9 0 -20.5 -17t-58.5 -102l-27 -48l-169 49l27 50l28 51l28 48q18 30 32 47.5t34.5 40.5t40.5 36.5t44.5 26.5t53 18.5t60.5 5.5q37 0 65.5 -13.5t44.5 -34.5t28 -44.5 t18.5 -44.5t15 -34.5t17.5 -13.5q7 0 15.5 13t43.5 75l59 105l168 -51q-5 -10 -29 -55l-34 -62l-35.5 -57.5t-41.5 -58.5t-44 -46.5t-52.5 -41.5t-57 -23.5t-66.5 -10.5z" />
<glyph unicode="&#x129;" horiz-adv-x="602" d="M462 988h246l-283 -988h-246zM746 1121q-51 0 -86 30t-48 66t-26 66t-27 30q-8 0 -18 -15t-50 -86l-37 -66l-169 49l30 56q21 40 31.5 58t32.5 52.5t37.5 52t41 41.5t49.5 35.5t56.5 20t67.5 8.5q44 0 75.5 -19t47 -46.5t26 -54.5t19.5 -46t20 -19q8 0 16.5 13.5 t51.5 90.5l50 89l167 -51l-27 -50l-29 -54l-30 -51.5t-35 -52.5l-37 -46q-21 -26 -42 -41.5t-46 -30.5t-53.5 -22t-58.5 -7z" />
<glyph unicode="&#x12a;" horiz-adv-x="812" d="M727 1421h252l-407 -1421h-252zM687 1697h492l-61 -211h-492z" />
<glyph unicode="&#x12b;" horiz-adv-x="600" d="M459 988h246l-283 -988h-246zM460 1333h441l-60 -211h-441z" />
<glyph unicode="&#x12c;" horiz-adv-x="894" d="M735 1421h252l-407 -1421h-252zM600 1791l221 103l8 -38q1 -5 2 -30t5.5 -44t15 -41.5t35 -35.5t60.5 -13q17 0 34 3t35 11l30 13q13 6 32 20l29 21q10 7 30 26l27 24l28 28q22 21 27 25l33 31l145 -123l-36 -35q-128 -123 -247.5 -193.5t-245.5 -70.5q-60 0 -106.5 17 t-74.5 43.5t-46.5 66t-26.5 76.5t-12 83z" />
<glyph unicode="&#x12d;" horiz-adv-x="674" d="M367 1431l217 103l8 -38q1 -5 2 -30t5 -44t14.5 -42t34.5 -35.5t60 -12.5q15 0 31 3t29 7t30 13l27 15q11 6 28 20l25 20q9 6 27 23l25 23l25 24l23 23l33 31l140 -123l-36 -35q-126 -123 -243.5 -193.5t-241.5 -70.5q-59 0 -104.5 17t-72.5 43.5t-45.5 66t-26 76.5 t-11.5 83zM467 988h246l-284 -988h-246z" />
<glyph unicode="&#x12e;" horiz-adv-x="812" d="M118 -544q-88 0 -136 46t-48 122q0 116 107.5 248t306.5 224l379 1325h252l-394 -1375l-24 -11q-106 -50 -183.5 -99t-116 -87.5t-56 -64t-23.5 -46.5q-4 -14 -4 -24q0 -44 51 -44q50 0 157 54l43 22l40 -159l-35 -21q-182 -110 -316 -110z" />
<glyph unicode="&#x12f;" horiz-adv-x="604" d="M-210 -304q35 120 154.5 236t268.5 187l249 869h246l-274 -954l-30 -10q-140 -46 -248.5 -134t-129.5 -160q-4 -18 -4 -24q0 -46 49 -46q47 0 158 54l41 20l40 -156l-34 -21q-181 -112 -316 -112q-85 0 -133.5 46.5t-48.5 124.5q0 36 12 80zM571 1421h276l-78 -271h-276z " />
<glyph unicode="&#x130;" horiz-adv-x="812" d="M822 1829h292l-83 -292h-292zM727 1421h252l-407 -1421h-252z" />
<glyph unicode="&#x131;" horiz-adv-x="606" d="M456 963h246l-276 -963h-246z" />
<glyph unicode="&#x132;" horiz-adv-x="1929" d="M1881 1421h252l-260 -910q-15 -54 -33 -100t-48.5 -101.5t-67.5 -100t-92.5 -88.5t-121 -73t-155.5 -47t-194 -18q-108 0 -199 25l-35 10l106 222l39 -10q58 -15 128 -15q66 0 123 12.5t96.5 31t73 46.5t53.5 53t36.5 57.5t24 52.5t14.5 45zM727 1421h252l-407 -1421 h-252z" />
<glyph unicode="&#x133;" horiz-adv-x="1203" d="M1053 988h246l-311 -1084q-10 -34 -17 -55t-24.5 -62t-36.5 -70t-52.5 -68.5t-73 -69t-97 -59.5t-125.5 -52l-46 -12l-68 194l54 18q112 38 163 91.5t72 124.5zM1163 1421h279l-77 -271h-279zM459 988h246l-283 -988h-246zM568 1421h280l-77 -271h-280z" />
<glyph unicode="&#x134;" horiz-adv-x="1117" d="M1069 1421h252l-260 -910q-15 -54 -33 -100t-48.5 -101.5t-67.5 -100t-92.5 -88.5t-121 -73t-155.5 -47t-194 -18q-108 0 -199 25l-35 10l106 222l39 -10q58 -15 128 -15q66 0 123 12.5t96.5 31t73 46.5t53.5 53t36.5 57.5t24 52.5t14.5 45zM1352 1951l213 -348 l-194 -145l-119 194l-232 -191l-112 133z" />
<glyph unicode="&#x135;" horiz-adv-x="597" d="M755 1514l175 -355l-190 -145l-91 181l-196 -178l-107 133zM474 988h246l-310 -1084q-10 -34 -18.5 -59.5t-25.5 -64.5t-37 -69.5t-52.5 -67.5t-70.5 -66.5t-92.5 -58.5t-118.5 -50l-37 -12l-39 194l42 18q155 66 198 219z" />
<glyph unicode="&#x136;" horiz-adv-x="1581" d="M763 770l834 651h323l-878 -680l507 -741h-327l-483 688l-197 -688h-252l407 1421h252zM323 -512l344 472h305l-353 -472h-296z" />
<glyph unicode="&#x137;" horiz-adv-x="1235" d="M159 -512l343 472h305l-352 -472h-296zM176 0l433 1511h246l-264 -920l592 417h297l-638 -452l364 -556h-302l-341 492l-141 -492h-246z" />
<glyph unicode="&#x138;" horiz-adv-x="1224" d="M577 542l566 421h279l-599 -452l376 -511h-310l-340 445l-127 -445h-246l276 963h246z" />
<glyph unicode="&#x139;" horiz-adv-x="1297" d="M711 1421h252l-335 -1190h714l-66 -231h-972zM1491 1992l74 -195l-761 -336l-51 178z" />
<glyph unicode="&#x13a;" horiz-adv-x="715" d="M642 1511h269l-456 -1511h-246zM1395 2067l52 -195l-750 -336l-50 178z" />
<glyph unicode="&#x13b;" horiz-adv-x="1297" d="M717 1421h252l-336 -1190h715l-66 -231h-972zM468 -40h310l-364 -472h-273z" />
<glyph unicode="&#x13c;" horiz-adv-x="646" d="M653 1511h246l-433 -1511h-246zM250 -40h269l-328 -472h-268z" />
<glyph unicode="&#x13d;" horiz-adv-x="1297" d="M697 1421h252l-341 -1190h720l-66 -231h-972zM1336 1421h269l-327 -472h-268z" />
<glyph unicode="&#x13e;" horiz-adv-x="886" d="M628 1511h246l-433 -1511h-246zM1029 1511h250l-278 -472h-250z" />
<glyph unicode="&#x13f;" horiz-adv-x="1297" d="M697 1421h252l-341 -1190h720l-66 -231h-972zM956 864h345l-84 -292h-345z" />
<glyph unicode="&#x140;" horiz-adv-x="903" d="M628 1511h246l-433 -1511h-246zM779 879h292l-84 -292h-292z" />
<glyph unicode="&#x141;" horiz-adv-x="1297" d="M697 1421h252l-150 -524l357 150l-76 -267l-331 -139l-118 -410h697l-66 -231h-972l142 496l-166 -78l72 252l166 78z" />
<glyph unicode="&#x142;" horiz-adv-x="760" d="M658 1511h246l-182 -633l243 123l-70 -245l-240 -111l-185 -645h-246l153 533l-160 -81l70 244l159 77z" />
<glyph unicode="&#x143;" horiz-adv-x="1823" d="M697 1421h278l480 -1092l313 1092h252l-407 -1421h-281l-476 1094l-314 -1094h-252zM1785 1992l68 -195l-746 -336l-63 178z" />
<glyph unicode="&#x144;" d="M452 963h183l9 -68q226 88 406 88q289 0 289 -228q0 -76 -32 -186l-163 -569h-247l161 562q13 48 13 76q0 115 -172 115q-116 0 -277 -53l-200 -700h-246zM1422 1562l52 -206l-751 -349l-50 186z" />
<glyph unicode="&#x145;" horiz-adv-x="1823" d="M697 1421h278l480 -1092l313 1092h252l-407 -1421h-281l-476 1094l-314 -1094h-252zM787 -40h300l-350 -472h-299z" />
<glyph unicode="&#x146;" horiz-adv-x="1339" d="M452 963h183l9 -68q229 88 412 88q293 0 293 -231q0 -75 -32 -187l-165 -575h-247l163 569q13 48 13 77q0 117 -176 117q-123 0 -283 -54l-203 -709h-246zM512 -49h323l-362 -463h-302z" />
<glyph unicode="&#x147;" horiz-adv-x="1823" d="M697 1421h278l480 -1092l313 1092h252l-407 -1421h-281l-476 1094l-314 -1094h-252zM1408 1457l-249 349l213 144l138 -194l252 191l128 -133z" />
<glyph unicode="&#x148;" d="M452 963h183l9 -68q226 88 406 88q289 0 289 -228q0 -76 -32 -186l-163 -569h-247l161 562q13 48 13 76q0 115 -172 115q-116 0 -277 -53l-200 -700h-246zM958 1003l-244 365l205 152l145 -202l266 199l110 -142z" />
<glyph unicode="&#x149;" horiz-adv-x="1496" d="M622 963h183l10 -68q226 88 406 88q289 0 289 -228q0 -76 -32 -186l-163 -569h-247l161 562q13 46 13 75q0 116 -173 116q-115 0 -276 -53l-201 -700h-246zM475 1421h232l-155 -540h-232z" />
<glyph unicode="&#x14a;" horiz-adv-x="1812" d="M1357 29l234 816q32 113 32 178q0 209 -263 209q-171 0 -489 -113l-321 -1119h-260l407 1421h178l21 -80q395 142 611 142q199 0 300 -90t101 -243q0 -38 -6 -78q-9 -62 -37 -156l-261 -910q-24 -83 -64 -148t-87 -106.5t-103.5 -68t-111.5 -37.5t-114 -11 q-112 0 -250 36l-39 10l102 200l42 -8q99 -19 157 -19q48 0 86.5 13.5t60 31t38.5 45.5t23 44.5t13 40.5z" />
<glyph unicode="&#x14b;" d="M904 753q-116 0 -271 -53l-201 -703h-257l277 966h183l14 -67q224 86 399 86q85 0 144.5 -20t89.5 -56t43 -75t13 -86q0 -66 -28 -165l-161 -562q-18 -61 -40.5 -112t-58.5 -99t-81 -81t-108.5 -53t-139.5 -20q-105 0 -263 38l-40 10l104 198l42 -7q125 -19 162 -19 q79 0 118.5 38t59.5 110l155 541q13 48 13 76q0 115 -168 115z" />
<glyph unicode="&#x14c;" horiz-adv-x="1850" d="M1660 709q25 87 25 160q0 85 -32 151t-87 105.5t-122.5 59.5t-144.5 20q-88 0 -179 -28.5t-178 -84t-157 -150t-104 -215.5q-25 -87 -25 -163q0 -162 103.5 -255t275.5 -93q89 0 181 29t179 86t158 155t107 223zM1378 1436q268 0 423.5 -130t155.5 -359q0 -104 -34 -221 q-62 -218 -205.5 -386.5t-342 -261.5t-421.5 -93q-121 0 -224 31t-181 91t-122 155t-44 215q0 107 35 230q63 219 206.5 385.5t339 255t414.5 88.5zM1025 1697h895l-61 -211h-895z" />
<glyph unicode="&#x14d;" horiz-adv-x="1359" d="M964 982q199 0 313.5 -86.5t114.5 -246.5q0 -72 -23 -150q-69 -240 -261.5 -379.5t-449.5 -139.5q-198 0 -309 88.5t-111 247.5q0 72 24 156q68 235 256.5 372.5t445.5 137.5zM885 760q-119 0 -228.5 -69.5t-145.5 -194.5q-12 -44 -12 -83q0 -94 65 -152.5t179 -58.5 q128 0 234.5 73.5t141.5 195.5q13 43 13 83q0 98 -72.5 152t-174.5 54zM613 1273h888l-61 -211h-888z" />
<glyph unicode="&#x14e;" horiz-adv-x="1850" d="M1032 1794l239 103l9 -38q4 -16 9.5 -31.5t20 -41.5t33.5 -44.5t51.5 -32.5t72.5 -14q78 0 168.5 51t166.5 120l34 31l161 -123l-37 -35q-126 -114 -279 -189t-294 -75q-82 0 -148.5 25t-107.5 66.5t-65 91t-30 103.5zM1660 709q25 87 25 160q0 85 -32 151t-87 105.5 t-122.5 59.5t-144.5 20q-88 0 -179 -28.5t-178 -84t-157 -150t-104 -215.5q-25 -87 -25 -163q0 -162 103.5 -255t275.5 -93q89 0 181 29t179 86t158 155t107 223zM1378 1436q268 0 423.5 -130t155.5 -359q0 -104 -34 -221q-62 -218 -205.5 -386.5t-342 -261.5t-421.5 -93 q-121 0 -224 31t-181 91t-122 155t-44 215q0 107 35 230q63 219 206.5 385.5t339 255t414.5 88.5z" />
<glyph unicode="&#x14f;" horiz-adv-x="1359" d="M964 982q199 0 313.5 -86.5t114.5 -246.5q0 -72 -23 -150q-69 -240 -261.5 -379.5t-449.5 -139.5q-198 0 -309 88.5t-111 247.5q0 72 24 156q68 235 256.5 372.5t445.5 137.5zM885 760q-119 0 -228.5 -69.5t-145.5 -194.5q-12 -44 -12 -83q0 -94 65 -152.5t179 -58.5 q128 0 234.5 73.5t141.5 195.5q13 43 13 83q0 98 -72.5 152t-174.5 54zM641 1349l234 114l8 -42q5 -23 14 -46.5t29.5 -57.5t59 -55.5t88.5 -21.5q81 0 175.5 57t169.5 132l33 34l142 -136l-38 -39q-119 -116 -268 -192t-295 -76q-85 0 -152.5 25.5t-108.5 69t-63 94 t-26 106.5z" />
<glyph unicode="&#x150;" horiz-adv-x="1850" d="M2153 2011l76 -184l-690 -386l-81 168zM1597 2011l87 -184l-711 -386l-79 168zM1660 709q25 87 25 160q0 85 -32 151t-87 105.5t-122.5 59.5t-144.5 20q-88 0 -179 -28.5t-178 -84t-157 -150t-104 -215.5q-25 -87 -25 -163q0 -162 103.5 -255t275.5 -93q89 0 181 29 t179 86t158 155t107 223zM1378 1436q268 0 423.5 -130t155.5 -359q0 -104 -34 -221q-62 -218 -205.5 -386.5t-342 -261.5t-421.5 -93q-121 0 -224 31t-181 91t-122 155t-44 215q0 107 35 230q63 219 206.5 385.5t339 255t414.5 88.5z" />
<glyph unicode="&#x151;" horiz-adv-x="1357" d="M958 982q199 0 316 -88t117 -249q0 -68 -22 -146q-68 -238 -264.5 -378.5t-451.5 -140.5q-196 0 -305.5 88.5t-109.5 247.5q0 72 24 156q67 235 255 372.5t441 137.5zM879 760q-116 0 -224 -69.5t-144 -194.5q-13 -47 -13 -84q0 -94 63.5 -152t175.5 -58q125 0 230 73.5 t140 195.5q13 43 13 84q0 98 -70.5 151.5t-170.5 53.5zM1627 1567l91 -181l-570 -384l-94 170zM1152 1567l108 -181l-594 -384l-82 170z" />
<glyph unicode="&#x152;" horiz-adv-x="2162" d="M1157 232l274 957h-17q-125 0 -197 -9q-204 -27 -348 -152.5t-201 -325.5q-23 -80 -23 -148q0 -110 51 -178t124 -103q54 -26 109.5 -33.5t136.5 -7.5h91zM753 1223q92 68 195 111t217 60.5t192 22t196 4.5h856l-66 -232h-643l-98 -341h588l-66 -232h-588l-110 -384h643 l-67 -232h-951q-134 0 -234.5 11t-185.5 47q-121 52 -186.5 153t-65.5 248q0 112 38 244q96 336 336 520z" />
<glyph unicode="&#x153;" horiz-adv-x="1953" d="M1023 464q16 58 16 105q0 94 -57 140t-139 46q-76 0 -143 -33.5t-110.5 -85.5t-68.5 -115t-25 -123q0 -87 51.5 -142.5t153.5 -55.5q105 0 195.5 68.5t126.5 195.5zM1607 789q-101 0 -181 -66t-119 -162h434q13 53 13 94q0 134 -147 134zM1695 972q303 0 303 -257 q0 -99 -45 -252l-31 -108h-676v-5q0 -72 71 -124.5t213 -52.5q88 0 211 29l45 11l-2 -167l-38 -11q-174 -58 -341 -58q-269 0 -363 156q-187 -153 -425 -153q-180 0 -279.5 87t-99.5 242q0 77 25 165q66 231 245 367t415 136q252 0 341 -167q60 51 126 85.5t125 50t100.5 21 t79.5 5.5z" />
<glyph unicode="&#x154;" horiz-adv-x="1602" d="M1683 1014q-41 -144 -148.5 -257.5t-283.5 -162.5l259 -594h-328l-240 552q-8 0 -24 -0.5t-25 -0.5h-192l-158 -551h-253l407 1421h606q58 0 98.5 -3t93 -13t94 -34t69.5 -61q46 -66 46 -160q0 -64 -21 -136zM884 1190l-116 -407h232q133 0 218.5 22t144.5 92 q58 68 58 145q0 51 -34 89t-108 51q-44 8 -147 8h-248zM1622 1992l70 -195l-755 -336l-51 178z" />
<glyph unicode="&#x155;" horiz-adv-x="951" d="M649 910q173 72 346 72q107 0 188 -44l30 -16l-135 -202l-33 14q-61 26 -139 26h-2q-130 0 -259 -45l-205 -715h-264l276 963h183zM1171 1567l90 -181l-621 -384l-81 170z" />
<glyph unicode="&#x156;" horiz-adv-x="1602" d="M470 -40h297l-354 -472h-270zM888 1190l-116 -407h232q133 0 218 22t144 92q59 71 59 146q0 51 -34 88.5t-108 50.5q-44 8 -147 8h-248zM1687 1014q-41 -144 -148.5 -257.5t-283.5 -162.5l259 -594h-328l-240 552q-8 0 -24 -0.5t-25 -0.5h-192l-158 -551h-253l407 1421 h605q58 0 98.5 -3t93.5 -13t94.5 -34t69.5 -61q46 -66 46 -160q0 -64 -21 -136z" />
<glyph unicode="&#x157;" horiz-adv-x="947" d="M668 910q173 72 346 72q108 0 189 -44l29 -16l-135 -203l-33 15q-58 26 -138 26h-3q-125 0 -258 -46l-208 -724h-265l279 973h183zM198 -49h298l-354 -463h-263z" />
<glyph unicode="&#x158;" horiz-adv-x="1602" d="M1683 1014q-41 -144 -148.5 -257.5t-283.5 -162.5l259 -594h-328l-240 552q-8 0 -24 -0.5t-25 -0.5h-192l-158 -551h-253l407 1421h606q58 0 98.5 -3t93 -13t94 -34t69.5 -61q46 -66 46 -160q0 -64 -21 -136zM884 1190l-116 -407h232q133 0 218.5 22t144.5 92 q58 68 58 145q0 51 -34 89t-108 51q-44 8 -147 8h-248zM1184 1457l-239 348l198 145l143 -194l257 191l132 -133z" />
<glyph unicode="&#x159;" horiz-adv-x="951" d="M649 910q173 72 346 72q107 0 188 -44l30 -16l-135 -202l-33 14q-61 26 -139 26h-2q-130 0 -259 -45l-205 -715h-264l276 963h183zM861 999l-254 366l200 151l162 -203l257 200l107 -136z" />
<glyph unicode="&#x15a;" horiz-adv-x="1525" d="M1338 1434q199 0 376 -59l38 -12l-149 -232l-35 11q-168 50 -315 50t-265 -48t-140 -123q-4 -13 -4 -27q0 -39 37.5 -70.5t98 -54t133.5 -44.5t145.5 -50t133 -63t98 -90t37.5 -124q0 -39 -14 -89q-17 -60 -54.5 -118.5t-102 -115.5t-148 -99.5t-202 -69t-255.5 -26.5 t-239 25.5t-212 73.5l-33 14l154 242l35 -15q228 -90 391 -90q154 0 263 47t131 124q5 20 5 33q0 43 -38 76t-99 56t-134 44t-146.5 47.5t-134.5 59.5t-99 86t-38 121q0 41 13 86q52 180 263 302t505 122zM1644 1992l65 -195l-755 -336l-58 178z" />
<glyph unicode="&#x15b;" horiz-adv-x="1169" d="M877 290q0 1 0.5 3.5t0.5 3.5q0 24 -39.5 43.5t-98 32.5t-127.5 34.5t-127.5 46t-98 69t-39.5 102.5q0 27 9 58q11 38 36 76.5t74.5 79.5t116 72t168 51t222.5 20q71 0 126 -7.5t77 -13.5t66 -21l38 -12l-126 -201l-35 9q-118 36 -238 36q-75 0 -130.5 -11.5t-82.5 -29.5 t-38.5 -31.5t-15.5 -25.5q-1 -3 -1 -8q0 -25 55 -47t133 -43t156.5 -48t133.5 -76.5t55 -115.5q0 -23 -8 -52q-12 -42 -35.5 -80.5t-70.5 -80.5t-111.5 -72.5t-164 -50.5t-221.5 -20q-190 0 -356 78l-32 15l129 196l33 -14q157 -64 294 -64q245 0 273 99zM640 1172l608 395 l96 -181l-609 -384z" />
<glyph unicode="&#x15c;" horiz-adv-x="1525" d="M1338 1434q199 0 376 -59l38 -12l-149 -232l-35 11q-168 50 -315 50t-265 -48t-140 -123q-4 -13 -4 -27q0 -39 37.5 -70.5t98 -54t133.5 -44.5t145.5 -50t133 -63t98 -90t37.5 -124q0 -39 -14 -89q-17 -60 -54.5 -118.5t-102 -115.5t-148 -99.5t-202 -69t-255.5 -26.5 t-239 25.5t-212 73.5l-33 14l154 242l35 -15q228 -90 391 -90q154 0 263 47t131 124q5 20 5 33q0 43 -38 76t-99 56t-134 44t-146.5 47.5t-134.5 59.5t-99 86t-38 121q0 41 13 86q52 180 263 302t505 122zM1366 1951l256 -348l-214 -145l-143 194l-258 -191l-124 133z" />
<glyph unicode="&#x15d;" horiz-adv-x="1169" d="M877 290q0 1 0.5 3.5t0.5 3.5q0 24 -39.5 43.5t-98 32.5t-127.5 34.5t-127.5 46t-98 69t-39.5 102.5q0 27 9 58q11 38 36 76.5t74.5 79.5t116 72t168 51t222.5 20q71 0 126 -7.5t77 -13.5t66 -21l38 -12l-126 -201l-35 9q-118 36 -238 36q-75 0 -130.5 -11.5t-82.5 -29.5 t-38.5 -31.5t-15.5 -25.5q-1 -3 -1 -8q0 -25 55 -47t133 -43t156.5 -48t133.5 -76.5t55 -115.5q0 -23 -8 -52q-12 -42 -35.5 -80.5t-70.5 -80.5t-111.5 -72.5t-164 -50.5t-221.5 -20q-190 0 -356 78l-32 15l129 196l33 -14q157 -64 294 -64q245 0 273 99zM591 1143l495 374 l234 -365l-196 -152l-144 204l-270 -201z" />
<glyph unicode="&#x15e;" horiz-adv-x="1525" d="M747 -317q62 0 70 31q0 1 0.5 2.5t0.5 2.5q0 17 -38 31.5t-128 38.5l-46 12l-41 11l102 170q-107 6 -188.5 30t-178.5 67l-33 14l154 242l35 -15q229 -90 393 -90q155 0 264 47t131 124q5 20 5 33q0 43 -38 76t-99 56t-135 44t-148 47.5t-135 59.5t-99 86t-38 121 q0 41 13 86q52 180 264.5 302t505.5 122q197 0 374 -59l38 -12l-150 -232l-34 11q-166 50 -313 50q-146 0 -263.5 -48t-139.5 -123q-4 -13 -4 -27q0 -39 37.5 -70.5t97.5 -54t132.5 -44.5t145 -50t132.5 -62.5t97.5 -89.5t37.5 -124q0 -39 -14 -89q-19 -65 -62 -128 t-111.5 -122.5t-172.5 -104t-228 -62.5l-34 -59q145 -48 145 -161q0 -102 -109 -190.5t-255 -88.5q-45 0 -87.5 8.5t-182.5 46.5l-42 11l113 183l42 -12q166 -48 217 -48z" />
<glyph unicode="&#x15f;" horiz-adv-x="1169" d="M525 -321q37 0 58.5 11t25.5 25q1 2 1 6q0 5 -2.5 9.5t-8.5 9t-13.5 8t-19.5 7.5t-24 7l-30 9l-35 9q-16 5 -40.5 11t-45.5 12l-43 11l102 163q-143 13 -272 72l-33 15l129 195l33 -14q158 -66 296 -66q244 0 274 102q1 3 1 7q0 24 -39.5 44t-98.5 33.5t-127.5 34.5 t-127.5 46t-98.5 70t-39.5 103q0 29 9 60q11 39 36 77.5t75 80t116.5 73t168.5 52t224 20.5q70 0 125 -7t77 -13.5t66 -21.5l37 -12l-126 -201l-35 9q-118 36 -235 36q-112 0 -181 -30.5t-80 -65.5q-1 -3 -1 -8q0 -26 54 -49t130.5 -44.5t153.5 -49.5t131 -77.5t54 -115.5 q0 -23 -8 -53q-13 -45 -40.5 -87.5t-76 -86t-128.5 -76t-182 -46.5l-35 -56q141 -41 141 -148q0 -25 -9 -56q-26 -89 -116.5 -155t-221.5 -66q-14 0 -28.5 1t-26 2t-28 4t-25 4t-28 6t-25.5 6t-27 7l-26 7q-3 1 -27 8.5t-26 7.5l-36 11l97 169l38 -12q174 -44 223 -44z" />
<glyph unicode="&#x160;" horiz-adv-x="1525" d="M1338 1434q199 0 376 -59l38 -12l-149 -232l-35 11q-168 50 -315 50t-265 -48t-140 -123q-4 -13 -4 -27q0 -39 37.5 -70.5t98 -54t133.5 -44.5t145.5 -50t133 -63t98 -90t37.5 -124q0 -39 -14 -89q-17 -60 -54.5 -118.5t-102 -115.5t-148 -99.5t-202 -69t-255.5 -26.5 t-239 25.5t-212 73.5l-33 14l154 242l35 -15q228 -90 391 -90q154 0 263 47t131 124q5 20 5 33q0 43 -38 76t-99 56t-134 44t-146.5 47.5t-134.5 59.5t-99 86t-38 121q0 41 13 86q52 180 263 302t505 122zM1251 1457l-255 348l214 145l143 -194l257 191l124 -133z" />
<glyph unicode="&#x161;" horiz-adv-x="1169" d="M877 290q0 1 0.5 3.5t0.5 3.5q0 24 -39.5 43.5t-98 32.5t-127.5 34.5t-127.5 46t-98 69t-39.5 102.5q0 27 9 58q11 38 36 76.5t74.5 79.5t116 72t168 51t222.5 20q71 0 126 -7.5t77 -13.5t66 -21l38 -12l-126 -201l-35 9q-118 36 -238 36q-75 0 -130.5 -11.5t-82.5 -29.5 t-38.5 -31.5t-15.5 -25.5q-1 -3 -1 -8q0 -25 55 -47t133 -43t156.5 -48t133.5 -76.5t55 -115.5q0 -23 -8 -52q-12 -42 -35.5 -80.5t-70.5 -80.5t-111.5 -72.5t-164 -50.5t-221.5 -20q-190 0 -356 78l-32 15l129 196l33 -14q157 -64 294 -64q245 0 273 99zM1387 1377 l-483 -378l-248 365l206 152l150 -203l263 200z" />
<glyph unicode="&#x162;" horiz-adv-x="1456" d="M639 -316q53 2 60 27q0 1 0.5 2.5t0.5 2.5q0 7 -5 13.5t-17 13t-23.5 11.5t-32 12t-35 11t-40.5 12l-40 12l-49 12l26 38l43 63l34 48q7 10 22.5 35.5t19.5 34.5l14 34q10 25 16 46l17 59l292 1018h-516l66 232h1284l-66 -232h-516l-288 -1005q-25 -87 -47 -139.5 t-63 -115.5q159 -56 159 -159q0 -23 -7 -45q-26 -89 -132.5 -160t-241.5 -71q-27 0 -56 4t-50.5 9t-75.5 19l-96 23l-51 11l126 183l51 -12l63 -17l55 -14l36 -8t36.5 -6.5t26.5 -1.5z" />
<glyph unicode="&#x163;" horiz-adv-x="910" d="M562 1271h277l-88 -308h348l-61 -211h-347l-128 -444q-7 -26 -7 -48q0 -96 136 -96q32 0 149 17l40 6l-9 -166l-41 -10q-85 -22 -167 -33l-27 -51q23 -8 41 -17.5t39 -26.5t32.5 -42.5t11.5 -57.5q0 -26 -9 -59q-25 -88 -112.5 -155t-205.5 -67q-73 0 -161 19t-131 33 l-36 11l98 170l39 -12q2 -1 46.5 -11.5t68.5 -15.5t63 -11t67 -6q70 0 80 34q2 8 2 11q0 17 -29.5 27.5t-126.5 33.5l-77 18l-48 11l119 181q-145 45 -145 187q0 47 18 109l133 461h-130l60 211h130z" />
<glyph unicode="&#x164;" horiz-adv-x="1374" d="M492 1421h1284l-66 -232h-516l-341 -1189h-252l341 1189h-516zM1158 1457l-248 348l211 145l140 -194l252 191l129 -133z" />
<glyph unicode="&#x165;" horiz-adv-x="914" d="M818 1033l350 494h305l-359 -494h-296zM559 1259h277l-85 -296h351l-61 -211h-350l-122 -424q-10 -36 -10 -59q0 -79 118 -79q33 0 175 19l41 7l-15 -188l-41 -10q-166 -38 -281 -38q-291 0 -291 202q0 56 21 125l128 445h-130l60 211h130z" />
<glyph unicode="&#x166;" horiz-adv-x="1374" d="M492 1421h1284l-66 -232h-516l-113 -395h373l-67 -232h-373l-161 -562h-252l161 562h-373l67 232h373l113 395h-516z" />
<glyph unicode="&#x167;" horiz-adv-x="905" d="M829 18q-156 -38 -254 -38q-156 0 -232.5 47.5t-76.5 153.5q0 55 21 128l32 114h-130l55 191h130l40 138h-130l60 211h130l88 308h277l-88 -308h343l-60 -211h-343l-40 -138h343l-55 -191h-343l-29 -101q-7 -23 -7 -41q0 -91 137 -91q26 0 148 19l40 6l-16 -187z" />
<glyph unicode="&#x168;" horiz-adv-x="1744" d="M906 -20q-509 0 -509 325q0 76 34 193q6 22 19.5 65t18.5 61l228 797h252l-258 -901q-22 -74 -22 -119q0 -58 33 -99q75 -93 270 -93q80 0 148 15t113 38t81 55t55.5 60t34 60t19 48t7.5 30q1 4 1 5l258 901h252l-228 -797q-4 -14 -15 -57l-19 -73q-8 -30 -27 -80 t-39.5 -87t-55.5 -85t-75 -82.5t-98.5 -70.5t-126 -58.5t-158 -36.5t-193.5 -14zM1244 1862q58 -3 104 -22.5t73.5 -45.5t49 -51.5t41.5 -43.5t39 -18q14 0 28.5 8t34.5 27l32 34q13 14 40 46l38 46l30 34l163 -80l-29 -38q-1 -1 -24 -31l-28 -37l-29 -35t-35 -39t-36 -34.5 t-42 -34.5l-43 -27q-27 -16 -49.5 -23t-51 -13t-57.5 -6q-58 3 -104.5 22.5t-73.5 45.5t-48.5 51.5t-41.5 43.5t-39 18q-10 0 -20.5 -4.5t-23 -14t-23 -19t-25.5 -27.5l-26 -28l-27.5 -34t-27.5 -33l-30 -35l-158 80l29 38l24 32l28 36q7 10 28.5 35.5t33.5 38.5l36 34 q24 23 42 34l42 28q26 15 49 23t51 13.5t56 5.5z" />
<glyph unicode="&#x169;" horiz-adv-x="1331" d="M901 1428q61 -3 110 -22.5t78 -45.5t51.5 -51.5t43 -43.5t40.5 -18q10 0 20 3.5t22 12.5t20.5 17t23.5 25.5l24 28.5l27 36l29 37l28 36l154 -81l-30 -38q-4 -5 -26.5 -35t-31.5 -41l-32 -40q-24 -29 -40 -42l-40 -37q-25 -23 -46.5 -35t-48.5 -25.5t-55.5 -19 t-57.5 -5.5q-61 3 -109.5 22.5t-77 45.5t-51 51.5t-43.5 43.5t-41 18q-8 0 -16 -2t-17 -7.5t-16 -10.5t-17 -15l-17 -18q-7 -8 -19 -24l-19 -24l-22 -28l-23 -31l-27 -35l-157 80l29 38q1 1 29.5 38.5l36.5 47.5l38 44q30 35 47 48l48 38q31 25 56 35t58.5 19.5t66.5 9.5z M1195 988h246l-283 -988h-183l-9 67q-224 -87 -407 -87q-287 0 -287 231q0 80 33 193l167 584h246l-166 -582q-13 -46 -13 -76q0 -121 173 -121q116 0 276 55z" />
<glyph unicode="&#x16a;" horiz-adv-x="1744" d="M906 -20q-509 0 -509 325q0 76 34 193q6 22 19.5 65t18.5 61l228 797h252l-258 -901q-22 -74 -22 -119q0 -58 33 -99q75 -93 270 -93q80 0 148 15t113 38t81 55t55.5 60t34 60t19 48t7.5 30q1 4 1 5l258 901h252l-228 -797q-4 -14 -15 -57l-19 -73q-8 -30 -27 -80 t-39.5 -87t-55.5 -85t-75 -82.5t-98.5 -70.5t-126 -58.5t-158 -36.5t-193.5 -14zM882 1697h994l-61 -211h-994z" />
<glyph unicode="&#x16b;" d="M1182 988h246l-284 -988h-183l-10 67q-222 -87 -405 -87q-288 0 -288 231q0 80 33 193l168 584h246l-167 -582q-13 -46 -13 -77q0 -120 172 -120q117 0 277 55zM671 1333h750l-61 -211h-750z" />
<glyph unicode="&#x16c;" horiz-adv-x="1744" d="M880 1794l224 103l10 -38q5 -17 10.5 -31.5t21 -41t35 -45t53.5 -32.5t75 -14q80 0 173 51t171 120l36 31l161 -123l-36 -35q-126 -113 -283.5 -188.5t-302.5 -75.5q-84 0 -150.5 25t-106.5 67t-62 91t-26 103zM906 -20q-509 0 -509 326q0 77 34 191l266 924h252 l-258 -901q-22 -74 -22 -119q0 -58 33 -99q75 -93 270 -93q80 0 148 15t113 38t81 55t55.5 60t34 60t19 48t7.5 30q1 4 1 5l258 901h252l-228 -797q-4 -14 -15 -57l-19 -73q-8 -30 -27 -80t-39.5 -87t-55.5 -85t-75 -82.5t-98.5 -70.5t-126 -58.5t-158 -36.5t-193.5 -14z " />
<glyph unicode="&#x16d;" d="M1182 988h246l-284 -988h-183l-10 67q-222 -87 -405 -87q-288 0 -288 231q0 80 33 193l168 584h246l-167 -582q-13 -46 -13 -77q0 -120 172 -120q117 0 277 55zM583 1360l223 103l8 -38q3 -14 9 -31t22 -42t37 -44t56.5 -33t78.5 -14q85 0 181 52t165 119l33 31l145 -123 l-36 -35q-119 -115 -268.5 -189.5t-302.5 -74.5q-87 0 -154.5 24.5t-107.5 66.5t-61 91t-25 104z" />
<glyph unicode="&#x16e;" horiz-adv-x="1744" d="M1465 2007q101 0 164.5 -56t63.5 -143q0 -33 -10 -66q-31 -110 -140 -188t-230 -78q-101 0 -164 56t-63 143q0 34 10 67q31 109 139.5 187t229.5 78zM1416 1834q-56 0 -93 -38t-37 -81q0 -29 19.5 -47.5t57.5 -18.5q44 0 79 29.5t45 63.5q3 12 3 23q0 29 -20 49t-54 20z M906 -20q-509 0 -509 326q0 77 34 191l266 924h252l-258 -901q-22 -74 -22 -119q0 -58 33 -99q75 -93 270 -93q80 0 148 15t113 38t81 55t55.5 60t34 60t19 48t7.5 30q1 4 1 5l258 901h252l-228 -797q-4 -14 -15 -57l-19 -73q-8 -30 -27 -80t-39.5 -87t-55.5 -85t-75 -82.5 t-98.5 -70.5t-126 -58.5t-158 -36.5t-193.5 -14z" />
<glyph unicode="&#x16f;" horiz-adv-x="1335" d="M1189 988h246l-284 -988h-183l-10 67q-225 -87 -409 -87q-291 0 -291 232q0 81 33 192l168 584h246l-167 -582q-13 -46 -13 -76q0 -121 175 -121q118 0 281 55zM1119 1573q106 0 169 -55t63 -142q0 -34 -10 -68q-32 -111 -139 -188.5t-234 -77.5q-106 0 -170 55.5 t-64 142.5q0 35 10 68q32 110 140 187.5t235 77.5zM1070 1400q-57 0 -95 -38t-38 -81q0 -29 20 -47.5t60 -18.5q42 0 79 28t48 65q3 12 3 23q0 30 -21 49.5t-56 19.5z" />
<glyph unicode="&#x170;" horiz-adv-x="1744" d="M970 1451l-74 184l662 386l68 -168zM2078 2021l74 -184l-662 -386l-69 168zM906 -20q-509 0 -509 326q0 77 34 191l266 924h252l-258 -901q-22 -74 -22 -119q0 -58 33 -99q75 -93 270 -93q80 0 148 15t113 38t81 55t55.5 60t34 60t19 48t7.5 30q1 4 1 5l258 901h252 l-228 -797q-4 -14 -15 -57l-19 -73q-8 -30 -27 -80t-39.5 -87t-55.5 -85t-75 -82.5t-98.5 -70.5t-126 -58.5t-158 -36.5t-193.5 -14z" />
<glyph unicode="&#x171;" horiz-adv-x="1327" d="M1104 1567l93 -173l-536 -368l-111 163zM1182 988h246l-284 -988h-183l-10 67q-222 -87 -405 -87q-288 0 -288 231q0 80 33 193l168 584h246l-167 -582q-13 -46 -13 -77q0 -120 172 -120q117 0 277 55zM1637 1567l93 -173l-540 -368l-107 163z" />
<glyph unicode="&#x172;" horiz-adv-x="1744" d="M431 497l266 924h252l-258 -901q-22 -74 -22 -119q0 -58 33 -99q75 -93 270 -93q80 0 148 15t113 38t81 55t55.5 60t34 60t19 48t7.5 30q1 4 1 5l258 901h252l-261 -915q-34 -117 -74.5 -196t-100 -133.5t-121.5 -88t-164 -72.5q-97 -36 -171 -80t-113 -82.5t-58.5 -66.5 t-25.5 -48q-3 -12 -3 -22q0 -47 58 -47q66 0 171 54l50 25l50 -162l-37 -22q-194 -110 -354 -110q-103 0 -156.5 47.5t-53.5 127.5q0 81 55 175.5t158 178.5q-391 32 -391 324q0 80 32 189z" />
<glyph unicode="&#x173;" horiz-adv-x="1339" d="M702 963l-162 -563q-12 -41 -12 -71q0 -120 176 -120q119 0 280 53l201 701h246l-284 -992l-25 -11l-96 -42q-71 -32 -103.5 -48t-80 -43t-71.5 -52t-32 -52q-3 -12 -3 -21q0 -39 60 -39q64 0 162 47l40 19l45 -150l-38 -21q-182 -101 -323 -101q-111 0 -172 48.5 t-61 124.5q0 27 9 57q57 200 439 353q-186 -60 -336 -60q-97 0 -161 25q-143 56 -143 208q0 72 36 197q3 9 9 23.5t7 17.5l147 512h246z" />
<glyph unicode="&#x174;" horiz-adv-x="2401" d="M547 1421h268l14 -1092l724 1092h232l26 -1092l712 1092h254l-940 -1421h-241l-30 1087l-714 -1087h-241zM1830 1955l237 -348l-212 -145l-125 194l-242 -191l-131 133z" />
<glyph unicode="&#x175;" horiz-adv-x="1891" d="M342 988h256l21 -733l510 733h215l17 -735l523 735h264l-751 -988h-218l-24 710l-508 -710h-218zM1396 1522l239 -348l-214 -145l-125 194l-242 -191l-133 133z" />
<glyph unicode="&#x176;" horiz-adv-x="1427" d="M507 1421h298l222 -551l546 551h288l-762 -757l-190 -664h-283l190 664zM1355 1951l250 -348l-212 -145l-139 194l-255 -191l-129 133z" />
<glyph unicode="&#x177;" horiz-adv-x="1204" d="M332 988h259l109 -759l515 759h259l-1078 -1519h-296l399 534zM1078 1517l244 -348l-207 -145l-139 194l-257 -191l-127 133z" />
<glyph unicode="&#x178;" horiz-adv-x="1427" d="M507 1421h298l222 -551l546 551h288l-762 -757l-190 -664h-283l190 664zM1421 1898h298l-76 -267h-298zM920 1898h296l-76 -267h-296z" />
<glyph unicode="&#x179;" horiz-adv-x="1522" d="M592 1421h1250l-43 -153l-1215 -1036h945l-67 -232h-1307l44 155l1194 1034h-867zM1657 1992l67 -195l-744 -336l-63 178z" />
<glyph unicode="&#x17a;" horiz-adv-x="1218" d="M422 963h895l-37 -127l-730 -625h575l-60 -211h-919l37 127l722 625h-543zM1235 1567l98 -180l-611 -384l-86 170z" />
<glyph unicode="&#x17b;" horiz-adv-x="1522" d="M592 1421h1250l-43 -153l-1215 -1036h945l-67 -232h-1307l44 155l1194 1034h-867zM1153 1829h325l-83 -292h-325z" />
<glyph unicode="&#x17c;" horiz-adv-x="1226" d="M422 963h903l-36 -127l-738 -625h583l-61 -211h-927l37 127l729 625h-550zM837 1421h338l-77 -271h-338z" />
<glyph unicode="&#x17d;" horiz-adv-x="1522" d="M592 1421h1250l-43 -153l-1215 -1036h945l-67 -232h-1307l44 155l1194 1034h-867zM1215 1457l-247 348l210 145l139 -194l252 191l128 -133z" />
<glyph unicode="&#x17e;" horiz-adv-x="1218" d="M422 963h895l-37 -127l-730 -625h575l-60 -211h-919l37 127l722 625h-543zM867 1000l-235 364l193 152l149 -203l269 200l110 -136z" />
<glyph unicode="&#x191;" horiz-adv-x="1412" d="M-248 -490l99 201l39 -11q78 -23 141 -23q189 0 238 169l451 1575h971l-66 -232h-694l-98 -341h634l-66 -232h-634l-223 -776q-37 -130 -117.5 -217t-182 -125.5t-223.5 -38.5q-116 0 -236 40z" />
<glyph unicode="&#x192;" horiz-adv-x="963" d="M388 963h188l20 70q39 141 114 223q75 84 184.5 128.5t233.5 44.5q118 0 239 -41l32 -11l-98 -204l-38 11q-80 26 -137 26q-54 0 -96.5 -14t-67.5 -32.5t-44 -47t-26.5 -48.5t-15.5 -46l-16 -59h346l-61 -211h-346l-268 -935q-104 -358 -517 -358q-115 0 -238 41l-32 11 l97 199l38 -10q82 -22 138 -22q53 0 93.5 11t64 26t40.5 39.5t24 41.5t14 42l262 914h-187z" />
<glyph unicode="&#x22c;" horiz-adv-x="1850" d="M1157 2157h895l-61 -211h-895zM1781 1884l198 -30l-21 -42l-18 -36l-20 -42q-7 -13 -23 -40.5t-27 -43.5t-30 -40t-35.5 -38.5t-40.5 -31.5t-47.5 -26t-53 -15.5t-61.5 -6.5q-55 2 -100.5 21.5t-73 46t-49 52t-39.5 43.5t-33 18q-6 0 -12.5 -2.5t-13 -8.5t-11.5 -11.5 t-12 -16t-11.5 -18t-11.5 -22.5l-11 -22l-12 -25q-8 -17 -12 -24l-19 -39l-198 30l21 42q3 7 19.5 40t24.5 46l25 46q18 32 31 48l36 43q22 26 44 40t49 29t59 21.5t67 6.5q55 -2 100.5 -21.5t73 -46t49 -52t39.5 -43.5t33 -18q8 0 16 4t17 14.5t15.5 19t15.5 26.5l14 27 l16 30q11 22 14 29zM1660 709q25 87 25 160q0 85 -32.5 151.5t-87 105.5t-121.5 59t-142 20h-3q-88 0 -179 -28.5t-178 -84t-157 -150t-104 -215.5q-25 -87 -25 -163q0 -162 103.5 -255t275.5 -93q89 0 181 29t179 86t158 155t107 223zM1378 1436q268 0 423.5 -130 t155.5 -359q0 -104 -34 -221q-62 -218 -205.5 -386.5t-342 -261.5t-421.5 -93q-121 0 -224 31t-181 91t-122 155t-44 215q0 107 35 230q63 219 206.5 385.5t339 255t414.5 88.5z" />
<glyph unicode="&#x22d;" horiz-adv-x="1362" d="M1349 1443l187 -32l-21 -42q-3 -7 -17 -36l-20 -41q-6 -13 -22 -41.5t-26.5 -43.5t-29.5 -40t-35 -38.5t-39.5 -31t-46.5 -26.5t-52.5 -15.5t-60.5 -6.5q-57 2 -103.5 21.5t-75 46t-51 52.5t-41 44t-33.5 18q-7 0 -13 -2.5t-12.5 -8t-12.5 -11.5t-12 -17l-12 -18 q-5 -8 -12 -22l-12 -22l-12 -25l-12 -24l-19 -38l-190 27l21 43l19 40q16 34 23 47l24 46q18 32 32 48l34 42q22 26 43.5 40t48.5 29t58.5 21.5t66.5 6.5q57 -2 103.5 -21.5t75.5 -46t52 -52.5t41.5 -44t33.5 -18q9 0 17.5 5t17.5 15t16.5 20.5t16.5 27l15 27.5l14 30l13 27 zM741 1719h891l-60 -211h-892zM966 982q200 0 314.5 -86.5t114.5 -246.5q0 -72 -23 -150q-69 -240 -261.5 -379.5t-450.5 -139.5q-199 0 -310.5 89t-111.5 248q0 71 24 155q68 235 257 372.5t447 137.5zM887 760q-76 0 -150.5 -28t-138 -89.5t-87.5 -146.5q-12 -44 -12 -83 q0 -94 65 -152.5t180 -58.5q129 0 236 73.5t142 195.5q13 43 13 83q0 98 -72.5 152t-175.5 54z" />
<glyph unicode="&#x237;" horiz-adv-x="601" d="M465 963h246l-305 -1066q-12 -40 -22.5 -69t-31.5 -74.5t-50.5 -81.5t-71.5 -75t-102.5 -72t-134.5 -57l-37 -12l-40 191l42 18q154 65 197 215z" />
<glyph unicode="&#x2c6;" horiz-adv-x="1479" d="M1185 1601l212 -348l-193 -145l-120 194l-231 -191l-112 133z" />
<glyph unicode="&#x2c7;" horiz-adv-x="1078" d="M823 1064l-212 348l193 145l120 -194l232 191l112 -130z" />
<glyph unicode="&#x2d8;" horiz-adv-x="1078" d="M498 1401l221 103l8 -38q4 -21 12 -42t25.5 -52t51.5 -50.5t79 -19.5q71 0 155.5 51t156.5 120l33 31l145 -123l-36 -35q-119 -114 -261.5 -189t-271.5 -75q-75 0 -135.5 25t-97.5 66.5t-58 91t-25 103.5z" />
<glyph unicode="&#x2d9;" horiz-adv-x="1200" d="M869 1483h292l-83 -292h-292z" />
<glyph unicode="&#x2da;" horiz-adv-x="1084" d="M994 1441q-50 0 -84 -39t-34 -83q0 -28 16 -45.5t49 -17.5q36 0 69 28t44 65q4 12 4 27q0 28 -17.5 46.5t-46.5 18.5zM1228 1349q-31 -110 -130 -188t-206 -78q-87 0 -141.5 54t-54.5 138q0 33 11 74q31 109 130 187t206 78q87 0 141.5 -53.5t54.5 -137.5q0 -33 -11 -74z " />
<glyph unicode="&#x2db;" horiz-adv-x="1084" d="M323 -335q45 159 224 312t393 207l43 10l-5 -188l-39 -13q-148 -49 -254.5 -138.5t-126.5 -156.5q-3 -12 -3 -24q0 -45 50 -45t157 54l43 22l40 -159l-35 -21q-185 -110 -316 -110q-86 0 -134.5 47t-48.5 124q0 37 12 79z" />
<glyph unicode="&#x2dc;" horiz-adv-x="1400" d="M1282 1402q12 0 25 7t31 26.5t29 32.5t36.5 46.5t36.5 46.5l28 35l156 -80l-29 -38q-1 -2 -29 -40l-37 -47q-8 -10 -37.5 -44t-45.5 -47l-47 -38q-31 -25 -55 -35.5t-56 -19.5t-64 -9q-51 3 -91.5 22.5t-64.5 45.5t-42.5 52t-35.5 44t-34 18q-12 0 -25 -7t-30 -25.5 t-28.5 -32.5t-36.5 -47l-38 -49l-28 -35l-157 80l29 38q2 3 29.5 39.5t36.5 47.5l38 45q29 33 46 47l46 39q31 24 55.5 35t56.5 20t64 9q51 -3 91.5 -22.5t64 -45.5t42 -52t36 -44t34.5 -18z" />
<glyph unicode="&#x2dd;" horiz-adv-x="1652" d="M658 1091l-74 184l661 386l69 -168zM1765 1661l75 -184l-662 -386l-69 168z" />
<glyph unicode="&#x2ee;" horiz-adv-x="835" d="M514 1552h267l-146 -510h-267zM904 1552h267l-146 -510h-267z" />
<glyph unicode="&#x302;" horiz-adv-x="1479" d="M1185 1601l212 -348l-193 -145l-120 194l-231 -191l-112 133z" />
<glyph unicode="&#x1e02;" horiz-adv-x="1588" d="M1122 1209h-233l-113 -394q219 5 311 21q232 41 276 194q7 26 7 47q0 132 -248 132zM979 655q-8 0 -252 -11l-118 -412h224q40 0 68.5 0.5t80 4.5t89.5 11.5t84.5 22.5t79.5 36t60.5 53.5t39.5 73.5q7 22 7 45q0 83 -96 129.5t-267 46.5zM697 1421h542q100 0 177 -17 t122.5 -43.5t74.5 -63.5t39.5 -73t10.5 -76q0 -43 -13 -89q-19 -68 -76.5 -138t-127.5 -118q76 -35 118 -103t42 -153q0 -49 -15 -101q-9 -33 -25.5 -67.5t-48.5 -79.5t-74 -85.5t-106 -80.5t-139.5 -68.5t-180.5 -46.5t-224 -18h-503zM1224 1898h330l-83 -292h-330z" />
<glyph unicode="&#x1e03;" horiz-adv-x="1342" d="M701 939q140 44 274 44q63 0 118.5 -9.5t108.5 -33.5t91 -59.5t61 -91.5t23 -127q0 -74 -27 -170q-68 -240 -256 -376t-441 -136q-150 0 -263 52l-23 -32h-182l432 1507h246zM846 765q-102 0 -204 -31l-148 -515q94 -28 191 -28q45 0 89.5 6.5t96.5 25.5t94.5 48.5t79 80 t55.5 115.5q16 55 16 101q0 47 -17.5 83t-44 57t-64 34.5t-72 18t-72.5 4.5zM1080 1898h345l-84 -292h-345z" />
<glyph unicode="&#x1e0a;" horiz-adv-x="1770" d="M1286 1898h334l-83 -292h-334zM1119 1189h-236l-274 -957h166q70 0 116.5 2t125 14t138.5 33.5t131 65t128 105.5q104 114 148 267q21 71 21 139q0 60 -18 110.5t-48.5 86.5t-72.5 63t-87 42t-94 22q-50 7 -144 7zM1178 1421q153 0 272 -25t195 -66.5t124.5 -101.5 t68.5 -125.5t20 -141.5q0 -99 -32 -209q-27 -92 -66 -177t-104 -174t-146 -159.5t-196.5 -127t-250.5 -83.5q-152 -31 -416 -31h-357l407 1421h481z" />
<glyph unicode="&#x1e0b;" horiz-adv-x="1346" d="M509 489q-15 -54 -15 -95q0 -57 25 -98t67 -61t85.5 -29t91.5 -9q100 0 211 34l147 513q-96 28 -195 28q-45 0 -88 -6t-95.5 -25t-95.5 -49t-81 -82.5t-57 -120.5zM940 1606l84 292h344l-84 -292h-344zM958 983q115 0 222 -34l160 558h246l-432 -1507h-182l-7 46 q-163 -66 -327 -66q-81 0 -150.5 17.5t-128 54t-92 100.5t-33.5 150q0 76 26 164q71 248 259.5 382.5t438.5 134.5z" />
<glyph unicode="&#x1e1e;" horiz-adv-x="1412" d="M884 1189l-98 -341h674l-66 -232h-674l-177 -616h-253l407 1421h987l-66 -232h-734zM1140 1898h350l-83 -292h-350z" />
<glyph unicode="&#x1e1f;" horiz-adv-x="974" d="M584 1025l16 55q7 21 21 57t28.5 60t38 56.5t50.5 54t65.5 45t83 37t103 22.5t125.5 9q124 0 248 -41l33 -11l-98 -203l-39 11q-84 25 -139 25q-122 0 -193 -44.5t-94 -123.5l-20 -71h391l-60 -211h-392l-215 -752h-246l215 752h-159l61 211h159zM950 1829h363l-84 -292 h-363z" />
<glyph unicode="&#x1e40;" horiz-adv-x="2048" d="M697 1421h306l238 -816l713 816h291l-407 -1421h-252l305 1063l-592 -656h-238l-214 656l-305 -1063h-252zM1437 1898h319l-83 -292h-319z" />
<glyph unicode="&#x1e41;" horiz-adv-x="1955" d="M865 749q-87 0 -244 -52l-199 -697h-246l276 963h183l9 -65q198 84 367 84q170 0 236 -99q212 98 420 98q298 0 298 -231q0 -73 -30 -178l-164 -572h-247l162 565q11 41 11 70q0 114 -162 114q-91 0 -249 -52q-5 -48 -33 -148l-157 -549h-247l163 568q11 41 11 67 q0 114 -158 114zM1242 1421h303l-83 -291h-303z" />
<glyph unicode="&#x1e56;" horiz-adv-x="1503" d="M697 1421h510q51 0 85.5 -1t91.5 -6.5t97 -15.5t86 -30.5t74.5 -48.5t48 -72t19.5 -99q0 -58 -20 -127q-26 -90 -70 -162.5t-95.5 -121t-120.5 -84t-134 -55.5t-147.5 -31.5t-149 -15t-150.5 -3.5q-42 0 -122 4l-158 -552h-252zM883 1189l-116 -405q77 -5 139 -5 q83 0 141.5 3.5t126.5 16t113.5 35t83 63t53.5 97.5q8 27 8 54q0 36 -19 62.5t-48.5 41.5t-77 23.5t-92 11t-105.5 2.5h-207zM1151 1898h322l-83 -292h-322z" />
<glyph unicode="&#x1e57;" horiz-adv-x="1336" d="M880 1130l84 291h338l-84 -291h-338zM1095 467q16 57 16 102q0 58 -24.5 98.5t-66 60.5t-83.5 28t-90 8q-100 0 -206 -33l-146 -511q97 -29 190 -29q57 0 113 12t116.5 40.5t109 86t71.5 137.5zM643 916q171 66 331 66q62 0 117.5 -10t107.5 -33.5t89.5 -59.5t60 -91.5 t22.5 -126.5q0 -74 -27 -170q-68 -239 -255 -375t-436 -136q-113 0 -217 34l-157 -545h-256l429 1494h182z" />
<glyph unicode="&#x1e60;" horiz-adv-x="1525" d="M1338 1434q199 0 376 -59l38 -12l-149 -232l-35 11q-168 50 -315 50t-265 -48t-140 -123q-4 -13 -4 -27q0 -39 37.5 -70.5t98 -54t133.5 -44.5t145.5 -50t133 -63t98 -90t37.5 -124q0 -39 -14 -89q-17 -60 -54.5 -118.5t-102 -115.5t-148 -99.5t-202 -69t-255.5 -26.5 t-239 25.5t-212 73.5l-33 14l154 242l35 -15q228 -90 391 -90q154 0 263 47t131 124q5 20 5 33q0 43 -38 76t-99 56t-134 44t-146.5 47.5t-134.5 59.5t-99 86t-38 121q0 41 13 86q52 180 263 302t505 122zM1226 1898h333l-83 -292h-333z" />
<glyph unicode="&#x1e61;" horiz-adv-x="1178" d="M772 1130l84 291h357l-84 -291h-357zM885 290q0 1 0.5 3.5t0.5 3.5q0 28 -55.5 49.5t-134.5 40.5t-158 45t-134.5 75.5t-55.5 118.5q0 26 9 57q11 39 36 77t75 79t117 72t169.5 51t224.5 20q72 0 128 -7.5t78 -13.5t67 -21l37 -12l-125 -201l-36 9q-120 36 -242 36 q-62 0 -111.5 -8t-77 -19.5t-47 -26.5t-26 -25t-9.5 -19q-1 -3 -1 -8q0 -25 56 -47t135.5 -43t159 -48.5t135.5 -77t56 -115.5q0 -22 -8 -51q-12 -42 -35.5 -80.5t-71 -80.5t-112.5 -72.5t-165.5 -50.5t-223.5 -20q-192 0 -360 78l-32 15l129 196l34 -14q159 -64 298 -64 q248 0 276 99z" />
<glyph unicode="&#x1e6a;" horiz-adv-x="1374" d="M492 1421h1284l-66 -232h-516l-341 -1189h-252l341 1189h-516zM1107 1898h326l-83 -292h-326z" />
<glyph unicode="&#x1e6b;" horiz-adv-x="907" d="M831 18q-156 -38 -254 -38q-162 0 -228 49.5t-66 138.5q0 55 24 139l127 445h-150l60 211h151l87 304h246l-87 -304h355l-60 -211h-356l-121 -424q-6 -24 -6 -38q0 -43 33.5 -71.5t111.5 -28.5q26 0 149 19l40 7l-16 -188zM636 1621h353l-83 -292h-353z" />
<glyph unicode="&#x1e80;" horiz-adv-x="2401" d="M547 1421h268l14 -1092l724 1092h232l26 -1092l712 1092h254l-940 -1421h-241l-30 1087l-714 -1087h-241zM1639 1944l516 -353l-166 -177l-530 335z" />
<glyph unicode="&#x1e81;" horiz-adv-x="1891" d="M342 988h256l21 -733l510 733h215l17 -735l523 735h264l-751 -988h-218l-24 710l-508 -710h-218zM1264 1567l341 -378l-196 -163l-361 368z" />
<glyph unicode="&#x1e82;" horiz-adv-x="2401" d="M547 1421h268l14 -1092l724 1092h232l26 -1092l712 1092h254l-940 -1421h-241l-30 1087l-714 -1087h-241zM2041 1944l70 -195l-723 -335l-65 177z" />
<glyph unicode="&#x1e83;" horiz-adv-x="1891" d="M342 988h256l21 -733l510 733h215l17 -735l523 735h264l-751 -988h-218l-24 710l-508 -710h-218zM1581 1567l117 -173l-571 -368l-103 163z" />
<glyph unicode="&#x1e84;" horiz-adv-x="2401" d="M547 1421h268l14 -1092l724 1092h232l26 -1092l712 1092h254l-940 -1421h-241l-30 1087l-714 -1087h-241zM1410 1898h298l-76 -267h-298zM1891 1898h296l-76 -267h-296z" />
<glyph unicode="&#x1e85;" horiz-adv-x="1906" d="M342 988h256l21 -733l517 733h216l24 -735l524 735h264l-751 -988h-223l-27 710l-513 -710h-221zM968 1421h311l-76 -266h-311zM1458 1421h310l-77 -266h-310z" />
<glyph unicode="&#x1ef2;" horiz-adv-x="1427" d="M507 1421h298l222 -551l546 551h288l-762 -757l-190 -664h-283l190 664zM1091 1944l541 -353l-165 -177l-556 335z" />
<glyph unicode="&#x1ef3;" horiz-adv-x="1204" d="M332 988h259l109 -759l515 759h259l-1078 -1519h-296l399 534zM897 1567l370 -378l-193 -163l-390 368z" />
<glyph unicode="&#x2000;" horiz-adv-x="1078" />
<glyph unicode="&#x2001;" horiz-adv-x="2157" />
<glyph unicode="&#x2002;" horiz-adv-x="1078" />
<glyph unicode="&#x2003;" horiz-adv-x="2157" />
<glyph unicode="&#x2004;" horiz-adv-x="719" />
<glyph unicode="&#x2005;" horiz-adv-x="539" />
<glyph unicode="&#x2006;" horiz-adv-x="359" />
<glyph unicode="&#x2007;" horiz-adv-x="359" />
<glyph unicode="&#x2008;" horiz-adv-x="269" />
<glyph unicode="&#x2009;" horiz-adv-x="431" />
<glyph unicode="&#x200a;" horiz-adv-x="119" />
<glyph unicode="&#x2010;" horiz-adv-x="1210" d="M355 769h942l-64 -221h-942z" />
<glyph unicode="&#x2011;" horiz-adv-x="1210" d="M355 769h942l-64 -221h-942z" />
<glyph unicode="&#x2013;" horiz-adv-x="1241" d="M221 769h1241l-64 -221h-1241z" />
<glyph unicode="&#x2014;" horiz-adv-x="1466" d="M221 769h1466l-64 -221h-1466z" />
<glyph unicode="&#x2015;" horiz-adv-x="1682" d="M221 769h1682l-64 -221h-1682z" />
<glyph unicode="&#x2018;" horiz-adv-x="450" d="M480 1552h281l1 -515h-281z" />
<glyph unicode="&#x2019;" horiz-adv-x="450" d="M579 1552h281l-297 -515h-281z" />
<glyph unicode="&#x201a;" horiz-adv-x="450" d="M208 258h281l-297 -515h-281z" />
<glyph unicode="&#x201b;" horiz-adv-x="450" d="M480 1552h281l1 -515h-281z" />
<glyph unicode="&#x201c;" horiz-adv-x="830" d="M579 1552h281l-297 -515h-281zM959 1552h281l-297 -515h-281z" />
<glyph unicode="&#x201d;" horiz-adv-x="830" d="M579 1552h281l-297 -515h-281zM959 1552h281l-297 -515h-281z" />
<glyph unicode="&#x201e;" horiz-adv-x="830" d="M207 255h281l-297 -515h-281zM587 255h281l-297 -515h-281z" />
<glyph unicode="&#x201f;" horiz-adv-x="830" d="M860 1552h281l1 -515h-281zM480 1552h281l1 -515h-281z" />
<glyph unicode="&#x2020;" horiz-adv-x="942" d="M683 1133l-232 -10l56 196l226 -10l70 243h225l-70 -243l233 10l-56 -196l-227 10l-294 -1026h-225z" />
<glyph unicode="&#x2021;" horiz-adv-x="942" d="M683 1133l-232 -10l56 196l226 -10l70 243h225l-70 -243l233 10l-56 -196l-227 10l-285 -995l232 10l-56 -196l-227 10l-70 -243h-225l70 243l-232 -10l56 196l227 -10z" />
<glyph unicode="&#x2022;" horiz-adv-x="640" d="M408 904h342l-98 -342h-342z" />
<glyph unicode="&#x2026;" horiz-adv-x="1720" d="M1341 251h292l-84 -292h-292zM776 251h292l-84 -292h-292zM211 251h292l-84 -292h-292z" />
<glyph unicode="&#x202f;" horiz-adv-x="431" />
<glyph unicode="&#x2030;" horiz-adv-x="1920" d="M1451 1462h270l-1456 -1503h-270zM1952 351q-43 -149 -145 -237.5t-219 -88.5q-86 0 -141 45.5t-55 144.5q0 59 22 137q43 148 145.5 230t212.5 82q38 0 71 -9t63.5 -29.5t48 -58.5t17.5 -91q0 -56 -20 -125zM1720 486q-89 0 -127 -133q-14 -51 -14 -83q0 -70 60 -70 q89 0 132 148q12 40 12 72q0 66 -63 66zM1345 351q-43 -149 -145 -237.5t-219 -88.5q-86 0 -141 45.5t-55 144.5q0 59 22 137q43 148 145.5 230t212.5 82q38 0 71 -9t63.5 -29.5t48 -58.5t17.5 -91q0 -56 -20 -125zM1113 486q-89 0 -127 -133q-14 -51 -14 -83q0 -70 60 -70 q89 0 132 148q12 40 12 72q0 66 -63 66zM908 1092q-43 -148 -144.5 -237.5t-218.5 -89.5q-86 0 -141.5 46t-55.5 146q0 58 22 136q22 75 62.5 136t90 98t102.5 57t105 20q37 0 69 -8.5t62.5 -28.5t48.5 -58.5t18 -91.5q0 -55 -20 -125zM678 1227q-89 0 -127 -133 q-14 -51 -14 -83q0 -70 60 -70q88 0 131 148q12 40 12 72q0 66 -62 66z" />
<glyph unicode="&#x2032;" horiz-adv-x="405" d="M514 1552h267l-146 -510h-267z" />
<glyph unicode="&#x2033;" horiz-adv-x="810" d="M919 1552h267l-146 -510h-267zM514 1552h267l-146 -510h-267z" />
<glyph unicode="&#x2034;" horiz-adv-x="1215" d="M1324 1552h267l-146 -510h-267zM919 1552h267l-146 -510h-267zM514 1552h267l-146 -510h-267z" />
<glyph unicode="&#x2035;" horiz-adv-x="405" d="M467 1552h278l-65 -515h-278z" />
<glyph unicode="&#x2039;" horiz-adv-x="607" d="M603 1029h289l-421 -406l188 -406h-288l-167 406z" />
<glyph unicode="&#x203a;" horiz-adv-x="607" d="M305 1029h288l168 -406l-400 -406h-289l422 406z" />
<glyph unicode="&#x203c;" horiz-adv-x="1300" d="M903 241h282l-81 -282h-282zM1268 1462h252l-299 -1045h-252zM253 241h282l-81 -282h-282zM618 1462h252l-299 -1045h-252z" />
<glyph unicode="&#x203d;" horiz-adv-x="1046" d="M339 241h282l-81 -282h-282zM1231 1094q-24 -83 -65 -150.5t-88.5 -113.5t-100.5 -86t-105 -75.5t-97.5 -73.5t-81.5 -89.5t-54 -113.5l-11 -41h-232l220 770h232l-79 -278q82 56 135.5 109.5t72.5 118.5q6 21 6 44q0 58 -49.5 98t-167.5 40q-131 0 -252 -44l-42 -15 l-27 195l40 17q169 72 362 72q63 0 118.5 -7.5t109 -26t91 -47.5t61 -76t23.5 -108q0 -55 -19 -119z" />
<glyph unicode="&#x2044;" horiz-adv-x="1036" d="M1236 1462h270l-1298 -1503h-271z" />
<glyph unicode="&#x204b;" horiz-adv-x="1326" d="M634 1552h576q38 0 66 -1t74.5 -6.5t80.5 -15.5t72.5 -30.5t63.5 -48.5t41.5 -71t16.5 -98q0 -66 -23 -148q-30 -104 -82 -188t-111 -136.5t-129 -89t-131.5 -52.5t-123.5 -21l-197 -687h-247l391 1361h-158l-391 -1361h-246z" />
<glyph unicode="&#x205f;" horiz-adv-x="539" />
<glyph unicode="&#x20ac;" horiz-adv-x="1335" d="M373 463h-231l61 212h202q8 43 41 132h-142l61 212h187q133 210 334.5 331.5t425.5 121.5q181 0 341 -79l31 -15l-135 -218l-36 16q-148 64 -270 64q-117 0 -228.5 -59t-199.5 -162h426l-61 -212h-497q-33 -76 -43 -132h439l-61 -212h-390q19 -129 105.5 -207.5 t235.5 -78.5q128 0 291 57l43 15l17 -200l-38 -16q-222 -94 -419 -94q-232 0 -361 136t-129 365v23z" />
<glyph unicode="&#x2122;" horiz-adv-x="1424" d="M671 918h-148l140 488h-175l37 130h498l-37 -130h-175zM1105 1536h156l75 -289l233 289h160l-177 -618h-148l107 373l-183 -221h-98l-48 218l-106 -370h-148z" />
<glyph unicode="&#xfb00;" horiz-adv-x="1925" d="M585 1026l17 56q6 21 20.5 58t28.5 61t38 57t50.5 55t65 46t82.5 38t102 23t124 9q123 0 246 -41l33 -11l-99 -204l-38 11q-85 26 -137 26q-234 0 -284 -173l-21 -74h719l18 63q13 45 22 72.5t31 75t45.5 78t64.5 67.5t90 58.5t120 36.5t156 15q123 0 246 -41l32 -11 l-98 -204l-38 11q-85 26 -137 26q-235 0 -285 -173l-21 -74h385l-60 -211h-385l-261 -908q-9 -32 -15.5 -51.5t-20 -54t-27 -57t-37 -53.5t-49.5 -51t-64 -42.5t-81.5 -35.5t-101.5 -21.5t-124 -8.5q-123 0 -246 40l-33 11l97 196l38 -10q82 -22 137 -22q236 0 279 153 l263 915h-720l-260 -908q-37 -130 -85 -197q-126 -178 -436 -178q-123 0 -246 40l-32 11l96 196l38 -10q82 -22 138 -22q236 0 279 153l262 915h-159l61 211h159z" />
<glyph unicode="&#xfb01;" horiz-adv-x="1563" d="M585 1026l17 56q6 21 20.5 58t28.5 61t38 57t50.5 55t65 46t82.5 38t102 23t124 9q123 0 246 -41l33 -11l-98 -200l-38 10q-85 23 -138 23q-234 0 -284 -173l-21 -74h385l-61 -211h-385l-260 -908q-37 -130 -85 -197q-126 -178 -436 -178q-123 0 -246 40l-32 11l96 196 l38 -10q82 -22 138 -22q236 0 279 153l262 915h-159l61 211h159zM1418 963h246l-279 -973h-246zM1534 1421h276l-78 -271h-276z" />
<glyph unicode="&#xfb02;" horiz-adv-x="1602" d="M584 1025l16 55q7 21 21 57t28 60t38 56.5t50.5 54.5t65 45t82.5 37t102 23t124 9q123 0 246 -41l33 -11l-98 -202l-38 10q-81 25 -137 25q-236 0 -284 -168l-20 -72h385l-61 -211h-385l-260 -908q-37 -130 -85 -197q-126 -178 -436 -178q-123 0 -246 40l-32 11l96 196 l38 -10q82 -22 138 -22q236 0 279 153l262 915h-159l61 211h159zM1594 1511h246l-436 -1521h-246z" />
<glyph unicode="&#xfb03;" horiz-adv-x="2528" d="M585 1026l17 56q6 21 20.5 58t28.5 61t38 57t50.5 55t65 46t82.5 38t102 23t124 9q123 0 246 -41l33 -11l-98 -200l-38 10q-85 23 -138 23q-234 0 -284 -173l-21 -74h719l18 63q13 45 22 72.5t31 75t45.5 78t64.5 67.5t90 58.5t120 36.5t156 15q123 0 246 -41l32 -11 l-97 -200l-38 10q-85 23 -138 23q-235 0 -285 -173l-21 -74h385l-60 -211h-385l-261 -908q-9 -32 -15.5 -51.5t-20 -54t-27 -57t-37 -53.5t-49.5 -51t-64 -42.5t-81.5 -35.5t-101.5 -21.5t-124 -8.5q-123 0 -246 40l-33 11l97 196l38 -10q82 -22 137 -22q236 0 279 153 l263 915h-720l-260 -908q-37 -130 -85 -197q-126 -178 -436 -178q-123 0 -246 40l-32 11l96 196l38 -10q82 -22 138 -22q236 0 279 153l262 915h-159l61 211h159zM2499 1421h276l-77 -271h-276zM2383 963h246l-279 -973h-246z" />
<glyph unicode="&#xfb04;" horiz-adv-x="2567" d="M584 1025l16 55q7 21 21 57t28 60t38 56.5t50.5 54.5t65 45t82.5 37t102 23t124 9q123 0 246 -41l33 -11l-98 -202l-38 10q-81 25 -137 25q-236 0 -284 -168l-20 -72h719l18 62l16 55q7 21 21 57t28 60t38 56.5t50.5 54.5t65 45t82.5 37t102 23t124 9q123 0 246 -41 l32 -11l-98 -202l-38 10q-81 25 -137 25q-235 0 -283 -168l-21 -72h385l-60 -211h-385l-261 -908q-9 -32 -15.5 -51.5t-20 -54t-27 -57t-37 -53.5t-49.5 -51t-64 -42.5t-81.5 -35.5t-101.5 -21.5t-124 -8.5q-123 0 -246 40l-33 11l97 196l38 -10q82 -22 137 -22 q236 0 279 153l263 915h-720l-260 -908q-37 -130 -85 -197q-126 -178 -436 -178q-123 0 -246 40l-32 11l96 196l38 -10q82 -22 138 -22q236 0 279 153l262 915h-159l61 211h159zM2559 1511h246l-436 -1521h-246z" />
</font>
</defs>
</svg>
