<?xml version="1.0" standalone="no"?>
<!DOCTYPE svg PUBLIC "-//W3C//DTD SVG 1.1//EN" "http://www.w3.org/Graphics/SVG/1.1/DTD/svg11.dtd" >
<svg xmlns="http://www.w3.org/2000/svg">
<metadata>
This is a custom SVG webfont generated by Font Squirrel.
Designer    : Dave Crossland
Foundry URL : http://abattis.org
</metadata>
<defs>
<font id="webfontcQfaEpqu" horiz-adv-x="1300" >
<font-face units-per-em="2048" ascent="1514" descent="-534" />
<missing-glyph horiz-adv-x="560" />
<glyph unicode=" "  horiz-adv-x="560" />
<glyph unicode="&#x09;" horiz-adv-x="560" />
<glyph unicode="&#xa0;" horiz-adv-x="560" />
<glyph unicode="!" horiz-adv-x="650" d="M282 200h200l-57 -200h-200zM647 1421h170l-276 -963h-170z" />
<glyph unicode="&#x22;" horiz-adv-x="795" d="M543 1511h185l-122 -428h-185zM933 1511h185l-122 -428h-185z" />
<glyph unicode="#" horiz-adv-x="1402" d="M770 1421h160l-112 -391h358l112 391h160l-112 -391h316l-43 -150h-316l-101 -352h316l-43 -150h-316l-117 -408h-160l117 408h-358l-117 -408h-160l117 408h-316l43 150h316l101 352h-318l43 150h318zM775 880l-101 -352h358l101 352h-358z" />
<glyph unicode="$" horiz-adv-x="1200" d="M985 1511h121l-74 -260q60 0 105.5 -5.5t71.5 -12t76 -22.5l-78 -125q-123 37 -225 37q-73 0 -129 -16t-86 -41.5t-45 -46.5t-21 -42q-3 -11 -3 -21q0 -39 47 -69t114 -54t134.5 -51.5t114.5 -75.5t47 -112q0 -27 -9 -60q-13 -46 -40 -89.5t-73 -88.5t-122 -78.5 t-171 -45.5l-86 -297h-121l84 290q-142 0 -304 75l82 124q83 -40 139 -55t120 -15q58 0 104.5 7.5t89 24.5t72 49.5t42.5 79.5q4 16 4 24q0 30 -25 53t-64.5 39.5t-87.5 32t-96 35t-87.5 43.5t-64.5 62.5t-25 87.5q0 32 10 68q11 39 37.5 79t70.5 81t115.5 73.5t158.5 46.5z " />
<glyph unicode="%" horiz-adv-x="1329" d="M690 1268q-24 0 -47.5 -8t-49 -26.5t-47.5 -54t-36 -85.5q-16 -55 -16 -94q0 -56 26.5 -78t64.5 -22q24 0 47 8t48.5 27.5t49 58.5t39.5 95q14 48 14 84q0 95 -93 95zM718 1363q29 0 55 -6.5t53 -22t43 -48.5t16 -80q0 -52 -18 -114q-38 -133 -124.5 -209.5t-185.5 -76.5 q-74 0 -120 38.5t-46 123.5q0 55 20 125q25 88 77.5 151t111 91t118.5 28zM1135 527q-24 0 -47.5 -8t-49 -26.5t-47.5 -54t-36 -85.5q-15 -52 -15 -94q0 -56 26.5 -78t64.5 -22q24 0 47 8t48.5 27.5t49 58.5t39.5 95q14 48 14 83q0 53 -27.5 74.5t-66.5 21.5zM1164 623 q29 0 55.5 -6.5t53.5 -22.5t43 -49t16 -81q0 -52 -18 -113q-38 -132 -125 -208.5t-186 -76.5q-74 0 -119.5 38t-45.5 123q0 55 20 125q37 130 125 200.5t181 70.5zM1461 1421h170l-1376 -1421h-170z" />
<glyph unicode="&#x26;" horiz-adv-x="1589" d="M1120 1440q127 0 197 -54.5t70 -143.5q0 -34 -10 -67q-9 -32 -27.5 -64t-37 -57.5t-52.5 -56.5l-55 -50q-22 -19 -64.5 -49t-62.5 -43l-68 -43l-61 -40l242 -371l424 353l66 -94l-425 -359l197 -301h-203l-136 201l-88 -65q-35 -26 -99.5 -64.5t-120.5 -61.5t-132 -40 t-151 -17q-134 0 -205.5 62t-71.5 166q0 49 15 101q11 38 28.5 75t36 67.5t46.5 63.5l50 56q20 22 55 51l54 45q19 15 57 40l50 34l48 32q35 22 39 24q-2 4 -15 22.5t-16 23.5l-16 24l-16 26q-4 7 -13 24t-13 28l-10 27q-6 17 -8.5 30t-4.5 29.5t-2 32.5q0 41 13 86 q40 140 182.5 228.5t313.5 88.5zM1062 1297q-90 0 -171.5 -54.5t-102.5 -128.5q-6 -22 -6 -43q0 -25 10 -51.5t22 -43.5l35 -52q24 -34 36 -53l63 40l59 37q16 10 48.5 32t45.5 32.5t34.5 29.5t31 32.5t20 31.5t15.5 37q5 16 5 37q0 50 -38.5 83.5t-106.5 33.5zM793 671 q-148 -96 -198 -136q-123 -100 -154 -208q-9 -31 -9 -61q0 -73 51.5 -119.5t138.5 -46.5q47 0 99 15t91.5 33t91 50.5t76.5 50.5l66 50z" />
<glyph unicode="'" horiz-adv-x="405" d="M543 1511h185l-122 -428h-185z" />
<glyph unicode="(" horiz-adv-x="742" d="M1086 1479q-288 -326 -438.5 -668t-150.5 -680q0 -230 72 -455l-153 -84q-89 275 -89 559q0 222 58 425q40 138 110 282.5t155.5 271.5t163 226.5t160.5 191.5z" />
<glyph unicode=")" horiz-adv-x="742" d="M-13 -324q81 91 152.5 184t155 229.5t142 273.5t98 310t39.5 345q0 232 -70 461l152 69q89 -273 89 -552q0 -220 -58 -420q-40 -139 -111 -285.5t-158 -276t-165.5 -230.5t-160.5 -192z" />
<glyph unicode="*" horiz-adv-x="1196" d="M920 1421h170l-109 -319l316 175l43 -148l-325 -141l243 -145l-128 -148l-216 175l-73 -318h-170l109 318l-316 -175l-42 148l326 145l-244 141l127 148l216 -175z" />
<glyph unicode="+" horiz-adv-x="1400" d="M980 1233h148l-146 -506h501l-39 -138h-501l-145 -506h-148l145 506h-501l39 138h501z" />
<glyph unicode="," horiz-adv-x="570" d="M249 170h180l-270 -390h-180z" />
<glyph unicode="-" horiz-adv-x="1210" d="M384 728h860l-40 -139h-860z" />
<glyph unicode="." horiz-adv-x="570" d="M240 210h210l-60 -210h-210z" />
<glyph unicode="/" horiz-adv-x="726" d="M943 1421h170l-929 -1511h-170z" />
<glyph unicode="0" d="M1018 1287q-48 0 -100.5 -16t-114.5 -57t-118 -102t-109 -160t-88 -222q-46 -161 -46 -282q0 -86 22 -150t59 -99.5t78.5 -52t87.5 -16.5q48 0 100.5 17t115 60t119.5 107.5t111.5 170t92.5 237.5q41 143 41 255q0 84 -22.5 146.5t-60.5 97t-80 50.5t-88 16zM1062 1440 q54 0 105.5 -12.5t102.5 -43t89 -77t61.5 -120t23.5 -165.5q0 -132 -47 -296q-48 -168 -122 -301t-152.5 -214.5t-167.5 -135.5t-164 -74.5t-145 -20.5q-54 0 -105 12.5t-101 44t-87.5 79t-60.5 123t-23 169.5q0 143 51 320q46 159 118 286t150 205t166 129.5t163.5 71.5 t144.5 20z" />
<glyph unicode="1" d="M1001 1421h196l-364 -1272h330l-43 -149h-828l43 149h334l317 1108l-347 -123l-22 147z" />
<glyph unicode="2" d="M571 1334q257 97 481 97q176 0 274 -77.5t98 -199.5q0 -44 -13 -89q-21 -73 -68 -137.5t-110.5 -117t-138.5 -103.5l-157 -108q-83 -57 -162 -118.5t-159 -147.5t-141 -183h700l-43 -150h-907l27 93q74 122 165 228.5t176.5 180t173 138t162.5 113.5t137 94t104 92t56 96 q8 29 8 53q0 84 -71.5 140t-184.5 56q-143 0 -396 -82z" />
<glyph unicode="3" d="M588 1336q236 102 431 102q157 0 251 -71t94 -185q0 -39 -12 -81q-32 -111 -116.5 -198t-194.5 -125q198 -57 198 -234q0 -53 -16 -108q-62 -215 -255.5 -348t-433.5 -133q-185 0 -349 77l88 138q191 -57 308 -57q156 0 289 80t169 206q10 33 10 68q0 32 -9 60.5t-35 58 t-67 50.5t-110 34.5t-160 13.5l42 146q90 0 165.5 16.5t125 41.5t86.5 58.5t56.5 64.5t28.5 63q7 24 7 49q0 71 -58.5 116t-166.5 45q-147 0 -350 -83z" />
<glyph unicode="4" d="M1101 1421h238l-265 -927h248l-43 -150h-248l-99 -344h-164l99 344h-648l32 112zM1129 1259l-671 -765h452z" />
<glyph unicode="5" d="M642 1421h856l-43 -150h-693l-111 -388q107 13 207 13t177 -18.5t123.5 -48.5t76.5 -72.5t41 -84.5t11 -90q0 -62 -19 -128q-11 -37 -27.5 -75.5t-47.5 -86t-70 -90t-98 -84.5t-128 -71.5t-163 -48t-201 -18.5q-184 0 -356 35l76 151q141 -32 311 -32q101 0 186 20 t140.5 51.5t97.5 73t63.5 80t33.5 78.5q10 38 10 74q0 45 -16 83.5t-52 73.5t-105 55.5t-164 20.5q-105 0 -317 -24z" />
<glyph unicode="6" d="M1317 1432q52 0 122 -7l-55 -148q-52 6 -105 6q-96 0 -180.5 -18t-147 -46t-117.5 -70.5t-91.5 -83.5t-69.5 -93.5t-52 -91.5t-38 -86q74 63 169.5 100.5t197.5 37.5q157 0 246.5 -83.5t89.5 -225.5q0 -66 -21 -141q-61 -211 -241 -359t-396 -148q-47 0 -89 7.5t-89 29.5 t-81 57.5t-56 97.5t-22 144q0 114 43 266q56 196 140.5 347t179 245.5t209 155t224 84t230.5 23.5zM871 792q-129 0 -244 -89t-155 -227q-15 -54 -15 -105q0 -109 62 -182.5t168 -73.5q127 0 247.5 103.5t161.5 245.5q15 54 15 99q0 105 -67.5 167t-172.5 62z" />
<glyph unicode="7" d="M538 1421h1038l-30 -107l-1040 -1314h-198l1014 1261h-829z" />
<glyph unicode="8" d="M1015 1297q-103 0 -191.5 -60t-111.5 -140q-7 -24 -7 -48q0 -33 17 -62.5t38 -48t59.5 -37.5t60.5 -27l62 -22q127 67 191.5 117.5t84.5 118.5q8 27 8 56q0 73 -59 113t-152 40zM828 726q-150 -41 -254.5 -131t-133.5 -190q-9 -33 -9 -65q0 -91 71 -150.5t198 -59.5 q140 0 248 77.5t141 189.5q12 42 12 78q0 41 -15.5 77t-40.5 61.5t-62 47.5t-73 36.5t-82 28.5zM1056 1440q171 0 257.5 -61.5t86.5 -175.5q0 -50 -17 -110q-25 -87 -94 -157t-193 -144q187 -97 187 -282q0 -73 -31.5 -149.5t-90.5 -144t-136 -121t-175 -84.5t-201 -31 q-179 0 -290.5 85.5t-111.5 224.5q0 48 15 100q34 121 143.5 230.5t255.5 170.5q-128 76 -128 219q0 47 12 88q41 144 182 243t329 99z" />
<glyph unicode="9" d="M1079 1441q48 0 91 -8t88.5 -30.5t78.5 -58t54 -97t21 -141.5q0 -118 -44 -271q-56 -194 -139.5 -344t-178.5 -244t-209 -154.5t-223.5 -84t-229.5 -23.5q-63 0 -123 6l55 148q44 -5 106 -5q99 0 185 18.5t147.5 46t116.5 73t89.5 86t68.5 100t51 98.5l42 99 q-80 -66 -175 -98.5t-184 -32.5q-155 0 -247.5 85t-92.5 224q0 62 19 126q37 130 132.5 240t228.5 176t272 66zM1017 1301q-121 0 -243.5 -100t-158.5 -226q-12 -43 -12 -83q0 -100 68 -164t173 -64q127 0 243 88t151 211q12 42 12 84q0 104 -64 179t-169 75z" />
<glyph unicode=":" horiz-adv-x="570" d="M465 993h210l-60 -210h-210zM240 210h210l-60 -210h-210z" />
<glyph unicode=";" horiz-adv-x="570" d="M465 993h210l-60 -210h-210zM249 170h180l-270 -390h-180z" />
<glyph unicode="&#x3c;" horiz-adv-x="1073" d="M1296 1128l-44 -155l-800 -352l603 -336l-48 -165l-754 413l47 165z" />
<glyph unicode="=" horiz-adv-x="1400" d="M364 501h960l-43 -150h-960zM494 954h960l-43 -150h-960z" />
<glyph unicode="&#x3e;" horiz-adv-x="1073" d="M423 1128l750 -430l-47 -165l-992 -413l48 165l795 336l-598 352z" />
<glyph unicode="?" horiz-adv-x="1046" d="M368 200h200l-57 -200h-200zM835 1437q178 0 275 -60t97 -178q0 -48 -16 -102q-23 -82 -63 -146.5t-85.5 -107t-96.5 -79.5l-102 -70q-50 -35 -95 -74t-82.5 -97t-58.5 -131h-170q25 86 66 156t88.5 116t99.5 84.5t102.5 71.5t94.5 66.5t78.5 80t50.5 102.5q9 32 9 59 q0 32 -12 59.5t-39 52.5t-80.5 39.5t-128.5 14.5q-57 0 -131 -13.5t-126 -33.5l-17 122q158 68 342 68z" />
<glyph unicode="@" horiz-adv-x="2100" d="M1330 962q127 0 229 -59l42 65h113l-206 -716q-27 -97 -27 -139q0 -93 90 -93q37 0 82.5 26t97 80t102.5 154t88 230q49 173 49 301q0 427 -535 427q-125 0 -238.5 -28t-203 -75t-168 -112.5t-136 -136.5t-105 -151.5t-78 -152.5t-51.5 -144q-37 -132 -37 -243 q0 -116 38.5 -208.5t106.5 -151t157.5 -89.5t194.5 -31q154 0 311 67l29 -119q-201 -90 -405 -90q-51 0 -102.5 5.5t-114.5 21.5t-118 40.5t-108.5 67t-91.5 96.5t-61.5 132t-23.5 172q0 130 47 296q29 102 69.5 198t100.5 197t133 187.5t171.5 163.5t211 131.5t256.5 86 t304 31.5q633 0 633 -503q0 -157 -61 -366q-45 -156 -110.5 -276.5t-130 -188t-136.5 -110.5t-125 -56.5t-101 -13.5q-88 0 -140 47t-57 124q-152 -76 -292 -76q-147 0 -232.5 81t-85.5 225q0 74 26 166q65 226 230.5 368t368.5 142zM1318 840q-143 0 -261 -96.5 t-168 -268.5q-21 -73 -21 -132q0 -113 67 -173.5t178 -60.5q103 0 214 52l182 633q-90 46 -191 46z" />
<glyph unicode="A" horiz-adv-x="1383" d="M1042 1421h193l98 -1421h-172l-26 413h-586l-262 -413h-157zM1084 1255l-441 -693h483z" />
<glyph unicode="B" horiz-adv-x="1424" d="M830 1291l-137 -477q19 1 66 1.5t73.5 1t74.5 4t78 8t73 14t72 22t63 32t57 43.5t43.5 57.5t31.5 73.5q10 33 10 66q0 67 -52 110.5t-179 43.5h-274zM656 682l-153 -532h265q36 0 60.5 0.5t72.5 6t83 15t80 29t77.5 46.5t62 69.5t44.5 96.5q12 42 12 78q0 98 -82 151.5 t-228 53.5q-20 0 -294 -14zM697 1421h501q74 0 130.5 -15.5t89 -39.5t53 -58t27.5 -65t7 -66q0 -49 -14 -98q-25 -87 -108.5 -173.5t-156.5 -111.5q99 -19 155.5 -90t56.5 -171q0 -49 -15 -102q-9 -31 -24 -65t-43.5 -77t-65 -82t-90.5 -77.5t-117.5 -66.5t-149 -45.5 t-181.5 -17.5h-462z" />
<glyph unicode="C" horiz-adv-x="1451" d="M1396 1431q194 0 365 -76l-93 -141q-175 67 -320 67q-120 0 -236 -47.5t-206.5 -127t-157.5 -182t-99 -214.5q-26 -92 -26 -173q0 -179 113.5 -290t320.5 -111q154 0 338 60l16 -126q-235 -90 -442 -90q-134 0 -236.5 39.5t-165 109t-94 158.5t-31.5 194t31 216t87.5 217 t142 199.5t188.5 164.5t234 112t271 41z" />
<glyph unicode="D" horiz-adv-x="1606" d="M824 1271l-321 -1121h207q45 0 75 1t81.5 6t91 15t92 29t96 46t91.5 69t90 95q102 129 154 309q30 103 30 193q0 79 -23.5 143t-63.5 105.5t-88.5 66.5t-104.5 35q-42 8 -131 8h-276zM1137 1421q126 0 223.5 -23.5t160.5 -63t103.5 -96.5t57 -119t16.5 -135 q0 -107 -36 -230q-27 -93 -65.5 -179t-98.5 -175t-133.5 -159.5t-174.5 -127t-217 -83.5q-60 -14 -131 -21t-116.5 -8t-127.5 -1h-308l407 1421h440z" />
<glyph unicode="E" horiz-adv-x="1283" d="M290 0l407 1421h833l-43 -150h-663l-133 -464h608l-43 -150h-608l-145 -507h663l-43 -150h-833z" />
<glyph unicode="F" horiz-adv-x="1248" d="M824 1271l-133 -464h593l-43 -150h-593l-188 -657h-170l407 1421h823l-43 -150h-653z" />
<glyph unicode="G" horiz-adv-x="1591" d="M1330 1432q239 0 422 -121l-103 -127q-64 40 -157 69t-196 29q-105 0 -213.5 -39t-205 -109.5t-173 -178t-113.5 -235.5q-27 -96 -27 -180q0 -186 117.5 -297.5t318.5 -111.5q193 0 347 116l104 363h-404l40 140h569l-160 -558q-36 -31 -80 -60t-118 -67t-174 -61.5 t-208 -23.5q-136 0 -240 39t-167 108.5t-94.5 158t-31.5 193.5t31 216.5t87.5 217.5t142 200t188 165t231.5 112.5t267 41.5z" />
<glyph unicode="H" horiz-adv-x="1600" d="M1627 1421h170l-407 -1421h-170l189 658h-760l-189 -658h-170l407 1421h170l-175 -613h760z" />
<glyph unicode="I" horiz-adv-x="730" d="M727 1421h170l-407 -1421h-170z" />
<glyph unicode="J" horiz-adv-x="953" d="M980 1421h170l-285 -995q-31 -111 -72.5 -185t-117.5 -135q-153 -123 -374 -123q-101 0 -189 24l68 142q63 -16 136 -16q61 0 112.5 12.5t87 30t65.5 45.5t47 51t32 55.5t20.5 49t12.5 40.5z" />
<glyph unicode="K" horiz-adv-x="1417" d="M697 1421h170l-407 -1421h-170zM1493 1421h213l-795 -678l426 -743h-219l-425 729z" />
<glyph unicode="L" horiz-adv-x="1133" d="M697 1421h170l-364 -1272h638l-43 -149h-808z" />
<glyph unicode="M" horiz-adv-x="1884" d="M697 1421h240l209 -862l710 862h225l-407 -1421h-170l337 1177l-657 -770h-170l-217 770l-337 -1177h-170z" />
<glyph unicode="N" horiz-adv-x="1659" d="M697 1421h215l434 -1189l340 1189h170l-407 -1421h-215l-432 1191l-342 -1191h-170z" />
<glyph unicode="O" horiz-adv-x="1686" d="M1296 1436q230 0 365 -125t135 -345q0 -112 -37 -239q-95 -330 -343 -536t-543 -206q-104 0 -192.5 29.5t-156 87t-106 149t-38.5 207.5q0 115 38 249q95 330 340.5 529.5t537.5 199.5zM1244 1287q-91 0 -185 -34t-183 -99.5t-163 -176t-114 -249.5q-33 -117 -33 -214 q0 -177 98 -278.5t264 -101.5q71 0 145.5 21t150.5 66.5t142.5 111.5t123 163t89.5 213q33 117 33 209q0 75 -20.5 137t-55 104.5t-82 71.5t-100 42.5t-110.5 13.5z" />
<glyph unicode="P" horiz-adv-x="1339" d="M697 1421h469q37 0 61 -0.5t68.5 -5.5t75 -13.5t67.5 -27t59.5 -43.5t38.5 -64.5t16 -89.5q0 -63 -21 -134q-20 -69 -48.5 -126.5t-61 -101t-74.5 -78t-82.5 -57.5t-90.5 -40.5t-93.5 -27t-97.5 -15t-96 -7t-94 -1.5q-67 0 -162 7l-171 -596h-170zM674 746q94 -8 180 -8 q49 0 82.5 1t82.5 7t84.5 16.5t77 31.5t71 49.5t56.5 72t43 99.5q14 48 14 89q0 45 -19 77t-46 49t-70 27t-77 12t-81 2h-248z" />
<glyph unicode="Q" horiz-adv-x="1706" d="M1298 1436q129 0 226.5 -37.5t155 -104t85.5 -151t28 -185.5q0 -191 -91 -395.5t-238 -342.5l130 -179l-120 -97l-136 177q-211 -136 -454 -136q-230 0 -367.5 124.5t-137.5 349.5q0 114 38 246q63 220 198.5 387.5t313 255.5t369.5 88zM1241 1287q-88 0 -180.5 -33 t-182 -98.5t-164.5 -177t-116 -254.5q-33 -117 -33 -212q0 -181 105.5 -279.5t275.5 -98.5q163 0 310 93l-229 298l136 108l219 -301q128 137 190 353q37 129 37 235q0 81 -22.5 145.5t-58.5 105t-85.5 67.5t-99 38t-102.5 11z" />
<glyph unicode="R" horiz-adv-x="1438" d="M1524 1031q-20 -71 -55.5 -135t-88.5 -122t-128.5 -100.5t-166.5 -62.5l226 -611h-190l-215 592h-275l-170 -592h-171l407 1421h522q44 0 78.5 -3t84.5 -16.5t83.5 -37.5t58 -71.5t24.5 -112.5q0 -67 -24 -149zM674 742h245q41 0 74.5 2.5t80 11t84.5 27t76 47t67 75 t47 107.5q14 46 14 88q0 172 -250 172h-286z" />
<glyph unicode="S" horiz-adv-x="1361" d="M1232 1434q164 0 337 -57l-100 -155q-164 52 -297 52q-148 0 -268.5 -63t-148.5 -161q-7 -22 -7 -46q0 -47 33 -84t86.5 -62t117.5 -48.5t128 -51t117.5 -61t86.5 -85.5t33 -119q0 -43 -15 -96q-16 -57 -50.5 -113.5t-92.5 -112t-132 -97.5t-176 -68t-218 -26t-206 24 t-198 72l105 165q224 -93 368 -93q152 0 265.5 61t142.5 163q8 25 8 53q0 50 -33.5 89t-86.5 64.5t-117 48.5l-128 49q-65 25 -118 56.5t-86.5 82t-33.5 115.5q0 44 14 92q49 171 236.5 291.5t433.5 120.5z" />
<glyph unicode="T" horiz-adv-x="1210" d="M492 1421h1120l-43 -150h-475l-364 -1271h-170l364 1271h-475z" />
<glyph unicode="U" horiz-adv-x="1582" d="M697 1421h170l-264 -921q-27 -94 -27 -150q0 -62 29 -110q69 -113 262 -113q141 0 254 61.5t172 173.5q28 52 52 138l264 921h168l-266 -936q-13 -46 -25 -80.5t-39.5 -90.5t-59.5 -97.5t-86 -88.5t-118 -77.5t-156.5 -50.5t-201.5 -20q-80 0 -145.5 11.5t-109.5 29.5 t-77.5 44t-52 52t-29.5 57.5t-14.5 55.5t-3.5 50v20q2 68 37 187z" />
<glyph unicode="V" horiz-adv-x="1401" d="M547 1421h202l51 -1241l761 1241h187l-902 -1421h-211z" />
<glyph unicode="W" horiz-adv-x="2165" d="M547 1421h180l15 -1194l702 1194h171l28 -1194l689 1194h180l-845 -1421h-181l-33 1187l-689 -1187h-181z" />
<glyph unicode="X" horiz-adv-x="1368" d="M1494 1421h196l-643 -675l291 -746h-220l-227 599l-571 -599h-210l726 742l-259 679h206l209 -535z" />
<glyph unicode="Y" horiz-adv-x="1263" d="M507 1421h201l194 -587l538 587h190l-698 -748l-193 -673h-170l193 673z" />
<glyph unicode="Z" horiz-adv-x="1358" d="M592 1421h1086l-31 -109l-1223 -1162h917l-43 -150h-1143l32 111l1205 1160h-843z" />
<glyph unicode="[" horiz-adv-x="758" d="M683 1511h458l-42 -149h-294l-466 -1623h294l-43 -149h-458z" />
<glyph unicode="\" horiz-adv-x="726" d="M427 1421h170l63 -1511h-170z" />
<glyph unicode="]" horiz-adv-x="758" d="M483 1511h458l-551 -1921h-458l43 149h294l466 1623h-294z" />
<glyph unicode="^" horiz-adv-x="1479" d="M1167 1541l174 -286l-118 -88l-120 196l-237 -196l-66 79z" />
<glyph unicode="_" horiz-adv-x="1160" d="M193 150h860l-43 -150h-860z" />
<glyph unicode="`" horiz-adv-x="1122" d="M800 1586l415 -310l-94 -108l-427 295z" />
<glyph unicode="a" horiz-adv-x="1058" d="M781 982q160 0 230 -54t70 -153q0 -55 -21 -131l-185 -644h-116l-12 90q-150 -110 -305 -110q-117 0 -187.5 61.5t-70.5 152.5q0 30 9 62q20 71 67.5 123.5t109 84.5t145.5 51t167 26t185 7l22 75q16 54 16 93q0 130 -190 130q-96 0 -271 -43l3 118q179 61 334 61z M832 424h-60q-56 0 -97.5 -2t-99 -11t-97 -25t-73.5 -47.5t-46 -74.5q-4 -13 -4 -30q0 -52 47.5 -88.5t121.5 -36.5q126 0 245 97z" />
<glyph unicode="b" horiz-adv-x="1169" d="M619 1511h164l-171 -595q145 67 278 67q60 0 113 -15.5t100.5 -48.5t75.5 -94.5t28 -143.5q0 -85 -30 -188q-68 -238 -234.5 -375.5t-368.5 -137.5q-134 0 -242 66l-33 -46h-114zM795 847q-106 0 -217 -51l-185 -642q95 -45 193 -45q45 0 89.5 9.5t95.5 35t94.5 64.5 t82 102.5t61.5 144.5q25 85 25 157q0 65 -22 111.5t-59 70t-75.5 33.5t-82.5 10z" />
<glyph unicode="c" horiz-adv-x="986" d="M258 459q33 114 86.5 205t115.5 149.5t135.5 97t143 54.5t139.5 16q139 0 254 -59l-73 -118q-97 36 -201 36q-65 0 -124 -16t-119.5 -52.5t-109.5 -107.5t-78 -171q-25 -87 -25 -152q0 -64 22 -109.5t61 -70t83.5 -35.5t99.5 -11q90 0 192 32l7 -112q-156 -55 -295 -55 q-66 0 -123 14t-108.5 46t-81.5 92.5t-30 143.5q0 82 29 183z" />
<glyph unicode="d" horiz-adv-x="1174" d="M260 465q48 165 143.5 284.5t213.5 176.5t248 57q117 0 219 -53l166 581h164l-433 -1511h-114l-9 62q-160 -82 -308 -82q-62 0 -116.5 16.5t-101 50.5t-74 94.5t-27.5 141.5q0 82 29 182zM642 115q108 0 224 54l183 639q-92 46 -197 46q-45 0 -89.5 -9.5t-95.5 -35 t-94 -65t-82.5 -105t-63.5 -149.5q-24 -86 -24 -148q0 -65 22 -111.5t59 -70.5t76 -34.5t82 -10.5z" />
<glyph unicode="e" horiz-adv-x="1088" d="M876 982q267 0 267 -236q0 -91 -49 -265l-22 -76h-666q-10 -37 -10 -67q0 -95 73.5 -161t214.5 -66q99 0 230 35l-2 -111q-174 -55 -327 -55q-80 0 -142 15.5t-101.5 42t-65.5 65t-36.5 80.5t-10.5 92q0 83 27 175q39 135 109.5 240t156 167t175.5 93.5t179 31.5z M801 840q-126 0 -223 -93t-133 -218h503q25 87 25 148q0 163 -172 163z" />
<glyph unicode="f" horiz-adv-x="799" d="M1020 1292q-58 0 -105 -17.5t-74.5 -41t-49.5 -57t-30 -54t-15 -43.5l-33 -116h323l-37 -129h-323l-295 -1030q-37 -129 -94 -195q-58 -67 -142.5 -103.5t-183.5 -36.5q-108 0 -222 38l59 120q80 -23 147 -23q58 0 104.5 16t73.5 37t48 51.5t28.5 49t13.5 39.5l297 1037 h-139l37 129h139l31 106q39 137 98 209q59 73 145 112t184 39q105 0 222 -39l-60 -124q-81 26 -147 26z" />
<glyph unicode="g" horiz-adv-x="1162" d="M857 983q117 0 246 -79l37 59h115l-296 -1033q-9 -30 -18.5 -57t-34 -77.5t-54 -91.5t-79 -89t-107.5 -80t-141.5 -54t-178.5 -22q-149 0 -282 64l80 119q107 -46 220 -46q337 0 444 379l21 73q-145 -68 -275 -68q-63 0 -119 17.5t-102.5 53t-73.5 97t-27 143.5 q0 81 30 188q32 112 89.5 202t121 145t136.5 91.5t134 51t114 14.5zM830 850q-135 0 -246 -97t-157 -256q-22 -75 -22 -145q0 -108 58.5 -172.5t175.5 -64.5q107 0 225 55l179 626q-118 54 -213 54z" />
<glyph unicode="h" horiz-adv-x="1178" d="M846 835q-115 0 -279 -74l-218 -761h-164l434 1511h164l-179 -623q199 93 349 93q239 0 239 -215q0 -78 -39 -213l-159 -553h-168l166 580q18 66 18 109q0 146 -164 146z" />
<glyph unicode="i" horiz-adv-x="524" d="M572 1421h194l-54 -189h-194zM463 988h164l-283 -988h-164z" />
<glyph unicode="j" horiz-adv-x="520" d="M568 1421h194l-54 -189h-194zM459 988h164l-322 -1125q-13 -46 -24 -75.5t-40 -83t-65.5 -91t-100.5 -79t-146 -68.5l-25 124q182 78 232 256z" />
<glyph unicode="k" horiz-adv-x="1061" d="M609 1511h164l-433 -1511h-164zM1069 1008h181l-551 -445l288 -563h-197l-278 546z" />
<glyph unicode="l" horiz-adv-x="564" d="M633 1511h164l-433 -1511h-164z" />
<glyph unicode="m" horiz-adv-x="1712" d="M803 831q-83 0 -246 -74l-217 -757h-164l276 963h115l11 -82q205 101 333 101q149 0 201 -110q223 109 376 109q235 0 235 -206q0 -79 -34 -197l-165 -578h-164l168 587q17 62 17 105q0 139 -153 139q-92 0 -259 -75q-2 -56 -39 -187l-163 -569h-164l169 590 q16 56 16 101q0 140 -149 140z" />
<glyph unicode="n" horiz-adv-x="1163" d="M452 963h115l12 -84q217 104 371 104q230 0 230 -203q0 -81 -36 -205l-165 -575h-164l167 583q19 68 19 110q0 142 -165 142q-114 0 -278 -74l-218 -761h-164z" />
<glyph unicode="o" horiz-adv-x="1195" d="M881 982q160 0 255 -82.5t95 -234.5q0 -76 -25 -164q-69 -239 -243 -380t-385 -141q-159 0 -250.5 84.5t-91.5 235.5q0 81 26 171q67 234 237 372.5t382 138.5zM828 842q-76 0 -153.5 -37.5t-145.5 -118t-99 -188.5q-20 -71 -20 -132q0 -110 59.5 -178t166.5 -68 q128 0 242 97t158 252q20 69 20 131q0 115 -65.5 178.5t-162.5 63.5z" />
<glyph unicode="p" horiz-adv-x="1163" d="M884 982q48 0 91.5 -9.5t85 -31.5t72.5 -56t49.5 -87t18.5 -119q0 -79 -30 -187q-46 -158 -138.5 -275t-212.5 -177t-252 -60q-117 0 -219 53l-162 -564h-164l429 1494h114l9 -63q161 82 309 82zM789 846q-108 0 -222 -53l-183 -638q92 -46 196 -46q45 0 89.5 9.5 t95.5 35t94.5 64.5t82 102.5t61.5 144.5q25 85 25 156q0 65 -22 111.5t-59 70t-75.5 33.5t-82.5 10z" />
<glyph unicode="q" horiz-adv-x="1162" d="M857 983q117 0 246 -79l37 59h115l-428 -1494h-164l166 580q-149 -69 -282 -69q-61 0 -115 16t-100.5 50t-73.5 95t-27 143q0 88 30 192q36 124 103.5 223.5t150 160t170.5 92t172 31.5zM830 850q-136 0 -246 -97t-158 -262q-23 -82 -23 -148q0 -63 21 -109t57 -71 t76 -36t85 -11q108 0 222 53l179 627q-118 54 -213 54z" />
<glyph unicode="r" horiz-adv-x="789" d="M577 889q148 93 296 93q101 0 173 -39l-86 -130q-69 29 -150 29q-122 0 -248 -67l-222 -775h-164l276 963h115z" />
<glyph unicode="s" horiz-adv-x="1005" d="M862 982q21 0 39 -0.5t35 -2.5t28.5 -3t27 -4t22.5 -4.5t23 -5.5l19 -6q4 -1 22 -7l20 -7l-78 -124q-125 36 -221 36q-71 0 -126.5 -16.5t-85 -42t-44.5 -47.5t-21 -42q-3 -10 -3 -20q0 -32 33.5 -58.5t83.5 -44t108.5 -41t108.5 -48t83.5 -66.5t33.5 -95q0 -27 -9 -58 q-12 -40 -33 -77.5t-62 -78t-95 -70.5t-137 -49.5t-182 -19.5q-150 0 -309 75l80 122q91 -37 151 -52.5t121 -15.5q240 0 283 151q3 12 3 23q0 39 -45.5 67t-110.5 48.5t-130 45.5t-110.5 71t-45.5 111q0 32 10 66q10 35 32 71.5t64.5 77t97.5 71t138.5 50.5t180.5 20z" />
<glyph unicode="t" horiz-adv-x="763" d="M696 17q-154 -37 -232 -37q-205 0 -205 176q0 59 25 146l153 532h-130l37 129h130l88 308h164l-88 -308h294l-37 -129h-294l-151 -528q-16 -59 -16 -92q0 -106 117 -106q28 0 155 20z" />
<glyph unicode="u" horiz-adv-x="1164" d="M1092 963h164l-276 -963h-115l-11 83q-215 -103 -372 -103q-231 0 -231 204q0 80 36 204l165 575h164l-168 -584q-18 -59 -18 -107q0 -145 165 -145q113 0 279 75z" />
<glyph unicode="v" horiz-adv-x="980" d="M1190 963l-619 -963h-166l-65 963h180l19 -804l481 804h170z" />
<glyph unicode="w" horiz-adv-x="1654" d="M335 963h175l29 -808l480 808h157l26 -807l492 807h175l-632 -963h-161l-33 781l-477 -781h-161z" />
<glyph unicode="x" horiz-adv-x="1034" d="M340 963h189l163 -382l372 382h175l-501 -491l206 -472h-190l-155 362l-349 -362h-175l477 473z" />
<glyph unicode="y" horiz-adv-x="1049" d="M325 963h180l76 -824l523 824h170l-988 -1494h-175l333 474z" />
<glyph unicode="z" horiz-adv-x="1058" d="M422 963h735l-25 -87l-741 -747h551l-37 -129h-759l25 87l739 747h-525z" />
<glyph unicode="{" horiz-adv-x="798" d="M267 618q49 8 93.5 29t77 46.5t62.5 63t49.5 69.5t39 74.5t29.5 69.5l22 62l17 48q40 105 96.5 185.5t109 124t112 72.5t97.5 37.5t73 11.5l-7 -129q-122 -16 -220 -120q-43 -45 -77 -109t-54 -125t-49 -131t-60 -130t-87.5 -118.5t-131.5 -99.5q95 -75 95 -216 q0 -69 -29.5 -209t-29.5 -199q0 -50 14 -88q18 -48 58 -80.5t94 -39.5l-67 -129q-26 2 -53 8.5t-65.5 26.5t-67.5 50.5t-50 86.5t-21 128q0 52 12 118q4 21 16.5 76.5t19.5 99.5t7 83q0 108 -64 167q-40 37 -100 48z" />
<glyph unicode="|" horiz-adv-x="884" d="M819 1601h164l-547 -1909h-164z" />
<glyph unicode="}" horiz-adv-x="798" d="M519 1511q28 -2 56 -9t66 -27t66 -50.5t48 -86t20 -126.5q0 -63 -14 -132l-11 -52l-12 -60q-6 -28 -10 -52q-6 -42 -6 -78q0 -99 44.5 -153t118.5 -67l-39 -138q-50 -8 -95 -29t-77.5 -47.5t-62.5 -64t-49.5 -70.5t-38.5 -75.5t-29 -71.5l-23 -65l-18 -51 q-39 -102 -96.5 -180.5t-111 -121t-113.5 -70t-96 -36t-68 -10.5l7 129q122 16 220 120q49 52 86 131t63.5 155.5t61 154.5t96.5 150t151 121q-94 74 -94 214q0 68 29.5 208t29.5 201q0 51 -14 90q-18 48 -58 80.5t-94 39.5z" />
<glyph unicode="~" horiz-adv-x="1400" d="M1266 1361q12 0 23.5 3.5t22 11t19 15t18 21t15.5 23t15 27.5l13 28l14 28l13 27l103 -17q-4 -9 -18 -36l-19 -40q-6 -13 -19.5 -39t-22.5 -39l-25 -35q-15 -22 -27.5 -33.5t-31 -26.5t-36.5 -22t-40 -12.5t-46 -5.5q-44 0 -80 18.5t-59 45.5t-42.5 54t-40.5 45.5 t-44 18.5q-12 0 -23.5 -3t-21.5 -11l-20 -15q-8 -7 -18 -21l-14 -23q-6 -8 -16 -26l-13 -27q-4 -8 -13 -28t-12 -26l-104 15q4 9 17.5 36.5t19 40t19.5 38t22 38.5l24 35q16 22 29 33l31 26q18 15 36 22t40 12.5t46 5.5q44 0 80 -18.5t59 -45.5t42.5 -54t40.5 -45.5 t44 -18.5z" />
<glyph unicode="&#xa1;" horiz-adv-x="650" d="M487 863h170l-365 -1273h-170zM604 1321h200l-58 -200h-200z" />
<glyph unicode="&#xa2;" horiz-adv-x="1021" d="M354 713q62 217 204 356t339 167l79 275h121l-77 -270q107 0 225 -58l-74 -120q-100 38 -206 38q-165 0 -279 -91.5t-163 -262.5q-24 -83 -24 -152q0 -66 23 -114t63.5 -73t86.5 -36.5t100 -11.5q92 0 196 33l7 -113q-144 -51 -245 -51l-85 -294h-121l85 294 q-131 16 -207.5 91t-76.5 212q0 82 29 181z" />
<glyph unicode="&#xa3;" d="M191 135h244l151 527h-176l39 135h176l40 141q33 114 87.5 202t117 142t138 88.5t144 47.5t140.5 13q117 0 224 -38l-83 -122q-82 24 -158 24t-140 -17t-109 -49t-79.5 -68t-59 -83.5t-39 -84.5t-27.5 -82l-32 -114h530l-39 -135h-530l-151 -527h588l-39 -135h-996z" />
<glyph unicode="&#xa4;" d="M515 568q-13 39 -13 82q0 138 112 265l-119 167l161 125l119 -167q94 47 187 47q94 0 159 -47l214 165l89 -125l-214 -165q11 -36 11 -80q0 -143 -110 -266l118 -165l-161 -125l-118 165q-94 -48 -187 -48t-159 47l-214 -166l-89 125zM921 946q-82 0 -158 -60t-101 -145 q-8 -27 -8 -57q0 -64 41 -105.5t108 -41.5q82 0 158 60t100 144q9 30 9 58q0 65 -41.5 106t-107.5 41z" />
<glyph unicode="&#xa5;" d="M550 1421h185l150 -603l504 603h175l-634 -722h282l-35 -125h-289l-58 -200h289l-36 -125h-289l-71 -249h-160l71 249h-275l36 125h275l58 200h-275l35 125h268z" />
<glyph unicode="&#xa6;" horiz-adv-x="884" d="M492 460h164l-220 -768h-164zM819 1601h164l-219 -764h-164z" />
<glyph unicode="&#xa7;" horiz-adv-x="1136" d="M1062 1434q28 0 52.5 -1t47.5 -4l36 -5q15 -2 36 -8l28 -7q8 -2 31 -9.5t28 -8.5l-83 -131q-114 39 -240 39q-108 0 -191.5 -40t-103.5 -111q-4 -12 -4 -27q0 -38 35.5 -68.5t89.5 -50.5l116 -45q62 -25 115.5 -50.5t89 -68.5t35.5 -98q0 -26 -9 -58q-34 -122 -144 -208 q44 -47 44 -109q0 -27 -9 -59q-12 -43 -35 -84.5t-67.5 -86.5t-102.5 -78t-146 -55t-193 -22h-13q-185 0 -332 65l81 124q154 -60 287 -60q276 0 327 177q4 13 4 29q0 38 -35 67t-87.5 46t-113.5 39.5t-113.5 46t-87.5 67.5t-35 102q0 30 11 69q30 107 143 192 q-46 49 -46 115q0 32 10 68q14 50 51.5 100.5t100.5 98.5t165 78t227 30zM673 870q-62 -41 -78 -99q-4 -13 -4 -28q0 -28 18 -51t53 -41.5t69.5 -32t86.5 -32t84 -32.5q56 43 74 108q4 15 4 30q0 29 -17.5 51t-52.5 39t-68 29l-86 29q-51 17 -83 30z" />
<glyph unicode="&#xa8;" horiz-adv-x="1200" d="M690 1421h185l-53 -186h-185zM1139 1421h185l-53 -186h-185z" />
<glyph unicode="&#xa9;" horiz-adv-x="1760" d="M1209 1055q104 0 188 -43l-55 -87q-72 28 -150 28q-48 0 -91.5 -12t-88 -39t-80.5 -80t-58 -128q-18 -64 -18 -112q0 -90 54.5 -128t140.5 -38q67 0 144 24l7 -82q-112 -39 -216 -39q-49 0 -91 10.5t-80.5 34.5t-60.5 69t-22 107t21 133q29 103 81.5 180t116 119.5 t128 62.5t130.5 20zM1238 1248q-158 0 -313.5 -77t-269 -207t-156.5 -281q-22 -76 -22 -151q0 -180 119.5 -297t317.5 -117q158 0 313.5 77t269 207t156.5 281q22 76 22 151q0 180 -119.5 297t-317.5 117zM1276 1380q243 0 390 -144.5t147 -365.5q0 -96 -27 -187 q-40 -139 -132 -267t-213.5 -222.5t-270 -151t-294.5 -56.5q-243 0 -390 144.5t-147 365.5q0 96 27 187q53 183 190.5 343t329.5 257t390 97z" />
<glyph unicode="&#xaa;" horiz-adv-x="759" d="M828 1102l7 23q8 29 8 50q0 84 -109 84q-80 0 -174 -27l2 71q108 36 207 36q181 0 181 -125q0 -28 -15 -83l-107 -371h-70l-6 54q-87 -72 -168 -72q-73 0 -116 31.5t-43 89.5q0 22 8 52q32 112 122.5 149.5t272.5 37.5zM805 1019h-28q-43 0 -73.5 -2.5t-70.5 -11.5 t-66 -31.5t-36 -56.5q-3 -11 -3 -21q0 -31 24.5 -52.5t69.5 -21.5q74 0 149 80z" />
<glyph unicode="&#xab;" horiz-adv-x="936" d="M984 988h185l-378 -365l169 -365h-185l-150 365zM613 988h185l-378 -365l169 -365h-185l-150 365z" />
<glyph unicode="&#xac;" horiz-adv-x="1400" d="M335 732h1150l-129 -450h-148l86 301h-1002z" />
<glyph unicode="&#xad;" horiz-adv-x="1074" d="M429 728h634l-40 -139h-634z" />
<glyph unicode="&#xae;" horiz-adv-x="1232" d="M1028 1320q23 0 38.5 -2t39 -8.5t38.5 -25t21 -47.5q2 -14 2 -22q0 -37 -15.5 -78.5t-53.5 -82t-91 -56.5l49 -222h-100l-42 208h-112l-59 -208h-93l156 544h222zM1064 1561q178 0 288 -106t110 -271q0 -68 -21 -141q-40 -141 -145.5 -260.5t-246.5 -188.5t-282 -69 q-180 0 -289 107.5t-109 271.5q0 70 20 139q40 141 145.5 260.5t247 188.5t282.5 69zM1032 1450q-173 0 -328.5 -120t-203.5 -287q-16 -55 -16 -109q0 -129 86 -213.5t228 -84.5q173 0 328.5 120.5t203.5 286.5q16 55 16 109q0 129 -86 213.5t-228 84.5zM972 1240h-96 l-52 -179q47 0 63 -0.5t28 -0.5q127 0 152 87q5 20 5 32q0 61 -100 61z" />
<glyph unicode="&#xaf;" horiz-adv-x="1400" d="M755 1640h830l-42 -149h-830z" />
<glyph unicode="&#xb0;" horiz-adv-x="589" d="M687 1368q-55 0 -104 -39.5t-64 -93.5q-6 -19 -6 -38q0 -41 26 -68.5t72 -27.5q54 0 102 40.5t63 93.5q6 19 6 38q0 41 -25.5 68t-69.5 27zM712 1459q73 0 119 -45.5t46 -116.5q0 -29 -9 -62q-27 -94 -110 -159.5t-173 -65.5q-73 0 -119 45.5t-46 116.5q0 30 9 63 q27 93 110 158.5t173 65.5z" />
<glyph unicode="&#xb1;" horiz-adv-x="1400" d="M302 287h960l-39 -137h-960zM1034 1421h146l-118 -412h407l-39 -137h-407l-118 -411h-146l118 411h-407l39 137h407z" />
<glyph unicode="&#xb2;" horiz-adv-x="800" d="M807 1524q88 0 142 -40.5t54 -108.5q0 -25 -7 -50q-15 -51 -53.5 -96.5t-90.5 -83.5l-106 -76q-54 -38 -113 -92t-100 -114h343l-30 -105h-482l19 65q49 82 115.5 153.5t126 117.5t114 84t91 71.5t44.5 61.5q3 11 3 22q0 37 -32 62.5t-84 25.5q-58 0 -201 -51l-11 91 q143 63 258 63z" />
<glyph unicode="&#xb3;" horiz-adv-x="800" d="M558 1462q138 59 237 59q90 0 136 -40t46 -101q0 -56 -36.5 -111.5t-99.5 -89.5q75 -35 75 -120q0 -50 -27.5 -104t-75 -99.5t-119.5 -75.5t-152 -30q-95 0 -189 44l60 96q103 -31 163 -31q72 0 133 36.5t77 92.5q5 16 5 34q0 30 -18 49.5t-50 28t-60.5 11.5t-66.5 3 l30 103q112 0 163.5 32t63.5 75q3 10 3 20q0 30 -26.5 50t-76.5 20q-71 0 -183 -46z" />
<glyph unicode="&#xb4;" horiz-adv-x="1122" d="M1232 1585l35 -123l-596 -295l-31 108z" />
<glyph unicode="&#xb5;" horiz-adv-x="1174" d="M461 963h164l-155 -542q-23 -84 -23 -141q0 -168 171 -168q87 0 262 75l222 776h164l-276 -963h-115l-10 67q-169 -94 -313 -94q-123 0 -188 80l-132 -463h-164z" />
<glyph unicode="&#xb6;" horiz-adv-x="1338" d="M1034 1511h547l-433 -1511h-170l390 1361h-240l-390 -1361h-171l197 686q-40 0 -79.5 6t-87.5 24.5t-83.5 48.5t-60 83.5t-24.5 123.5q0 71 26 161q17 61 43.5 111.5t55.5 87t67.5 65.5t71.5 47.5t76.5 32t74.5 20t72 10t63.5 4t54.5 0.5z" />
<glyph unicode="&#xb7;" horiz-adv-x="590" d="M430 838h210l-60 -210h-210z" />
<glyph unicode="&#xb8;" horiz-adv-x="1101" d="M625 -325q3 12 3 21q0 12 -4 21.5t-14.5 17.5t-20 14t-30 14t-35.5 13l-44 14l-47 15l120 217h127l-85 -157l14 -5q14 -4 19 -6l20 -8q14 -5 21 -10l19 -12q13 -8 20 -17l14 -20q7 -11 10 -24.5t3 -29.5q0 -23 -7 -47q-21 -71 -92 -127t-165 -56q-21 0 -44.5 3.5 t-50 10.5t-42 11.5t-44 14.5t-32.5 11l52 91q144 -47 193 -47q46 0 79.5 22.5t42.5 54.5z" />
<glyph unicode="&#xb9;" horiz-adv-x="543" d="M684 1511h92l-215 -751h-113l184 643l-156 -41l2 97z" />
<glyph unicode="&#xba;" horiz-adv-x="751" d="M779 1416q-36 0 -71.5 -12.5t-73 -41t-70.5 -83t-55 -130.5q-24 -83 -24 -146q0 -84 39.5 -117.5t95.5 -33.5q35 0 69.5 12.5t73.5 42t74 90t60 145.5q21 73 21 129q0 81 -40.5 113t-98.5 32zM811 1519q40 0 75 -9t71.5 -30.5t58 -66.5t21.5 -110q0 -72 -25 -158 q-52 -182 -170.5 -287.5t-252.5 -105.5q-100 0 -161.5 52t-61.5 168q0 77 28 174q52 179 171.5 276t245.5 97z" />
<glyph unicode="&#xbb;" horiz-adv-x="936" d="M519 988l150 -365l-360 -365h-185l379 365l-170 365h186zM890 988l150 -365l-360 -365h-185l379 365l-170 365h186z" />
<glyph unicode="&#xbc;" horiz-adv-x="1800" d="M1587 1421h175l-1227 -1421h-176zM748 1421h112l-230 -803h-133l193 673l-151 -39l4 117zM1631 836h157l-153 -531h107l-31 -110h-107l-56 -195h-133l56 195h-390l25 89zM1612 688l-351 -383h241z" />
<glyph unicode="&#xbd;" horiz-adv-x="1847" d="M1587 1421h175l-1227 -1421h-176zM748 1421h112l-233 -813h-133l196 683l-151 -39l4 117zM1643 842q97 0 157 -44.5t60 -118.5q0 -30 -8 -55q-16 -56 -58.5 -106t-99.5 -92l-117 -84q-60 -42 -125 -101t-110 -125h378l-33 -116h-531l21 72q54 90 127 168.5t138 129.5 l126 92q59 42 99.5 78.5t49.5 67.5q3 12 3 24q0 40 -34.5 68t-92.5 28q-65 0 -220 -55l-13 100q162 69 283 69z" />
<glyph unicode="&#xbe;" horiz-adv-x="1950" d="M1747 1421h175l-1227 -1421h-176zM1781 836h157l-153 -531h107l-31 -110h-107l-56 -195h-133l56 195h-390l25 89zM1762 688l-351 -383h241zM606 1385q152 65 262 65q98 0 148.5 -44t50.5 -111q0 -62 -40 -123.5t-109 -98.5q83 -39 83 -127q0 -27 -10 -64 q-36 -125 -150 -203t-253 -78q-100 0 -208 49l68 106q118 -35 179 -35q78 0 145 39.5t85 101.5q6 21 6 37q0 103 -215 103l33 113q123 0 180 35.5t70 82.5q3 11 3 21q0 34 -29 56t-83 22q-79 0 -202 -51z" />
<glyph unicode="&#xbf;" horiz-adv-x="1047" d="M637 988h170q-30 -106 -30 -186q0 -69 22 -123t53 -89l63 -69q31 -33 53 -76.5t22 -97.5q0 -48 -17 -106q-30 -105 -123.5 -195.5t-201 -138.5t-197.5 -48q-104 0 -181 22t-157 66l87 122q150 -69 265 -69q128 0 220.5 66.5t118.5 158.5q10 34 10 63q0 43 -22.5 80 t-54 68.5t-63.5 68.5t-54.5 98t-22.5 139q0 108 40 246zM746 1421h200l-57 -201h-200z" />
<glyph unicode="&#xc0;" horiz-adv-x="1383" d="M1042 1421h193l98 -1421h-172l-26 413h-586l-262 -413h-157zM1084 1255l-441 -693h483zM1079 1929l415 -310l-93 -108l-427 295z" />
<glyph unicode="&#xc1;" horiz-adv-x="1383" d="M1042 1421h193l98 -1421h-172l-26 413h-586l-262 -413h-157zM1084 1255l-441 -693h483zM1487 1929l35 -123l-597 -295l-31 108z" />
<glyph unicode="&#xc2;" horiz-adv-x="1383" d="M1042 1421h193l98 -1421h-172l-26 413h-586l-262 -413h-157zM1084 1255l-441 -693h483zM1303 1924l174 -286l-119 -88l-119 196l-237 -195l-66 78z" />
<glyph unicode="&#xc3;" horiz-adv-x="1383" d="M1042 1421h193l98 -1421h-172l-26 413h-586l-262 -413h-157zM1084 1255l-441 -693h483zM1547 1878l103 -17q-4 -9 -17.5 -36.5t-19 -40t-19.5 -38t-22 -38.5l-24 -35q-16 -22 -29 -33l-31 -26q-18 -15 -36 -22t-40 -12.5t-46 -5.5q-44 0 -80 18.5t-59 45t-42.5 53 t-40.5 45t-44 18.5q-14 0 -27 -5t-23 -11t-21.5 -20t-18 -23t-17.5 -28.5t-15 -28.5l-16 -34q-11 -23 -15 -30l-103 15q4 9 17.5 36.5t19 40t19.5 38t22 38.5l24 35q16 22 29 33l31 26q18 15 36 22t40 12.5t46 5.5q44 0 80 -18.5t59 -45t42.5 -53t40.5 -45t44 -18.5 q16 0 29.5 5t26.5 18l23 22q9 9 21.5 31.5t17.5 32.5l18 38q14 28 17 35z" />
<glyph unicode="&#xc4;" horiz-adv-x="1383" d="M1042 1421h193l98 -1421h-172l-26 413h-586l-262 -413h-157zM1084 1255l-441 -693h483zM960 1897h185l-53 -185h-185zM1408 1897h185l-53 -185h-185z" />
<glyph unicode="&#xc5;" horiz-adv-x="1383" d="M1270 1873q89 0 145.5 -52.5t56.5 -134.5q0 -34 -10 -68q-22 -77 -83.5 -140.5t-140.5 -94.5l95 -1383h-172l-26 413h-586l-262 -413h-157l889 1385q-95 50 -95 160q0 56 27 114t72 105.5t110.5 78t136.5 30.5zM1242 1769q-67 0 -124.5 -44.5t-75.5 -106.5q-6 -21 -6 -42 q0 -48 31.5 -79.5t87.5 -31.5q65 0 121.5 46t74.5 107q6 21 6 41q0 47 -31 78.5t-84 31.5zM1084 1255l-441 -693h483z" />
<glyph unicode="&#xc6;" horiz-adv-x="1915" d="M671 562h457l203 709h-183zM1092 1421h1070l-43 -150h-618l-133 -464h563l-43 -150h-563l-145 -507h618l-43 -150h-788l119 414h-515l-279 -414h-162z" />
<glyph unicode="&#xc7;" horiz-adv-x="1451" d="M1007 -316q-22 -77 -97 -133.5t-169 -56.5q-37 0 -73 8t-150 45l60 104q150 -50 201 -50q43 0 73.5 21t38.5 50q3 12 3 21q0 8 -2.5 15t-8 13.5t-12 11.5t-18 10.5t-22 9.5l-27.5 10l-32 11l-38 12l-42 13l112 199q-180 42 -271 172t-91 311q0 126 43 259.5t127 256.5 t197 220t266 155.5t321 58.5q194 0 365 -76l-93 -141q-175 67 -320 67q-120 0 -236 -47.5t-206.5 -127t-157.5 -182t-99 -214.5q-26 -92 -26 -173q0 -179 113.5 -290t320.5 -111q154 0 338 60l16 -126q-235 -90 -442 -90h-28l-62 -115l9 -3q8 -2 14.5 -4t18.5 -6.5t21 -9.5 l20 -14q12 -7 20.5 -16.5t16 -21t11.5 -26.5t4 -32q0 -24 -7 -48z" />
<glyph unicode="&#xc8;" horiz-adv-x="1283" d="M1032 1929l415 -310l-94 -108l-427 295zM290 0l407 1421h833l-43 -150h-663l-133 -464h608l-43 -150h-608l-145 -507h663l-43 -150h-833z" />
<glyph unicode="&#xc9;" horiz-adv-x="1283" d="M290 0l407 1421h833l-43 -150h-663l-133 -464h608l-43 -150h-608l-145 -507h663l-43 -150h-833zM1505 1929l35 -123l-597 -295l-31 108z" />
<glyph unicode="&#xca;" horiz-adv-x="1283" d="M290 0l407 1421h833l-43 -150h-663l-133 -464h608l-43 -150h-608l-145 -507h663l-43 -150h-833zM1274 1932l174 -286l-119 -88l-119 196l-237 -195l-66 78z" />
<glyph unicode="&#xcb;" horiz-adv-x="1283" d="M290 0l407 1421h833l-43 -150h-663l-133 -464h608l-43 -150h-608l-145 -507h663l-43 -150h-833zM934 1898h185l-53 -185h-185zM1382 1898h185l-53 -185h-185z" />
<glyph unicode="&#xcc;" horiz-adv-x="730" d="M727 1421h170l-407 -1421h-170zM760 1927l415 -310l-94 -106l-428 293z" />
<glyph unicode="&#xcd;" horiz-adv-x="730" d="M727 1421h170l-407 -1421h-170zM1108 1930l35 -123l-597 -296l-30 109z" />
<glyph unicode="&#xce;" horiz-adv-x="730" d="M727 1421h170l-407 -1421h-170zM944 1924l174 -286l-120 -88l-118 196l-237 -195l-66 78z" />
<glyph unicode="&#xcf;" horiz-adv-x="670" d="M697 1421h170l-407 -1421h-170zM611 1824h185l-53 -185h-185zM1000 1824h185l-53 -185h-185z" />
<glyph unicode="&#xd0;" horiz-adv-x="1605" d="M742 1421h435q42 0 79.5 -2t98 -11.5t110 -26t103.5 -49t91 -76.5t61.5 -112t24.5 -152q0 -105 -38 -238q-43 -149 -109 -268.5t-137 -196.5t-160.5 -134t-164 -86t-164 -45.5t-145 -20t-121.5 -3.5h-371l189 658h-218l43 150h218zM869 1271l-132 -463h256l-43 -150h-256 l-146 -508h207q45 0 83 2t90 9t96.5 18.5t97 33t97 50.5t91 72.5t84.5 97.5t72.5 127.5t59.5 159.5q30 103 30 196q0 58 -12 108t-41.5 96.5t-75 79t-118 52t-164.5 19.5h-276z" />
<glyph unicode="&#xd1;" horiz-adv-x="1659" d="M697 1421h215l434 -1189l340 1189h170l-407 -1421h-215l-432 1191l-342 -1191h-170zM1271 1876q44 0 80 -18.5t59 -45t42.5 -53t40.5 -45t44 -18.5q14 0 27 5t23 11.5t21.5 20t18.5 23t18 29.5t15 29l16 34q11 23 15 30l103 -17l-18 -37l-18 -40l-20 -37.5t-22 -38.5 l-25 -35q-16 -22 -29 -33l-30 -26q-19 -15 -37 -22t-40 -12.5t-46 -5.5q-44 0 -80 18.5t-59 45t-42.5 53t-40.5 45t-44 18.5q-16 0 -29.5 -5t-26.5 -17.5t-22 -22.5t-21 -31l-18 -33q-6 -11 -18 -37l-17 -36l-103 17q2 4 21.5 45.5l24.5 51.5l26 46q20 35 31 47l34 37 q23 24 42.5 33.5t46.5 18t57 8.5z" />
<glyph unicode="&#xd2;" horiz-adv-x="1686" d="M1291 1932l415 -310l-94 -108l-427 295zM1296 1436q230 0 365 -125t135 -345q0 -112 -37 -239q-95 -330 -343 -536t-543 -206q-104 0 -192.5 29.5t-156 87t-106 149t-38.5 207.5q0 115 38 249q95 330 340.5 529.5t537.5 199.5zM1579 709q32 113 32 208q0 93 -30.5 166 t-83 116.5t-117.5 65.5t-139 22q-70 0 -143.5 -20.5t-149 -65t-141 -108.5t-121 -158t-87.5 -207q-33 -117 -33 -214q0 -177 98 -278.5t264 -101.5q71 0 145.5 21t150.5 66.5t142.5 111.5t123 163t89.5 213z" />
<glyph unicode="&#xd3;" horiz-adv-x="1686" d="M1296 1436q230 0 365 -125t135 -345q0 -112 -37 -239q-95 -330 -343 -536t-543 -206q-104 0 -192.5 29.5t-156 87t-106 149t-38.5 207.5q0 115 38 249q95 330 340.5 529.5t537.5 199.5zM1579 709q32 113 32 208q0 93 -30.5 166t-83 116.5t-117.5 65.5t-139 22 q-70 0 -143.5 -20.5t-149 -65t-141 -108.5t-121 -158t-87.5 -207q-33 -117 -33 -214q0 -177 98 -278.5t264 -101.5q71 0 145.5 21t150.5 66.5t142.5 111.5t123 163t89.5 213zM1660 1930l35 -123l-597 -296l-30 109z" />
<glyph unicode="&#xd4;" horiz-adv-x="1686" d="M1296 1436q230 0 365 -125t135 -345q0 -112 -37 -239q-95 -330 -343 -536t-543 -206q-104 0 -192.5 29.5t-156 87t-106 149t-38.5 207.5q0 115 38 249q95 330 340.5 529.5t537.5 199.5zM1579 709q32 113 32 208q0 93 -30.5 166t-83 116.5t-117.5 65.5t-139 22 q-70 0 -143.5 -20.5t-149 -65t-141 -108.5t-121 -158t-87.5 -207q-33 -117 -33 -214q0 -177 98 -278.5t264 -101.5q71 0 145.5 21t150.5 66.5t142.5 111.5t123 163t89.5 213zM1464 1924l174 -286l-119 -88l-119 196l-237 -195l-66 78z" />
<glyph unicode="&#xd5;" horiz-adv-x="1686" d="M1708 1878l103 -17l-17 -37l-20 -40q-5 -11 -19 -37.5t-23 -38.5l-24 -35q-16 -22 -28 -33l-32 -26q-18 -15 -36 -22t-40 -12.5t-46 -5.5q-44 0 -80 18.5t-59 45t-42.5 53t-40.5 45t-44 18.5q-16 0 -29.5 -5t-26.5 -17.5t-22 -22.5t-21 -31l-18 -33q-6 -11 -19 -37 l-16 -36l-103 17q4 9 17.5 36.5t19 40t19.5 38t23 38.5l24 35q15 22 28 33l31 26q18 15 36 22t40 12.5t46 5.5q44 0 80 -18.5t59 -45t42.5 -53t40.5 -45t44 -18.5q16 0 29.5 5t27.5 18l22 22q9 9 21.5 31.5t17.5 32.5l19 38q13 28 16 35zM1579 709q32 113 32 209 q0 181 -106.5 275t-263.5 94q-70 0 -143.5 -20.5t-149 -65t-141 -108.5t-121 -158t-87.5 -207q-33 -117 -33 -214q0 -177 98 -278.5t264 -101.5q71 0 145.5 21t150.5 66.5t142.5 111.5t123 163t89.5 213zM1296 1436q230 0 365 -125t135 -345q0 -112 -37 -239 q-95 -330 -343 -536t-543 -206q-104 0 -192.5 29.5t-156 87t-106 149t-38.5 207.5q0 115 38 249q95 330 340.5 529.5t537.5 199.5z" />
<glyph unicode="&#xd6;" horiz-adv-x="1686" d="M1296 1436q230 0 365 -125t135 -345q0 -112 -37 -239q-95 -330 -343 -536t-543 -206q-104 0 -192.5 29.5t-156 87t-106 149t-38.5 207.5q0 115 38 249q95 330 340.5 529.5t537.5 199.5zM1579 709q32 113 32 208q0 93 -30.5 166t-83 116.5t-117.5 65.5t-139 22 q-70 0 -143.5 -20.5t-149 -65t-141 -108.5t-121 -158t-87.5 -207q-33 -117 -33 -214q0 -177 98 -278.5t264 -101.5q71 0 145.5 21t150.5 66.5t142.5 111.5t123 163t89.5 213zM1120 1898h185l-53 -185h-185zM1569 1898h185l-53 -185h-185z" />
<glyph unicode="&#xd7;" horiz-adv-x="1299" d="M344 194l-76 105l457 355l-248 346l135 105l257 -361l456 355l75 -106l-455 -354l247 -347l-135 -105l-258 361z" />
<glyph unicode="&#xd8;" horiz-adv-x="1756" d="M1296 1436q137 0 251 -50.5t179 -152.5l234 176l44 -65l-243 -182q34 -89 34 -196q0 -116 -36 -239q-95 -330 -343 -536t-543 -206q-60 0 -115 10t-93.5 24t-74.5 36.5t-56 38t-41 39t-25 29.5l-14 20l-238 -177l-42 65l243 182q-37 89 -37 205q0 119 38 250 q95 330 340.5 529.5t537.5 199.5zM1566 1114q-46 84 -130.5 128.5t-191.5 44.5q-91 0 -185 -34t-183 -99.5t-163 -176t-114 -249.5q-33 -112 -33 -215q0 -75 18 -136zM928 134q71 0 145.5 21t150.5 66.5t142.5 111.5t123 163t89.5 213q33 117 33 210q0 62 -15 119l-982 -736 q46 -82 127.5 -125t185.5 -43z" />
<glyph unicode="&#xd9;" horiz-adv-x="1580" d="M697 1421h170l-264 -921q-26 -95 -26 -152q0 -221 289 -221q107 0 190.5 29.5t138.5 83.5t90 117t58 143l264 921h170l-269 -938q-10 -36 -18 -60t-25.5 -67t-36 -74.5t-50 -73t-66.5 -71.5t-86.5 -61.5t-109.5 -51t-135 -32t-164 -12.5q-425 0 -425 300q0 78 36 203z M1177 1927l415 -310l-94 -106l-428 293z" />
<glyph unicode="&#xda;" horiz-adv-x="1580" d="M697 1421h170l-264 -921q-26 -95 -26 -152q0 -221 289 -221q107 0 190.5 29.5t138.5 83.5t90 117t58 143l264 921h170l-269 -938q-10 -36 -18 -60t-25.5 -67t-36 -74.5t-50 -73t-66.5 -71.5t-86.5 -61.5t-109.5 -51t-135 -32t-164 -12.5q-425 0 -425 300q0 78 36 203z M1617 1930l35 -123l-597 -296l-30 109z" />
<glyph unicode="&#xdb;" horiz-adv-x="1580" d="M697 1421h170l-264 -921q-26 -95 -26 -152q0 -221 289 -221q107 0 190.5 29.5t138.5 83.5t90 117t58 143l264 921h170l-269 -938q-10 -36 -18 -60t-25.5 -67t-36 -74.5t-50 -73t-66.5 -71.5t-86.5 -61.5t-109.5 -51t-135 -32t-164 -12.5q-425 0 -425 300q0 78 36 203z M1396 1924l174 -286l-120 -88l-118 196l-237 -195l-66 78z" />
<glyph unicode="&#xdc;" horiz-adv-x="1580" d="M697 1421h170l-264 -921q-26 -95 -26 -152q0 -221 289 -221q107 0 190.5 29.5t138.5 83.5t90 117t58 143l264 921h170l-269 -938q-10 -36 -18 -60t-25.5 -67t-36 -74.5t-50 -73t-66.5 -71.5t-86.5 -61.5t-109.5 -51t-135 -32t-164 -12.5q-425 0 -425 300q0 78 36 203z M1057 1898h185l-53 -185h-185zM1506 1898h185l-53 -185h-185z" />
<glyph unicode="&#xdd;" horiz-adv-x="1263" d="M507 1421h201l194 -587l538 587h190l-698 -748l-193 -673h-170l193 673zM1424 1930l35 -123l-597 -296l-30 109z" />
<glyph unicode="&#xde;" horiz-adv-x="1326" d="M971 1008q-116 0 -225 -10l-148 -515q108 -9 193 -9h28q39 0 66 1t72 7t78 16t73.5 31t70 49.5t57 73t43.5 100.5q13 45 13 82q0 46 -20.5 79t-50.5 51t-76.5 28.5t-85 13t-88.5 2.5zM697 1421h170l-78 -274q134 13 273 13q94 0 166.5 -11.5t131.5 -38.5t90.5 -76.5 t31.5 -120.5q0 -55 -19 -122q-14 -49 -35.5 -97t-56.5 -101.5t-78.5 -97.5t-105 -81t-132.5 -56q-119 -32 -338 -32q-81 0 -162 6l-95 -332h-170z" />
<glyph unicode="&#xdf;" horiz-adv-x="1251" d="M996 1430q130 0 195 -71t65 -173q0 -44 -12 -85q-19 -65 -60 -117t-88.5 -85t-93.5 -61t-81.5 -59.5t-45.5 -66.5q-4 -13 -4 -28q0 -31 25.5 -55t64 -38t83 -34t83 -42t64 -63.5t25.5 -97.5q0 -40 -15 -93q-9 -33 -27 -68t-52 -75.5t-78 -71.5t-110.5 -51.5t-144.5 -20.5 q-144 0 -289 47l63 116q148 -31 230 -31q191 0 234 152q7 24 7 46q0 39 -25 68t-62 44l-81 35q-44 19 -81 38t-62 55.5t-25 85.5q0 33 12 75q17 61 58 109t88 79l94 59q46 28 83 63t49 76q7 24 7 48q0 63 -45 103.5t-108 40.5q-19 0 -41.5 -4t-59 -20.5t-68.5 -43t-64 -77 t-51 -116.5l-293 -1022h-164l293 1023q25 86 68.5 156t95.5 116t112.5 77t118 44.5t113.5 13.5z" />
<glyph unicode="&#xe0;" horiz-adv-x="1058" d="M780 981q161 0 230.5 -53.5t69.5 -152.5q0 -60 -22 -135l-183 -640h-116l-12 90q-150 -110 -305 -110q-117 0 -187.5 61.5t-70.5 152.5q0 30 9 62q20 71 67.5 123.5t109 84t145.5 51t167 26t185 6.5l22 76q16 54 16 93q0 130 -190 130q-96 0 -271 -43l3 118 q176 60 333 60zM832 424h-60q-56 0 -97.5 -2t-98.5 -11t-96.5 -25t-73.5 -47.5t-46 -74.5q-4 -13 -4 -30q0 -52 47 -88.5t121 -36.5q126 0 245 97zM879 1539l260 -339l-110 -105l-272 330z" />
<glyph unicode="&#xe1;" horiz-adv-x="1058" d="M1107 1549l58 -114l-462 -329l-48 104zM832 424h-60q-56 0 -97.5 -2t-98.5 -11t-96.5 -25t-73.5 -47.5t-46 -74.5q-4 -13 -4 -30q0 -52 47 -88.5t121 -36.5q126 0 245 97zM780 981q161 0 230.5 -53.5t69.5 -152.5q0 -60 -22 -135l-183 -640h-116l-12 90 q-150 -110 -305 -110q-117 0 -187.5 61.5t-70.5 152.5q0 30 9 62q20 71 67.5 123.5t109 84t145.5 51t167 26t185 6.5l22 76q16 54 16 93q0 130 -190 130q-96 0 -271 -43l3 118q176 60 333 60z" />
<glyph unicode="&#xe2;" horiz-adv-x="1058" d="M962 1490l165 -301l-119 -92l-112 206l-236 -205l-63 82zM832 424h-60q-56 0 -97.5 -2t-98.5 -11t-96.5 -25t-73.5 -47.5t-46 -74.5q-4 -13 -4 -30q0 -52 47 -88.5t121 -36.5q126 0 245 97zM780 981q161 0 230.5 -53.5t69.5 -152.5q0 -60 -22 -135l-183 -640h-116l-12 90 q-150 -110 -305 -110q-117 0 -187.5 61.5t-70.5 152.5q0 30 9 62q20 71 67.5 123.5t109 84t145.5 51t167 26t185 6.5l22 76q16 54 16 93q0 130 -190 130q-96 0 -271 -43l3 118q176 60 333 60z" />
<glyph unicode="&#xe3;" horiz-adv-x="1057" d="M1202 1444l103 -17l-42 -87q-45 -92 -87 -136q-68 -72 -154 -72q-43 0 -78 19.5t-57.5 47t-41.5 55t-39.5 47t-42.5 19.5q-12 0 -23 -3.5t-21 -11t-18.5 -15t-16.5 -18.5l-14 -20l-12 -22l-9 -18l-8 -16q-5 -11 -5 -12l-24 -52l-104 15l42 88l20 41q6 13 31 50t48 58 t61.5 39.5t80.5 18.5q43 0 78 -19.5t57 -47t40.5 -55t39.5 -47t43 -19.5q10 0 20.5 3.5t19 8t17.5 13t15.5 15.5t14 18t12 18.5t10.5 19t8 16.5t6 14l5 10zM832 424h-60q-56 0 -97.5 -2t-98.5 -11t-96.5 -25t-73.5 -47.5t-46 -74.5q-4 -13 -4 -30q0 -52 47 -88.5t121 -36.5 q126 0 245 97zM780 981q161 0 230.5 -53.5t69.5 -152.5q0 -60 -22 -135l-183 -640h-116l-12 90q-150 -110 -305 -110q-117 0 -187.5 61.5t-70.5 152.5q0 30 9 62q20 71 67.5 123.5t109 84t145.5 51t167 26t185 6.5l22 76q16 54 16 93q0 130 -190 130q-96 0 -271 -43l3 118 q176 60 333 60z" />
<glyph unicode="&#xe4;" horiz-adv-x="1062" d="M1106 1421h185l-54 -186h-185zM663 1421h185l-53 -186h-185zM836 424h-60q-56 0 -98 -2t-100 -11t-97.5 -25t-74 -47.5t-46.5 -74.5q-4 -13 -4 -30q0 -52 47.5 -88.5t122.5 -36.5q127 0 247 97zM782 981q162 0 232.5 -54t70.5 -153q0 -59 -22 -134l-184 -640h-116l-12 90 q-150 -110 -306 -110q-118 0 -189.5 62t-71.5 153q0 29 9 61q20 71 67.5 123.5t109.5 84t147 51t168 26t186 6.5l22 76q16 54 16 92q0 131 -192 131q-98 0 -273 -43l3 118q177 60 335 60z" />
<glyph unicode="&#xe5;" horiz-adv-x="1061" d="M969 1482q-54 0 -102.5 -42t-65.5 -100q-6 -22 -6 -44q0 -43 24 -70.5t68 -27.5q53 0 101 43t64 99q6 22 6 43q0 43 -24 71t-65 28zM994 1573q71 0 115.5 -46t44.5 -119q0 -34 -10 -68q-28 -97 -111 -165t-172 -68q-71 0 -115.5 46t-44.5 118q0 35 10 69q28 96 111 164.5 t172 68.5zM835 424h-60q-56 0 -98 -2t-99.5 -11t-97 -25t-74 -47.5t-46.5 -74.5q-4 -13 -4 -30q0 -52 47 -88.5t122 -36.5q127 0 247 97zM782 981q161 0 231.5 -54t70.5 -153q0 -59 -22 -134l-184 -640h-116l-12 90q-150 -110 -306 -110q-118 0 -189 61.5t-71 152.5 q0 30 9 62q20 71 67.5 123.5t109 84t146.5 51t168 26t186 6.5l22 76q16 56 16 93q0 130 -191 130q-98 0 -273 -43l3 118q177 60 335 60z" />
<glyph unicode="&#xe6;" horiz-adv-x="1650" d="M360 268q-4 -13 -4 -30q0 -54 50.5 -90.5t122.5 -36.5q125 0 239 92l63 220q-171 0 -274 -20.5t-142.5 -52t-54.5 -82.5zM1383 839q-118 0 -213 -86t-130 -206h476q21 74 21 130q0 162 -154 162zM447 919q181 62 347 62q116 0 181 -45.5t79 -126.5q86 78 191 125t207 47 q239 0 239 -254q0 -116 -53 -304h-642q-12 -42 -12 -80q0 -102 76 -166.5t203 -64.5q75 0 212 35l-5 -111q-165 -56 -307 -56q-107 0 -192.5 37t-126.5 113q-157 -150 -385 -150q-117 0 -195.5 61t-78.5 156q0 30 9 63q31 110 143.5 186.5t290.5 93.5q89 9 239 9l15 49 q14 47 14 92q0 155 -183 155q-93 0 -259 -42z" />
<glyph unicode="&#xe7;" horiz-adv-x="988" d="M573 -326q3 12 3 22q0 11 -4 20.5t-14 17.5t-19.5 14t-29.5 14l-34 12l-42 14l-46 16l96 176q-113 18 -184.5 87.5t-71.5 202.5q0 80 29 182q33 114 86.5 205t116 149.5t135.5 97t142.5 54.5t140.5 16q140 0 256 -59l-73 -118q-97 36 -202 36q-51 0 -98.5 -9t-99 -33.5 t-94.5 -62t-80.5 -100t-60.5 -142.5q-24 -83 -24 -152q0 -64 22 -109.5t61 -70t83.5 -35.5t99.5 -11q90 0 194 32l7 -112q-141 -49 -264 -54l-59 -110q1 0 14 -4t18.5 -6.5t19 -7.5t21 -10.5t19.5 -13t19 -16.5l14 -20q7 -11 10 -24.5t3 -29.5q0 -22 -7 -47 q-21 -71 -91 -127t-162 -56q-21 0 -44 3.5t-49 10.5l-42 12q-15 4 -42.5 14t-31.5 11l52 91q140 -47 187 -47q45 0 78 22.5t42 54.5z" />
<glyph unicode="&#xe8;" horiz-adv-x="1088" d="M876 982q267 0 267 -236q0 -91 -49 -265l-22 -76h-666q-10 -37 -10 -67q0 -95 73.5 -161t214.5 -66q99 0 230 35l-2 -111q-174 -55 -327 -55q-80 0 -142 15.5t-101.5 42t-65.5 65t-36.5 80.5t-10.5 92q0 83 27 175q39 135 109.5 240t156 167t175.5 93.5t179 31.5z M801 840q-126 0 -223 -93t-133 -218h503q25 87 25 148q0 163 -172 163zM897 1549l258 -339l-108 -104l-273 329z" />
<glyph unicode="&#xe9;" horiz-adv-x="1088" d="M876 982q267 0 267 -236q0 -91 -49 -265l-22 -76h-666q-10 -37 -10 -67q0 -95 73.5 -161t214.5 -66q99 0 230 35l-2 -111q-174 -55 -327 -55q-80 0 -142 15.5t-101.5 42t-65.5 65t-36.5 80.5t-10.5 92q0 83 27 175q39 135 109.5 240t156 167t175.5 93.5t179 31.5z M801 840q-126 0 -223 -93t-133 -218h503q25 87 25 148q0 163 -172 163zM1205 1549l58 -114l-462 -329l-48 104z" />
<glyph unicode="&#xea;" horiz-adv-x="1088" d="M876 982q267 0 267 -236q0 -91 -49 -265l-22 -76h-666q-10 -37 -10 -67q0 -95 73.5 -161t214.5 -66q99 0 230 35l-2 -111q-174 -55 -327 -55q-80 0 -142 15.5t-101.5 42t-65.5 65t-36.5 80.5t-10.5 92q0 83 27 175q39 135 109.5 240t156 167t175.5 93.5t179 31.5z M801 840q-126 0 -223 -93t-133 -218h503q25 87 25 148q0 163 -172 163zM1047 1490l165 -301l-119 -92l-113 206l-235 -205l-62 82z" />
<glyph unicode="&#xeb;" horiz-adv-x="1095" d="M880 982q269 0 269 -236q0 -91 -49 -265l-22 -76h-670q-10 -37 -10 -67q0 -95 74 -161t216 -66q100 0 233 35l-3 -111q-176 -55 -329 -55q-100 0 -172 23t-112 65.5t-58 93.5t-18 114q0 83 27 174q31 109 84 198.5t116 150.5t136 103t145 61t143 19zM804 840 q-128 0 -226.5 -93t-134.5 -218h512q24 82 24 146q0 165 -175 165zM699 1421h185l-53 -186h-185zM1142 1421h185l-54 -186h-185z" />
<glyph unicode="&#xec;" horiz-adv-x="516" d="M459 988h164l-283 -988h-164zM534 1549l266 -324l-107 -100l-280 315z" />
<glyph unicode="&#xed;" horiz-adv-x="516" d="M459 988h164l-283 -988h-164zM912 1549l59 -109l-461 -315l-50 100z" />
<glyph unicode="&#xee;" horiz-adv-x="522" d="M459 988h164l-283 -988h-164zM691 1490l140 -286l-116 -88l-91 186l-202 -185l-63 78z" />
<glyph unicode="&#xef;" horiz-adv-x="523" d="M463 988h164l-283 -988h-164zM392 1421h185l-53 -185h-185zM761 1421h185l-53 -185h-185z" />
<glyph unicode="&#xf0;" horiz-adv-x="1236" d="M424 481q-18 -60 -18 -122q0 -110 60.5 -177.5t160.5 -67.5q32 0 65.5 7.5t77.5 29t84.5 55.5t82 93.5t73.5 136.5q34 80 65 193l18 62q-149 116 -283 116q-126 0 -235.5 -91t-150.5 -235zM922 1458q148 -45 246 -145l210 105l27 -95l-176 -87q71 -111 71 -255 q0 -121 -50 -294q-24 -83 -49 -153t-60 -144.5t-73.5 -133t-90.5 -111.5t-110.5 -88.5t-133.5 -56t-160 -20.5q-175 0 -260.5 84.5t-85.5 221.5q0 105 48.5 221.5t128 213t192.5 159.5t230 63q141 0 299 -109q8 54 8 97q0 126 -69 222l-204 -103l-26 95l162 82 q-71 64 -171 103z" />
<glyph unicode="&#xf1;" horiz-adv-x="1164" d="M452 963h115l12 -84q217 104 371 104q231 0 231 -204q0 -80 -36 -204l-165 -575h-165l167 583q19 68 19 110q0 142 -165 142q-114 0 -278 -74l-218 -761h-164zM1286 1449l103 -17l-42 -88q-45 -92 -87 -136q-68 -72 -154 -72q-43 0 -78 19.5t-57.5 47t-41.5 55t-39.5 47 t-42.5 19.5q-12 0 -23 -3.5t-20.5 -10.5t-18 -15t-16.5 -19l-14 -20q-6 -8 -12 -20.5t-9.5 -19t-8 -16.5t-4.5 -11l-25 -53l-103 16l42 88l20 40q6 13 31 50.5t47.5 58t61 39t80.5 18.5q43 0 78 -19.5t57 -47t40.5 -55t39 -47t42.5 -19.5q10 0 20.5 3.5t19 8.5t17.5 13 t15.5 15.5t14 18.5t12 18.5t10 18.5t8 16.5t7 14.5t4.5 10z" />
<glyph unicode="&#xf2;" horiz-adv-x="1195" d="M881 982q160 0 255 -82.5t95 -234.5q0 -76 -25 -164q-69 -239 -243 -380t-385 -141q-159 0 -250.5 84.5t-91.5 235.5q0 81 26 171q67 234 237 372.5t382 138.5zM828 842q-76 0 -153.5 -37.5t-145.5 -118t-99 -188.5q-20 -71 -20 -132q0 -110 59.5 -178t166.5 -68 q128 0 242 97t158 252q20 69 20 131q0 115 -65.5 178.5t-162.5 63.5zM964 1549l258 -339l-108 -104l-272 329z" />
<glyph unicode="&#xf3;" horiz-adv-x="1195" d="M881 982q160 0 255 -82.5t95 -234.5q0 -76 -25 -164q-69 -239 -243 -380t-385 -141q-159 0 -250.5 84.5t-91.5 235.5q0 81 26 171q67 234 237 372.5t382 138.5zM828 842q-76 0 -153.5 -37.5t-145.5 -118t-99 -188.5q-20 -71 -20 -132q0 -110 59.5 -178t166.5 -68 q128 0 242 97t158 252q20 69 20 131q0 115 -65.5 178.5t-162.5 63.5zM1137 1549l57 -114l-462 -329l-48 104z" />
<glyph unicode="&#xf4;" horiz-adv-x="1195" d="M881 982q160 0 255 -82.5t95 -234.5q0 -76 -25 -164q-69 -239 -243 -380t-385 -141q-159 0 -250.5 84.5t-91.5 235.5q0 81 26 171q67 234 237 372.5t382 138.5zM828 842q-76 0 -153.5 -37.5t-145.5 -118t-99 -188.5q-20 -71 -20 -132q0 -110 59.5 -178t166.5 -68 q128 0 242 97t158 252q20 69 20 131q0 115 -65.5 178.5t-162.5 63.5zM1040 1490l163 -301l-116 -92l-113 206l-236 -205l-62 82z" />
<glyph unicode="&#xf5;" horiz-adv-x="1198" d="M1266 1448l103 -17q-3 -7 -22 -47l-25 -52q-6 -13 -25.5 -47.5t-31.5 -48.5l-34 -38q-22 -24 -41.5 -34t-46.5 -19t-56 -9q-43 0 -78 19.5t-57 47t-41 55t-39.5 47t-42.5 19.5q-13 0 -26 -5t-22.5 -12t-21 -20.5t-18.5 -24t-17 -30.5l-16 -30l-16 -34l-14 -32l-104 15 q3 7 22 47l25 52q6 13 25.5 47.5t31.5 48.5l34 38q22 24 41.5 34t46.5 19t56 9q43 0 78 -19.5t57 -47t41 -55t39.5 -47t42.5 -19.5q15 0 28.5 5t27 18.5t22 23.5t20.5 33l18 34q6 10 19.5 39.5t16.5 36.5zM829 842q-77 0 -154.5 -37.5t-145.5 -118t-99 -188.5 q-20 -71 -20 -131q0 -111 60 -179t168 -68q129 0 243 96.5t158 252.5q20 69 20 130q0 115 -66 179t-164 64zM883 982q160 0 255.5 -83t95.5 -235q0 -75 -25 -163q-69 -239 -243 -380t-386 -141q-160 0 -252 84.5t-92 236.5q0 80 26 170q67 233 237.5 372t383.5 139z" />
<glyph unicode="&#xf6;" horiz-adv-x="1203" d="M886 982q162 0 257.5 -83t95.5 -235q0 -75 -25 -163q-69 -239 -244 -380t-388 -141q-161 0 -253.5 84.5t-92.5 236.5q0 80 26 170q67 234 238.5 372.5t385.5 138.5zM832 842q-77 0 -155.5 -37.5t-147 -118t-99.5 -188.5q-20 -71 -20 -131q0 -111 60.5 -179t169.5 -68 q130 0 245.5 97t159.5 252q20 72 20 129q0 116 -67 180t-166 64zM722 1421h185l-53 -186h-185zM1165 1421h185l-53 -186h-185z" />
<glyph unicode="&#xf7;" horiz-adv-x="1400" d="M956 1233h195l-56 -195h-195zM682 278h195l-56 -195h-195zM333 727h1150l-39 -139h-1150z" />
<glyph unicode="&#xf8;" horiz-adv-x="1194" d="M1300 970l42 -56l-141 -110q29 -63 29 -144q0 -74 -25 -161q-68 -238 -241 -378.5t-384 -140.5q-188 0 -277 117l-143 -112l-41 56l147 116q-30 68 -30 149q0 79 26 167q67 233 237 371t381 138q193 0 285 -119zM828 842q-88 0 -167.5 -44.5t-133.5 -114t-85.5 -153.5 t-31.5 -164q0 -50 11 -88l596 469q-62 95 -189 95zM1046 683l-597 -469q60 -94 187 -94q91 0 172 46.5t134 118t84 155.5t31 161q0 43 -11 82z" />
<glyph unicode="&#xf9;" horiz-adv-x="1164" d="M1100 988h164l-284 -988h-115l-11 83q-215 -103 -372 -103q-229 0 -229 206q0 85 37 212l169 590h164l-173 -602q-19 -65 -19 -113q0 -146 164 -146q114 0 280 77zM913 1549l263 -324l-107 -100l-277 315z" />
<glyph unicode="&#xfa;" horiz-adv-x="1164" d="M1100 988h164l-284 -988h-115l-11 83q-215 -103 -372 -103q-229 0 -229 206q0 85 37 212l169 590h164l-173 -602q-19 -65 -19 -113q0 -146 164 -146q114 0 280 77zM1195 1549l59 -109l-457 -315l-50 100z" />
<glyph unicode="&#xfb;" horiz-adv-x="1164" d="M1100 988h164l-284 -988h-115l-11 83q-215 -103 -372 -103q-229 0 -229 206q0 85 37 212l169 590h164l-173 -602q-19 -65 -19 -113q0 -146 164 -146q114 0 280 77zM1027 1490l169 -286l-117 -88l-116 196l-232 -195l-64 78z" />
<glyph unicode="&#xfc;" horiz-adv-x="1170" d="M1105 988h164l-283 -988h-115l-11 83q-217 -103 -375 -103q-232 0 -232 207q0 80 37 211l169 590h164l-173 -602q-19 -65 -19 -112q0 -147 167 -147q114 0 282 77zM679 1421h185l-53 -186h-185zM1120 1421h185l-53 -186h-185z" />
<glyph unicode="&#xfd;" horiz-adv-x="1039" d="M332 988h170l72 -838l527 838h170l-995 -1519h-175l343 493zM1200 1549l59 -109l-458 -315l-50 100z" />
<glyph unicode="&#xfe;" horiz-adv-x="1206" d="M840 837q-260 0 -369 -382q-26 -92 -26 -156q0 -182 192 -182q39 0 82.5 11t92.5 37t92.5 65t81.5 101t60 138q20 67 20 129q0 113 -65 176t-161 63zM909 978q148 0 239 -84.5t91 -234.5q0 -75 -25 -162q-65 -226 -236 -373t-365 -147q-74 0 -137.5 27.5t-102.5 79.5 l-176 -615h-164l560 1952h164l-161 -561q136 118 313 118z" />
<glyph unicode="&#xff;" horiz-adv-x="1043" d="M332 988h170l73 -838l531 838h170l-1000 -1519h-175l344 493zM627 1421h185l-53 -186h-185zM1070 1421h185l-53 -186h-185z" />
<glyph unicode="&#x100;" horiz-adv-x="1383" d="M1042 1421h193l98 -1421h-172l-26 413h-586l-262 -413h-157zM1084 1255l-441 -693h483zM851 1697h740l-37 -129h-740z" />
<glyph unicode="&#x101;" horiz-adv-x="1058" d="M644 1333h521l-37 -129h-521zM832 424h-60q-56 0 -97.5 -2t-99 -11t-97 -25t-73.5 -47.5t-46 -74.5q-4 -13 -4 -30q0 -52 47.5 -88.5t121.5 -36.5q126 0 245 97zM781 982q299 0 299 -207q0 -58 -22 -135l-183 -640h-116l-12 90q-150 -110 -305 -110q-117 0 -187.5 61.5 t-70.5 152.5q0 30 9 62q20 71 67.5 123.5t109 84.5t145.5 51t167 26t185 7l22 75q16 54 16 93q0 130 -190 130q-96 0 -271 -43l3 118q179 61 334 61z" />
<glyph unicode="&#x102;" horiz-adv-x="1383" d="M1042 1421h193l98 -1421h-172l-26 413h-586l-262 -413h-157zM1084 1255l-441 -693h483zM879 1816l143 66q7 -34 20 -64t35.5 -59t59.5 -46.5t83 -17.5q81 0 174 54.5t175 132.5l91 -77q-110 -106 -243.5 -177t-252.5 -71q-68 0 -122 22.5t-87.5 60t-52.5 82.5t-23 94z " />
<glyph unicode="&#x103;" horiz-adv-x="1056" d="M564 1377l143 71q5 -36 17.5 -69t34 -64.5t57 -50t80.5 -18.5q80 0 172 58.5t175 143.5l88 -83q-110 -110 -242 -183.5t-249 -73.5q-129 0 -199 79.5t-77 189.5zM832 424h-60q-56 0 -97.5 -2t-98.5 -11t-96.5 -25t-73.5 -47.5t-46 -74.5q-4 -13 -4 -30q0 -52 47 -88.5 t121 -36.5q126 0 245 97zM780 981q161 0 230.5 -53.5t69.5 -152.5q0 -60 -22 -135l-183 -640h-116l-12 90q-150 -110 -305 -110q-117 0 -187.5 61.5t-70.5 152.5q0 30 9 62q20 71 67.5 123.5t109 84t145.5 51t167 26t185 6.5l22 76q16 54 16 93q0 130 -190 130 q-96 0 -271 -43l3 118q176 60 333 60z" />
<glyph unicode="&#x104;" horiz-adv-x="1383" d="M1042 1421h193l98 -1421q-100 0 -186.5 -30t-139 -70.5t-92.5 -87.5t-55.5 -75.5t-18.5 -40.5q-5 -20 -5 -35q0 -31 18.5 -51t59.5 -20q68 0 183 58l22 -90q-169 -102 -289 -102q-71 0 -113 38t-42 102q0 25 10 63q36 126 182 251t289 168l-21 335h-586l-262 -413h-157z M1084 1255l-441 -693h483z" />
<glyph unicode="&#x105;" horiz-adv-x="1061" d="M713 834q-97 0 -272 -43l3 118q177 60 335 60q162 0 232 -54t70 -153q0 -59 -22 -134l-193 -673q-17 -8 -56 -25l-56 -25l-52 -24q-33 -16 -50 -25l-44 -24q-28 -16 -42 -28l-34 -27q-20 -16 -31 -30t-21 -31.5t-15 -35.5t-5 -31q0 -33 21.5 -52t59.5 -19q60 0 177 56 l24 -83q-170 -94 -286 -94q-71 0 -112 36.5t-41 97.5q0 27 9 57q12 42 40 82.5t57.5 70.5t78 63t77.5 50.5t81 42.5t64 30l51 21l-11 77q-178 -102 -318 -102q-110 0 -179 60.5t-69 150.5q0 30 9 62q11 37 34 74t62 75t101 69t139 47q122 27 342 27l18 64q16 54 16 91 q0 131 -192 131zM517 117q121 0 253 80l65 227h-39q-149 0 -231.5 -12.5t-142.5 -59.5q-67 -54 -67 -119q0 -50 43 -83t119 -33z" />
<glyph unicode="&#x106;" horiz-adv-x="1451" d="M1396 1431q194 0 365 -76l-93 -141q-175 67 -320 67q-120 0 -236 -47.5t-206.5 -127t-157.5 -182t-99 -214.5q-26 -92 -26 -173q0 -179 113.5 -290t320.5 -111q154 0 338 60l16 -126q-235 -90 -442 -90q-134 0 -236.5 39.5t-165 109t-94 158.5t-31.5 194t31 216t87.5 217 t142 199.5t188.5 164.5t234 112t271 41zM1640 1976l34 -123l-596 -295l-31 108z" />
<glyph unicode="&#x107;" horiz-adv-x="986" d="M258 459q33 114 86.5 205t115.5 149.5t135.5 97t143 54.5t139.5 16q139 0 254 -59l-73 -118q-97 36 -201 36q-65 0 -124 -16t-119.5 -52.5t-109.5 -107.5t-78 -171q-25 -87 -25 -152q0 -64 22 -109.5t61 -70t83.5 -35.5t99.5 -11q90 0 192 32l7 -112q-156 -55 -295 -55 q-66 0 -123 14t-108.5 46t-81.5 92.5t-30 143.5q0 82 29 183zM1117 1549l57 -114l-461 -329l-48 104z" />
<glyph unicode="&#x108;" horiz-adv-x="1451" d="M1400 1932l174 -286l-118 -88l-120 196l-237 -195l-66 78zM1396 1431q194 0 365 -76l-93 -141q-175 67 -320 67q-120 0 -236 -47.5t-206.5 -127t-157.5 -182t-99 -214.5q-26 -92 -26 -173q0 -179 113.5 -290t320.5 -111q154 0 338 60l16 -126q-235 -90 -442 -90 q-134 0 -236.5 39.5t-165 109t-94 158.5t-31.5 194t31 216t87.5 217t142 199.5t188.5 164.5t234 112t271 41z" />
<glyph unicode="&#x109;" horiz-adv-x="986" d="M258 459q33 114 86.5 205t115.5 149.5t135.5 97t143 54.5t139.5 16q139 0 254 -59l-73 -118q-97 36 -201 36q-65 0 -124 -16t-119.5 -52.5t-109.5 -107.5t-78 -171q-25 -87 -25 -152q0 -64 22 -109.5t61 -70t83.5 -35.5t99.5 -11q90 0 192 32l7 -112q-156 -55 -295 -55 q-66 0 -123 14t-108.5 46t-81.5 92.5t-30 143.5q0 82 29 183zM986 1498l164 -300l-117 -93l-113 206l-235 -205l-63 82z" />
<glyph unicode="&#x10a;" horiz-adv-x="1451" d="M1396 1431q194 0 365 -76l-93 -141q-175 67 -320 67q-120 0 -236 -47.5t-206.5 -127t-157.5 -182t-99 -214.5q-26 -92 -26 -173q0 -179 113.5 -290t320.5 -111q154 0 338 60l16 -126q-235 -90 -442 -90q-134 0 -236.5 39.5t-165 109t-94 158.5t-31.5 194t31 216t87.5 217 t142 199.5t188.5 164.5t234 112t271 41zM1278 1829h210l-60 -210h-210z" />
<glyph unicode="&#x10b;" horiz-adv-x="991" d="M258 459q33 114 87 205t116 149.5t135.5 97t143.5 54.5t141 16q141 0 257 -59l-74 -118q-97 36 -203 36q-65 0 -124.5 -16t-120.5 -52.5t-110.5 -107.5t-78.5 -171q-24 -83 -24 -151q0 -64 22 -110t61 -70.5t84.5 -35.5t100.5 -11q90 0 194 32l7 -112q-156 -55 -297 -55 q-53 0 -100 8t-93 29t-79 54t-53.5 85.5t-20.5 120.5q0 81 29 182zM904 1421h210l-60 -209h-210z" />
<glyph unicode="&#x10c;" horiz-adv-x="1451" d="M1396 1431q194 0 365 -76l-93 -141q-175 67 -320 67q-120 0 -236 -47.5t-206.5 -127t-157.5 -182t-99 -214.5q-26 -92 -26 -173q0 -179 113.5 -290t320.5 -111q154 0 338 60l16 -126q-235 -90 -442 -90q-134 0 -236.5 39.5t-165 109t-94 158.5t-31.5 194t31 216t87.5 217 t142 199.5t188.5 164.5t234 112t271 41zM1337 1558l-174 286l118 88l120 -196l237 195l65 -78z" />
<glyph unicode="&#x10d;" horiz-adv-x="986" d="M258 459q33 114 86.5 205t115.5 149.5t135.5 97t143 54.5t139.5 16q139 0 254 -59l-73 -118q-97 36 -201 36q-65 0 -124 -16t-119.5 -52.5t-109.5 -107.5t-78 -171q-25 -87 -25 -152q0 -64 22 -109.5t61 -70t83.5 -35.5t99.5 -11q90 0 192 32l7 -112q-156 -55 -295 -55 q-66 0 -123 14t-108.5 46t-81.5 92.5t-30 143.5q0 82 29 183zM848 1105l-163 301l117 92l112 -206l236 205l63 -80z" />
<glyph unicode="&#x10e;" horiz-adv-x="1605" d="M1138 1421q126 0 223.5 -23.5t160 -63t103 -96t57 -118.5t16.5 -135q0 -107 -36 -231q-27 -93 -65.5 -179t-98.5 -175t-133.5 -159.5t-174.5 -127t-217 -83.5q-60 -14 -131 -21t-116.5 -8t-127.5 -1h-308l407 1421h441zM824 1271l-321 -1121h207q45 0 75 1t81.5 6t91 15 t92 29t96 46t91.5 69t90 95q102 129 154 309q30 103 30 193q0 79 -23.5 143t-63.5 105.5t-88.5 66.5t-104.5 35q-42 8 -131 8h-276zM1291 1558l-174 286l118 88l120 -196l237 195l65 -78z" />
<glyph unicode="&#x10f;" horiz-adv-x="1408" d="M260 465q48 165 143.5 284.5t213.5 176.5t248 57q117 0 219 -53l166 581h164l-433 -1511h-114l-9 62q-160 -82 -308 -82q-62 0 -116.5 16.5t-101 50.5t-74 94.5t-27.5 141.5q0 82 29 182zM642 115q108 0 224 54l183 639q-92 46 -197 46q-45 0 -89.5 -9.5t-95.5 -35 t-94 -65t-82.5 -105t-63.5 -149.5q-24 -86 -24 -148q0 -65 22 -111.5t59 -70.5t76 -34.5t82 -10.5zM1623 1511h165l-235 -409h-165z" />
<glyph unicode="&#x110;" horiz-adv-x="1605" d="M1183 1421q126 0 223.5 -23.5t160 -63t103 -96t57 -118.5t16.5 -135q0 -107 -36 -231q-27 -93 -65.5 -179t-98.5 -175t-133.5 -159.5t-174.5 -127t-217 -83.5q-60 -14 -131 -21t-116.5 -8t-127.5 -1h-308l189 658h-218l43 150h218l175 613h441zM694 658l-146 -508h207 q45 0 75 1t81.5 6t91 15t92 29t96 46t91.5 69t90 95q102 129 154 309q30 103 30 193q0 79 -23.5 143t-63.5 105.5t-88.5 66.5t-104.5 35q-42 8 -131 8h-276l-132 -463h256l-43 -150h-256z" />
<glyph unicode="&#x111;" horiz-adv-x="1221" d="M852 854q-45 0 -89.5 -9.5t-95.5 -35t-94 -65t-82.5 -105t-63.5 -149.5q-24 -86 -24 -148q0 -65 22 -111.5t59 -70.5t76 -34.5t82 -10.5q108 0 224 54l183 639q-92 46 -197 46zM865 983q117 0 219 -53l67 233h-262l37 129h262l62 219h164l-62 -219h131l-37 -129h-131 l-334 -1163h-114l-9 62q-160 -82 -308 -82q-62 0 -116.5 16.5t-101 50.5t-74 94.5t-27.5 141.5q0 82 29 182q48 165 143.5 284.5t213.5 176.5t248 57z" />
<glyph unicode="&#x112;" horiz-adv-x="1283" d="M290 0l407 1421h833l-43 -150h-663l-133 -464h608l-43 -150h-608l-145 -507h663l-43 -150h-833zM847 1697h733l-37 -129h-733z" />
<glyph unicode="&#x113;" horiz-adv-x="1088" d="M876 982q267 0 267 -236q0 -91 -49 -265l-22 -76h-666q-10 -37 -10 -67q0 -95 73.5 -161t214.5 -66q99 0 230 35l-2 -111q-174 -55 -327 -55q-80 0 -142 15.5t-101.5 42t-65.5 65t-36.5 80.5t-10.5 92q0 83 27 175q39 135 109.5 240t156 167t175.5 93.5t179 31.5z M801 840q-126 0 -223 -93t-133 -218h503q25 87 25 148q0 163 -172 163zM645 1333h579l-43 -149h-579z" />
<glyph unicode="&#x114;" horiz-adv-x="1283" d="M290 0l407 1421h833l-43 -150h-663l-133 -464h608l-43 -150h-608l-145 -507h663l-43 -150h-833zM1543 1882l91 -77q-129 -124 -258 -185t-239 -61q-121 0 -198 69t-86 188l143 66q16 -86 68 -136.5t131 -50.5q154 0 348 187z" />
<glyph unicode="&#x115;" horiz-adv-x="1087" d="M876 982q267 0 267 -236q0 -91 -49 -265l-22 -76h-666q-10 -37 -10 -67q0 -95 73.5 -161t214.5 -66q99 0 230 35l-2 -111q-174 -55 -327 -55q-80 0 -142 15.5t-101.5 42t-65.5 65t-36.5 80.5t-10.5 92q0 83 27 175q39 135 109.5 240t156 167t175.5 93.5t179 31.5z M801 840q-126 0 -223 -93t-133 -218h503q25 87 25 148q0 163 -172 163zM623 1377l142 71q5 -36 17.5 -69t34 -64.5t57 -50t80.5 -18.5q80 0 172.5 59t174.5 143l88 -83q-111 -111 -242 -184t-248 -73q-129 0 -199 79.5t-77 189.5z" />
<glyph unicode="&#x116;" horiz-adv-x="1283" d="M290 0l407 1421h833l-43 -150h-663l-133 -464h608l-43 -150h-608l-145 -507h663l-43 -150h-833zM1116 1829h210l-60 -210h-210z" />
<glyph unicode="&#x117;" horiz-adv-x="1094" d="M256 450q39 135 109.5 240t156.5 167t177 93.5t180 31.5q269 0 269 -236q0 -91 -49 -265l-22 -76h-671q-9 -33 -9 -66q0 -95 74 -161.5t217 -66.5q99 0 232 35l-3 -111q-174 -55 -329 -55q-100 0 -171.5 23.5t-111.5 65.5t-58 93t-18 114q0 82 27 174zM804 840 q-128 0 -225.5 -93t-133.5 -218h509q25 85 25 146q0 165 -175 165zM897 1421h210l-60 -209h-210z" />
<glyph unicode="&#x118;" horiz-adv-x="1283" d="M697 1421h833l-43 -150h-663l-133 -464h608l-43 -150h-608l-145 -507h663l-35 -122l-78 -46l-75 -44l-64 -38q-40 -25 -60 -40l-48 -38q-27 -22 -41.5 -40.5t-28 -40.5t-20.5 -45q-5 -20 -5 -34q0 -33 21.5 -52.5t59.5 -19.5q70 0 180 59l23 -90q-166 -102 -289 -102 q-73 0 -113.5 37.5t-40.5 100.5q0 32 10 65q17 59 52.5 111.5t86 95.5t92 71.5t97.5 61.5h-600z" />
<glyph unicode="&#x119;" horiz-adv-x="1092" d="M251 435q33 116 89.5 210t120.5 153.5t138.5 100t142.5 57t134 16.5q76 0 129.5 -17.5t83 -50.5t42.5 -73.5t13 -92.5q0 -96 -49 -265l-22 -77h-670q-10 -33 -10 -66q0 -96 79.5 -159t214.5 -63q106 0 231 36l-3 -112q-151 -48 -272.5 -153.5t-146.5 -192.5 q-6 -20 -6 -37q0 -33 21 -52.5t58 -19.5q60 0 177 56l24 -83q-166 -94 -286 -94q-72 0 -111.5 36t-39.5 98q0 81 70.5 184t209.5 203q-186 0 -287 73t-101 221q0 76 26 164zM800 830q-127 0 -224 -92.5t-133 -217.5h506q24 83 24 146q0 164 -173 164z" />
<glyph unicode="&#x11a;" horiz-adv-x="1283" d="M290 0l407 1421h833l-43 -150h-663l-133 -464h608l-43 -150h-608l-145 -507h663l-43 -150h-833zM1141 1558l-174 286l117 88l120 -196l238 195l65 -78z" />
<glyph unicode="&#x11b;" horiz-adv-x="1088" d="M876 982q267 0 267 -236q0 -91 -49 -265l-22 -76h-666q-10 -37 -10 -67q0 -95 73.5 -161t214.5 -66q99 0 230 35l-2 -111q-174 -55 -327 -55q-80 0 -142 15.5t-101.5 42t-65.5 65t-36.5 80.5t-10.5 92q0 83 27 175q39 135 109.5 240t156 167t175.5 93.5t179 31.5z M801 840q-126 0 -223 -93t-133 -218h503q25 87 25 148q0 163 -172 163zM909 1105l-164 301l118 92l111 -206l236 205l65 -80z" />
<glyph unicode="&#x11c;" horiz-adv-x="1591" d="M916 -20q-136 0 -240 39t-167 108t-94.5 157.5t-31.5 193.5q0 126 43 260t127.5 257.5t197 221.5t264 156.5t315.5 58.5q239 0 422 -121l-103 -127q-64 40 -157 69t-196 29q-105 0 -213.5 -39t-205 -109.5t-173 -178t-113.5 -235.5q-27 -96 -27 -180q0 -186 117.5 -297.5 t318.5 -111.5q193 0 347 116l104 363h-404l40 140h569l-160 -558q-36 -31 -80 -60t-118 -67t-174 -61.5t-208 -23.5zM1428 1932l174 -286l-118 -88l-119 196l-238 -195l-66 78z" />
<glyph unicode="&#x11d;" horiz-adv-x="1162" d="M639 115q107 0 225 55l179 626q-118 54 -213 54q-135 0 -246 -97t-157 -256q-22 -75 -22 -145q0 -108 58.5 -172.5t175.5 -64.5zM857 983q117 0 246 -79l37 59h115l-296 -1033q-9 -30 -18.5 -57t-34 -77.5t-54 -91.5t-79 -89t-107.5 -80t-141.5 -54t-178.5 -22 q-149 0 -282 64l80 119q110 -46 220 -46q35 0 70.5 5t86.5 22.5t94.5 47t88 84t72.5 127.5q20 48 43 130l10 36q-145 -68 -275 -68q-63 0 -119 17.5t-102.5 53t-73.5 97t-27 143.5q0 81 30 188q32 112 89.5 202t121 145t136.5 91.5t134 51t114 14.5zM1028 1498l165 -300 l-118 -93l-113 206l-235 -205l-63 82z" />
<glyph unicode="&#x11e;" horiz-adv-x="1591" d="M1028 1816l142 66q7 -34 20.5 -64t36 -59t59.5 -46.5t83 -17.5q81 0 174 54.5t175 132.5l90 -77q-111 -107 -243.5 -177.5t-251.5 -70.5q-68 0 -122 22.5t-87.5 60t-52.5 82.5t-23 94zM1330 1432q239 0 422 -121l-103 -127q-64 40 -157 69t-196 29q-105 0 -213.5 -39 t-205 -109.5t-173 -178t-113.5 -235.5q-27 -96 -27 -180q0 -186 117.5 -297.5t318.5 -111.5q193 0 347 116l104 363h-404l40 140h569l-160 -558q-36 -31 -80 -60t-118 -67t-174 -61.5t-208 -23.5q-136 0 -240.5 38.5t-167 106.5t-94 155.5t-31.5 191.5q0 105 31.5 217.5 t89 219t143 201.5t188 166.5t231 113.5t264.5 42z" />
<glyph unicode="&#x11f;" horiz-adv-x="1161" d="M635 1377l141 71q5 -36 17.5 -69t34 -64.5t57 -50t80.5 -18.5q79 0 172 59t175 143l88 -83q-111 -111 -242 -184t-248 -73q-67 0 -119.5 23.5t-85 62.5t-50 85.5t-20.5 97.5zM639 115q107 0 225 55l179 626q-118 54 -213 54q-135 0 -246 -97t-157 -256q-22 -75 -22 -145 q0 -108 58.5 -172.5t175.5 -64.5zM346 -541q-149 0 -282 64l80 119q110 -46 220 -46q35 0 70.5 5t86.5 22.5t94.5 47t88 84t72.5 127.5q20 48 43 130l10 36q-145 -68 -275 -68q-63 0 -119 17.5t-102.5 53t-73.5 97t-27 143.5q0 81 30 188q32 112 89.5 202t121 145 t136.5 91.5t134 51t114 14.5q117 0 246 -79l37 59h115l-292 -1019q-32 -112 -86 -199t-115.5 -140t-135.5 -87t-141.5 -46.5t-138.5 -12.5z" />
<glyph unicode="&#x120;" horiz-adv-x="1591" d="M1321 1829h210l-60 -210h-210zM916 -20q-136 0 -240 39t-167 108t-94.5 157.5t-31.5 193.5q0 126 43 260t127.5 257.5t197 221.5t264 156.5t315.5 58.5q239 0 422 -121l-103 -127q-64 40 -157 69t-196 29q-105 0 -213.5 -39t-205 -109.5t-173 -178t-113.5 -235.5 q-27 -96 -27 -180q0 -186 117.5 -297.5t318.5 -111.5q193 0 347 116l104 363h-404l40 140h569l-160 -558q-36 -31 -80 -60t-118 -67t-174 -61.5t-208 -23.5z" />
<glyph unicode="&#x121;" horiz-adv-x="1167" d="M861 983q117 0 247 -79l38 59h115l-297 -1033q-9 -30 -18.5 -57t-34 -77.5t-54 -91.5t-79.5 -89t-108 -80t-142 -54t-180 -22q-151 0 -284 64l80 119q107 -46 223 -46q35 0 71 5t87.5 22.5t95.5 47t88 84t73 127.5q17 40 42 130l10 36q-147 -68 -277 -68 q-64 0 -120.5 17.5t-103 53t-74 97.5t-27.5 144q0 80 30 187q32 112 89.5 202t122 145t138 91.5t134.5 51t115 14.5zM642 115q107 0 227 55l180 626q-119 54 -216 54q-137 0 -248.5 -97t-157.5 -256q-22 -75 -22 -145q0 -109 59 -173t178 -64zM881 1421h210l-60 -209h-210z " />
<glyph unicode="&#x122;" horiz-adv-x="1591" d="M1330 1432q239 0 422 -121l-103 -127q-64 40 -157 69t-196 29q-105 0 -213.5 -39t-205 -109.5t-173 -178t-113.5 -235.5q-27 -96 -27 -180q0 -186 117.5 -297.5t318.5 -111.5q193 0 347 116l104 363h-404l40 140h569l-160 -558q-36 -31 -80 -60t-118 -67t-174 -61.5 t-208 -23.5q-136 0 -240 39t-167 108.5t-94.5 158t-31.5 193.5t31 216.5t87.5 217.5t142 200t188 165t231.5 112.5t267 41.5zM846 -141h180l-270 -390h-180z" />
<glyph unicode="&#x123;" horiz-adv-x="1170" d="M862 981q117 0 248 -79l39 61h115l-297 -1035q-9 -30 -18.5 -57t-34 -77.5t-54 -91.5t-79.5 -89t-108.5 -80t-142.5 -54t-181 -22q-151 0 -286 64l81 119q107 -46 223 -46q35 0 71 5t88 23t96 47t88.5 83.5t73.5 127.5q20 48 43 130l10 36q-143 -66 -278 -66 q-65 0 -121 17t-103 52.5t-74.5 97t-27.5 143.5q0 84 29 187q32 112 89.5 202t122 145t138 91.5t135 51t115.5 14.5zM643 113q109 0 229 55l179 626q-120 54 -217 54q-138 0 -249.5 -97t-157.5 -256q-22 -75 -22 -145q0 -109 59.5 -173t178.5 -64zM1041 1547h180l-275 -408 h-180z" />
<glyph unicode="&#x124;" horiz-adv-x="1600" d="M1627 1421h170l-407 -1421h-170l189 658h-760l-189 -658h-170l407 1421h170l-175 -613h760zM1388 1937l174 -286l-118 -88l-120 196l-237 -195l-65 78z" />
<glyph unicode="&#x125;" horiz-adv-x="1178" d="M846 835q-115 0 -279 -74l-218 -761h-164l430 1500h164l-175 -612q199 93 349 93q239 0 239 -215q0 -78 -39 -213l-159 -553h-168l166 580q18 66 18 109q0 146 -164 146zM1140 1937l165 -294l-117 -90l-112 201l-235 -200l-64 80z" />
<glyph unicode="&#x126;" horiz-adv-x="1600" d="M1627 1421h170l-43 -150h150l-39 -138h-150l-325 -1133h-170l189 658h-760l-189 -658h-170l325 1133h-150l39 138h150l43 150h170l-43 -150h760zM1545 1133h-760l-93 -325h760z" />
<glyph unicode="&#x127;" horiz-adv-x="1175" d="M619 1511h164l-63 -218h315l-37 -129h-315l-79 -276q199 93 349 93q239 0 239 -214q0 -74 -32 -189l-166 -578h-168l167 584q18 59 18 107q0 144 -165 144q-115 0 -279 -74l-218 -761h-164l334 1164h-132l37 129h132z" />
<glyph unicode="&#x128;" horiz-adv-x="730" d="M727 1421h170l-407 -1421h-170zM642 1584l-96 28l54 98q87 156 224 156q27 0 47 -7.5t32.5 -22.5t16.5 -22t11 -22l29 -64q23 -51 54 -51q20 0 42 22.5t32 40t13 26.5l55 98l96 -29l-54 -97q-101 -188 -236 -188q-12 0 -23 2t-19.5 5.5t-15.5 7.5t-13 11l-10 10 q-4 5 -8 12l-6 10l-5 10.5t-3 7.5l-29 64q-24 54 -62 54q-37 0 -71 -62z" />
<glyph unicode="&#x129;" horiz-adv-x="512" d="M373 1149l-93 28l54 98q46 82 100 119q55 37 120 37q27 0 46.5 -7.5t31.5 -22t16.5 -23t10.5 -21.5l29 -64q23 -51 52 -51q20 0 41.5 22.5t31.5 40.5t13 26l55 97l93 -28l-53 -97q-101 -188 -233 -188q-70 0 -100 73q-1 2 -1 3l-29 64q-22 54 -60 54q-36 0 -70 -62z M459 988h164l-284 -989h-164z" />
<glyph unicode="&#x12a;" horiz-adv-x="730" d="M727 1421h170l-407 -1421h-170zM687 1697h410l-37 -129h-410z" />
<glyph unicode="&#x12b;" horiz-adv-x="518" d="M459 988h164l-283 -988h-164zM460 1333h359l-37 -129h-359z" />
<glyph unicode="&#x12c;" horiz-adv-x="730" d="M727 1421h170l-407 -1421h-170zM601 1808l142 66q7 -79 47 -124t100 -45q64 0 131 43.5t149 123.5l71 -77q-94 -107 -207.5 -172.5t-217.5 -65.5q-60 0 -103.5 22.5t-66.5 61t-33.5 79.5t-11.5 88z" />
<glyph unicode="&#x12d;" horiz-adv-x="512" d="M459 988h164l-283 -988h-164zM348 1369l139 66q7 -79 45.5 -124t97.5 -45q63 0 128.5 43.5t147.5 123.5l69 -77q-93 -107 -204.5 -172.5t-213.5 -65.5q-59 0 -101.5 22.5t-64.5 61t-32 79.5t-11 88z" />
<glyph unicode="&#x12e;" horiz-adv-x="730" d="M77 -544q-74 0 -113.5 37.5t-39.5 100.5q0 109 109 239t301 216l393 1372h170l-398 -1391q-109 -51 -190 -102.5t-125 -94.5t-66 -75t-30 -61q-5 -20 -5 -34q0 -34 21.5 -54.5t60.5 -20.5q60 0 179 60l22 -90q-172 -102 -289 -102z" />
<glyph unicode="&#x12f;" horiz-adv-x="520" d="M-82 -555q-74 0 -112 37t-38 99q0 75 49 164.5t150 181.5t233 154l260 907h164l-277 -966q-145 -48 -267 -145t-148 -188q-6 -19 -6 -36q0 -35 21.5 -55t58.5 -20q57 0 177 59l23 -88q-169 -104 -288 -104zM569 1421h194l-54 -189h-194z" />
<glyph unicode="&#x130;" horiz-adv-x="730" d="M727 1421h170l-407 -1421h-170zM822 1829h210l-60 -210h-210z" />
<glyph unicode="&#x131;" horiz-adv-x="524" d="M456 963h164l-276 -963h-164z" />
<glyph unicode="&#x132;" horiz-adv-x="1683" d="M1710 1421h170l-285 -995q-31 -111 -72.5 -185t-117.5 -135q-153 -123 -374 -123q-101 0 -189 24l68 142q63 -16 136 -16q61 0 112.5 12.5t87 30t65.5 45.5t47 51t32 55.5t20.5 49t12.5 40.5zM727 1421h170l-407 -1421h-170z" />
<glyph unicode="&#x133;" horiz-adv-x="1039" d="M568 1421h194l-54 -189h-194zM459 988h164l-283 -988h-164zM971 988h164l-323 -1125q-14 -48 -24 -76t-39 -82t-64.5 -91.5t-99.5 -79t-146 -68.5l-25 124q177 74 229 253zM1084 1421h194l-54 -189h-194z" />
<glyph unicode="&#x134;" horiz-adv-x="953" d="M1218 1932l174 -286l-118 -88l-120 196l-237 -195l-66 78zM980 1421h170l-285 -995q-31 -111 -72.5 -185t-117.5 -135q-153 -123 -374 -123q-101 0 -189 24l68 142q63 -16 136 -16q61 0 112.5 12.5t87 30t65.5 45.5t47 51t32 55.5t20.5 49t12.5 40.5z" />
<glyph unicode="&#x135;" horiz-adv-x="516" d="M691 1490l140 -286l-116 -88l-91 186l-202 -185l-63 78zM459 988h164l-323 -1125q-14 -47 -24 -76t-39.5 -82.5t-65.5 -91t-100 -79t-146 -68.5l-25 124q181 77 231 256z" />
<glyph unicode="&#x136;" horiz-adv-x="1417" d="M697 1421h170l-407 -1421h-170zM1493 1421h213l-795 -678l426 -743h-219l-425 729zM613 -122h180l-270 -390h-180z" />
<glyph unicode="&#x137;" horiz-adv-x="1069" d="M434 -122h180l-270 -390h-180zM609 1511h164l-433 -1511h-164zM1077 1008h181l-554 -445l291 -563h-197l-286 546z" />
<glyph unicode="&#x138;" horiz-adv-x="1061" d="M452 963h164l-276 -963h-164zM1040 963h170l-526 -449l303 -514h-201l-289 493z" />
<glyph unicode="&#x139;" horiz-adv-x="1133" d="M697 1421h170l-364 -1272h638l-43 -149h-808zM1354 1976l34 -123l-596 -295l-31 108z" />
<glyph unicode="&#x13a;" horiz-adv-x="553" d="M628 1511h164l-433 -1511h-164zM1240 2051l33 -123l-588 -295l-30 108z" />
<glyph unicode="&#x13b;" horiz-adv-x="1133" d="M697 1421h170l-364 -1272h638l-43 -149h-808zM411 -122h180l-270 -390h-180z" />
<glyph unicode="&#x13c;" horiz-adv-x="564" d="M633 1511h164l-433 -1511h-164zM193 -122h180l-270 -390h-180z" />
<glyph unicode="&#x13d;" horiz-adv-x="1133" d="M697 1421h170l-364 -1272h638l-43 -149h-808zM1241 1421h180l-269 -390h-180z" />
<glyph unicode="&#x13e;" horiz-adv-x="802" d="M628 1511h164l-433 -1511h-164zM1016 1511h165l-230 -390h-165z" />
<glyph unicode="&#x13f;" horiz-adv-x="1133" d="M697 1421h170l-364 -1272h638l-43 -149h-808zM915 823h210l-60 -210h-210z" />
<glyph unicode="&#x140;" horiz-adv-x="819" d="M628 1511h164l-433 -1511h-164zM765 838h210l-60 -210h-210z" />
<glyph unicode="&#x141;" horiz-adv-x="1133" d="M697 1421h170l-170 -595l303 150l-49 -172l-303 -150l-145 -505h638l-43 -149h-808l159 555l-168 -83l50 172l167 83z" />
<glyph unicode="&#x142;" horiz-adv-x="678" d="M658 1511h164l-191 -663l243 123l-43 -150l-243 -123l-200 -698h-164l173 604l-159 -81l42 149l160 81z" />
<glyph unicode="&#x143;" horiz-adv-x="1659" d="M697 1421h215l434 -1189l340 1189h170l-407 -1421h-215l-432 1191l-342 -1191h-170zM1659 1976l34 -123l-596 -295l-31 108z" />
<glyph unicode="&#x144;" horiz-adv-x="1164" d="M452 963h115l12 -84q217 104 371 104q231 0 231 -204q0 -80 -36 -204l-165 -575h-165l167 583q19 68 19 110q0 142 -165 142q-114 0 -278 -74l-218 -761h-164zM1280 1546l32 -131l-589 -306l-28 113z" />
<glyph unicode="&#x145;" horiz-adv-x="1659" d="M697 1421h215l434 -1189l340 1189h170l-407 -1421h-215l-432 1191l-342 -1191h-170zM726 -122h180l-270 -390h-180z" />
<glyph unicode="&#x146;" horiz-adv-x="1173" d="M452 963h115l12 -84q219 104 375 104q234 0 234 -206q0 -80 -36 -206l-166 -580h-165l169 589q19 68 19 111q0 144 -168 144q-116 0 -284 -75l-220 -769h-164zM459 -129h180l-268 -383h-180z" />
<glyph unicode="&#x147;" horiz-adv-x="1659" d="M697 1421h215l434 -1189l340 1189h170l-407 -1421h-215l-432 1191l-342 -1191h-170zM1353 1558l-174 286l119 88l119 -196l237 195l65 -78z" />
<glyph unicode="&#x148;" horiz-adv-x="1164" d="M452 963h115l12 -84q217 104 371 104q231 0 231 -204q0 -80 -36 -204l-165 -575h-165l167 583q19 68 19 110q0 142 -165 142q-114 0 -278 -74l-218 -761h-164zM905 1109l-163 301l117 92l112 -205l236 204l63 -84z" />
<glyph unicode="&#x149;" horiz-adv-x="1333" d="M621 963h115l12 -84q217 104 372 104q231 0 231 -204q0 -80 -36 -204l-165 -575h-165l167 583q19 68 19 110q0 142 -165 142q-115 0 -279 -74l-218 -761h-164zM544 1421h150l-131 -458h-150z" />
<glyph unicode="&#x14a;" horiz-adv-x="1648" d="M1428 -35q-22 -76 -58 -135.5t-77.5 -95.5t-91 -59t-95 -31.5t-93.5 -8.5q-94 0 -217 35l60 122q96 -20 150 -20q199 0 259 218l249 867q40 141 40 220q0 162 -134 216q-53 21 -127 21q-171 0 -495 -136l-338 -1178h-170l407 1421h111l19 -93q386 155 582 155 q168 0 254 -85t86 -229q0 -43 -7 -84q-10 -64 -42 -173z" />
<glyph unicode="&#x14b;" horiz-adv-x="1163" d="M836 835q-116 0 -279 -75l-219 -765h-164l278 968h115l11 -83q211 102 367 102q234 0 234 -213q0 -75 -31 -182l-175 -609q-21 -73 -49 -128t-70.5 -101.5t-104.5 -71t-140 -24.5t-211 37l59 122q114 -21 143 -21q156 0 209 189l173 601q19 68 19 110q0 144 -165 144z " />
<glyph unicode="&#x14c;" horiz-adv-x="1686" d="M1579 709q32 113 32 209q0 181 -106.5 275t-263.5 94q-70 0 -143.5 -20.5t-149 -65t-141 -108.5t-121 -158t-87.5 -207q-33 -117 -33 -214q0 -177 98 -278.5t264 -101.5q71 0 145.5 21t150.5 66.5t142.5 111.5t123 163t89.5 213zM1296 1436q230 0 365 -125t135 -345 q0 -112 -37 -239q-95 -330 -343 -536t-543 -206q-104 0 -192.5 29.5t-156 87t-106 149t-38.5 207.5q0 115 38 249q95 330 340.5 529.5t537.5 199.5zM1019 1697h740l-37 -129h-740z" />
<glyph unicode="&#x14d;" horiz-adv-x="1195" d="M881 982q160 0 255 -82.5t95 -234.5q0 -76 -25 -164q-69 -239 -243 -380t-385 -141q-159 0 -250.5 84.5t-91.5 235.5q0 81 26 171q67 234 237 372.5t382 138.5zM828 842q-76 0 -153.5 -37.5t-145.5 -118t-99 -188.5q-20 -71 -20 -132q0 -110 59.5 -178t166.5 -68 q128 0 242 97t158 252q20 69 20 131q0 115 -65.5 178.5t-162.5 63.5zM630 1333h724l-37 -129h-724z" />
<glyph unicode="&#x14e;" horiz-adv-x="1686" d="M1044 1816l142 66q7 -34 20 -64t35.5 -59t59.5 -46.5t83 -17.5q81 0 174 54.5t175 132.5l91 -77q-110 -106 -243.5 -177t-252.5 -71q-68 0 -122 22.5t-87.5 60t-52 82.5t-22.5 94zM1579 709q32 113 32 209q0 181 -106.5 275t-263.5 94q-70 0 -143.5 -20.5t-149 -65 t-141 -108.5t-121 -158t-87.5 -207q-33 -117 -33 -214q0 -177 98 -278.5t264 -101.5q71 0 145.5 21t150.5 66.5t142.5 111.5t123 163t89.5 213zM1296 1436q230 0 365 -125t135 -345q0 -112 -37 -239q-95 -330 -343 -536t-543 -206q-104 0 -192.5 29.5t-156 87t-106 149 t-38.5 207.5q0 115 38 249q95 330 340.5 529.5t537.5 199.5z" />
<glyph unicode="&#x14f;" horiz-adv-x="1195" d="M881 982q160 0 255 -82.5t95 -234.5q0 -76 -25 -164q-69 -239 -243 -380t-385 -141q-159 0 -250.5 84.5t-91.5 235.5q0 81 26 171q67 234 237 372.5t382 138.5zM828 842q-76 0 -153.5 -37.5t-145.5 -118t-99 -188.5q-20 -71 -20 -132q0 -110 59.5 -178t166.5 -68 q128 0 242 97t158 252q20 69 20 131q0 115 -65.5 178.5t-162.5 63.5zM658 1377l141 71q5 -36 17.5 -69t33.5 -64.5t56.5 -50t80.5 -18.5q79 0 172 59t175 143l88 -83q-111 -111 -241.5 -184t-247.5 -73q-128 0 -198 79.5t-77 189.5z" />
<glyph unicode="&#x150;" horiz-adv-x="1686" d="M2016 1994l48 -116l-582 -339l-42 102zM1496 1994l48 -116l-582 -339l-42 102zM1579 709q32 113 32 209q0 181 -106.5 275t-263.5 94q-70 0 -143.5 -20.5t-149 -65t-141 -108.5t-121 -158t-87.5 -207q-33 -117 -33 -214q0 -177 98 -278.5t264 -101.5q71 0 145.5 21 t150.5 66.5t142.5 111.5t123 163t89.5 213zM1296 1436q230 0 365 -125t135 -345q0 -112 -37 -239q-95 -330 -343 -536t-543 -206q-104 0 -192.5 29.5t-156 87t-106 149t-38.5 207.5q0 115 38 249q95 330 340.5 529.5t537.5 199.5z" />
<glyph unicode="&#x151;" horiz-adv-x="1193" d="M881 982q160 0 255 -82.5t95 -234.5q0 -76 -25 -164q-69 -239 -243 -380t-385 -141q-159 0 -250.5 84.5t-91.5 235.5q0 81 26 171q67 234 237 372.5t382 138.5zM828 842q-76 0 -153.5 -37.5t-145.5 -118t-99 -188.5q-20 -71 -20 -132q0 -110 59.5 -178t166.5 -68 q128 0 242 97t158 252q20 69 20 131q0 115 -65.5 178.5t-162.5 63.5zM1494 1549l57 -114l-465 -329l-48 104zM1062 1549l57 -114l-461 -329l-48 104z" />
<glyph unicode="&#x152;" horiz-adv-x="1998" d="M1414 1271h-57q-125 0 -190 -10q-208 -31 -361 -179.5t-220 -380.5q-30 -104 -30 -192q0 -215 166 -310q53 -31 108.5 -40t136.5 -9h126zM742 1224q67 54 144.5 92.5t144 58.5t151.5 30.5t143.5 13t143.5 2.5h776l-43 -150h-618l-133 -464h563l-43 -150h-563l-145 -507 h618l-43 -150h-865q-122 0 -213 11.5t-164 46.5q-220 107 -220 385q0 118 41 260q97 338 325 521z" />
<glyph unicode="&#x153;" horiz-adv-x="1776" d="M617 118q83 0 158.5 46.5t125.5 118t79 157t29 164.5q0 103 -50.5 168t-151.5 65q-125 0 -231 -98.5t-149 -249.5q-20 -67 -20 -134q0 -107 55 -172t155 -65zM1501 831q-120 0 -213.5 -92.5t-130.5 -219.5h478q26 93 26 154q0 158 -160 158zM1576 972q252 0 252 -232 q0 -98 -50 -270l-22 -75h-638q-9 -33 -9 -67q0 -92 68.5 -156t207.5 -64q88 0 215 35l-5 -111q-159 -55 -310 -55q-261 0 -320 181q-173 -178 -406 -178q-154 0 -239 82.5t-85 230.5q0 84 28 181q66 231 229.5 367t370.5 136q123 0 200 -50.5t104 -143.5q56 60 118.5 100.5 t119 58t96 24t75.5 6.5z" />
<glyph unicode="&#x154;" horiz-adv-x="1438" d="M1524 1031q-20 -71 -55.5 -135t-88.5 -122t-128.5 -100.5t-166.5 -62.5l226 -611h-190l-215 593q-11 0 -32.5 -0.5t-32.5 -0.5h-210l-170 -592h-171l407 1421h522q49 0 83 -3t75.5 -12.5t73.5 -32t55 -57.5q39 -58 39 -147q0 -63 -21 -138zM674 742h245q126 0 215 29.5 t156 120.5q31 42 50.5 96.5t19.5 105.5q0 137 -138 168q-43 10 -137 10h-259zM1501 1976l34 -123l-596 -295l-31 108z" />
<glyph unicode="&#x155;" horiz-adv-x="789" d="M577 889q148 93 296 93q99 0 173 -40l-86 -129q-67 29 -148 29h-2q-122 0 -248 -67l-222 -775h-164l276 963h115zM1039 1549l57 -114l-461 -329l-50 104z" />
<glyph unicode="&#x156;" horiz-adv-x="1438" d="M429 -122h180l-270 -390h-180zM674 742h245q126 0 215 29.5t156 120.5q31 42 50.5 96.5t19.5 105.5q0 137 -138 168q-43 10 -137 10h-259zM1524 1031q-20 -71 -55.5 -135t-88.5 -122t-128.5 -100.5t-166.5 -62.5l226 -611h-190l-215 593q-11 0 -32.5 -0.5t-32.5 -0.5 h-210l-170 -592h-171l407 1421h522q49 0 83 -3t75.5 -12.5t73.5 -32t55 -57.5q39 -58 39 -147q0 -63 -21 -138z" />
<glyph unicode="&#x157;" horiz-adv-x="790" d="M580 889q148 93 297 93q99 0 173 -40l-86 -129q-64 29 -148 29h-2q-123 0 -249 -67l-224 -784h-164l279 972h115zM146 -129h180l-267 -383h-180z" />
<glyph unicode="&#x158;" horiz-adv-x="1438" d="M1524 1031q-20 -71 -55.5 -135t-88.5 -122t-128.5 -100.5t-166.5 -62.5l226 -611h-190l-215 593q-11 0 -32.5 -0.5t-32.5 -0.5h-210l-170 -592h-171l407 1421h522q49 0 83 -3t75.5 -12.5t73.5 -32t55 -57.5q39 -58 39 -147q0 -63 -21 -138zM674 742h245q126 0 215 29.5 t156 120.5q31 42 50.5 96.5t19.5 105.5q0 137 -138 168q-43 10 -137 10h-259zM1146 1558l-174 286l118 88l120 -196l237 195l65 -78z" />
<glyph unicode="&#x159;" horiz-adv-x="789" d="M577 889q148 93 296 93q99 0 173 -40l-86 -129q-67 29 -148 29h-2q-122 0 -248 -67l-222 -775h-164l276 963h115zM801 1105l-166 301l120 92l112 -206l235 205l63 -80z" />
<glyph unicode="&#x15a;" horiz-adv-x="1361" d="M1232 1434q164 0 337 -57l-100 -155q-164 52 -297 52q-148 0 -268.5 -63t-148.5 -161q-7 -22 -7 -46q0 -47 33 -84t86.5 -62t117.5 -48.5t128 -51t117.5 -61t86.5 -85.5t33 -119q0 -43 -15 -96q-16 -57 -50.5 -113.5t-92.5 -112t-132 -97.5t-176 -68t-218 -26t-206 24 t-198 72l105 165q224 -93 368 -93q152 0 265.5 61t142.5 163q8 25 8 53q0 50 -33.5 89t-86.5 64.5t-117 48.5l-128 49q-65 25 -118 56.5t-86.5 82t-33.5 115.5q0 44 14 92q49 171 236.5 291.5t433.5 120.5zM1501 1976l34 -123l-596 -295l-31 108z" />
<glyph unicode="&#x15b;" horiz-adv-x="1005" d="M862 982q21 0 39 -0.5t35 -2.5t28.5 -3t27 -4t22.5 -4.5t23 -5.5l19 -6q4 -1 22 -7l20 -7l-78 -124q-125 36 -221 36q-71 0 -126.5 -16.5t-85 -42t-44.5 -47.5t-21 -42q-3 -10 -3 -20q0 -32 33.5 -58.5t83.5 -44t108.5 -41t108.5 -48t83.5 -66.5t33.5 -95q0 -27 -9 -58 q-12 -40 -33 -77.5t-62 -78t-95 -70.5t-137 -49.5t-182 -19.5q-150 0 -309 75l80 122q91 -37 151 -52.5t121 -15.5q240 0 283 151q3 12 3 23q0 39 -45.5 67t-110.5 48.5t-130 45.5t-110.5 71t-45.5 111q0 32 10 66q10 35 32 71.5t64.5 77t97.5 71t138.5 50.5t180.5 20z M1108 1549l58 -114l-463 -329l-48 104z" />
<glyph unicode="&#x15c;" horiz-adv-x="1361" d="M1269 1932l174 -286l-118 -88l-120 196l-237 -195l-66 78zM1232 1434q164 0 337 -57l-100 -155q-164 52 -297 52q-148 0 -268.5 -63t-148.5 -161q-7 -22 -7 -46q0 -47 33 -84t86.5 -62t117.5 -48.5t128 -51t117.5 -61t86.5 -85.5t33 -119q0 -43 -15 -96 q-16 -57 -50.5 -113.5t-92.5 -112t-132 -97.5t-176 -68t-218 -26t-206 24t-198 72l105 165q224 -93 368 -93q152 0 265.5 61t142.5 163q8 25 8 53q0 50 -33.5 89t-86.5 64.5t-117 48.5l-128 49q-65 25 -118 56.5t-86.5 82t-33.5 115.5q0 44 14 92q49 171 236.5 291.5 t433.5 120.5z" />
<glyph unicode="&#x15d;" horiz-adv-x="1005" d="M862 982q21 0 39 -0.5t35 -2.5t28.5 -3t27 -4t22.5 -4.5t23 -5.5l19 -6q4 -1 22 -7l20 -7l-78 -124q-125 36 -221 36q-71 0 -126.5 -16.5t-85 -42t-44.5 -47.5t-21 -42q-3 -10 -3 -20q0 -32 33.5 -58.5t83.5 -44t108.5 -41t108.5 -48t83.5 -66.5t33.5 -95q0 -27 -9 -58 q-12 -40 -33 -77.5t-62 -78t-95 -70.5t-137 -49.5t-182 -19.5q-150 0 -309 75l80 122q91 -37 151 -52.5t121 -15.5q240 0 283 151q3 12 3 23q0 39 -45.5 67t-110.5 48.5t-130 45.5t-110.5 71t-45.5 111q0 32 10 66q10 35 32 71.5t64.5 77t97.5 71t138.5 50.5t180.5 20z M976 1498l166 -300l-120 -93l-112 206l-236 -205l-63 82z" />
<glyph unicode="&#x15e;" horiz-adv-x="1361" d="M856 -316q-22 -77 -97 -133.5t-169 -56.5q-37 0 -72 8t-150 45l60 104q150 -50 200 -50q43 0 73.5 21t38.5 50q3 12 3 21q0 8 -2 15t-8 13.5t-12 11.5t-18 10.5t-22 9.5t-27 10l-32 11l-38 12l-42 13l101 181q-107 0 -190 24t-191 72l105 165q224 -93 368 -93 q152 0 265.5 61t142.5 163q8 25 8 53q0 50 -33.5 89t-86.5 64.5t-117 48.5l-128 49q-65 25 -118 56.5t-86.5 82t-33.5 115.5q0 44 14 92q49 171 236.5 291.5t433.5 120.5q164 0 337 -57l-100 -155q-164 52 -297 52q-148 0 -268.5 -63t-148.5 -161q-7 -22 -7 -46 q0 -47 33 -84t86.5 -62t117.5 -48.5t128 -51t117.5 -61t86.5 -85.5t33 -119q0 -43 -15 -96q-18 -64 -60 -127t-106.5 -121.5t-162 -102t-211.5 -58.5l-67 -123l8 -3q9 -2 15.5 -4t18.5 -6.5t21 -9.5l21 -14q11 -7 19.5 -16.5t16 -21t11.5 -26.5t4 -32q0 -24 -7 -48z" />
<glyph unicode="&#x15f;" horiz-adv-x="1007" d="M521 -326q3 12 3 22q0 11 -4 20.5t-14 17.5t-19.5 14t-29 14t-33.5 12l-42 14l-46 16l96 176q-143 6 -289 75l80 122q92 -37 152 -52.5t121 -15.5q241 0 284 151q3 12 3 23q0 33 -33 59t-82 41.5t-107 37t-107 44.5t-82 65t-33 97q0 31 10 65q10 35 32 71.5t64.5 77 t98 71t138.5 50.5t181 20q21 0 39 -0.5t35 -2.5t29 -3t27.5 -4t22.5 -4.5t23 -5.5l19 -6q4 -1 22 -7l20 -7l-78 -124q-125 36 -222 36q-72 0 -127.5 -16.5t-85 -42t-44.5 -47.5t-21 -42q-3 -10 -3 -20q0 -32 33.5 -58.5t84 -44t109 -41t109 -48t84 -66.5t33.5 -95 q0 -27 -9 -58q-13 -45 -39.5 -87t-72 -85t-121 -74.5t-170.5 -42.5l-66 -122l16 -5l21 -7q6 -2 22 -9t23 -13l20 -16q13 -11 19 -22t11 -26.5t5 -32.5q0 -23 -7 -48q-21 -71 -91 -127t-162 -56q-21 0 -44 3.5t-49 10.5l-42 12q-15 4 -42.5 14t-31.5 11l52 91 q140 -47 188 -47q45 0 77.5 22.5t41.5 54.5z" />
<glyph unicode="&#x160;" horiz-adv-x="1361" d="M1232 1434q164 0 337 -57l-100 -155q-164 52 -297 52q-148 0 -268.5 -63t-148.5 -161q-7 -22 -7 -46q0 -47 33 -84t86.5 -62t117.5 -48.5t128 -51t117.5 -61t86.5 -85.5t33 -119q0 -43 -15 -96q-16 -57 -50.5 -113.5t-92.5 -112t-132 -97.5t-176 -68t-218 -26t-206 24 t-198 72l105 165q224 -93 368 -93q152 0 265.5 61t142.5 163q8 25 8 53q0 50 -33.5 89t-86.5 64.5t-117 48.5l-128 49q-65 25 -118 56.5t-86.5 82t-33.5 115.5q0 44 14 92q49 171 236.5 291.5t433.5 120.5zM1186 1558l-174 286l118 88l120 -196l237 195l65 -78z" />
<glyph unicode="&#x161;" horiz-adv-x="1005" d="M862 982q21 0 39 -0.5t35 -2.5t28.5 -3t27 -4t22.5 -4.5t23 -5.5l19 -6q4 -1 22 -7l20 -7l-78 -124q-125 36 -221 36q-71 0 -126.5 -16.5t-85 -42t-44.5 -47.5t-21 -42q-3 -10 -3 -20q0 -32 33.5 -58.5t83.5 -44t108.5 -41t108.5 -48t83.5 -66.5t33.5 -95q0 -27 -9 -58 q-12 -40 -33 -77.5t-62 -78t-95 -70.5t-137 -49.5t-182 -19.5q-150 0 -309 75l80 122q91 -37 151 -52.5t121 -15.5q240 0 283 151q3 12 3 23q0 39 -45.5 67t-110.5 48.5t-130 45.5t-110.5 71t-45.5 111q0 32 10 66q10 35 32 71.5t64.5 77t97.5 71t138.5 50.5t180.5 20z M838 1105l-165 301l119 92l112 -206l236 205l65 -80z" />
<glyph unicode="&#x162;" horiz-adv-x="1210" d="M533 -398q51 0 77.5 23.5t34.5 49.5q2 10 2 14q0 16 -10 29t-35.5 25.5t-42 18.5t-58.5 19t-56 18l39 69l32 56l20.5 38.5t18.5 38.5t13.5 37t17.5 50l17 62l321 1121h-475l43 150h1120l-43 -150h-475l-318 -1111q-31 -106 -55 -164.5t-69 -133.5q115 -38 115 -126 q0 -27 -8 -52q-21 -74 -96 -132t-172 -58q-17 0 -35 2t-31 4.5t-35 8.5t-34 10l-42 13l-44 15l61 104q149 -49 202 -49z" />
<glyph unicode="&#x163;" horiz-adv-x="745" d="M562 1271h164l-88 -308h296l-37 -129h-296l-153 -535q-17 -62 -17 -95q0 -106 118 -106q30 0 157 21l-10 -110q-114 -29 -189 -36l-62 -115q1 0 14 -4t18.5 -6.5t19.5 -7.5t21 -10l20 -12q11 -8 18 -17l14 -19q7 -11 10 -25t3 -29q0 -22 -7 -46q-20 -69 -90.5 -124.5 t-163.5 -55.5q-21 0 -43.5 3t-49.5 11l-41 11q-15 4 -44 14l-32 11l52 90q139 -45 190 -45q45 0 77.5 22t41.5 53q3 12 3 21q0 11 -3.5 20t-14 17.5t-19.5 14t-29 13l-34 12.5l-44 14l-47 15l102 181q-129 30 -129 170q0 59 21 131l158 553h-130l37 129h130z" />
<glyph unicode="&#x164;" horiz-adv-x="1210" d="M492 1421h1120l-43 -150h-475l-364 -1271h-170l364 1271h-475zM1105 1558l-174 286l118 88l120 -196l237 195l65 -78z" />
<glyph unicode="&#x165;" horiz-adv-x="748" d="M1067 1527h180l-275 -408h-180zM559 1259h164l-85 -296h298l-37 -129h-298l-151 -528q-16 -59 -16 -92q0 -106 119 -106q29 0 158 20l-9 -111q-154 -37 -237 -37q-206 0 -206 175q0 60 25 147l153 532h-130l37 129h130z" />
<glyph unicode="&#x166;" horiz-adv-x="1210" d="M492 1421h1120l-43 -150h-475l-148 -518h357l-43 -150h-357l-173 -603h-170l173 603h-306l43 150h306l148 518h-475z" />
<glyph unicode="&#x167;" horiz-adv-x="743" d="M696 17q-154 -37 -232 -37q-204 0 -204 177q0 63 24 145l47 163h-129l31 109h129l75 260h-130l37 129h130l88 308h164l-88 -308h294l-37 -129h-294l-75 -260h294l-31 -109h-294l-46 -160q-16 -59 -16 -91q0 -106 118 -106q28 0 155 20z" />
<glyph unicode="&#x168;" horiz-adv-x="1580" d="M697 1421h170l-264 -921q-28 -97 -28 -151q0 -62 29 -109q69 -113 262 -113q141 0 254 61.5t172 173.5q26 48 51 138l264 921h170l-229 -801q-5 -16 -15 -54q-44 -173 -94 -266q-172 -320 -615 -320q-80 0 -145.5 11.5t-109.5 29.5t-77.5 44t-52 52t-29.5 57.5 t-14.5 55.5t-3.5 50v20q2 48 15 105t36.5 134.5t24.5 80.5zM1452 1682q17 0 34.5 7.5t31 17t33 31l30.5 34.5l35 46l37 46l92 -47q-5 -7 -27.5 -36.5l-31.5 -40.5l-30 -36q-22 -27 -35 -39l-35 -33q-21 -20 -38.5 -30t-40 -21.5t-45 -16t-45.5 -4.5q-44 0 -79 18.5t-57.5 45 t-42 53t-42 45t-47.5 18.5q-15 0 -29 -4.5t-29 -15.5t-26 -20.5t-28 -29.5l-27 -32l-30 -40l-32 -40l-92 47q5 7 27.5 36.5l31.5 40.5l31 36q21 27 34 39l34 33q22 20 39.5 30t40 21.5t45 16t45.5 4.5q44 0 79 -18.5t57.5 -45t42 -53t42 -45t47.5 -18.5z" />
<glyph unicode="&#x169;" horiz-adv-x="1168" d="M1100 988h164l-284 -988h-115l-11 83q-215 -103 -372 -103q-229 0 -229 206q0 85 37 212l169 590h164l-173 -602q-19 -65 -19 -113q0 -146 164 -146q114 0 280 77zM1096 1248q15 0 29 4.5t28.5 15.5t26 21t28 29.5t26.5 32.5l30 39l31 40l91 -47q-5 -7 -28 -37l-30 -40 l-30 -36q-22 -27 -34 -39l-34 -33q-22 -20 -40 -30l-39 -22q-22 -11 -44 -15.5t-45 -4.5q-43 0 -77.5 18.5t-56.5 45t-41 53t-41 45t-46 18.5q-15 0 -28.5 -4.5t-28.5 -15t-26 -20.5t-27 -30l-27 -32l-30 -40l-31 -40l-93 47q4 5 27.5 36.5t31 40t30 37t34.5 39t34.5 32 t39.5 30.5l38 21q23 12 45 16.5t45 4.5q43 0 77.5 -18.5t56.5 -45t41 -53t41 -45t46 -18.5z" />
<glyph unicode="&#x16a;" horiz-adv-x="1580" d="M697 1421h170l-264 -921q-28 -97 -28 -151q0 -62 29 -109q69 -113 262 -113q141 0 254 61.5t172 173.5q26 48 51 138l264 921h170l-229 -801q-5 -16 -15 -54q-44 -173 -94 -266q-172 -320 -615 -320q-80 0 -145.5 11.5t-109.5 29.5t-77.5 44t-52 52t-29.5 57.5 t-14.5 55.5t-3.5 50v20q2 48 15 105t36.5 134.5t24.5 80.5zM882 1697h830l-37 -129h-830z" />
<glyph unicode="&#x16b;" horiz-adv-x="1164" d="M1100 988h164l-284 -988h-115l-11 83q-215 -103 -372 -103q-229 0 -229 206q0 85 37 212l169 590h164l-173 -602q-19 -65 -19 -113q0 -146 164 -146q114 0 280 77zM671 1333h586l-37 -129h-586z" />
<glyph unicode="&#x16c;" horiz-adv-x="1580" d="M897 1816l142 66q7 -34 20 -64t35.5 -59t59.5 -46.5t83 -17.5q81 0 174 54.5t175 132.5l91 -77q-110 -106 -243.5 -177t-252.5 -71q-68 0 -122 22.5t-87.5 60t-52 82.5t-22.5 94zM697 1421h170l-264 -921q-28 -97 -28 -151q0 -62 29 -109q69 -113 262 -113 q141 0 254 61.5t172 173.5q26 48 51 138l264 921h170l-229 -801q-5 -16 -15 -54q-44 -173 -94 -266q-172 -320 -615 -320q-80 0 -145.5 11.5t-109.5 29.5t-77.5 44t-52 52t-29.5 57.5t-14.5 55.5t-3.5 50v20q1 37 9.5 80t16 71t25.5 85.5t25 83.5z" />
<glyph unicode="&#x16d;" horiz-adv-x="1164" d="M1100 988h164l-284 -988h-115l-11 83q-215 -103 -372 -103q-229 0 -229 206q0 85 37 212l169 590h164l-173 -602q-19 -65 -19 -113q0 -146 164 -146q114 0 280 77zM600 1382l143 66q6 -34 19 -64t34.5 -59t57.5 -46.5t81 -17.5q79 0 170.5 54.5t171.5 132.5l91 -77 q-110 -107 -240.5 -177.5t-247.5 -70.5q-129 0 -200.5 76.5t-79.5 182.5z" />
<glyph unicode="&#x16e;" horiz-adv-x="1580" d="M1385 2007q73 0 119 -45.5t46 -116.5q0 -29 -9 -62q-27 -93 -110.5 -159t-173.5 -66q-73 0 -119 45.5t-46 116.5q0 30 9 63q27 93 110.5 158.5t173.5 65.5zM1359 1916q-55 0 -104 -39.5t-64 -93.5q-6 -19 -6 -38q0 -41 26 -68.5t72 -27.5q54 0 102.5 40.5t63.5 93.5 q5 16 5 37q0 41 -25.5 68.5t-69.5 27.5zM697 1421h170l-264 -921q-28 -97 -28 -151q0 -62 29 -109q69 -113 262 -113q141 0 254 61.5t172 173.5q26 48 51 138l264 921h170l-229 -801q-5 -16 -15 -54q-44 -173 -94 -266q-172 -320 -615 -320q-80 0 -145.5 11.5t-109.5 29.5 t-77.5 44t-52 52t-29.5 57.5t-14.5 55.5t-3.5 50v20q1 37 9.5 80t16 71t25.5 85.5t25 83.5z" />
<glyph unicode="&#x16f;" horiz-adv-x="1169" d="M1104 988h164l-283 -988h-115l-11 83q-216 -103 -375 -103q-231 0 -231 206q0 85 37 212l169 590h164l-173 -602q-19 -65 -19 -113q0 -146 166 -146q114 0 282 77zM1035 1573q72 0 116.5 -45t44.5 -115q0 -31 -9 -64q-27 -93 -109 -159t-171 -66q-72 0 -116.5 45 t-44.5 116q0 31 9 64q27 93 109 158.5t171 65.5zM1009 1482q-54 0 -101.5 -39.5t-62.5 -93.5q-6 -19 -6 -40q0 -41 25 -67.5t69 -26.5q53 0 100 40.5t62 93.5q6 19 6 38q0 41 -25 68t-67 27z" />
<glyph unicode="&#x170;" horiz-adv-x="1580" d="M697 1421h170l-264 -921q-28 -97 -28 -151q0 -62 29 -109q69 -113 262 -113q141 0 254 61.5t172 173.5q26 48 51 138l264 921h170l-229 -801q-5 -16 -15 -54q-44 -173 -94 -266q-172 -320 -615 -320q-80 0 -145.5 11.5t-109.5 29.5t-77.5 44t-52 52t-29.5 57.5 t-14.5 55.5t-3.5 50v20q1 37 9.5 80t16 71t25.5 85.5t25 83.5zM1437 1984l47 -116l-582 -339l-41 102zM1957 1984l47 -116l-582 -339l-41 102z" />
<glyph unicode="&#x171;" horiz-adv-x="1164" d="M1100 988h164l-284 -988h-115l-11 83q-215 -103 -372 -103q-229 0 -229 206q0 85 37 212l169 590h164l-173 -602q-19 -65 -19 -113q0 -146 164 -146q114 0 280 77zM1053 1549l58 -109l-457 -315l-51 100zM1504 1549l59 -109l-461 -315l-50 100z" />
<glyph unicode="&#x172;" horiz-adv-x="1580" d="M427 485l21 67q14 45 20 68l229 801h170l-264 -921q-28 -97 -28 -151q0 -62 29 -109q69 -113 262 -113q141 0 254 61.5t172 173.5q26 48 51 138l264 921h170l-264 -927q-27 -94 -59 -163.5t-65.5 -116t-83.5 -84.5t-97.5 -62.5t-122.5 -55.5q-91 -38 -163 -84.5 t-113.5 -90t-63.5 -78t-30 -61.5q-5 -16 -5 -36q0 -35 21.5 -54.5t60.5 -19.5q69 0 178 61l23 -92q-161 -102 -291 -102q-75 0 -113 37t-38 100q0 89 71 198t193 190q-422 0 -422 306q0 83 34 199z" />
<glyph unicode="&#x173;" horiz-adv-x="1172" d="M424 -354q31 108 145 195.5t303 165.5l-11 74q-210 -101 -367 -101q-72 0 -121 22q-121 52 -121 191q0 75 39 211q2 8 8.5 22t8.5 22l148 515h164l-166 -579q-20 -70 -20 -112q0 -100 92 -133q33 -12 75 -12q117 0 281 75l218 761h164l-289 -1008l-59 -27 q-41 -18 -60 -28l-56 -26q-36 -17 -55 -28l-47 -28q-27 -17 -43 -31t-33.5 -31.5t-28 -36t-16.5 -38.5q-5 -16 -5 -35q0 -65 78 -65q70 0 180 52l24 -82q-168 -94 -285 -94q-74 0 -114 36.5t-40 95.5q0 27 9 57z" />
<glyph unicode="&#x174;" horiz-adv-x="2155" d="M547 1421h182l15 -1194l702 1194h171l28 -1194l689 1194h168l-833 -1421h-181l-33 1187l-689 -1187h-181zM1685 1936l174 -286l-117 -88l-120 196l-238 -195l-65 78z" />
<glyph unicode="&#x175;" horiz-adv-x="1654" d="M342 988h175l23 -829l486 829h157l20 -828l498 828h175l-639 -988h-161l-27 801l-483 -801h-161zM1257 1503l168 -286l-115 -88l-115 196l-234 -195l-63 78z" />
<glyph unicode="&#x176;" horiz-adv-x="1263" d="M507 1421h201l194 -587l538 587h190l-698 -748l-193 -673h-170l193 673zM1232 1932l174 -286l-117 -88l-120 196l-238 -195l-66 78z" />
<glyph unicode="&#x177;" horiz-adv-x="1039" d="M332 988h170l72 -838l527 838h170l-995 -1519h-175l343 493zM967 1498l167 -286l-116 -88l-115 196l-235 -195l-65 78z" />
<glyph unicode="&#x178;" horiz-adv-x="1263" d="M507 1421h201l194 -587l538 587h190l-698 -748l-193 -673h-170l193 673zM1337 1898h185l-53 -185h-185zM887 1898h185l-53 -185h-185z" />
<glyph unicode="&#x179;" horiz-adv-x="1358" d="M592 1421h1086l-31 -109l-1223 -1162h917l-43 -150h-1143l32 111l1205 1160h-843zM1528 1976l34 -123l-596 -295l-31 108z" />
<glyph unicode="&#x17a;" horiz-adv-x="1058" d="M422 963h735l-25 -87l-741 -747h551l-37 -129h-759l25 87l739 747h-525zM1113 1549l57 -114l-461 -329l-48 105z" />
<glyph unicode="&#x17b;" horiz-adv-x="1358" d="M592 1421h1086l-31 -109l-1223 -1162h917l-43 -150h-1143l32 111l1205 1160h-843zM1130 1829h210l-60 -210h-210z" />
<glyph unicode="&#x17c;" horiz-adv-x="1063" d="M422 963h739l-24 -87l-746 -747h556l-37 -129h-764l25 87l744 747h-530zM830 1421h194l-55 -189h-194z" />
<glyph unicode="&#x17d;" horiz-adv-x="1358" d="M592 1421h1086l-31 -109l-1223 -1162h917l-43 -150h-1143l32 111l1205 1160h-843zM1164 1558l-174 286l118 88l120 -196l237 195l65 -78z" />
<glyph unicode="&#x17e;" horiz-adv-x="1058" d="M422 963h735l-25 -87l-741 -747h551l-37 -129h-759l25 87l739 747h-525zM823 1106l-163 300l117 92l112 -205l235 204l63 -80z" />
<glyph unicode="&#x191;" horiz-adv-x="1248" d="M-251 -503l60 122q81 -24 151 -24q105 0 175 54t99 156l463 1616h823l-43 -150h-653l-133 -464h593l-43 -150h-593l-246 -858q-50 -176 -165 -258t-267 -82q-107 0 -221 38z" />
<glyph unicode="&#x192;" horiz-adv-x="801" d="M382 963h165l33 113q37 130 96 202q59 73 145 112t184 39q106 0 223 -39l-60 -124q-81 26 -148 26q-213 0 -278 -227l-29 -102h323l-37 -129h-323l-303 -1057q-7 -26 -14.5 -47t-24 -55.5t-36.5 -61.5t-52.5 -57.5t-71 -50t-93.5 -33t-119 -13.5q-105 0 -222 39l59 122 q84 -24 148 -24q59 0 105.5 16t72.5 36.5t46.5 52.5t27.5 51t14 45l297 1037h-165z" />
<glyph unicode="&#x22c;" horiz-adv-x="1686" d="M1145 2137h740l-37 -129h-740zM1708 1878l103 -17l-17 -37l-20 -40q-5 -11 -19 -37.5t-23 -38.5l-24 -35q-16 -22 -28 -33l-32 -26q-18 -15 -36 -22t-40 -12.5t-46 -5.5q-44 0 -80 18.5t-59 45t-42.5 53t-40.5 45t-44 18.5q-16 0 -29.5 -5t-26.5 -17.5t-22 -22.5t-21 -31 l-18 -33q-6 -11 -19 -37l-16 -36l-103 17q4 9 17.5 36.5t19 40t19.5 38t23 38.5l24 35q15 22 28 33l31 26q18 15 36 22t40 12.5t46 5.5q44 0 80 -18.5t59 -45t42.5 -53t40.5 -45t44 -18.5q16 0 29.5 5t27.5 18l22 22q9 9 21.5 31.5t17.5 32.5l19 38q13 28 16 35zM1579 709 q33 117 33 209q0 75 -20.5 137t-55 104.5t-82 71.5t-100 42.5t-110.5 13.5h-3q-70 0 -143.5 -20.5t-149 -65t-141 -108.5t-121 -158t-87.5 -207q-33 -117 -33 -214q0 -177 98 -278.5t264 -101.5q71 0 145.5 21t150.5 66.5t142.5 111.5t123 163t89.5 213zM1296 1436 q230 0 365 -125t135 -345q0 -112 -37 -239q-95 -330 -343 -536t-543 -206q-104 0 -192.5 29.5t-156 87t-106 149t-38.5 207.5q0 115 38 249q95 330 340.5 529.5t537.5 199.5z" />
<glyph unicode="&#x22d;" horiz-adv-x="1198" d="M1264 1439l103 -17l-17 -38l-20 -40q-5 -12 -19 -38.5t-23 -39.5l-24 -35q-15 -22 -28 -33l-31 -28q-18 -15 -35.5 -22t-39.5 -12.5t-45 -5.5q-43 0 -78 19t-57 46t-41 54.5t-39.5 46.5t-42.5 19q-15 0 -28.5 -5t-26.5 -18l-22 -22q-9 -9 -22 -32l-17 -34 q-5 -9 -18.5 -38.5t-16.5 -35.5l-104 15l18 37l18 41l20 38.5t22 39.5l24 35q16 22 29 34l31 26q18 16 35.5 23t39.5 12.5t45 5.5q43 0 78 -19t57 -46.5t41 -54.5t39.5 -46t42.5 -19q15 0 28.5 5t27.5 19l22 22q8 9 21 33l18 33q5 9 18.5 39t16.5 36zM732 1689h727l-37 -129 h-727zM883 982q160 0 255.5 -83t95.5 -235q0 -75 -25 -163q-69 -239 -243 -380t-386 -141q-160 0 -252 84.5t-92 236.5q0 80 26 170q67 233 237.5 372t383.5 139zM829 842q-77 0 -154.5 -37.5t-145.5 -118t-99 -188.5q-20 -71 -20 -131q0 -111 60 -179t168 -68 q129 0 243 96.5t158 252.5q20 69 20 130q0 115 -66 179t-164 64z" />
<glyph unicode="&#x237;" horiz-adv-x="519" d="M452 963h164l-318 -1106q-9 -31 -15.5 -51t-22 -56.5t-32.5 -63t-46 -61t-63.5 -60.5t-84.5 -53t-109 -46l-26 122q181 76 231 252z" />
<glyph unicode="&#x2c6;" horiz-adv-x="1479" d="M1167 1541l174 -286l-118 -88l-120 196l-237 -195l-66 78z" />
<glyph unicode="&#x2c7;" horiz-adv-x="1078" d="M841 1124l-174 286l119 88l119 -196l237 195l66 -76z" />
<glyph unicode="&#x2d8;" horiz-adv-x="1078" d="M543 1382l142 66q7 -34 20.5 -64t36 -59t59.5 -46.5t83 -17.5q81 0 174 54.5t175 132.5l90 -77q-111 -107 -243.5 -177.5t-251.5 -70.5q-68 0 -122 22.5t-87.5 60t-52.5 82.5t-23 94z" />
<glyph unicode="&#x2d9;" horiz-adv-x="1200" d="M898 1442h210l-60 -210h-210z" />
<glyph unicode="&#x2da;" horiz-adv-x="1084" d="M1006 1482q-55 0 -104 -39.5t-64 -93.5q-6 -19 -6 -39q0 -41 25.5 -68t71.5 -27q54 0 102.5 40.5t63.5 93.5q6 19 6 38q0 41 -25.5 68t-69.5 27zM1031 1573q73 0 119 -45.5t46 -116.5q0 -29 -9 -62q-27 -93 -110.5 -159t-173.5 -66q-73 0 -118.5 45.5t-45.5 116.5 q0 30 9 63q27 93 110 158.5t173 65.5z" />
<glyph unicode="&#x2db;" horiz-adv-x="1084" d="M506 -544q-72 0 -112 38t-40 103q0 34 10 68q42 146 209.5 287.5t365.5 191.5l-3 -112q-157 -52 -275.5 -150.5t-143.5 -183.5q-5 -16 -5 -36q0 -35 21.5 -54.5t59.5 -19.5q61 0 180 60l22 -90q-172 -102 -289 -102z" />
<glyph unicode="&#x2dc;" horiz-adv-x="1400" d="M1270 1361q15 0 29 4.5t29 15.5t26 20.5t28 29.5l27 33l31 38l31 41l92 -47q-5 -7 -27.5 -36.5t-31.5 -39.5l-30 -38q-22 -26 -35 -38l-35 -32q-21 -21 -38.5 -31t-40 -21.5t-45 -16t-45.5 -4.5q-44 0 -79 18.5t-57.5 45.5t-42 54t-42 45.5t-47.5 18.5q-17 0 -35 -8 t-31 -17t-33 -31t-30 -35l-36 -46l-36 -47l-92 47l32 40l35 46q9 12 34.5 42t40.5 42l40 34q26 22 46.5 31t47 16.5t52.5 7.5q44 0 79 -18.5t57.5 -45.5t42 -54t42 -45.5t47.5 -18.5z" />
<glyph unicode="&#x2dd;" horiz-adv-x="1652" d="M1739 1603l46 -116l-581 -339l-42 102zM1219 1603l46 -116l-581 -339l-42 102z" />
<glyph unicode="&#x2ee;" horiz-adv-x="835" d="M543 1511h185l-122 -428h-185zM933 1511h185l-122 -428h-185z" />
<glyph unicode="&#x302;" horiz-adv-x="1479" d="M1167 1541l174 -286l-118 -88l-120 196l-237 -195l-66 78z" />
<glyph unicode="&#x1e02;" horiz-adv-x="1424" d="M830 1291l-137 -477q19 1 66 1.5t73.5 1t74.5 4t78 8t73 14t72 22t63 32t57 43.5t43.5 57.5t31.5 73.5q10 33 10 66q0 67 -52 110.5t-179 43.5h-274zM656 682l-153 -532h265q36 0 60.5 0.5t72.5 6t83 15t80 29t77.5 46.5t62 69.5t44.5 96.5q12 42 12 78q0 98 -82 151.5 t-228 53.5q-20 0 -294 -14zM697 1421h501q74 0 130.5 -15.5t89 -39.5t53 -58t27.5 -65t7 -66q0 -49 -14 -98q-25 -87 -108.5 -173.5t-156.5 -111.5q99 -19 155.5 -90t56.5 -171q0 -49 -15 -102q-9 -31 -24 -65t-43.5 -77t-65 -82t-90.5 -77.5t-117.5 -66.5t-149 -45.5 t-181.5 -17.5h-462zM1224 1898h210l-60 -210h-210z" />
<glyph unicode="&#x1e03;" horiz-adv-x="1174" d="M1062 1898h210l-60 -210h-210zM612 916q147 67 280 67q61 0 114.5 -15.5t101.5 -48.5t76 -94t28 -144q0 -85 -30 -188q-68 -238 -235.5 -375.5t-370.5 -137.5q-134 0 -244 66l-33 -46h-114l432 1505h164zM797 847q-106 0 -219 -51l-185 -642q95 -45 195 -45 q45 0 90.5 9.5t96.5 35t95 64.5t82.5 102.5t61.5 144.5q25 90 25 155q0 66 -22 112.5t-60 70.5t-77 34t-83 10z" />
<glyph unicode="&#x1e0a;" horiz-adv-x="1606" d="M824 1271l-321 -1121h207q45 0 75 1t81.5 6t91 15t92 29t96 46t91.5 69t90 95q102 129 154 309q30 103 30 193q0 79 -23.5 143t-63.5 105.5t-88.5 66.5t-104.5 35q-42 8 -131 8h-276zM1137 1421q126 0 223.5 -23.5t160.5 -63t103.5 -96.5t57 -119t16.5 -135 q0 -107 -36 -230q-27 -93 -65.5 -179t-98.5 -175t-133.5 -159.5t-174.5 -127t-217 -83.5q-60 -14 -131 -21t-116.5 -8t-127.5 -1h-308l407 1421h440zM1286 1898h210l-60 -210h-210z" />
<glyph unicode="&#x1e0b;" horiz-adv-x="1179" d="M1006 1898h210l-61 -210h-210zM646 115q107 0 225 54l183 639q-92 46 -198 46q-45 0 -90.5 -9.5t-97 -35t-95 -65t-83 -105t-63.5 -149.5q-23 -82 -23 -147q0 -52 15 -93t39 -66t57 -41t65 -22t66 -6zM868 983q117 0 221 -53l165 575h164l-432 -1505h-114l-9 62 q-161 -82 -310 -82q-49 0 -94 10t-87 32.5t-73 57t-49.5 87t-18.5 117.5q0 81 29 181q71 247 239 382.5t369 135.5z" />
<glyph unicode="&#x1e1e;" horiz-adv-x="1248" d="M824 1271l-133 -464h593l-43 -150h-593l-188 -657h-170l407 1421h823l-43 -150h-653zM1130 1898h210l-60 -210h-210z" />
<glyph unicode="&#x1e1f;" horiz-adv-x="811" d="M1020 1282q-58 0 -105.5 -17t-75.5 -40t-49.5 -55t-30 -52t-14.5 -42l-32 -113h328l-37 -129h-328l-239 -834h-166l239 834h-139l37 129h139l30 104q12 42 21 67.5t29.5 65.5t46.5 72q59 71 145.5 109.5t185.5 38.5q104 0 224 -40l-60 -123q-87 25 -149 25zM940 1829h210 l-61 -210h-210z" />
<glyph unicode="&#x1e40;" horiz-adv-x="1884" d="M697 1421h240l209 -862l710 862h225l-407 -1421h-170l337 1177l-657 -770h-170l-217 770l-337 -1177h-170zM1411 1898h210l-60 -210h-210z" />
<glyph unicode="&#x1e41;" horiz-adv-x="1709" d="M803 831q-82 0 -246 -74l-217 -757h-164l276 963h115l11 -82q205 101 333 101q149 0 201 -110q223 109 377 109q125 0 180.5 -53.5t55.5 -153.5q0 -78 -34 -196l-166 -578h-165l168 588q18 59 18 105q0 138 -153 138q-91 0 -260 -75q-2 -60 -38 -187l-163 -569h-165 l169 590q16 56 16 101q0 140 -149 140zM1163 1421h210l-60 -209h-210z" />
<glyph unicode="&#x1e56;" horiz-adv-x="1339" d="M697 1421h469q37 0 61 -0.5t68.5 -5.5t75 -13.5t67.5 -27t59.5 -43.5t38.5 -64.5t16 -89.5q0 -63 -21 -134q-20 -69 -48.5 -126.5t-61 -101t-74.5 -78t-82.5 -57.5t-90.5 -40.5t-93.5 -27t-97.5 -15t-96 -7t-94 -1.5q-67 0 -162 7l-171 -596h-170zM674 746q94 -8 180 -8 q49 0 82.5 1t82.5 7t84.5 16.5t77 31.5t71 49.5t56.5 72t43 99.5q14 48 14 89q0 45 -19 77t-46 49t-70 27t-77 12t-81 2h-248zM1151 1898h210l-60 -210h-210z" />
<glyph unicode="&#x1e57;" horiz-adv-x="1168" d="M570 -20q-117 0 -221 53l-162 -564h-164l429 1494h114l9 -63q163 82 311 82q61 0 114.5 -15.5t101 -49t75.5 -94.5t28 -144q0 -84 -29 -187q-46 -158 -139 -275t-213.5 -177t-253.5 -60zM791 846q-108 0 -224 -53l-183 -638q92 -46 198 -46q45 0 90.5 9.5t97 35t95 64.5 t82.5 102.5t62 144.5q25 88 25 155q0 66 -22.5 112.5t-60 70t-77 33.5t-83.5 10zM935 1421h210l-60 -209h-210z" />
<glyph unicode="&#x1e60;" horiz-adv-x="1361" d="M1232 1434q164 0 337 -57l-100 -155q-164 52 -297 52q-148 0 -268.5 -63t-148.5 -161q-7 -22 -7 -46q0 -47 33 -84t86.5 -62t117.5 -48.5t128 -51t117.5 -61t86.5 -85.5t33 -119q0 -43 -15 -96q-16 -57 -50.5 -113.5t-92.5 -112t-132 -97.5t-176 -68t-218 -26t-206 24 t-198 72l105 165q224 -93 368 -93q152 0 265.5 61t142.5 163q8 25 8 53q0 50 -33.5 89t-86.5 64.5t-117 48.5l-128 49q-65 25 -118 56.5t-86.5 82t-33.5 115.5q0 44 14 92q49 171 236.5 291.5t433.5 120.5zM1191 1898h210l-60 -210h-210z" />
<glyph unicode="&#x1e61;" horiz-adv-x="1010" d="M865 982q23 0 44.5 -1t36 -2t34 -4.5t27 -4.5t27 -6.5t22 -6t24.5 -8t23 -7.5l-78 -124q-125 36 -223 36q-72 0 -128 -16.5t-86 -42t-45 -47.5t-21 -42q-3 -10 -3 -20q0 -28 25 -51t65.5 -40t89 -34t97 -37.5t89 -45t65.5 -62t25 -83.5q0 -27 -9 -58q-12 -40 -33 -77.5 t-62 -78t-95 -70.5t-137.5 -49.5t-183.5 -19.5q-152 0 -312 75l80 122q92 -37 153 -52.5t122 -15.5q242 0 285 151q3 12 3 23q0 29 -24.5 51.5t-64 38.5t-87.5 31t-95.5 34t-87 42.5t-64 61t-24.5 85.5q0 31 10 65q10 35 32 71.5t64.5 77t98 71t139.5 50.5t182 20zM829 1421 h210l-60 -209h-210z" />
<glyph unicode="&#x1e6a;" horiz-adv-x="1210" d="M492 1421h1120l-43 -150h-475l-364 -1271h-170l364 1271h-475zM1100 1898h210l-60 -210h-210z" />
<glyph unicode="&#x1e6b;" horiz-adv-x="744" d="M656 1621h210l-60 -210h-210zM698 17q-154 -37 -234 -37q-204 0 -204 174q0 60 25 148l152 532h-130l37 129h130l86 300h164l-86 -300h295l-37 -129h-295l-151 -528q-16 -59 -16 -91q0 -107 118 -107q27 0 155 20z" />
<glyph unicode="&#x1e80;" horiz-adv-x="2155" d="M547 1421h182l15 -1194l702 1194h171l28 -1194l689 1194h168l-833 -1421h-181l-33 1187l-689 -1187h-181zM1519 1928l415 -310l-93 -107l-427 294z" />
<glyph unicode="&#x1e81;" horiz-adv-x="1654" d="M342 988h175l23 -829l486 829h157l20 -828l498 828h175l-639 -988h-161l-27 801l-483 -801h-161zM1136 1549l262 -324l-107 -100l-276 315z" />
<glyph unicode="&#x1e82;" horiz-adv-x="2155" d="M547 1421h182l15 -1194l702 1194h171l28 -1194l689 1194h168l-833 -1421h-181l-33 1187l-689 -1187h-181zM1873 1928l35 -123l-597 -294l-31 107z" />
<glyph unicode="&#x1e83;" horiz-adv-x="1654" d="M342 988h175l23 -829l486 829h157l20 -828l498 828h175l-639 -988h-161l-27 801l-483 -801h-161zM1429 1549l59 -109l-457 -315l-49 100z" />
<glyph unicode="&#x1e84;" horiz-adv-x="2155" d="M547 1421h182l15 -1194l702 1194h171l28 -1194l689 1194h168l-833 -1421h-181l-33 1187l-689 -1187h-181zM1344 1898h185l-53 -185h-185zM1794 1898h185l-53 -185h-185z" />
<glyph unicode="&#x1e85;" horiz-adv-x="1663" d="M342 988h175l23 -829l490 829h157l25 -828l499 828h175l-640 -988h-162l-30 801l-487 -801h-162zM919 1421h185l-53 -184h-185zM1362 1421h185l-53 -184h-185z" />
<glyph unicode="&#x1ef2;" horiz-adv-x="1263" d="M507 1421h201l194 -587l538 587h190l-698 -748l-193 -673h-170l193 673zM1013 1928l415 -310l-93 -107l-427 294z" />
<glyph unicode="&#x1ef3;" horiz-adv-x="1039" d="M332 988h170l72 -838l527 838h170l-995 -1519h-175l343 493zM817 1549l263 -324l-106 -100l-280 315z" />
<glyph unicode="&#x2000;" horiz-adv-x="1068" />
<glyph unicode="&#x2001;" horiz-adv-x="2137" />
<glyph unicode="&#x2002;" horiz-adv-x="1068" />
<glyph unicode="&#x2003;" horiz-adv-x="2137" />
<glyph unicode="&#x2004;" horiz-adv-x="712" />
<glyph unicode="&#x2005;" horiz-adv-x="534" />
<glyph unicode="&#x2006;" horiz-adv-x="356" />
<glyph unicode="&#x2007;" horiz-adv-x="356" />
<glyph unicode="&#x2008;" horiz-adv-x="267" />
<glyph unicode="&#x2009;" horiz-adv-x="427" />
<glyph unicode="&#x200a;" horiz-adv-x="118" />
<glyph unicode="&#x2010;" horiz-adv-x="1210" d="M384 728h860l-40 -139h-860z" />
<glyph unicode="&#x2011;" horiz-adv-x="1210" d="M384 728h860l-40 -139h-860z" />
<glyph unicode="&#x2013;" horiz-adv-x="1159" d="M209 728h1159l-40 -139h-1159z" />
<glyph unicode="&#x2014;" horiz-adv-x="1384" d="M209 728h1384l-40 -139h-1384z" />
<glyph unicode="&#x2015;" horiz-adv-x="1600" d="M209 728h1600l-40 -139h-1600z" />
<glyph unicode="&#x2018;" horiz-adv-x="450" d="M523 1511h195l1 -433h-195z" />
<glyph unicode="&#x2019;" horiz-adv-x="450" d="M598 1511h195l-249 -433h-195z" />
<glyph unicode="&#x201a;" horiz-adv-x="450" d="M227 217h195l-249 -433h-195z" />
<glyph unicode="&#x201b;" horiz-adv-x="450" d="M523 1511h195l1 -433h-195z" />
<glyph unicode="&#x201c;" horiz-adv-x="830" d="M598 1511h195l-249 -433h-195zM978 1511h195l-249 -433h-195z" />
<glyph unicode="&#x201d;" horiz-adv-x="830" d="M598 1511h195l-249 -433h-195zM978 1511h195l-249 -433h-195z" />
<glyph unicode="&#x201e;" horiz-adv-x="830" d="M226 214h195l-249 -433h-195zM606 214h195l-249 -433h-195z" />
<glyph unicode="&#x201f;" horiz-adv-x="830" d="M903 1511h195l1 -433h-195zM523 1511h195l1 -433h-195z" />
<glyph unicode="&#x2020;" horiz-adv-x="942" d="M441 148l295 1028l-232 -10l32 110l226 -10l70 245h143l-70 -245l233 10l-32 -110l-227 10l-295 -1028h-143z" />
<glyph unicode="&#x2021;" horiz-adv-x="942" d="M426 95l310 1081l-232 -10l32 110l226 -10l70 245h143l-70 -245l233 10l-32 -110l-227 10l-310 -1081l233 10l-31 -110l-228 10l-70 -245h-143l70 245l-231 -10l31 110z" />
<glyph unicode="&#x2022;" horiz-adv-x="640" d="M437 863h260l-74 -260h-260z" />
<glyph unicode="&#x2026;" horiz-adv-x="1720" d="M1370 210h210l-60 -210h-210zM805 210h210l-60 -210h-210zM240 210h210l-60 -210h-210z" />
<glyph unicode="&#x202f;" horiz-adv-x="427" />
<glyph unicode="&#x2030;" horiz-adv-x="1920" d="M1461 1421h170l-1376 -1421h-170zM1761 623q29 0 55.5 -6.5t53.5 -22.5t43 -49t16 -81q0 -52 -18 -113q-38 -132 -125 -208.5t-186 -76.5q-74 0 -119.5 38t-45.5 123q0 55 20 125q37 130 125 200.5t181 70.5zM1732 527q-24 0 -47.5 -8t-49 -26.5t-47.5 -54t-36 -85.5 q-15 -52 -15 -94q0 -56 26.5 -78t64.5 -22q24 0 47 8t48.5 27.5t49 58.5t39.5 95q14 48 14 83q0 53 -27.5 74.5t-66.5 21.5zM1154 623q29 0 55.5 -6.5t53.5 -22.5t43 -49t16 -81q0 -52 -18 -113q-38 -132 -125 -208.5t-186 -76.5q-74 0 -119.5 38t-45.5 123q0 55 20 125 q37 130 125 200.5t181 70.5zM1125 527q-24 0 -47.5 -8t-49 -26.5t-47.5 -54t-36 -85.5q-15 -52 -15 -94q0 -56 26.5 -78t64.5 -22q24 0 47 8t48.5 27.5t49 58.5t39.5 95q14 48 14 83q0 53 -27.5 74.5t-66.5 21.5zM718 1363q29 0 55 -6.5t53 -22t43 -48.5t16 -80 q0 -52 -18 -114q-38 -133 -124.5 -209.5t-185.5 -76.5q-74 0 -120 38.5t-46 123.5q0 55 20 125q25 88 77.5 151t111 91t118.5 28zM690 1268q-24 0 -47.5 -8t-49 -26.5t-47.5 -54t-36 -85.5q-16 -55 -16 -94q0 -56 26.5 -78t64.5 -22q24 0 47 8t48.5 27.5t49 58.5t39.5 95 q14 48 14 84q0 95 -93 95z" />
<glyph unicode="&#x2032;" horiz-adv-x="405" d="M543 1511h185l-122 -428h-185z" />
<glyph unicode="&#x2033;" horiz-adv-x="810" d="M948 1511h185l-122 -428h-185zM543 1511h185l-122 -428h-185z" />
<glyph unicode="&#x2034;" horiz-adv-x="1215" d="M1353 1511h185l-122 -428h-185zM948 1511h185l-122 -428h-185zM543 1511h185l-122 -428h-185z" />
<glyph unicode="&#x2035;" horiz-adv-x="405" d="M503 1511h195l-54 -433h-195z" />
<glyph unicode="&#x2039;" horiz-adv-x="565" d="M612 988h186l-378 -365l169 -365h-185l-150 365z" />
<glyph unicode="&#x203a;" horiz-adv-x="565" d="M333 988h185l151 -365l-359 -365h-186l379 365z" />
<glyph unicode="&#x203c;" d="M932 200h200l-57 -200h-200zM1297 1421h170l-276 -963h-170zM282 200h200l-57 -200h-200zM647 1421h170l-276 -963h-170z" />
<glyph unicode="&#x203d;" horiz-adv-x="1046" d="M368 200h200l-57 -200h-200zM835 1437q75 0 137 -11t117.5 -36.5t86.5 -73.5t31 -116q0 -44 -17 -106q-22 -78 -62 -142t-87 -108t-100 -82l-105 -76q-52 -36 -98 -75.5t-83.5 -95t-56.5 -123.5h-150l198 688h150l-94 -325q11 8 63 42.5t79.5 56t68.5 58t66.5 76.5 t38.5 83q8 29 8 56q0 72 -58 119.5t-190 47.5q-137 0 -268 -47l-17 122q160 68 342 68z" />
<glyph unicode="&#x2044;" horiz-adv-x="1036" d="M1248 1421h175l-1227 -1421h-176z" />
<glyph unicode="&#x204b;" horiz-adv-x="1338" d="M1533 1133q-60 -210 -217 -328.5t-347 -118.5l-197 -686h-172l390 1361h-240l-390 -1361h-170l433 1511h538q134 0 217 -20t131 -85q43 -60 43 -148q0 -59 -19 -125z" />
<glyph unicode="&#x205f;" horiz-adv-x="534" />
<glyph unicode="&#x20ac;" horiz-adv-x="1335" d="M417 504h-222l37 130h204q1 2 6.5 27t11.5 48.5t19.5 62.5t30.5 76h-147l37 130h176q125 209 318.5 331t411.5 122q173 0 327 -76l-88 -141q-156 67 -285 67q-146 0 -282.5 -82.5t-234.5 -220.5h451l-37 -130h-491q-51 -102 -70 -214h436l-37 -130h-408 q6 -163 102 -265.5t274 -102.5q138 0 307 60l11 -126q-212 -90 -401 -90q-218 0 -338.5 128.5t-120.5 343.5q0 16 2 52z" />
<glyph unicode="&#x2122;" horiz-adv-x="1424" d="M653 943h-98l140 488h-175l23 80h448l-23 -80h-175zM1123 1511h116l81 -317l257 317h120l-163 -568h-98l128 446l-244 -294h-68l-65 298l-129 -450h-98z" />
<glyph unicode="&#xfb00;" horiz-adv-x="1640" d="M1840 1292q-58 0 -105 -17.5t-74.5 -41t-49.5 -57t-30 -54t-15 -43.5l-33 -116h323l-37 -129h-323l-295 -1030q-37 -129 -94 -195q-58 -67 -142.5 -103.5t-183.5 -36.5q-108 0 -222 38l59 120q80 -23 147 -23q58 0 104.5 16t73.5 37t48 51.5t28.5 49t13.5 39.5l297 1037 h-139l37 129h139l31 106q39 137 98 209q59 73 145 112t184 39q105 0 222 -39l-60 -124q-81 26 -147 26zM1020 1292q-58 0 -105 -17.5t-74.5 -41t-49.5 -57t-30 -54t-15 -43.5l-33 -116h323l-37 -129h-323l-295 -1030q-37 -129 -94 -195q-58 -67 -142.5 -103.5t-183.5 -36.5 q-108 0 -222 38l59 120q80 -23 147 -23q58 0 104.5 16t73.5 37t48 51.5t28.5 49t13.5 39.5l297 1037h-139l37 129h139l31 106q39 137 98 209q59 73 145 112t184 39q105 0 222 -39l-60 -124q-81 26 -147 26z" />
<glyph unicode="&#xfb01;" horiz-adv-x="1344" d="M1392 1421h194l-54 -189h-194zM1283 988h164l-283 -988h-164zM1020 1292q-58 0 -105 -17.5t-74.5 -41t-49.5 -57t-30 -54t-15 -43.5l-33 -116h323l-37 -129h-323l-295 -1030q-37 -129 -94 -195q-58 -67 -142.5 -103.5t-183.5 -36.5q-108 0 -222 38l59 120q80 -23 147 -23 q58 0 104.5 16t73.5 37t48 51.5t28.5 49t13.5 39.5l297 1037h-139l37 129h139l31 106q39 137 98 209q59 73 145 112t184 39q105 0 222 -39l-60 -124q-81 26 -147 26z" />
<glyph unicode="&#xfb02;" horiz-adv-x="1384" d="M1453 1511h164l-433 -1511h-164zM1020 1292q-58 0 -105 -17.5t-74.5 -41t-49.5 -57t-30 -54t-15 -43.5l-33 -116h323l-37 -129h-323l-295 -1030q-37 -129 -94 -195q-58 -67 -142.5 -103.5t-183.5 -36.5q-108 0 -222 38l59 120q80 -23 147 -23q58 0 104.5 16t73.5 37 t48 51.5t28.5 49t13.5 39.5l297 1037h-139l37 129h139l31 106q39 137 98 209q59 73 145 112t184 39q105 0 222 -39l-60 -124q-81 26 -147 26z" />
<glyph unicode="&#xfb03;" horiz-adv-x="2164" d="M1840 1292q-58 0 -105 -17.5t-74.5 -41t-49.5 -57t-30 -54t-15 -43.5l-33 -116h323l-37 -129h-323l-295 -1030q-37 -129 -94 -195q-58 -67 -142.5 -103.5t-183.5 -36.5q-108 0 -222 38l59 120q80 -23 147 -23q58 0 104.5 16t73.5 37t48 51.5t28.5 49t13.5 39.5l297 1037 h-139l37 129h139l31 106q39 137 98 209q59 73 145 112t184 39q105 0 222 -39l-60 -124q-81 26 -147 26zM1020 1292q-58 0 -105 -17.5t-74.5 -41t-49.5 -57t-30 -54t-15 -43.5l-33 -116h323l-37 -129h-323l-295 -1030q-37 -129 -94 -195q-58 -67 -142.5 -103.5t-183.5 -36.5 q-108 0 -222 38l59 120q80 -23 147 -23q58 0 104.5 16t73.5 37t48 51.5t28.5 49t13.5 39.5l297 1037h-139l37 129h139l31 106q39 137 98 209q59 73 145 112t184 39q105 0 222 -39l-60 -124q-81 26 -147 26zM2212 1421h194l-54 -189h-194zM2103 988h164l-283 -988h-164z" />
<glyph unicode="&#xfb04;" horiz-adv-x="2204" d="M1840 1292q-58 0 -105 -17.5t-74.5 -41t-49.5 -57t-30 -54t-15 -43.5l-33 -116h323l-37 -129h-323l-295 -1030q-37 -129 -94 -195q-58 -67 -142.5 -103.5t-183.5 -36.5q-108 0 -222 38l59 120q80 -23 147 -23q58 0 104.5 16t73.5 37t48 51.5t28.5 49t13.5 39.5l297 1037 h-139l37 129h139l31 106q39 137 98 209q59 73 145 112t184 39q105 0 222 -39l-60 -124q-81 26 -147 26zM1020 1292q-58 0 -105 -17.5t-74.5 -41t-49.5 -57t-30 -54t-15 -43.5l-33 -116h323l-37 -129h-323l-295 -1030q-37 -129 -94 -195q-58 -67 -142.5 -103.5t-183.5 -36.5 q-108 0 -222 38l59 120q80 -23 147 -23q58 0 104.5 16t73.5 37t48 51.5t28.5 49t13.5 39.5l297 1037h-139l37 129h139l31 106q39 137 98 209q59 73 145 112t184 39q105 0 222 -39l-60 -124q-81 26 -147 26zM2273 1511h164l-433 -1511h-164z" />
</font>
</defs>
</svg>
