<?xml version="1.0" standalone="no"?>
<!DOCTYPE svg PUBLIC "-//W3C//DTD SVG 1.1//EN" "http://www.w3.org/Graphics/SVG/1.1/DTD/svg11.dtd" >
<svg xmlns="http://www.w3.org/2000/svg">
<metadata>
This is a custom SVG webfont generated by Font Squirrel.
Designer    : arro
</metadata>
<defs>
<font id="webfontR2OlSzun" horiz-adv-x="558" >
<font-face units-per-em="1000" ascent="770" descent="-230" />
<missing-glyph horiz-adv-x="196" />
<glyph unicode=" "  horiz-adv-x="196" />
<glyph unicode="&#x09;" horiz-adv-x="196" />
<glyph unicode="&#xa0;" horiz-adv-x="196" />
<glyph unicode="!" horiz-adv-x="290" d="M145 148q33 0 56 -23t23 -56t-23 -56t-56 -23t-56 23t-23 56t23 56t56 23zM201 198h-112l-8 480h128z" />
<glyph unicode="&#x22;" horiz-adv-x="402" d="M343 423h-98l-5 245q-1 17 12.5 26.5t39.5 9.5h74zM147 423h-98l-5 245q-1 17 12.5 26.5t39.5 9.5h74z" />
<glyph unicode="#" horiz-adv-x="540" d="M506 383h-102l-17 -109h91v-74h-104l-26 -165h-84l27 165h-85l-26 -165h-84l27 165h-89v74h101l18 109h-91v74h103l27 166h83l-27 -166h85l27 166h83l-27 -166h90v-74zM303 274l18 109h-85l-17 -109h84z" />
<glyph unicode="$" d="M480 218q0 -72 -44.5 -120.5t-120.5 -63.5v-104h-98v100q-83 7 -141 39l13 104q89 -40 168 -40q39 0 62 17.5t23 48.5q0 30 -22 47.5t-72 31.5q-81 23 -122 63.5t-41 107.5q0 61 37 103.5t101 60.5v115h98v-107q77 -6 132 -36l-14 -104q-70 36 -138 36q-34 0 -56 -13.5 t-22 -35.5q0 -28 18 -43t66 -29q87 -25 130 -67t43 -111z" />
<glyph unicode="%" horiz-adv-x="850" d="M630 330q72 0 120.5 -47.5t48.5 -122.5t-48.5 -122.5t-120.5 -47.5t-120.5 47.5t-48.5 122.5t48.5 122.5t120.5 47.5zM630 88q24 0 40.5 19t16.5 53t-16.5 53t-40.5 19t-40.5 -19t-16.5 -53t16.5 -53t40.5 -19zM220 668q72 0 120.5 -47.5t48.5 -122.5t-48.5 -122.5 t-120.5 -47.5t-120.5 47.5t-48.5 122.5t48.5 122.5t120.5 47.5zM220 426q24 0 40.5 19t16.5 53t-16.5 53t-40.5 19t-40.5 -19t-16.5 -53t16.5 -53t40.5 -19zM606 688h98l-460 -708h-98z" />
<glyph unicode="&#x26;" horiz-adv-x="725" d="M703 0h-180l-34 44h-2q-82 -54 -199 -54q-114 0 -183 53t-69 144q0 66 40 113t121 91v2q-75 69 -75 145q0 67 56 108.5t137 41.5q80 0 132.5 -44.5t52.5 -106.5q0 -98 -120 -165v-2l126 -147h2q31 41 34 117h133q-6 -128 -84 -213zM311 584q-21 0 -35 -14.5t-14 -36.5 q0 -41 45 -76h2q51 31 51 72q0 25 -13.5 40t-35.5 15zM302 97q66 0 112 33v2l-143 176h-2q-43 -23 -66 -48.5t-23 -65.5q0 -43 34.5 -70t87.5 -27z" />
<glyph unicode="'" horiz-adv-x="206" d="M147 423h-98l-5 245q-1 17 12.5 26.5t39.5 9.5h74z" />
<glyph unicode="(" horiz-adv-x="311" d="M189 307q0 -201 86 -401h-98q-46 77 -77 183.5t-31 217.5t31 217.5t77 183.5h98q-86 -200 -86 -401z" />
<glyph unicode=")" horiz-adv-x="311" d="M122 307q0 201 -86 401h98q46 -77 77 -183.5t31 -217.5t-31 -217.5t-77 -183.5h-98q86 200 86 401z" />
<glyph unicode="*" horiz-adv-x="514" d="M203 674h108l-21 -157h4l140 67l34 -102l-155 -30v-2l108 -113l-88 -64l-75 137h-2l-75 -137l-88 64l108 113v2l-155 30l34 102l140 -67h4z" />
<glyph unicode="+" horiz-adv-x="594" d="M353 305h196v-98h-196v-207h-112v207h-196v98h196v207h112v-207z" />
<glyph unicode="," horiz-adv-x="261" d="M60 76q12 49 72 49h83q-43 -131 -105 -277l-119 -13q45 140 69 241z" />
<glyph unicode="-" horiz-adv-x="392" d="M334 305v-98h-276v98h276z" />
<glyph unicode="." horiz-adv-x="250" d="M125 148q33 0 56 -23t23 -56t-23 -56t-56 -23t-56 23t-23 56t23 56t56 23z" />
<glyph unicode="/" horiz-adv-x="425" d="M308 700h122l-313 -737h-122z" />
<glyph unicode="0" d="M279 668q119 0 189 -92t70 -247t-70 -247t-189 -92t-189 92t-70 247t70 247t189 92zM279 97q60 0 87.5 56t27.5 176t-27.5 176t-87.5 56t-87.5 -56t-27.5 -176t27.5 -176t87.5 -56z" />
<glyph unicode="1" d="M323 658h67v-658h-134v505l-142 -47l-13 104z" />
<glyph unicode="2" d="M334 212l-106 -103v-2h277v-107h-447v105l113 115q119 122 153.5 167t34.5 87q0 39 -28 63t-80 24q-63 0 -141 -31l-14 106q90 32 182 32q101 0 163 -49.5t62 -129.5q0 -72 -36 -128t-133 -149z" />
<glyph unicode="3" d="M227 -10q-111 0 -183 39l14 106q82 -38 166 -38q58 0 96.5 22t38.5 65q0 85 -152 93v104q60 1 96 26t36 68q0 40 -30.5 63t-77.5 23q-67 0 -132 -27l-13 104q98 30 178 30q104 0 161.5 -42t57.5 -114q0 -64 -43 -104.5t-106 -53.5v-2q76 -12 122.5 -53t46.5 -107 q0 -93 -81 -147.5t-195 -54.5z" />
<glyph unicode="4" d="M455 658v-416h99v-107h-99v-135h-134v135h-311v109l249 414h196zM321 400q0 81 5 145h-2q-39 -89 -173 -301v-2h170v158z" />
<glyph unicode="5" d="M208 402q31 19 80 19q103 0 164 -55.5t61 -146.5q0 -111 -80 -170t-196 -59q-107 0 -184 37l14 106q89 -36 172 -36q59 0 94.5 29.5t35.5 80.5q0 45 -27.5 74t-78.5 29q-39 0 -69 -21l-118 3l12 366h395v-107h-272l-6 -149h3z" />
<glyph unicode="6" d="M273 -12q-99 0 -164.5 69t-65.5 198q0 170 112 286.5t274 124.5l14 -106q-96 -8 -162 -59t-92 -135h2q17 21 51 33t66 12q93 0 151 -56.5t58 -140.5q0 -106 -71 -166t-173 -60zM277 309q-35 0 -62.5 -22t-27.5 -56q0 -60 27 -97t68 -37q39 0 65 29t26 73q0 52 -25.5 81 t-70.5 29z" />
<glyph unicode="7" d="M517 658v-108l-266 -550h-138l269 549v2h-321v107h456z" />
<glyph unicode="8" d="M383 346q132 -62 132 -162q0 -94 -70 -144t-168 -50q-103 0 -169 49t-66 135q0 111 140 163v2q-56 30 -83.5 66t-27.5 88q0 71 59.5 123t156.5 52t155 -48.5t58 -118.5q0 -95 -117 -153v-2zM211 491q0 -56 76 -95q74 36 74 97q0 31 -21.5 51.5t-55.5 20.5q-33 0 -53 -22 t-20 -52zM279 97q42 0 68 24.5t26 62.5q0 37 -22 62.5t-74 47.5q-47 -17 -70 -40t-23 -60q0 -42 26.5 -69.5t68.5 -27.5z" />
<glyph unicode="9" d="M285 666q99 0 164.5 -69t65.5 -198q0 -170 -112 -286.5t-274 -124.5l-14 106q96 8 162 59t92 135h-2q-17 -21 -51 -33t-66 -12q-93 0 -151 56.5t-58 140.5q0 106 71 166t173 60zM281 345q35 0 62.5 22t27.5 56q0 60 -27 97t-68 37q-39 0 -65 -29t-26 -73q0 -52 25.5 -81 t70.5 -29z" />
<glyph unicode=":" horiz-adv-x="250" d="M125 494q33 0 56 -23t23 -56t-23 -56t-56 -23t-56 23t-23 56t23 56t56 23zM125 148q33 0 56 -23t23 -56t-23 -56t-56 -23t-56 23t-23 56t23 56t56 23z" />
<glyph unicode=";" horiz-adv-x="270" d="M145 494q33 0 56 -23t23 -56t-23 -56t-56 -23t-56 23t-23 56t23 56t56 23zM60 76q12 49 72 49h83q-43 -131 -105 -277l-119 -13q45 140 69 241z" />
<glyph unicode="&#x3c;" horiz-adv-x="470" d="M138 263l279 -132v-126l-386 196v126l386 196v-126l-279 -131v-3z" />
<glyph unicode="=" horiz-adv-x="665" d="M596 100h-527v98h527v-98zM596 314h-527v98h527v-98z" />
<glyph unicode="&#x3e;" horiz-adv-x="470" d="M332 263v3l-279 131v126l386 -196v-126l-386 -196v126z" />
<glyph unicode="?" horiz-adv-x="442" d="M260 69q0 33 -23 56t-56 23t-56 -23t-23 -56t23 -56t56 -23t56 23t23 56zM406 520q0 -53 -24 -93t-90 -115q-28 -32 -38 -53t-10 -46v-15h-130v16q0 47 17 84t60 82q71 74 71 130q0 30 -24 50.5t-72 20.5q-69 0 -126 -32l-14 104q77 35 179 35q90 0 145.5 -47t55.5 -121z " />
<glyph unicode="@" horiz-adv-x="899" d="M510 597q133 0 218.5 -83.5t85.5 -203.5q0 -122 -59 -191t-150 -69q-99 0 -118 69h-2q-37 -76 -116 -76q-57 0 -95 41t-38 103q0 114 68.5 179t186.5 65q79 0 139 -28l-30 -199q-2 -14 -2 -26q0 -55 47 -55q37 0 62 47t25 114q0 110 -65 174.5t-192 64.5 q-135 0 -236.5 -90.5t-101.5 -229.5q0 -125 71.5 -197.5t193.5 -72.5q101 0 195 51l9 -69q-104 -56 -239 -56q-126 0 -219 90t-93 230q0 124 64 221t167 147t224 50zM494 248l12 83q-15 5 -35 5q-50 0 -82.5 -34t-32.5 -98q0 -30 15 -48t37 -18q70 0 86 110z" />
<glyph unicode="A" horiz-adv-x="632" d="M478 0l-63 199h-205l-62 -199h-134l234 678h138l234 -678h-142zM311 554q-25 -107 -70 -248h143q-45 141 -70 248h-3z" />
<glyph unicode="B" horiz-adv-x="571" d="M396 363q134 -41 134 -154q0 -103 -76.5 -158.5t-203.5 -55.5q-82 0 -184 14v659q120 15 200 15q116 0 181 -47t65 -123q0 -52 -32.5 -91t-83.5 -57v-2zM200 399h66q100 0 100 88q0 89 -98 89q-37 0 -68 -5v-172zM269 296h-69v-190q36 -4 74 -4q53 0 82.5 23.5t29.5 69.5 q0 101 -117 101z" />
<glyph unicode="C" horiz-adv-x="625" d="M28 333q0 163 108 259t267 96q119 0 200 -32l-14 -107q-83 32 -175 32q-112 0 -177 -59.5t-65 -182.5q0 -117 64 -179.5t168 -62.5q94 0 177 34l14 -108q-83 -33 -218 -33q-151 0 -250 89t-99 254z" />
<glyph unicode="D" horiz-adv-x="713" d="M66 667q110 16 218 16q187 0 294 -80.5t107 -236.5q0 -179 -116 -275t-298 -96q-120 0 -205 13v659zM200 570v-465q48 -3 100 -3q104 0 172.5 61t68.5 183q0 111 -66.5 170.5t-182.5 59.5q-47 0 -92 -6z" />
<glyph unicode="E" horiz-adv-x="498" d="M200 107h270v-107h-404v678h395v-107h-261v-167h227v-107h-227v-190z" />
<glyph unicode="F" horiz-adv-x="470" d="M200 0h-134v678h395v-107h-261v-178h227v-107h-227v-286z" />
<glyph unicode="G" horiz-adv-x="673" d="M411 581q-110 0 -174.5 -61.5t-64.5 -180.5q0 -118 59 -180t154 -62q65 0 101 13v151h-122v107h256v-338q-101 -40 -243 -40q-153 0 -251 85.5t-98 252.5q0 112 52 195t135.5 124t184.5 41q119 0 200 -32l-14 -107q-89 32 -175 32z" />
<glyph unicode="H" horiz-adv-x="707" d="M507 678h134v-678h-134v296h-307v-296h-134v678h134v-275h307v275z" />
<glyph unicode="I" horiz-adv-x="266" d="M200 0h-134v678h134v-678z" />
<glyph unicode="J" horiz-adv-x="381" d="M330 238q0 -248 -250 -248q-54 0 -96 14l14 104q37 -11 81 -11q67 0 92 33.5t25 101.5v446h134v-440z" />
<glyph unicode="K" horiz-adv-x="595" d="M596 678l-288 -318l310 -360h-184l-211 266h-3l-20 -24v-242h-134v678h134v-277h4l224 277h168z" />
<glyph unicode="L" horiz-adv-x="513" d="M66 678h134v-575h305v-103h-439v678z" />
<glyph unicode="M" horiz-adv-x="851" d="M598 654h164l23 -654h-134l-6 327v25q0 75 5 135h-3q-17 -83 -45 -160l-114 -307h-140l-111 307q-34 94 -44 156h-3q6 -48 6 -109q0 -22 -1 -47l-6 -327h-126l23 654h164l116 -327q50 -140 55 -195h3q5 51 56 195z" />
<glyph unicode="N" horiz-adv-x="716" d="M653 678v-678h-189l-198 368q-39 72 -81 178h-3q7 -123 7 -178v-368h-126v678h190l191 -358q47 -86 87 -189h3q-7 89 -7 189v358h126z" />
<glyph unicode="O" horiz-adv-x="752" d="M376 687q151 0 249.5 -99.5t98.5 -248.5t-98.5 -249t-249.5 -100t-249.5 100t-98.5 249t98.5 248.5t249.5 99.5zM376 97q89 0 145 63t56 179t-55.5 178.5t-145.5 62.5t-145.5 -62.5t-55.5 -178.5t56 -179t145 -63z" />
<glyph unicode="P" horiz-adv-x="534" d="M200 572v-221q18 -1 53 -1q55 0 89.5 28t34.5 86q0 55 -31 83.5t-84 28.5q-33 0 -62 -4zM66 0v666q95 17 195 17q124 0 192 -55t68 -149q0 -115 -76.5 -177.5t-189.5 -62.5q-38 0 -55 2v-241h-134z" />
<glyph unicode="Q" horiz-adv-x="752" d="M724 339q0 -108 -55.5 -194t-148.5 -126l38 -142l-130 -32l-35 147q-10 -2 -17 -2q-151 0 -249.5 100t-98.5 249t98.5 248.5t249.5 99.5t249.5 -99.5t98.5 -248.5zM376 97q89 0 145 63t56 179t-55.5 178.5t-145.5 62.5t-145.5 -62.5t-55.5 -178.5t56 -179t145 -63z" />
<glyph unicode="R" d="M200 377h63q53 0 82 26t29 75q0 97 -104 97q-50 0 -70 -4v-194zM265 274h-65v-274h-134v666q92 16 205 16q125 0 191 -49.5t66 -128.5q0 -64 -37.5 -105t-92.5 -59v-2q37 -15 58.5 -48t34.5 -93q20 -89 54 -197h-148q-26 97 -44 186q-10 47 -29.5 67.5t-58.5 20.5z" />
<glyph unicode="S" horiz-adv-x="545" d="M71 488q0 96 71 148t173 52q101 0 161 -24l-14 -106q-62 23 -139 23q-51 0 -81.5 -20t-30.5 -58q0 -40 26 -61.5t79 -36.5q91 -26 137 -70t46 -126q0 -104 -79 -161.5t-197 -57.5q-105 0 -178 26l14 108q88 -27 172 -27q58 0 93 23.5t35 66.5q0 40 -25 63t-77 37 q-88 25 -137 71t-49 130z" />
<glyph unicode="T" horiz-adv-x="590" d="M575 678v-107h-214v-571h-134v571h-212v107h560z" />
<glyph unicode="U" horiz-adv-x="643" d="M583 233q0 -116 -74 -179.5t-187 -63.5q-111 0 -185 60.5t-74 163.5v464h134v-454q0 -62 36.5 -95t90.5 -33q57 0 95 31.5t38 96.5v454h126v-445z" />
<glyph unicode="V" horiz-adv-x="593" d="M468 678h134l-234 -678h-138l-234 678h142l89 -279q49 -157 75 -272h3q35 149 75 272z" />
<glyph unicode="W" horiz-adv-x="911" d="M784 678h132l-203 -678h-135l-81 323q-26 108 -38 221h-3q-11 -114 -37 -220l-82 -324h-134l-203 678h140l86 -323q37 -125 44 -226h3q7 96 40 225l82 324h134l82 -323q31 -125 40 -225h3q7 92 43 225z" />
<glyph unicode="X" horiz-adv-x="549" d="M542 678l-195 -327l210 -351h-158l-127 235h-2l-126 -235h-148l205 343l-200 335h158l116 -218h2l117 218h148z" />
<glyph unicode="Y" horiz-adv-x="560" d="M425 678h144l-217 -387v-291h-134v281l-222 397h154l136 -274h2z" />
<glyph unicode="Z" horiz-adv-x="552" d="M176 103h354v-103h-506v112l336 461v2h-304v103h456v-111l-336 -462v-2z" />
<glyph unicode="[" horiz-adv-x="348" d="M320 602h-126v-591h126v-98h-238v787h238v-98z" />
<glyph unicode="\" horiz-adv-x="425" d="M117 700l313 -737h-122l-313 737h122z" />
<glyph unicode="]" horiz-adv-x="348" d="M28 602v98h238v-787h-238v98h126v591h-126z" />
<glyph unicode="^" horiz-adv-x="569" d="M347 674l176 -390h-123l-114 272h-3l-115 -272h-122l176 390h125z" />
<glyph unicode="_" horiz-adv-x="579" d="M553 -143h-527v98h527v-98z" />
<glyph unicode="`" horiz-adv-x="313" d="M23 704h93q21 0 33 -20q33 -58 98 -158l-102 -5q-60 75 -122 183z" />
<glyph unicode="a" horiz-adv-x="515" d="M254 498q101 0 151.5 -45.5t50.5 -128.5v-324h-131l-3 61h-2q-44 -71 -133 -71q-66 0 -111.5 45.5t-45.5 116.5q0 80 65 122t164 42q21 0 63 -5v9q0 36 -25.5 55.5t-71.5 19.5q-61 0 -128 -29l-14 100q81 32 171 32zM322 223v8q-28 4 -54 4q-98 0 -98 -73q0 -31 17.5 -50 t48.5 -19q86 0 86 130z" />
<glyph unicode="b" horiz-adv-x="603" d="M202 431q36 36 71.5 51.5t87.5 15.5q98 0 154 -68.5t56 -176.5q0 -112 -60 -187.5t-156 -75.5q-51 0 -86 15.5t-67 51.5h-2l-3 -57h-131v720h134v-289h2zM200 255v-22q0 -65 30 -102.5t82 -37.5q58 0 88 40.5t30 111.5t-30.5 110.5t-89.5 39.5q-53 0 -81.5 -38 t-28.5 -102z" />
<glyph unicode="c" horiz-adv-x="474" d="M175 242q0 -74 39 -111.5t101 -37.5q63 0 115 25l14 -100q-71 -28 -165 -28q-112 0 -179.5 64.5t-67.5 176.5q0 128 79.5 197.5t195.5 69.5q90 0 142 -29l-14 -100q-54 26 -118 26q-68 0 -105 -39.5t-37 -113.5z" />
<glyph unicode="d" horiz-adv-x="603" d="M401 57q-36 -36 -72 -51.5t-87 -15.5q-98 0 -154 68.5t-56 176.5q0 112 60 187.5t156 75.5q50 0 85 -16t68 -51h2v289h134v-720h-131l-3 57h-2zM403 233v22q0 65 -30 102.5t-82 37.5q-58 0 -88 -40.5t-30 -111.5t30.5 -110.5t89.5 -39.5q53 0 81.5 38t28.5 102z" />
<glyph unicode="e" horiz-adv-x="522" d="M487 273q0 -40 -6 -67h-317q4 -56 40 -84.5t98 -28.5q66 0 137 29l14 -100q-72 -32 -168 -32q-116 0 -184.5 63t-68.5 178q0 121 69 194t184 73q93 0 147.5 -65t54.5 -160zM271 395q-39 0 -66.5 -27t-35.5 -70h189q-2 41 -24 69t-63 28z" />
<glyph unicode="f" horiz-adv-x="375" d="M104 499q0 108 62 169.5t164 61.5q53 0 86 -14l-14 -98q-23 9 -54 9q-50 0 -80 -29.5t-30 -89.5v-20h120v-103h-120v-385h-134v385h-81v103h81v11z" />
<glyph unicode="g" horiz-adv-x="601" d="M535 488v-416q0 -134 -78 -206t-212 -72q-97 0 -174 35l14 102q79 -34 154 -34q162 0 162 149v17h-2q-36 -36 -72 -51.5t-87 -15.5q-95 0 -151.5 68t-56.5 175q0 111 60 185t154 74q50 0 85 -16t68 -51h2l3 57h131zM289 395q-56 0 -86 -39t-30 -109t30.5 -109t87.5 -39 q53 0 81.5 38t28.5 102v16q0 65 -30 102.5t-82 37.5z" />
<glyph unicode="h" horiz-adv-x="570" d="M200 250v-250h-134v720h134v-294h2q54 72 145 72q166 0 166 -186v-312h-134v293q0 98 -77 98q-102 0 -102 -141z" />
<glyph unicode="i" horiz-adv-x="266" d="M66 0v488h134v-488h-134zM133 530q-32 0 -54.5 22.5t-22.5 54.5t22.5 54.5t54.5 22.5q31 0 54 -23t23 -54q0 -32 -22.5 -54.5t-54.5 -22.5z" />
<glyph unicode="j" horiz-adv-x="280" d="M147 530q-32 0 -54.5 22.5t-22.5 54.5t22.5 54.5t54.5 22.5q31 0 54 -23t23 -54q0 -32 -22.5 -54.5t-54.5 -22.5zM214 39q0 -124 -69.5 -180t-191.5 -65l-14 102q71 9 106 39.5t35 97.5v455h134v-449z" />
<glyph unicode="k" horiz-adv-x="521" d="M527 488l-204 -206l219 -282h-169l-141 186h-3l-29 -31v-155h-134v720h134v-420h3q23 32 48 63l100 125h176z" />
<glyph unicode="l" horiz-adv-x="266" d="M200 0h-134v720h134v-720z" />
<glyph unicode="m" horiz-adv-x="839" d="M477 407h3q57 91 150 91q152 0 152 -181v-317h-134v298q0 93 -72 93q-85 0 -85 -161v-230h-134v298q0 93 -72 93q-85 0 -85 -161v-230h-134v488h131l3 -62h2q44 72 134 72q110 0 141 -91z" />
<glyph unicode="n" horiz-adv-x="570" d="M200 250v-250h-134v488h131l3 -62h2q54 72 145 72q166 0 166 -186v-312h-134v293q0 98 -77 98q-102 0 -102 -141z" />
<glyph unicode="o" horiz-adv-x="562" d="M281 498q113 0 181 -72.5t68 -181.5t-68 -181.5t-181 -72.5t-181 72.5t-68 181.5t68 181.5t181 72.5zM281 93q54 0 81 41t27 110t-27 110t-81 41t-81 -41t-27 -110t27 -110t81 -41z" />
<glyph unicode="p" horiz-adv-x="603" d="M202 431q36 36 71.5 51.5t87.5 15.5q98 0 154 -68.5t56 -176.5q0 -112 -60 -187.5t-156 -75.5q-51 0 -86 15.5t-67 51.5h-2v-253h-134v684h131l3 -57h2zM200 255v-22q0 -65 30 -102.5t82 -37.5q58 0 88 40.5t30 111.5t-30.5 110.5t-89.5 39.5q-53 0 -81.5 -38t-28.5 -102 z" />
<glyph unicode="q" horiz-adv-x="603" d="M401 57q-36 -36 -72 -51.5t-87 -15.5q-98 0 -154 68.5t-56 176.5q0 112 60 187.5t156 75.5q50 0 85 -16t68 -51h2l3 57h131v-684h-134v253h-2zM403 233v22q0 65 -30 102.5t-82 37.5q-58 0 -88 -40.5t-30 -111.5t30.5 -110.5t89.5 -39.5q53 0 81.5 38t28.5 102z" />
<glyph unicode="r" horiz-adv-x="358" d="M355 498l-3 -130q-66 -3 -103 -29q-25 -18 -37 -52t-12 -103v-184h-134v488h131l3 -87h2q21 41 63 67.5t90 29.5z" />
<glyph unicode="s" horiz-adv-x="416" d="M186 187q-66 19 -99.5 53.5t-33.5 99.5q0 70 53.5 114t134.5 44q66 0 121 -22l-14 -100q-40 19 -94 19q-25 0 -43.5 -11.5t-18.5 -31.5q0 -38 47 -51q79 -22 111.5 -54.5t32.5 -93.5q0 -75 -61.5 -119t-146.5 -44q-77 0 -145 26l14 101q66 -24 129 -24q71 0 71 42 q0 35 -58 52z" />
<glyph unicode="t" horiz-adv-x="405" d="M364 488v-103h-124v-215q0 -77 68 -77q25 0 54 8l14 -98q-43 -13 -112 -13q-70 0 -114 36.5t-44 114.5v244h-83v103h83v113h134v-113h124z" />
<glyph unicode="u" horiz-adv-x="570" d="M370 238v250h134v-488h-131l-3 62h-2q-54 -72 -145 -72q-166 0 -166 186v312h134v-293q0 -98 77 -98q102 0 102 141z" />
<glyph unicode="v" horiz-adv-x="510" d="M379 488h135l-188 -488h-139l-188 488h144l77 -226q26 -77 39 -145h3q12 62 40 145z" />
<glyph unicode="w" horiz-adv-x="780" d="M645 488h135l-167 -488h-138l-58 226q-20 84 -24 146h-3q-4 -69 -23 -145l-58 -227h-139l-167 488h144l64 -229q26 -94 30 -152h3q2 59 26 150l58 231h136l58 -230q23 -92 27 -151h3q2 58 29 151z" />
<glyph unicode="x" horiz-adv-x="503" d="M322 253l182 -253h-164l-94 158h-3l-93 -158h-154l177 246v3l-174 239h164l85 -144h3l86 144h154l-169 -232v-3z" />
<glyph unicode="y" horiz-adv-x="510" d="M339 35q-50 -130 -112 -181.5t-162 -59.5l-14 102q54 7 83.5 25.5t45.5 55.5l8 21l-189 490h144l77 -226q26 -77 39 -145h3q12 62 40 145l77 226h135z" />
<glyph unicode="z" horiz-adv-x="458" d="M58 488h363v-102l-228 -281v-2h236v-103h-398v99l231 284v2h-204v103z" />
<glyph unicode="{" horiz-adv-x="353" d="M159 306q49 -5 75 -34q23 -24 23 -62q0 -7 -1 -15l-14 -118q-1 -5 -1 -10q0 -29 19 -45q23 -20 68 -20v-98q-100 0 -154 39q-47 33 -47 99q0 10 1 22l14 113q1 9 1 18q0 32 -16 45q-20 16 -66 18v98q46 2 66 18q16 13 16 45q0 9 -1 18l-14 113q-1 12 -1 22q0 66 47 99 q54 39 154 39v-98q-45 0 -68 -20q-19 -16 -19 -45q0 -5 1 -10l14 -118q1 -8 1 -15q0 -38 -23 -62q-26 -29 -75 -34v-2z" />
<glyph unicode="|" horiz-adv-x="276" d="M194 -250h-112v1000h112v-1000z" />
<glyph unicode="}" horiz-adv-x="353" d="M194 306v2q-49 5 -76 34q-22 25 -22 60q0 8 1 17l14 118q1 5 1 10q0 29 -20 45q-22 20 -67 20v98q100 0 155 -39q46 -33 46 -99q0 -10 -1 -22l-14 -113q-1 -9 -1 -18q0 -32 16 -45q20 -16 66 -18v-98q-46 -2 -66 -18q-16 -13 -16 -45q0 -9 1 -18l14 -113q1 -12 1 -22 q0 -66 -46 -99q-55 -39 -155 -39v98q45 0 67 20q20 16 20 45q0 5 -1 10l-14 118q-1 9 -1 17q0 35 22 60q27 29 76 34z" />
<glyph unicode="~" horiz-adv-x="754" d="M354 202q-87 40 -113 49.5t-45 9.5q-47 0 -47 -91h-98q0 90 43 139.5t122 49.5q39 0 76.5 -11.5t107.5 -43.5q87 -40 113 -49.5t45 -9.5q47 0 47 91h98q0 -91 -43 -140t-122 -49q-39 0 -76.5 11.5t-107.5 43.5z" />
<glyph unicode="&#xa5;" d="M526 658l-133 -265h99v-82h-144v-54h144v-82h-144v-175h-134v175h-144v82h144v54h-144v82h94l-132 265h148l56 -135q33 -80 46 -140h3q10 48 45 140l56 135h140z" />
<glyph unicode="&#xaa;" horiz-adv-x="515" d="M254 498q101 0 151.5 -45.5t50.5 -128.5v-324h-131l-3 61h-2q-44 -71 -133 -71q-66 0 -111.5 45.5t-45.5 116.5q0 80 65 122t164 42q21 0 63 -5v9q0 36 -25.5 55.5t-71.5 19.5q-61 0 -128 -29l-14 100q81 32 171 32zM322 223v8q-28 4 -54 4q-98 0 -98 -73q0 -31 17.5 -50 t48.5 -19q86 0 86 130z" />
<glyph unicode="&#xad;" horiz-adv-x="392" d="M334 305v-98h-276v98h276z" />
<glyph unicode="&#xb2;" d="M334 212l-106 -103v-2h277v-107h-447v105l113 115q119 122 153.5 167t34.5 87q0 39 -28 63t-80 24q-63 0 -141 -31l-14 106q90 32 182 32q101 0 163 -49.5t62 -129.5q0 -72 -36 -128t-133 -149z" />
<glyph unicode="&#xb3;" d="M227 -10q-111 0 -183 39l14 106q82 -38 166 -38q58 0 96.5 22t38.5 65q0 85 -152 93v104q60 1 96 26t36 68q0 40 -30.5 63t-77.5 23q-67 0 -132 -27l-13 104q98 30 178 30q104 0 161.5 -42t57.5 -114q0 -64 -43 -104.5t-106 -53.5v-2q76 -12 122.5 -53t46.5 -107 q0 -93 -81 -147.5t-195 -54.5z" />
<glyph unicode="&#xb9;" d="M323 658h67v-658h-134v505l-142 -47l-13 104z" />
<glyph unicode="&#xba;" horiz-adv-x="562" d="M281 498q113 0 181 -72.5t68 -181.5t-68 -181.5t-181 -72.5t-181 72.5t-68 181.5t68 181.5t181 72.5zM281 93q54 0 81 41t27 110t-27 110t-81 41t-81 -41t-27 -110t27 -110t81 -41z" />
<glyph unicode="&#xc0;" horiz-adv-x="632" d="M144 930h93q21 0 33 -20q33 -58 98 -158l-102 -5q-60 75 -122 183zM478 0l-63 199h-205l-62 -199h-134l234 678h138l234 -678h-142zM311 554q-25 -107 -70 -248h143q-45 141 -70 248h-3z" />
<glyph unicode="&#xc2;" horiz-adv-x="632" d="M379 1137l176 -390h-123l-114 272h-3l-115 -272h-122l176 390h125zM478 0l-63 199h-205l-62 -199h-134l234 678h138l234 -678h-142zM311 554q-25 -107 -70 -248h143q-45 141 -70 248h-3z" />
<glyph unicode="&#xc3;" horiz-adv-x="632" d="M294 802q-87 40 -113 49.5t-45 9.5q-47 0 -47 -91h-98q0 90 43 139.5t122 49.5q39 0 76.5 -11.5t107.5 -43.5q87 -40 113 -49.5t45 -9.5q47 0 47 91h98q0 -91 -43 -140t-122 -49q-39 0 -76.5 11.5t-107.5 43.5zM478 0l-63 199h-205l-62 -199h-134l234 678h138l234 -678 h-142zM311 554q-25 -107 -70 -248h143q-45 141 -70 248h-3z" />
<glyph unicode="&#xc8;" horiz-adv-x="498" d="M91 930h93q21 0 33 -20q33 -58 98 -158l-102 -5q-60 75 -122 183zM200 107h270v-107h-404v678h395v-107h-261v-167h227v-107h-227v-190z" />
<glyph unicode="&#xca;" horiz-adv-x="498" d="M326 1137l176 -390h-123l-114 272h-3l-115 -272h-122l176 390h125zM200 107h270v-107h-404v678h395v-107h-261v-167h227v-107h-227v-190z" />
<glyph unicode="&#xcc;" horiz-adv-x="266" d="M-40 930h93q21 0 33 -20q33 -58 98 -158l-102 -5q-60 75 -122 183zM200 0h-134v678h134v-678z" />
<glyph unicode="&#xce;" horiz-adv-x="266" d="M195 1137l176 -390h-123l-114 272h-3l-115 -272h-122l176 390h125zM200 0h-134v678h134v-678z" />
<glyph unicode="&#xd1;" horiz-adv-x="716" d="M335 802q-87 40 -113 49.5t-45 9.5q-47 0 -47 -91h-98q0 90 43 139.5t122 49.5q39 0 76.5 -11.5t107.5 -43.5q87 -40 113 -49.5t45 -9.5q47 0 47 91h98q0 -91 -43 -140t-122 -49q-39 0 -76.5 11.5t-107.5 43.5zM653 678v-678h-189l-198 368q-39 72 -81 178h-3 q7 -123 7 -178v-368h-126v678h190l191 -358q47 -86 87 -189h3q-7 89 -7 189v358h126z" />
<glyph unicode="&#xd2;" horiz-adv-x="752" d="M203 930h93q21 0 33 -20q33 -58 98 -158l-102 -5q-60 75 -122 183zM376 687q151 0 249.5 -99.5t98.5 -248.5t-98.5 -249t-249.5 -100t-249.5 100t-98.5 249t98.5 248.5t249.5 99.5zM376 97q89 0 145 63t56 179t-55.5 178.5t-145.5 62.5t-145.5 -62.5t-55.5 -178.5 t56 -179t145 -63z" />
<glyph unicode="&#xd4;" horiz-adv-x="752" d="M439 1137l176 -390h-123l-114 272h-3l-115 -272h-122l176 390h125zM376 687q151 0 249.5 -99.5t98.5 -248.5t-98.5 -249t-249.5 -100t-249.5 100t-98.5 249t98.5 248.5t249.5 99.5zM376 97q89 0 145 63t56 179t-55.5 178.5t-145.5 62.5t-145.5 -62.5t-55.5 -178.5 t56 -179t145 -63z" />
<glyph unicode="&#xd5;" horiz-adv-x="752" d="M353 802q-87 40 -113 49.5t-45 9.5q-47 0 -47 -91h-98q0 90 43 139.5t122 49.5q39 0 76.5 -11.5t107.5 -43.5q87 -40 113 -49.5t45 -9.5q47 0 47 91h98q0 -91 -43 -140t-122 -49q-39 0 -76.5 11.5t-107.5 43.5zM376 687q151 0 249.5 -99.5t98.5 -248.5t-98.5 -249 t-249.5 -100t-249.5 100t-98.5 249t98.5 248.5t249.5 99.5zM376 97q89 0 145 63t56 179t-55.5 178.5t-145.5 62.5t-145.5 -62.5t-55.5 -178.5t56 -179t145 -63z" />
<glyph unicode="&#xd9;" horiz-adv-x="643" d="M150 930h93q21 0 33 -20q33 -58 98 -158l-102 -5q-60 75 -122 183zM583 233q0 -116 -74 -179.5t-187 -63.5q-111 0 -185 60.5t-74 163.5v464h134v-454q0 -62 36.5 -95t90.5 -33q57 0 95 31.5t38 96.5v454h126v-445z" />
<glyph unicode="&#xdb;" horiz-adv-x="643" d="M385 1137l176 -390h-123l-114 272h-3l-115 -272h-122l176 390h125zM583 233q0 -116 -74 -179.5t-187 -63.5q-111 0 -185 60.5t-74 163.5v464h134v-454q0 -62 36.5 -95t90.5 -33q57 0 95 31.5t38 96.5v454h126v-445z" />
<glyph unicode="&#xe0;" horiz-adv-x="515" d="M81 741h93q21 0 33 -20q33 -58 98 -158l-102 -5q-60 75 -122 183zM254 498q101 0 151.5 -45.5t50.5 -128.5v-324h-131l-3 61h-2q-44 -71 -133 -71q-66 0 -111.5 45.5t-45.5 116.5q0 80 65 122t164 42q21 0 63 -5v9q0 36 -25.5 55.5t-71.5 19.5q-61 0 -128 -29l-14 100 q81 32 171 32zM322 223v8q-28 4 -54 4q-98 0 -98 -73q0 -31 17.5 -50t48.5 -19q86 0 86 130z" />
<glyph unicode="&#xe2;" horiz-adv-x="515" d="M317 948l176 -390h-123l-114 272h-3l-115 -272h-122l176 390h125zM254 498q101 0 151.5 -45.5t50.5 -128.5v-324h-131l-3 61h-2q-44 -71 -133 -71q-66 0 -111.5 45.5t-45.5 116.5q0 80 65 122t164 42q21 0 63 -5v9q0 36 -25.5 55.5t-71.5 19.5q-61 0 -128 -29l-14 100 q81 32 171 32zM322 223v8q-28 4 -54 4q-98 0 -98 -73q0 -31 17.5 -50t48.5 -19q86 0 86 130z" />
<glyph unicode="&#xe3;" horiz-adv-x="515" d="M231 613q-87 40 -113 49.5t-45 9.5q-47 0 -47 -91h-98q0 90 43 139.5t122 49.5q39 0 76.5 -11.5t107.5 -43.5q87 -40 113 -49.5t45 -9.5q47 0 47 91h98q0 -91 -43 -140t-122 -49q-39 0 -76.5 11.5t-107.5 43.5zM254 498q101 0 151.5 -45.5t50.5 -128.5v-324h-131l-3 61 h-2q-44 -71 -133 -71q-66 0 -111.5 45.5t-45.5 116.5q0 80 65 122t164 42q21 0 63 -5v9q0 36 -25.5 55.5t-71.5 19.5q-61 0 -128 -29l-14 100q81 32 171 32zM322 223v8q-28 4 -54 4q-98 0 -98 -73q0 -31 17.5 -50t48.5 -19q86 0 86 130z" />
<glyph unicode="&#xe8;" horiz-adv-x="522" d="M112 741h93q21 0 33 -20q33 -58 98 -158l-102 -5q-60 75 -122 183zM487 273q0 -40 -6 -67h-317q4 -56 40 -84.5t98 -28.5q66 0 137 29l14 -100q-72 -32 -168 -32q-116 0 -184.5 63t-68.5 178q0 121 69 194t184 73q93 0 147.5 -65t54.5 -160zM271 395q-39 0 -66.5 -27 t-35.5 -70h189q-2 41 -24 69t-63 28z" />
<glyph unicode="&#xea;" horiz-adv-x="522" d="M347 948l176 -390h-123l-114 272h-3l-115 -272h-122l176 390h125zM487 273q0 -40 -6 -67h-317q4 -56 40 -84.5t98 -28.5q66 0 137 29l14 -100q-72 -32 -168 -32q-116 0 -184.5 63t-68.5 178q0 121 69 194t184 73q93 0 147.5 -65t54.5 -160zM271 395q-39 0 -66.5 -27 t-35.5 -70h189q-2 41 -24 69t-63 28z" />
<glyph unicode="&#xec;" horiz-adv-x="266" d="M-40 927h93q21 0 33 -20q33 -58 98 -158l-102 -5q-60 75 -122 183zM66 0v488h134v-488h-134zM133 530q-32 0 -54.5 22.5t-22.5 54.5t22.5 54.5t54.5 22.5q31 0 54 -23t23 -54q0 -32 -22.5 -54.5t-54.5 -22.5z" />
<glyph unicode="&#xee;" horiz-adv-x="266" d="M195 1134l176 -390h-123l-114 272h-3l-115 -272h-122l176 390h125zM66 0v488h134v-488h-134zM133 530q-32 0 -54.5 22.5t-22.5 54.5t22.5 54.5t54.5 22.5q31 0 54 -23t23 -54q0 -32 -22.5 -54.5t-54.5 -22.5z" />
<glyph unicode="&#xf1;" horiz-adv-x="570" d="M266 613q-87 40 -113 49.5t-45 9.5q-47 0 -47 -91h-98q0 90 43 139.5t122 49.5q39 0 76.5 -11.5t107.5 -43.5q87 -40 113 -49.5t45 -9.5q47 0 47 91h98q0 -91 -43 -140t-122 -49q-39 0 -76.5 11.5t-107.5 43.5zM200 250v-250h-134v488h131l3 -62h2q54 72 145 72 q166 0 166 -186v-312h-134v293q0 98 -77 98q-102 0 -102 -141z" />
<glyph unicode="&#xf2;" horiz-adv-x="562" d="M108 741h93q21 0 33 -20q33 -58 98 -158l-102 -5q-60 75 -122 183zM281 498q113 0 181 -72.5t68 -181.5t-68 -181.5t-181 -72.5t-181 72.5t-68 181.5t68 181.5t181 72.5zM281 93q54 0 81 41t27 110t-27 110t-81 41t-81 -41t-27 -110t27 -110t81 -41z" />
<glyph unicode="&#xf4;" horiz-adv-x="562" d="M343 948l176 -390h-123l-114 272h-3l-115 -272h-122l176 390h125zM281 498q113 0 181 -72.5t68 -181.5t-68 -181.5t-181 -72.5t-181 72.5t-68 181.5t68 181.5t181 72.5zM281 93q54 0 81 41t27 110t-27 110t-81 41t-81 -41t-27 -110t27 -110t81 -41z" />
<glyph unicode="&#xf5;" horiz-adv-x="562" d="M258 613q-87 40 -113 49.5t-45 9.5q-47 0 -47 -91h-98q0 90 43 139.5t122 49.5q39 0 76.5 -11.5t107.5 -43.5q87 -40 113 -49.5t45 -9.5q47 0 47 91h98q0 -91 -43 -140t-122 -49q-39 0 -76.5 11.5t-107.5 43.5zM281 498q113 0 181 -72.5t68 -181.5t-68 -181.5t-181 -72.5 t-181 72.5t-68 181.5t68 181.5t181 72.5zM281 93q54 0 81 41t27 110t-27 110t-81 41t-81 -41t-27 -110t27 -110t81 -41z" />
<glyph unicode="&#xf9;" horiz-adv-x="570" d="M107 741h93q21 0 33 -20q33 -58 98 -158l-102 -5q-60 75 -122 183zM370 238v250h134v-488h-131l-3 62h-2q-54 -72 -145 -72q-166 0 -166 186v312h134v-293q0 -98 77 -98q102 0 102 141z" />
<glyph unicode="&#xfb;" horiz-adv-x="570" d="M343 948l176 -390h-123l-114 272h-3l-115 -272h-122l176 390h125zM370 238v250h134v-488h-131l-3 62h-2q-54 -72 -145 -72q-166 0 -166 186v312h134v-293q0 -98 77 -98q102 0 102 141z" />
<glyph unicode="&#x152;" horiz-adv-x="1250" d="M952 107h270v-107h-404v678h395v-107h-261v-167h227v-107h-227v-190zM376 687q151 0 249.5 -99.5t98.5 -248.5t-98.5 -249t-249.5 -100t-249.5 100t-98.5 249t98.5 248.5t249.5 99.5zM376 97q89 0 145 63t56 179t-55.5 178.5t-145.5 62.5t-145.5 -62.5t-55.5 -178.5 t56 -179t145 -63z" />
<glyph unicode="&#x153;" horiz-adv-x="1084" d="M1049 273q0 -40 -6 -67h-317q4 -56 40 -84.5t98 -28.5q66 0 137 29l14 -100q-72 -32 -168 -32q-116 0 -184.5 63t-68.5 178q0 121 69 194t184 73q93 0 147.5 -65t54.5 -160zM833 395q-39 0 -66.5 -27t-35.5 -70h189q-2 41 -24 69t-63 28zM281 498q113 0 181 -72.5 t68 -181.5t-68 -181.5t-181 -72.5t-181 72.5t-68 181.5t68 181.5t181 72.5zM281 93q54 0 81 41t27 110t-27 110t-81 41t-81 -41t-27 -110t27 -110t81 -41z" />
<glyph unicode="&#x2c6;" horiz-adv-x="569" d="M347 674l176 -390h-123l-114 272h-3l-115 -272h-122l176 390h125z" />
<glyph unicode="&#x2dc;" horiz-adv-x="196" d="M-23 115q-87 40 -113 49.5t-45 9.5q-47 0 -47 -91h-98q0 90 43 139.5t122 49.5q39 0 76.5 -11.5t107.5 -43.5q87 -40 113 -49.5t45 -9.5q47 0 47 91h98q0 -91 -43 -140t-122 -49q-39 0 -76.5 11.5t-107.5 43.5z" />
<glyph unicode="&#x2000;" horiz-adv-x="568" />
<glyph unicode="&#x2001;" horiz-adv-x="1137" />
<glyph unicode="&#x2002;" horiz-adv-x="568" />
<glyph unicode="&#x2003;" horiz-adv-x="1137" />
<glyph unicode="&#x2004;" horiz-adv-x="379" />
<glyph unicode="&#x2005;" horiz-adv-x="284" />
<glyph unicode="&#x2006;" horiz-adv-x="189" />
<glyph unicode="&#x2007;" horiz-adv-x="189" />
<glyph unicode="&#x2008;" horiz-adv-x="142" />
<glyph unicode="&#x2009;" horiz-adv-x="227" />
<glyph unicode="&#x200a;" horiz-adv-x="63" />
<glyph unicode="&#x2010;" horiz-adv-x="392" d="M334 305v-98h-276v98h276z" />
<glyph unicode="&#x2011;" horiz-adv-x="392" d="M334 305v-98h-276v98h276z" />
<glyph unicode="&#x2013;" horiz-adv-x="500" d="M58 207v98h384v-98h-384z" />
<glyph unicode="&#x2014;" horiz-adv-x="1000" d="M58 207v98h884v-98h-884z" />
<glyph unicode="&#x2018;" horiz-adv-x="306" d="M199 463q-12 -49 -72 -49h-83q43 131 105 277l119 13q-43 -134 -69 -241z" />
<glyph unicode="&#x2019;" horiz-adv-x="306" d="M107 655q12 49 72 49h83q-43 -131 -105 -277l-119 -13q45 140 69 241z" />
<glyph unicode="&#x201c;" horiz-adv-x="521" d="M199 463q-12 -49 -72 -49h-83q43 131 105 277l119 13q-43 -134 -69 -241zM414 463q-12 -49 -72 -49h-83q43 131 105 277l119 13q-43 -134 -69 -241z" />
<glyph unicode="&#x201d;" horiz-adv-x="521" d="M322 655q12 49 72 49h83q-43 -131 -105 -277l-119 -13q45 140 69 241zM107 655q12 49 72 49h83q-43 -131 -105 -277l-119 -13q45 140 69 241z" />
<glyph unicode="&#x2026;" horiz-adv-x="750" d="M625 148q33 0 56 -23t23 -56t-23 -56t-56 -23t-56 23t-23 56t23 56t56 23zM375 148q33 0 56 -23t23 -56t-23 -56t-56 -23t-56 23t-23 56t23 56t56 23zM125 148q33 0 56 -23t23 -56t-23 -56t-56 -23t-56 23t-23 56t23 56t56 23z" />
<glyph unicode="&#x202f;" horiz-adv-x="227" />
<glyph unicode="&#x2039;" horiz-adv-x="470" d="M138 263l279 -132v-126l-386 196v126l386 196v-126l-279 -131v-3z" />
<glyph unicode="&#x203a;" horiz-adv-x="470" d="M332 263v3l-279 131v126l386 -196v-126l-386 -196v126z" />
<glyph unicode="&#x205f;" horiz-adv-x="284" />
<glyph unicode="&#x2122;" horiz-adv-x="1441" d="M1188 654h164l23 -654h-134l-6 327v25q0 75 5 135h-3q-17 -83 -45 -160l-114 -307h-140l-111 307q-34 94 -44 156h-3q6 -48 6 -109q0 -22 -1 -47l-6 -327h-126l23 654h164l116 -327q50 -140 55 -195h3q5 51 56 195zM575 678v-107h-214v-571h-134v571h-212v107h560z" />
</font>
</defs>
</svg>
